%TF.GenerationSoftware,KiCad,Pcbnew,(5.1.8-0-10_14)*%
%TF.CreationDate,2021-04-23T13:19:29-04:00*%
%TF.ProjectId,Data Collection Shield for Chest Strap Assembly,44617461-2043-46f6-9c6c-656374696f6e,rev?*%
%TF.SameCoordinates,Original*%
%TF.FileFunction,Copper,L4,Bot*%
%TF.FilePolarity,Positive*%
%FSLAX46Y46*%
G04 Gerber Fmt 4.6, Leading zero omitted, Abs format (unit mm)*
G04 Created by KiCad (PCBNEW (5.1.8-0-10_14)) date 2021-04-23 13:19:29*
%MOMM*%
%LPD*%
G01*
G04 APERTURE LIST*
%TA.AperFunction,ComponentPad*%
%ADD10C,1.524000*%
%TD*%
%TA.AperFunction,ComponentPad*%
%ADD11O,1.700000X1.700000*%
%TD*%
%TA.AperFunction,ComponentPad*%
%ADD12R,1.700000X1.700000*%
%TD*%
%TA.AperFunction,SMDPad,CuDef*%
%ADD13R,1.200000X1.200000*%
%TD*%
%TA.AperFunction,ViaPad*%
%ADD14C,0.685000*%
%TD*%
%TA.AperFunction,ViaPad*%
%ADD15C,0.800000*%
%TD*%
%TA.AperFunction,Conductor*%
%ADD16C,1.000000*%
%TD*%
%TA.AperFunction,Conductor*%
%ADD17C,0.250000*%
%TD*%
G04 APERTURE END LIST*
D10*
%TO.P,J1,15*%
%TO.N,SIG_IN2*%
X177926000Y-49981000D03*
%TO.P,J1,14*%
%TO.N,SIG_IN1*%
X177926000Y-52721000D03*
%TO.P,J1,13*%
%TO.N,SIG_IN0*%
X177926000Y-55461000D03*
%TO.P,J1,12*%
%TO.N,CH6*%
X177926000Y-58201000D03*
%TO.P,J1,11*%
%TO.N,FLEX_SCL*%
X177926000Y-60941000D03*
%TO.P,J1,10*%
%TO.N,FLEX_SDA*%
X177926000Y-63681000D03*
%TO.P,J1,9*%
%TO.N,FLEX_nDRDY*%
X177926000Y-66421000D03*
%TO.P,J1,8*%
%TO.N,FLEX_nRST*%
X175086000Y-48449000D03*
%TO.P,J1,7*%
%TO.N,SIG_IN3*%
X175086000Y-51189000D03*
%TO.P,J1,6*%
%TO.N,SIG_IN4*%
X175086000Y-53929000D03*
%TO.P,J1,5*%
%TO.N,SIG_IN5*%
X175086000Y-56669000D03*
%TO.P,J1,4*%
%TO.N,10V*%
X175086000Y-59409000D03*
%TO.P,J1,3*%
%TO.N,5V*%
X175086000Y-62149000D03*
%TO.P,J1,2*%
%TO.N,3.3V*%
X175086000Y-64889000D03*
%TO.P,J1,1*%
%TO.N,AGND*%
X175086000Y-67629000D03*
%TD*%
%TO.P,U3,5*%
%TO.N,Net-(C13-Pad1)*%
X104316000Y-138684000D03*
%TO.P,U3,3*%
%TO.N,Net-(U3-Pad3)*%
X104316000Y-136144000D03*
%TO.P,U3,4*%
%TO.N,AGND*%
X104316000Y-133604000D03*
%TO.P,U3,2*%
%TO.N,DGND*%
X104316000Y-125984000D03*
%TO.P,U3,1*%
%TO.N,Net-(C8-Pad1)*%
X104316000Y-123444000D03*
%TD*%
D11*
%TO.P,U8,20*%
%TO.N,DGND*%
X111252000Y-143510000D03*
%TO.P,U8,19*%
%TO.N,5V_IN*%
X113792000Y-143510000D03*
%TO.P,U8,18*%
%TO.N,Net-(U8-Pad18)*%
X116332000Y-143510000D03*
%TO.P,U8,17*%
%TO.N,Net-(U8-Pad17)*%
X118872000Y-143510000D03*
%TO.P,U8,16*%
%TO.N,Net-(U8-Pad16)*%
X121412000Y-143510000D03*
%TO.P,U8,15*%
%TO.N,Net-(U8-Pad15)*%
X123952000Y-143510000D03*
%TO.P,U8,14*%
%TO.N,DGND*%
X126492000Y-143510000D03*
%TO.P,U8,13*%
%TO.N,Net-(U8-Pad13)*%
X129032000Y-143510000D03*
%TO.P,U8,12*%
%TO.N,DGND*%
X131572000Y-143510000D03*
%TO.P,U8,11*%
%TO.N,Net-(U8-Pad11)*%
X134112000Y-143510000D03*
%TO.P,U8,10*%
%TO.N,DGND*%
X136652000Y-143510000D03*
%TO.P,U8,9*%
%TO.N,Net-(U8-Pad9)*%
X139192000Y-143510000D03*
%TO.P,U8,8*%
%TO.N,DGND*%
X141732000Y-143510000D03*
%TO.P,U8,7*%
%TO.N,FLEX_nRST*%
X144272000Y-143510000D03*
%TO.P,U8,6*%
%TO.N,DGND*%
X146812000Y-143510000D03*
%TO.P,U8,5*%
%TO.N,FLEX_nDRDY*%
X149352000Y-143510000D03*
%TO.P,U8,4*%
%TO.N,DGND*%
X151892000Y-143510000D03*
%TO.P,U8,3*%
%TO.N,FLEX_SDA*%
X154432000Y-143510000D03*
%TO.P,U8,2*%
%TO.N,DGND*%
X156972000Y-143510000D03*
D12*
%TO.P,U8,1*%
%TO.N,FLEX_SCL*%
X159512000Y-143510000D03*
%TD*%
D13*
%TO.P,C20,1*%
%TO.N,10V*%
X140335000Y-74837000D03*
%TO.P,C20,2*%
%TO.N,AGND*%
X140335000Y-72737000D03*
%TD*%
%TO.P,C21,1*%
%TO.N,10V*%
X123190000Y-74710000D03*
%TO.P,C21,2*%
%TO.N,AGND*%
X123190000Y-72610000D03*
%TD*%
%TO.P,C22,1*%
%TO.N,10V*%
X156464000Y-74710000D03*
%TO.P,C22,2*%
%TO.N,AGND*%
X156464000Y-72610000D03*
%TD*%
D11*
%TO.P,U10,20*%
%TO.N,AGND*%
X111252000Y-81280000D03*
%TO.P,U10,19*%
X113792000Y-81280000D03*
%TO.P,U10,18*%
X116332000Y-81280000D03*
%TO.P,U10,17*%
%TO.N,Net-(U10-Pad17)*%
X118872000Y-81280000D03*
%TO.P,U10,16*%
%TO.N,AGND*%
X121412000Y-81280000D03*
%TO.P,U10,15*%
%TO.N,Net-(U10-Pad15)*%
X123952000Y-81280000D03*
%TO.P,U10,14*%
%TO.N,AGND*%
X126492000Y-81280000D03*
%TO.P,U10,13*%
%TO.N,CH6*%
X129032000Y-81280000D03*
%TO.P,U10,12*%
%TO.N,AGND*%
X131572000Y-81280000D03*
%TO.P,U10,11*%
%TO.N,CH5*%
X134112000Y-81280000D03*
%TO.P,U10,10*%
%TO.N,AGND*%
X136652000Y-81280000D03*
%TO.P,U10,9*%
%TO.N,CH4*%
X139192000Y-81280000D03*
%TO.P,U10,8*%
%TO.N,AGND*%
X141732000Y-81280000D03*
%TO.P,U10,7*%
%TO.N,CH3*%
X144272000Y-81280000D03*
%TO.P,U10,6*%
%TO.N,AGND*%
X146812000Y-81280000D03*
%TO.P,U10,5*%
%TO.N,CH2*%
X149352000Y-81280000D03*
%TO.P,U10,4*%
%TO.N,AGND*%
X151892000Y-81280000D03*
%TO.P,U10,3*%
%TO.N,CH1*%
X154432000Y-81280000D03*
%TO.P,U10,2*%
%TO.N,AGND*%
X156972000Y-81280000D03*
D12*
%TO.P,U10,1*%
%TO.N,CH0*%
X159512000Y-81280000D03*
%TD*%
D14*
%TO.N,5V*%
X112395000Y-90043000D03*
X153716000Y-62149000D03*
X137241000Y-62149000D03*
X118572000Y-62149000D03*
D15*
%TO.N,AGND*%
X120269000Y-104013000D03*
D14*
X128079500Y-71818500D03*
X145288000Y-71818500D03*
X161226500Y-71818500D03*
%TO.N,10V*%
X104013000Y-93853000D03*
X120599200Y-76847700D03*
X137744200Y-76847700D03*
X153809700Y-76847700D03*
%TO.N,3.3V*%
X159385000Y-85852000D03*
%TO.N,SIG_IN0*%
X168148000Y-45593000D03*
%TO.N,SIG_IN2*%
X168148000Y-43434000D03*
X153416000Y-43434000D03*
%TO.N,SIG_IN3*%
X134620000Y-60071000D03*
%TO.N,SIG_IN4*%
X128016000Y-59817000D03*
X170815000Y-52451000D03*
%TO.N,SIG_IN5*%
X113665000Y-60198000D03*
X142494000Y-53975000D03*
X170180000Y-54229000D03*
%TD*%
D16*
%TO.N,5V*%
X108412000Y-62149000D02*
X101219000Y-69342000D01*
X101219000Y-69342000D02*
X101219000Y-81788000D01*
X101219000Y-81788000D02*
X107569000Y-88138000D01*
X110490000Y-88138000D02*
X112395000Y-90043000D01*
X107569000Y-88138000D02*
X110490000Y-88138000D01*
X175086000Y-62149000D02*
X153716000Y-62149000D01*
X153716000Y-62149000D02*
X137241000Y-62149000D01*
X118572000Y-62149000D02*
X108412000Y-62149000D01*
X137241000Y-62149000D02*
X118572000Y-62149000D01*
%TO.N,AGND*%
X111125000Y-81153000D02*
X111252000Y-81280000D01*
X123981500Y-71818500D02*
X123190000Y-72610000D01*
X128079500Y-71818500D02*
X123981500Y-71818500D01*
X144369500Y-72737000D02*
X145288000Y-71818500D01*
X140335000Y-72737000D02*
X144369500Y-72737000D01*
X160435000Y-72610000D02*
X161226500Y-71818500D01*
X156464000Y-72610000D02*
X160435000Y-72610000D01*
%TO.N,10V*%
X121052300Y-76847700D02*
X123190000Y-74710000D01*
X120599200Y-76847700D02*
X121052300Y-76847700D01*
X139754900Y-74837000D02*
X137744200Y-76847700D01*
X140335000Y-74837000D02*
X139754900Y-74837000D01*
X154326300Y-76847700D02*
X156464000Y-74710000D01*
X153809700Y-76847700D02*
X154326300Y-76847700D01*
%TO.N,3.3V*%
X159385000Y-85852000D02*
X169545000Y-85852000D01*
X169545000Y-85852000D02*
X171069000Y-84328000D01*
X171069000Y-68906000D02*
X175086000Y-64889000D01*
X171069000Y-84328000D02*
X171069000Y-68906000D01*
D17*
%TO.N,SIG_IN0*%
X180378000Y-55461000D02*
X177926000Y-55461000D01*
X182499000Y-53340000D02*
X180378000Y-55461000D01*
X179070000Y-45593000D02*
X182499000Y-49022000D01*
X182499000Y-49022000D02*
X182499000Y-53340000D01*
X168148000Y-45593000D02*
X179070000Y-45593000D01*
%TO.N,SIG_IN2*%
X168148000Y-43434000D02*
X153416000Y-43434000D01*
X153416000Y-43434000D02*
X153416000Y-43434000D01*
%TO.N,SIG_IN3*%
X166204000Y-60071000D02*
X175086000Y-51189000D01*
X134620000Y-60071000D02*
X166204000Y-60071000D01*
%TO.N,SIG_IN4*%
X135382000Y-52451000D02*
X170815000Y-52451000D01*
X128016000Y-59817000D02*
X135382000Y-52451000D01*
%TO.N,SIG_IN5*%
X169926000Y-53975000D02*
X170180000Y-54229000D01*
X142494000Y-53975000D02*
X169926000Y-53975000D01*
%TO.N,CH6*%
X129032000Y-81280000D02*
X136906000Y-89154000D01*
X172720000Y-89154000D02*
X182594419Y-79279582D01*
X136906000Y-89154000D02*
X172720000Y-89154000D01*
X182571067Y-62846067D02*
X177926000Y-58201000D01*
X182594419Y-79279582D02*
X182571067Y-62846067D01*
%TD*%
M02*
