%TF.GenerationSoftware,KiCad,Pcbnew,(5.1.8-0-10_14)*%
%TF.CreationDate,2021-04-23T13:19:29-04:00*%
%TF.ProjectId,Data Collection Shield for Chest Strap Assembly,44617461-2043-46f6-9c6c-656374696f6e,rev?*%
%TF.SameCoordinates,Original*%
%TF.FileFunction,Legend,Top*%
%TF.FilePolarity,Positive*%
%FSLAX46Y46*%
G04 Gerber Fmt 4.6, Leading zero omitted, Abs format (unit mm)*
G04 Created by KiCad (PCBNEW (5.1.8-0-10_14)) date 2021-04-23 13:19:29*
%MOMM*%
%LPD*%
G01*
G04 APERTURE LIST*
%ADD10C,0.300000*%
%ADD11C,0.120000*%
%ADD12C,0.254000*%
%ADD13C,0.050000*%
%ADD14C,0.150000*%
G04 APERTURE END LIST*
D10*
X110315428Y-140267571D02*
X110315428Y-141267571D01*
X109958285Y-139696142D02*
X109601142Y-140767571D01*
X110529714Y-140767571D01*
X111386857Y-139767571D02*
X111529714Y-139767571D01*
X111672571Y-139839000D01*
X111744000Y-139910428D01*
X111815428Y-140053285D01*
X111886857Y-140339000D01*
X111886857Y-140696142D01*
X111815428Y-140981857D01*
X111744000Y-141124714D01*
X111672571Y-141196142D01*
X111529714Y-141267571D01*
X111386857Y-141267571D01*
X111244000Y-141196142D01*
X111172571Y-141124714D01*
X111101142Y-140981857D01*
X111029714Y-140696142D01*
X111029714Y-140339000D01*
X111101142Y-140053285D01*
X111172571Y-139910428D01*
X111244000Y-139839000D01*
X111386857Y-139767571D01*
X107823142Y-83395428D02*
X107894571Y-83324000D01*
X108037428Y-83252571D01*
X108394571Y-83252571D01*
X108537428Y-83324000D01*
X108608857Y-83395428D01*
X108680285Y-83538285D01*
X108680285Y-83681142D01*
X108608857Y-83895428D01*
X107751714Y-84752571D01*
X108680285Y-84752571D01*
X109608857Y-83252571D02*
X109751714Y-83252571D01*
X109894571Y-83324000D01*
X109966000Y-83395428D01*
X110037428Y-83538285D01*
X110108857Y-83824000D01*
X110108857Y-84181142D01*
X110037428Y-84466857D01*
X109966000Y-84609714D01*
X109894571Y-84681142D01*
X109751714Y-84752571D01*
X109608857Y-84752571D01*
X109466000Y-84681142D01*
X109394571Y-84609714D01*
X109323142Y-84466857D01*
X109251714Y-84181142D01*
X109251714Y-83824000D01*
X109323142Y-83538285D01*
X109394571Y-83395428D01*
X109466000Y-83324000D01*
X109608857Y-83252571D01*
X159004142Y-139900428D02*
X159075571Y-139829000D01*
X159218428Y-139757571D01*
X159575571Y-139757571D01*
X159718428Y-139829000D01*
X159789857Y-139900428D01*
X159861285Y-140043285D01*
X159861285Y-140186142D01*
X159789857Y-140400428D01*
X158932714Y-141257571D01*
X159861285Y-141257571D01*
X161289857Y-141257571D02*
X160432714Y-141257571D01*
X160861285Y-141257571D02*
X160861285Y-139757571D01*
X160718428Y-139971857D01*
X160575571Y-140114714D01*
X160432714Y-140186142D01*
X161083571Y-84811071D02*
X160226428Y-84811071D01*
X160655000Y-84811071D02*
X160655000Y-83311071D01*
X160512142Y-83525357D01*
X160369285Y-83668214D01*
X160226428Y-83739642D01*
D11*
%TO.C,J1*%
X169566000Y-77649000D02*
X169566000Y-38429000D01*
X183416000Y-38429000D02*
X169566000Y-38429000D01*
X183416000Y-77649000D02*
X169566000Y-77649000D01*
X183416000Y-77649000D02*
X183416000Y-38429000D01*
X178216000Y-41379000D02*
G75*
G03*
X178216000Y-41379000I-1550000J0D01*
G01*
X178216000Y-74699000D02*
G75*
G03*
X178216000Y-74699000I-1550000J0D01*
G01*
%TO.C,D1*%
X115967000Y-133167000D02*
X118652000Y-133167000D01*
X118652000Y-133167000D02*
X118652000Y-131247000D01*
X118652000Y-131247000D02*
X115967000Y-131247000D01*
%TO.C,U9*%
X123679000Y-100040000D02*
X123679000Y-106050000D01*
X116859000Y-102290000D02*
X116859000Y-106050000D01*
X123679000Y-106050000D02*
X122419000Y-106050000D01*
X116859000Y-106050000D02*
X118119000Y-106050000D01*
%TO.C,U3*%
X107516000Y-121314000D02*
X97716000Y-121314000D01*
X107516000Y-140814000D02*
X97716000Y-140814000D01*
X97716000Y-121314000D02*
X97716000Y-140814000D01*
X107516000Y-121314000D02*
X107516000Y-140814000D01*
%TO.C,U8*%
X158242000Y-142180000D02*
X158242000Y-144840000D01*
X158242000Y-142180000D02*
X109922000Y-142180000D01*
X109922000Y-142180000D02*
X109922000Y-144840000D01*
X158242000Y-144840000D02*
X109922000Y-144840000D01*
X160842000Y-144840000D02*
X159512000Y-144840000D01*
X160842000Y-143510000D02*
X160842000Y-144840000D01*
%TO.C,U1*%
X158214800Y-76123500D02*
X154814800Y-76123500D01*
X158214800Y-71323500D02*
X154814800Y-71323500D01*
D12*
X157641800Y-75628500D02*
G75*
G03*
X157641800Y-75628500I-127000J0D01*
G01*
D11*
X154814800Y-76123500D02*
X154814800Y-71323500D01*
X158214800Y-76123500D02*
X158214800Y-71323500D01*
%TO.C,U2*%
X142162000Y-76123500D02*
X138762000Y-76123500D01*
X142162000Y-71323500D02*
X138762000Y-71323500D01*
D12*
X141589000Y-75628500D02*
G75*
G03*
X141589000Y-75628500I-127000J0D01*
G01*
D11*
X138762000Y-76123500D02*
X138762000Y-71323500D01*
X142162000Y-76123500D02*
X142162000Y-71323500D01*
D13*
%TO.C,C1*%
X112690000Y-137758000D02*
X110830000Y-137758000D01*
X112690000Y-133958000D02*
X110830000Y-133958000D01*
X110830000Y-137758000D02*
X110830000Y-133958000D01*
X112690000Y-137758000D02*
X112690000Y-133958000D01*
%TO.C,C2*%
X164823500Y-76102000D02*
X164823500Y-72302000D01*
X162963500Y-76102000D02*
X162963500Y-72302000D01*
X164823500Y-72302000D02*
X162963500Y-72302000D01*
X164823500Y-76102000D02*
X162963500Y-76102000D01*
%TO.C,C3*%
X152504500Y-75594000D02*
X152504500Y-71794000D01*
X150644500Y-75594000D02*
X150644500Y-71794000D01*
X152504500Y-71794000D02*
X150644500Y-71794000D01*
X152504500Y-75594000D02*
X150644500Y-75594000D01*
%TO.C,C4*%
X147170500Y-76673500D02*
X147170500Y-72873500D01*
X145310500Y-76673500D02*
X145310500Y-72873500D01*
X147170500Y-72873500D02*
X145310500Y-72873500D01*
X147170500Y-76673500D02*
X145310500Y-76673500D01*
%TO.C,C5*%
X159807000Y-66509000D02*
X159807000Y-62709000D01*
X157947000Y-66509000D02*
X157947000Y-62709000D01*
X159807000Y-62709000D02*
X157947000Y-62709000D01*
X159807000Y-66509000D02*
X157947000Y-66509000D01*
%TO.C,C6*%
X157711500Y-66513500D02*
X157711500Y-62713500D01*
X155851500Y-66513500D02*
X155851500Y-62713500D01*
X157711500Y-62713500D02*
X155851500Y-62713500D01*
X157711500Y-66513500D02*
X155851500Y-66513500D01*
%TO.C,C7*%
X142696000Y-66543000D02*
X142696000Y-62743000D01*
X140836000Y-66543000D02*
X140836000Y-62743000D01*
X142696000Y-62743000D02*
X140836000Y-62743000D01*
X142696000Y-66543000D02*
X140836000Y-66543000D01*
%TO.C,C8*%
X119085000Y-133768000D02*
X120945000Y-133768000D01*
X119085000Y-137568000D02*
X120945000Y-137568000D01*
X120945000Y-133768000D02*
X120945000Y-137568000D01*
X119085000Y-133768000D02*
X119085000Y-137568000D01*
%TO.C,C9*%
X101493000Y-115801500D02*
X105293000Y-115801500D01*
X101493000Y-113941500D02*
X105293000Y-113941500D01*
X105293000Y-115801500D02*
X105293000Y-113941500D01*
X101493000Y-115801500D02*
X101493000Y-113941500D01*
%TO.C,C10*%
X136439000Y-75086000D02*
X136439000Y-71286000D01*
X134579000Y-75086000D02*
X134579000Y-71286000D01*
X136439000Y-71286000D02*
X134579000Y-71286000D01*
X136439000Y-75086000D02*
X134579000Y-75086000D01*
%TO.C,C11*%
X127606000Y-74907500D02*
X131406000Y-74907500D01*
X127606000Y-73047500D02*
X131406000Y-73047500D01*
X131406000Y-74907500D02*
X131406000Y-73047500D01*
X127606000Y-74907500D02*
X127606000Y-73047500D01*
%TO.C,C12*%
X119357500Y-75149500D02*
X119357500Y-71349500D01*
X117497500Y-75149500D02*
X117497500Y-71349500D01*
X119357500Y-71349500D02*
X117497500Y-71349500D01*
X119357500Y-75149500D02*
X117497500Y-75149500D01*
%TO.C,C13*%
X101522500Y-113769500D02*
X105322500Y-113769500D01*
X101522500Y-111909500D02*
X105322500Y-111909500D01*
X105322500Y-113769500D02*
X105322500Y-111909500D01*
X101522500Y-113769500D02*
X101522500Y-111909500D01*
%TO.C,C14*%
X140630000Y-66543000D02*
X140630000Y-62743000D01*
X138770000Y-66543000D02*
X138770000Y-62743000D01*
X140630000Y-62743000D02*
X138770000Y-62743000D01*
X140630000Y-66543000D02*
X138770000Y-66543000D01*
%TO.C,C15*%
X124183500Y-66636000D02*
X124183500Y-62836000D01*
X122323500Y-66636000D02*
X122323500Y-62836000D01*
X124183500Y-62836000D02*
X122323500Y-62836000D01*
X124183500Y-66636000D02*
X122323500Y-66636000D01*
%TO.C,C16*%
X122215000Y-66640500D02*
X122215000Y-62840500D01*
X120355000Y-66640500D02*
X120355000Y-62840500D01*
X122215000Y-62840500D02*
X120355000Y-62840500D01*
X122215000Y-66640500D02*
X120355000Y-66640500D01*
D11*
%TO.C,C17*%
X98600000Y-98992000D02*
X105360000Y-98992000D01*
X105360000Y-98992000D02*
X105360000Y-95572000D01*
X105360000Y-95572000D02*
X98600000Y-95572000D01*
D13*
%TO.C,C18*%
X113412000Y-98808000D02*
X109092000Y-98808000D01*
X109092000Y-98808000D02*
X109092000Y-95248000D01*
X109092000Y-95248000D02*
X113412000Y-95248000D01*
X113412000Y-95248000D02*
X113412000Y-98808000D01*
%TO.C,C19*%
X117977000Y-96005000D02*
X117977000Y-98305000D01*
X117977000Y-98305000D02*
X123577000Y-98305000D01*
X123577000Y-98305000D02*
X123577000Y-96005000D01*
X123577000Y-96005000D02*
X117977000Y-96005000D01*
%TO.C,L1*%
X118747000Y-137923000D02*
X115187000Y-137923000D01*
X118747000Y-133603000D02*
X118747000Y-137923000D01*
X115187000Y-133603000D02*
X118747000Y-133603000D01*
X115187000Y-137923000D02*
X115187000Y-133603000D01*
%TO.C,R1*%
X163998000Y-70768000D02*
X163998000Y-66968000D01*
X162138000Y-70768000D02*
X162138000Y-66968000D01*
X163998000Y-66968000D02*
X162138000Y-66968000D01*
X163998000Y-70768000D02*
X162138000Y-70768000D01*
%TO.C,R2*%
X150466000Y-69129000D02*
X154266000Y-69129000D01*
X150466000Y-67269000D02*
X154266000Y-67269000D01*
X154266000Y-69129000D02*
X154266000Y-67269000D01*
X150466000Y-69129000D02*
X150466000Y-67269000D01*
%TO.C,R3*%
X147742000Y-70700000D02*
X147742000Y-66900000D01*
X145882000Y-70700000D02*
X145882000Y-66900000D01*
X147742000Y-66900000D02*
X145882000Y-66900000D01*
X147742000Y-70700000D02*
X145882000Y-70700000D01*
%TO.C,R4*%
X114849000Y-137758000D02*
X112989000Y-137758000D01*
X114849000Y-133958000D02*
X112989000Y-133958000D01*
X112989000Y-137758000D02*
X112989000Y-133958000D01*
X114849000Y-137758000D02*
X114849000Y-133958000D01*
%TO.C,R5*%
X158086000Y-70780000D02*
X161886000Y-70780000D01*
X158086000Y-68920000D02*
X161886000Y-68920000D01*
X161886000Y-70780000D02*
X161886000Y-68920000D01*
X158086000Y-70780000D02*
X158086000Y-68920000D01*
%TO.C,R6*%
X154266000Y-69301000D02*
X150466000Y-69301000D01*
X154266000Y-71161000D02*
X150466000Y-71161000D01*
X150466000Y-69301000D02*
X150466000Y-71161000D01*
X154266000Y-69301000D02*
X154266000Y-71161000D01*
%TO.C,R7*%
X141893500Y-70716500D02*
X145693500Y-70716500D01*
X141893500Y-68856500D02*
X145693500Y-68856500D01*
X145693500Y-70716500D02*
X145693500Y-68856500D01*
X141893500Y-70716500D02*
X141893500Y-68856500D01*
%TO.C,R8*%
X134654500Y-68938500D02*
X138454500Y-68938500D01*
X134654500Y-67078500D02*
X138454500Y-67078500D01*
X138454500Y-68938500D02*
X138454500Y-67078500D01*
X134654500Y-68938500D02*
X134654500Y-67078500D01*
%TO.C,R9*%
X128882500Y-70387000D02*
X128882500Y-66587000D01*
X127022500Y-70387000D02*
X127022500Y-66587000D01*
X128882500Y-66587000D02*
X127022500Y-66587000D01*
X128882500Y-70387000D02*
X127022500Y-70387000D01*
%TO.C,R10*%
X116684000Y-68875000D02*
X120484000Y-68875000D01*
X116684000Y-67015000D02*
X120484000Y-67015000D01*
X120484000Y-68875000D02*
X120484000Y-67015000D01*
X116684000Y-68875000D02*
X116684000Y-67015000D01*
%TO.C,R11*%
X138454500Y-69110500D02*
X134654500Y-69110500D01*
X138454500Y-70970500D02*
X134654500Y-70970500D01*
X134654500Y-69110500D02*
X134654500Y-70970500D01*
X138454500Y-69110500D02*
X138454500Y-70970500D01*
%TO.C,R12*%
X123004500Y-70433000D02*
X126804500Y-70433000D01*
X123004500Y-68573000D02*
X126804500Y-68573000D01*
X126804500Y-70433000D02*
X126804500Y-68573000D01*
X123004500Y-70433000D02*
X123004500Y-68573000D01*
%TO.C,R13*%
X120484000Y-68983500D02*
X116684000Y-68983500D01*
X120484000Y-70843500D02*
X116684000Y-70843500D01*
X116684000Y-68983500D02*
X116684000Y-70843500D01*
X120484000Y-68983500D02*
X120484000Y-70843500D01*
D11*
%TO.C,U4*%
X124966200Y-76123500D02*
X121566200Y-76123500D01*
X124966200Y-71323500D02*
X121566200Y-71323500D01*
D12*
X124393200Y-75628500D02*
G75*
G03*
X124393200Y-75628500I-127000J0D01*
G01*
D11*
X121566200Y-76123500D02*
X121566200Y-71323500D01*
X124966200Y-76123500D02*
X124966200Y-71323500D01*
%TO.C,U5*%
X105264000Y-100040000D02*
X105264000Y-106050000D01*
X98444000Y-102290000D02*
X98444000Y-106050000D01*
X105264000Y-106050000D02*
X104004000Y-106050000D01*
X98444000Y-106050000D02*
X99704000Y-106050000D01*
%TO.C,U6*%
X114535000Y-100040000D02*
X114535000Y-106050000D01*
X107715000Y-102290000D02*
X107715000Y-106050000D01*
X114535000Y-106050000D02*
X113275000Y-106050000D01*
X107715000Y-106050000D02*
X108975000Y-106050000D01*
%TO.C,U10*%
X158242000Y-79950000D02*
X158242000Y-82610000D01*
X158242000Y-79950000D02*
X109922000Y-79950000D01*
X109922000Y-79950000D02*
X109922000Y-82610000D01*
X158242000Y-82610000D02*
X109922000Y-82610000D01*
X160842000Y-82610000D02*
X159512000Y-82610000D01*
X160842000Y-81280000D02*
X160842000Y-82610000D01*
%TO.C,J1*%
D14*
X181845666Y-39076380D02*
X181845666Y-39790666D01*
X181798047Y-39933523D01*
X181702809Y-40028761D01*
X181559952Y-40076380D01*
X181464714Y-40076380D01*
X182845666Y-40076380D02*
X182274238Y-40076380D01*
X182559952Y-40076380D02*
X182559952Y-39076380D01*
X182464714Y-39219238D01*
X182369476Y-39314476D01*
X182274238Y-39362095D01*
%TO.C,D1*%
X119022904Y-132151380D02*
X119022904Y-131151380D01*
X119261000Y-131151380D01*
X119403857Y-131199000D01*
X119499095Y-131294238D01*
X119546714Y-131389476D01*
X119594333Y-131579952D01*
X119594333Y-131722809D01*
X119546714Y-131913285D01*
X119499095Y-132008523D01*
X119403857Y-132103761D01*
X119261000Y-132151380D01*
X119022904Y-132151380D01*
X120546714Y-132151380D02*
X119975285Y-132151380D01*
X120261000Y-132151380D02*
X120261000Y-131151380D01*
X120165761Y-131294238D01*
X120070523Y-131389476D01*
X119975285Y-131437095D01*
%TO.C,U9*%
X116040095Y-106411380D02*
X116040095Y-107220904D01*
X116087714Y-107316142D01*
X116135333Y-107363761D01*
X116230571Y-107411380D01*
X116421047Y-107411380D01*
X116516285Y-107363761D01*
X116563904Y-107316142D01*
X116611523Y-107220904D01*
X116611523Y-106411380D01*
X117135333Y-107411380D02*
X117325809Y-107411380D01*
X117421047Y-107363761D01*
X117468666Y-107316142D01*
X117563904Y-107173285D01*
X117611523Y-106982809D01*
X117611523Y-106601857D01*
X117563904Y-106506619D01*
X117516285Y-106459000D01*
X117421047Y-106411380D01*
X117230571Y-106411380D01*
X117135333Y-106459000D01*
X117087714Y-106506619D01*
X117040095Y-106601857D01*
X117040095Y-106839952D01*
X117087714Y-106935190D01*
X117135333Y-106982809D01*
X117230571Y-107030428D01*
X117421047Y-107030428D01*
X117516285Y-106982809D01*
X117563904Y-106935190D01*
X117611523Y-106839952D01*
%TO.C,U3*%
X101727095Y-130516380D02*
X101727095Y-131325904D01*
X101774714Y-131421142D01*
X101822333Y-131468761D01*
X101917571Y-131516380D01*
X102108047Y-131516380D01*
X102203285Y-131468761D01*
X102250904Y-131421142D01*
X102298523Y-131325904D01*
X102298523Y-130516380D01*
X102679476Y-130516380D02*
X103298523Y-130516380D01*
X102965190Y-130897333D01*
X103108047Y-130897333D01*
X103203285Y-130944952D01*
X103250904Y-130992571D01*
X103298523Y-131087809D01*
X103298523Y-131325904D01*
X103250904Y-131421142D01*
X103203285Y-131468761D01*
X103108047Y-131516380D01*
X102822333Y-131516380D01*
X102727095Y-131468761D01*
X102679476Y-131421142D01*
%TO.C,U1*%
X156705395Y-76287380D02*
X156705395Y-77096904D01*
X156753014Y-77192142D01*
X156800633Y-77239761D01*
X156895871Y-77287380D01*
X157086347Y-77287380D01*
X157181585Y-77239761D01*
X157229204Y-77192142D01*
X157276823Y-77096904D01*
X157276823Y-76287380D01*
X158276823Y-77287380D02*
X157705395Y-77287380D01*
X157991109Y-77287380D02*
X157991109Y-76287380D01*
X157895871Y-76430238D01*
X157800633Y-76525476D01*
X157705395Y-76573095D01*
%TO.C,U2*%
X140652595Y-76287380D02*
X140652595Y-77096904D01*
X140700214Y-77192142D01*
X140747833Y-77239761D01*
X140843071Y-77287380D01*
X141033547Y-77287380D01*
X141128785Y-77239761D01*
X141176404Y-77192142D01*
X141224023Y-77096904D01*
X141224023Y-76287380D01*
X141652595Y-76382619D02*
X141700214Y-76335000D01*
X141795452Y-76287380D01*
X142033547Y-76287380D01*
X142128785Y-76335000D01*
X142176404Y-76382619D01*
X142224023Y-76477857D01*
X142224023Y-76573095D01*
X142176404Y-76715952D01*
X141604976Y-77287380D01*
X142224023Y-77287380D01*
%TO.C,C1*%
X111593333Y-133548142D02*
X111545714Y-133595761D01*
X111402857Y-133643380D01*
X111307619Y-133643380D01*
X111164761Y-133595761D01*
X111069523Y-133500523D01*
X111021904Y-133405285D01*
X110974285Y-133214809D01*
X110974285Y-133071952D01*
X111021904Y-132881476D01*
X111069523Y-132786238D01*
X111164761Y-132691000D01*
X111307619Y-132643380D01*
X111402857Y-132643380D01*
X111545714Y-132691000D01*
X111593333Y-132738619D01*
X112545714Y-133643380D02*
X111974285Y-133643380D01*
X112260000Y-133643380D02*
X112260000Y-132643380D01*
X112164761Y-132786238D01*
X112069523Y-132881476D01*
X111974285Y-132929095D01*
%TO.C,C2*%
X165695333Y-73255142D02*
X165647714Y-73302761D01*
X165504857Y-73350380D01*
X165409619Y-73350380D01*
X165266761Y-73302761D01*
X165171523Y-73207523D01*
X165123904Y-73112285D01*
X165076285Y-72921809D01*
X165076285Y-72778952D01*
X165123904Y-72588476D01*
X165171523Y-72493238D01*
X165266761Y-72398000D01*
X165409619Y-72350380D01*
X165504857Y-72350380D01*
X165647714Y-72398000D01*
X165695333Y-72445619D01*
X166076285Y-72445619D02*
X166123904Y-72398000D01*
X166219142Y-72350380D01*
X166457238Y-72350380D01*
X166552476Y-72398000D01*
X166600095Y-72445619D01*
X166647714Y-72540857D01*
X166647714Y-72636095D01*
X166600095Y-72778952D01*
X166028666Y-73350380D01*
X166647714Y-73350380D01*
%TO.C,C3*%
X149566333Y-72683642D02*
X149518714Y-72731261D01*
X149375857Y-72778880D01*
X149280619Y-72778880D01*
X149137761Y-72731261D01*
X149042523Y-72636023D01*
X148994904Y-72540785D01*
X148947285Y-72350309D01*
X148947285Y-72207452D01*
X148994904Y-72016976D01*
X149042523Y-71921738D01*
X149137761Y-71826500D01*
X149280619Y-71778880D01*
X149375857Y-71778880D01*
X149518714Y-71826500D01*
X149566333Y-71874119D01*
X149899666Y-71778880D02*
X150518714Y-71778880D01*
X150185380Y-72159833D01*
X150328238Y-72159833D01*
X150423476Y-72207452D01*
X150471095Y-72255071D01*
X150518714Y-72350309D01*
X150518714Y-72588404D01*
X150471095Y-72683642D01*
X150423476Y-72731261D01*
X150328238Y-72778880D01*
X150042523Y-72778880D01*
X149947285Y-72731261D01*
X149899666Y-72683642D01*
%TO.C,C4*%
X147978833Y-76430142D02*
X147931214Y-76477761D01*
X147788357Y-76525380D01*
X147693119Y-76525380D01*
X147550261Y-76477761D01*
X147455023Y-76382523D01*
X147407404Y-76287285D01*
X147359785Y-76096809D01*
X147359785Y-75953952D01*
X147407404Y-75763476D01*
X147455023Y-75668238D01*
X147550261Y-75573000D01*
X147693119Y-75525380D01*
X147788357Y-75525380D01*
X147931214Y-75573000D01*
X147978833Y-75620619D01*
X148835976Y-75858714D02*
X148835976Y-76525380D01*
X148597880Y-75477761D02*
X148359785Y-76192047D01*
X148978833Y-76192047D01*
%TO.C,C5*%
X160678833Y-63603142D02*
X160631214Y-63650761D01*
X160488357Y-63698380D01*
X160393119Y-63698380D01*
X160250261Y-63650761D01*
X160155023Y-63555523D01*
X160107404Y-63460285D01*
X160059785Y-63269809D01*
X160059785Y-63126952D01*
X160107404Y-62936476D01*
X160155023Y-62841238D01*
X160250261Y-62746000D01*
X160393119Y-62698380D01*
X160488357Y-62698380D01*
X160631214Y-62746000D01*
X160678833Y-62793619D01*
X161583595Y-62698380D02*
X161107404Y-62698380D01*
X161059785Y-63174571D01*
X161107404Y-63126952D01*
X161202642Y-63079333D01*
X161440738Y-63079333D01*
X161535976Y-63126952D01*
X161583595Y-63174571D01*
X161631214Y-63269809D01*
X161631214Y-63507904D01*
X161583595Y-63603142D01*
X161535976Y-63650761D01*
X161440738Y-63698380D01*
X161202642Y-63698380D01*
X161107404Y-63650761D01*
X161059785Y-63603142D01*
%TO.C,C6*%
X154709833Y-63666642D02*
X154662214Y-63714261D01*
X154519357Y-63761880D01*
X154424119Y-63761880D01*
X154281261Y-63714261D01*
X154186023Y-63619023D01*
X154138404Y-63523785D01*
X154090785Y-63333309D01*
X154090785Y-63190452D01*
X154138404Y-62999976D01*
X154186023Y-62904738D01*
X154281261Y-62809500D01*
X154424119Y-62761880D01*
X154519357Y-62761880D01*
X154662214Y-62809500D01*
X154709833Y-62857119D01*
X155566976Y-62761880D02*
X155376500Y-62761880D01*
X155281261Y-62809500D01*
X155233642Y-62857119D01*
X155138404Y-62999976D01*
X155090785Y-63190452D01*
X155090785Y-63571404D01*
X155138404Y-63666642D01*
X155186023Y-63714261D01*
X155281261Y-63761880D01*
X155471738Y-63761880D01*
X155566976Y-63714261D01*
X155614595Y-63666642D01*
X155662214Y-63571404D01*
X155662214Y-63333309D01*
X155614595Y-63238071D01*
X155566976Y-63190452D01*
X155471738Y-63142833D01*
X155281261Y-63142833D01*
X155186023Y-63190452D01*
X155138404Y-63238071D01*
X155090785Y-63333309D01*
%TO.C,C7*%
X143533833Y-63603142D02*
X143486214Y-63650761D01*
X143343357Y-63698380D01*
X143248119Y-63698380D01*
X143105261Y-63650761D01*
X143010023Y-63555523D01*
X142962404Y-63460285D01*
X142914785Y-63269809D01*
X142914785Y-63126952D01*
X142962404Y-62936476D01*
X143010023Y-62841238D01*
X143105261Y-62746000D01*
X143248119Y-62698380D01*
X143343357Y-62698380D01*
X143486214Y-62746000D01*
X143533833Y-62793619D01*
X143867166Y-62698380D02*
X144533833Y-62698380D01*
X144105261Y-63698380D01*
%TO.C,C8*%
X121753333Y-134628142D02*
X121705714Y-134675761D01*
X121562857Y-134723380D01*
X121467619Y-134723380D01*
X121324761Y-134675761D01*
X121229523Y-134580523D01*
X121181904Y-134485285D01*
X121134285Y-134294809D01*
X121134285Y-134151952D01*
X121181904Y-133961476D01*
X121229523Y-133866238D01*
X121324761Y-133771000D01*
X121467619Y-133723380D01*
X121562857Y-133723380D01*
X121705714Y-133771000D01*
X121753333Y-133818619D01*
X122324761Y-134151952D02*
X122229523Y-134104333D01*
X122181904Y-134056714D01*
X122134285Y-133961476D01*
X122134285Y-133913857D01*
X122181904Y-133818619D01*
X122229523Y-133771000D01*
X122324761Y-133723380D01*
X122515238Y-133723380D01*
X122610476Y-133771000D01*
X122658095Y-133818619D01*
X122705714Y-133913857D01*
X122705714Y-133961476D01*
X122658095Y-134056714D01*
X122610476Y-134104333D01*
X122515238Y-134151952D01*
X122324761Y-134151952D01*
X122229523Y-134199571D01*
X122181904Y-134247190D01*
X122134285Y-134342428D01*
X122134285Y-134532904D01*
X122181904Y-134628142D01*
X122229523Y-134675761D01*
X122324761Y-134723380D01*
X122515238Y-134723380D01*
X122610476Y-134675761D01*
X122658095Y-134628142D01*
X122705714Y-134532904D01*
X122705714Y-134342428D01*
X122658095Y-134247190D01*
X122610476Y-134199571D01*
X122515238Y-134151952D01*
%TO.C,C9*%
X102068333Y-116943142D02*
X102020714Y-116990761D01*
X101877857Y-117038380D01*
X101782619Y-117038380D01*
X101639761Y-116990761D01*
X101544523Y-116895523D01*
X101496904Y-116800285D01*
X101449285Y-116609809D01*
X101449285Y-116466952D01*
X101496904Y-116276476D01*
X101544523Y-116181238D01*
X101639761Y-116086000D01*
X101782619Y-116038380D01*
X101877857Y-116038380D01*
X102020714Y-116086000D01*
X102068333Y-116133619D01*
X102544523Y-117038380D02*
X102735000Y-117038380D01*
X102830238Y-116990761D01*
X102877857Y-116943142D01*
X102973095Y-116800285D01*
X103020714Y-116609809D01*
X103020714Y-116228857D01*
X102973095Y-116133619D01*
X102925476Y-116086000D01*
X102830238Y-116038380D01*
X102639761Y-116038380D01*
X102544523Y-116086000D01*
X102496904Y-116133619D01*
X102449285Y-116228857D01*
X102449285Y-116466952D01*
X102496904Y-116562190D01*
X102544523Y-116609809D01*
X102639761Y-116657428D01*
X102830238Y-116657428D01*
X102925476Y-116609809D01*
X102973095Y-116562190D01*
X103020714Y-116466952D01*
%TO.C,C10*%
X132516642Y-72112142D02*
X132469023Y-72159761D01*
X132326166Y-72207380D01*
X132230928Y-72207380D01*
X132088071Y-72159761D01*
X131992833Y-72064523D01*
X131945214Y-71969285D01*
X131897595Y-71778809D01*
X131897595Y-71635952D01*
X131945214Y-71445476D01*
X131992833Y-71350238D01*
X132088071Y-71255000D01*
X132230928Y-71207380D01*
X132326166Y-71207380D01*
X132469023Y-71255000D01*
X132516642Y-71302619D01*
X133469023Y-72207380D02*
X132897595Y-72207380D01*
X133183309Y-72207380D02*
X133183309Y-71207380D01*
X133088071Y-71350238D01*
X132992833Y-71445476D01*
X132897595Y-71493095D01*
X134088071Y-71207380D02*
X134183309Y-71207380D01*
X134278547Y-71255000D01*
X134326166Y-71302619D01*
X134373785Y-71397857D01*
X134421404Y-71588333D01*
X134421404Y-71826428D01*
X134373785Y-72016904D01*
X134326166Y-72112142D01*
X134278547Y-72159761D01*
X134183309Y-72207380D01*
X134088071Y-72207380D01*
X133992833Y-72159761D01*
X133945214Y-72112142D01*
X133897595Y-72016904D01*
X133849976Y-71826428D01*
X133849976Y-71588333D01*
X133897595Y-71397857D01*
X133945214Y-71302619D01*
X133992833Y-71255000D01*
X134088071Y-71207380D01*
%TO.C,C11*%
X128897142Y-75922142D02*
X128849523Y-75969761D01*
X128706666Y-76017380D01*
X128611428Y-76017380D01*
X128468571Y-75969761D01*
X128373333Y-75874523D01*
X128325714Y-75779285D01*
X128278095Y-75588809D01*
X128278095Y-75445952D01*
X128325714Y-75255476D01*
X128373333Y-75160238D01*
X128468571Y-75065000D01*
X128611428Y-75017380D01*
X128706666Y-75017380D01*
X128849523Y-75065000D01*
X128897142Y-75112619D01*
X129849523Y-76017380D02*
X129278095Y-76017380D01*
X129563809Y-76017380D02*
X129563809Y-75017380D01*
X129468571Y-75160238D01*
X129373333Y-75255476D01*
X129278095Y-75303095D01*
X130801904Y-76017380D02*
X130230476Y-76017380D01*
X130516190Y-76017380D02*
X130516190Y-75017380D01*
X130420952Y-75160238D01*
X130325714Y-75255476D01*
X130230476Y-75303095D01*
%TO.C,C12*%
X115435142Y-72366142D02*
X115387523Y-72413761D01*
X115244666Y-72461380D01*
X115149428Y-72461380D01*
X115006571Y-72413761D01*
X114911333Y-72318523D01*
X114863714Y-72223285D01*
X114816095Y-72032809D01*
X114816095Y-71889952D01*
X114863714Y-71699476D01*
X114911333Y-71604238D01*
X115006571Y-71509000D01*
X115149428Y-71461380D01*
X115244666Y-71461380D01*
X115387523Y-71509000D01*
X115435142Y-71556619D01*
X116387523Y-72461380D02*
X115816095Y-72461380D01*
X116101809Y-72461380D02*
X116101809Y-71461380D01*
X116006571Y-71604238D01*
X115911333Y-71699476D01*
X115816095Y-71747095D01*
X116768476Y-71556619D02*
X116816095Y-71509000D01*
X116911333Y-71461380D01*
X117149428Y-71461380D01*
X117244666Y-71509000D01*
X117292285Y-71556619D01*
X117339904Y-71651857D01*
X117339904Y-71747095D01*
X117292285Y-71889952D01*
X116720857Y-72461380D01*
X117339904Y-72461380D01*
%TO.C,C13*%
X103243142Y-111482142D02*
X103195523Y-111529761D01*
X103052666Y-111577380D01*
X102957428Y-111577380D01*
X102814571Y-111529761D01*
X102719333Y-111434523D01*
X102671714Y-111339285D01*
X102624095Y-111148809D01*
X102624095Y-111005952D01*
X102671714Y-110815476D01*
X102719333Y-110720238D01*
X102814571Y-110625000D01*
X102957428Y-110577380D01*
X103052666Y-110577380D01*
X103195523Y-110625000D01*
X103243142Y-110672619D01*
X104195523Y-111577380D02*
X103624095Y-111577380D01*
X103909809Y-111577380D02*
X103909809Y-110577380D01*
X103814571Y-110720238D01*
X103719333Y-110815476D01*
X103624095Y-110863095D01*
X104528857Y-110577380D02*
X105147904Y-110577380D01*
X104814571Y-110958333D01*
X104957428Y-110958333D01*
X105052666Y-111005952D01*
X105100285Y-111053571D01*
X105147904Y-111148809D01*
X105147904Y-111386904D01*
X105100285Y-111482142D01*
X105052666Y-111529761D01*
X104957428Y-111577380D01*
X104671714Y-111577380D01*
X104576476Y-111529761D01*
X104528857Y-111482142D01*
%TO.C,C14*%
X136644142Y-63730142D02*
X136596523Y-63777761D01*
X136453666Y-63825380D01*
X136358428Y-63825380D01*
X136215571Y-63777761D01*
X136120333Y-63682523D01*
X136072714Y-63587285D01*
X136025095Y-63396809D01*
X136025095Y-63253952D01*
X136072714Y-63063476D01*
X136120333Y-62968238D01*
X136215571Y-62873000D01*
X136358428Y-62825380D01*
X136453666Y-62825380D01*
X136596523Y-62873000D01*
X136644142Y-62920619D01*
X137596523Y-63825380D02*
X137025095Y-63825380D01*
X137310809Y-63825380D02*
X137310809Y-62825380D01*
X137215571Y-62968238D01*
X137120333Y-63063476D01*
X137025095Y-63111095D01*
X138453666Y-63158714D02*
X138453666Y-63825380D01*
X138215571Y-62777761D02*
X137977476Y-63492047D01*
X138596523Y-63492047D01*
%TO.C,C15*%
X125023642Y-63730142D02*
X124976023Y-63777761D01*
X124833166Y-63825380D01*
X124737928Y-63825380D01*
X124595071Y-63777761D01*
X124499833Y-63682523D01*
X124452214Y-63587285D01*
X124404595Y-63396809D01*
X124404595Y-63253952D01*
X124452214Y-63063476D01*
X124499833Y-62968238D01*
X124595071Y-62873000D01*
X124737928Y-62825380D01*
X124833166Y-62825380D01*
X124976023Y-62873000D01*
X125023642Y-62920619D01*
X125976023Y-63825380D02*
X125404595Y-63825380D01*
X125690309Y-63825380D02*
X125690309Y-62825380D01*
X125595071Y-62968238D01*
X125499833Y-63063476D01*
X125404595Y-63111095D01*
X126880785Y-62825380D02*
X126404595Y-62825380D01*
X126356976Y-63301571D01*
X126404595Y-63253952D01*
X126499833Y-63206333D01*
X126737928Y-63206333D01*
X126833166Y-63253952D01*
X126880785Y-63301571D01*
X126928404Y-63396809D01*
X126928404Y-63634904D01*
X126880785Y-63730142D01*
X126833166Y-63777761D01*
X126737928Y-63825380D01*
X126499833Y-63825380D01*
X126404595Y-63777761D01*
X126356976Y-63730142D01*
%TO.C,C16*%
X118356142Y-63730142D02*
X118308523Y-63777761D01*
X118165666Y-63825380D01*
X118070428Y-63825380D01*
X117927571Y-63777761D01*
X117832333Y-63682523D01*
X117784714Y-63587285D01*
X117737095Y-63396809D01*
X117737095Y-63253952D01*
X117784714Y-63063476D01*
X117832333Y-62968238D01*
X117927571Y-62873000D01*
X118070428Y-62825380D01*
X118165666Y-62825380D01*
X118308523Y-62873000D01*
X118356142Y-62920619D01*
X119308523Y-63825380D02*
X118737095Y-63825380D01*
X119022809Y-63825380D02*
X119022809Y-62825380D01*
X118927571Y-62968238D01*
X118832333Y-63063476D01*
X118737095Y-63111095D01*
X120165666Y-62825380D02*
X119975190Y-62825380D01*
X119879952Y-62873000D01*
X119832333Y-62920619D01*
X119737095Y-63063476D01*
X119689476Y-63253952D01*
X119689476Y-63634904D01*
X119737095Y-63730142D01*
X119784714Y-63777761D01*
X119879952Y-63825380D01*
X120070428Y-63825380D01*
X120165666Y-63777761D01*
X120213285Y-63730142D01*
X120260904Y-63634904D01*
X120260904Y-63396809D01*
X120213285Y-63301571D01*
X120165666Y-63253952D01*
X120070428Y-63206333D01*
X119879952Y-63206333D01*
X119784714Y-63253952D01*
X119737095Y-63301571D01*
X119689476Y-63396809D01*
%TO.C,C17*%
X106529142Y-97924857D02*
X106576761Y-97972476D01*
X106624380Y-98115333D01*
X106624380Y-98210571D01*
X106576761Y-98353428D01*
X106481523Y-98448666D01*
X106386285Y-98496285D01*
X106195809Y-98543904D01*
X106052952Y-98543904D01*
X105862476Y-98496285D01*
X105767238Y-98448666D01*
X105672000Y-98353428D01*
X105624380Y-98210571D01*
X105624380Y-98115333D01*
X105672000Y-97972476D01*
X105719619Y-97924857D01*
X106624380Y-96972476D02*
X106624380Y-97543904D01*
X106624380Y-97258190D02*
X105624380Y-97258190D01*
X105767238Y-97353428D01*
X105862476Y-97448666D01*
X105910095Y-97543904D01*
X105624380Y-96639142D02*
X105624380Y-95972476D01*
X106624380Y-96401047D01*
%TO.C,C18*%
X111371142Y-94970142D02*
X111323523Y-95017761D01*
X111180666Y-95065380D01*
X111085428Y-95065380D01*
X110942571Y-95017761D01*
X110847333Y-94922523D01*
X110799714Y-94827285D01*
X110752095Y-94636809D01*
X110752095Y-94493952D01*
X110799714Y-94303476D01*
X110847333Y-94208238D01*
X110942571Y-94113000D01*
X111085428Y-94065380D01*
X111180666Y-94065380D01*
X111323523Y-94113000D01*
X111371142Y-94160619D01*
X112323523Y-95065380D02*
X111752095Y-95065380D01*
X112037809Y-95065380D02*
X112037809Y-94065380D01*
X111942571Y-94208238D01*
X111847333Y-94303476D01*
X111752095Y-94351095D01*
X112894952Y-94493952D02*
X112799714Y-94446333D01*
X112752095Y-94398714D01*
X112704476Y-94303476D01*
X112704476Y-94255857D01*
X112752095Y-94160619D01*
X112799714Y-94113000D01*
X112894952Y-94065380D01*
X113085428Y-94065380D01*
X113180666Y-94113000D01*
X113228285Y-94160619D01*
X113275904Y-94255857D01*
X113275904Y-94303476D01*
X113228285Y-94398714D01*
X113180666Y-94446333D01*
X113085428Y-94493952D01*
X112894952Y-94493952D01*
X112799714Y-94541571D01*
X112752095Y-94589190D01*
X112704476Y-94684428D01*
X112704476Y-94874904D01*
X112752095Y-94970142D01*
X112799714Y-95017761D01*
X112894952Y-95065380D01*
X113085428Y-95065380D01*
X113180666Y-95017761D01*
X113228285Y-94970142D01*
X113275904Y-94874904D01*
X113275904Y-94684428D01*
X113228285Y-94589190D01*
X113180666Y-94541571D01*
X113085428Y-94493952D01*
%TO.C,C19*%
X121404142Y-95607142D02*
X121356523Y-95654761D01*
X121213666Y-95702380D01*
X121118428Y-95702380D01*
X120975571Y-95654761D01*
X120880333Y-95559523D01*
X120832714Y-95464285D01*
X120785095Y-95273809D01*
X120785095Y-95130952D01*
X120832714Y-94940476D01*
X120880333Y-94845238D01*
X120975571Y-94750000D01*
X121118428Y-94702380D01*
X121213666Y-94702380D01*
X121356523Y-94750000D01*
X121404142Y-94797619D01*
X122356523Y-95702380D02*
X121785095Y-95702380D01*
X122070809Y-95702380D02*
X122070809Y-94702380D01*
X121975571Y-94845238D01*
X121880333Y-94940476D01*
X121785095Y-94988095D01*
X122832714Y-95702380D02*
X123023190Y-95702380D01*
X123118428Y-95654761D01*
X123166047Y-95607142D01*
X123261285Y-95464285D01*
X123308904Y-95273809D01*
X123308904Y-94892857D01*
X123261285Y-94797619D01*
X123213666Y-94750000D01*
X123118428Y-94702380D01*
X122927952Y-94702380D01*
X122832714Y-94750000D01*
X122785095Y-94797619D01*
X122737476Y-94892857D01*
X122737476Y-95130952D01*
X122785095Y-95226190D01*
X122832714Y-95273809D01*
X122927952Y-95321428D01*
X123118428Y-95321428D01*
X123213666Y-95273809D01*
X123261285Y-95226190D01*
X123308904Y-95130952D01*
%TO.C,L1*%
X117943333Y-139009380D02*
X117467142Y-139009380D01*
X117467142Y-138009380D01*
X118800476Y-139009380D02*
X118229047Y-139009380D01*
X118514761Y-139009380D02*
X118514761Y-138009380D01*
X118419523Y-138152238D01*
X118324285Y-138247476D01*
X118229047Y-138295095D01*
%TO.C,R1*%
X162774333Y-66619380D02*
X162441000Y-66143190D01*
X162202904Y-66619380D02*
X162202904Y-65619380D01*
X162583857Y-65619380D01*
X162679095Y-65667000D01*
X162726714Y-65714619D01*
X162774333Y-65809857D01*
X162774333Y-65952714D01*
X162726714Y-66047952D01*
X162679095Y-66095571D01*
X162583857Y-66143190D01*
X162202904Y-66143190D01*
X163726714Y-66619380D02*
X163155285Y-66619380D01*
X163441000Y-66619380D02*
X163441000Y-65619380D01*
X163345761Y-65762238D01*
X163250523Y-65857476D01*
X163155285Y-65905095D01*
%TO.C,R2*%
X155027333Y-68206880D02*
X154694000Y-67730690D01*
X154455904Y-68206880D02*
X154455904Y-67206880D01*
X154836857Y-67206880D01*
X154932095Y-67254500D01*
X154979714Y-67302119D01*
X155027333Y-67397357D01*
X155027333Y-67540214D01*
X154979714Y-67635452D01*
X154932095Y-67683071D01*
X154836857Y-67730690D01*
X154455904Y-67730690D01*
X155408285Y-67302119D02*
X155455904Y-67254500D01*
X155551142Y-67206880D01*
X155789238Y-67206880D01*
X155884476Y-67254500D01*
X155932095Y-67302119D01*
X155979714Y-67397357D01*
X155979714Y-67492595D01*
X155932095Y-67635452D01*
X155360666Y-68206880D01*
X155979714Y-68206880D01*
%TO.C,R3*%
X146708833Y-66555880D02*
X146375500Y-66079690D01*
X146137404Y-66555880D02*
X146137404Y-65555880D01*
X146518357Y-65555880D01*
X146613595Y-65603500D01*
X146661214Y-65651119D01*
X146708833Y-65746357D01*
X146708833Y-65889214D01*
X146661214Y-65984452D01*
X146613595Y-66032071D01*
X146518357Y-66079690D01*
X146137404Y-66079690D01*
X147042166Y-65555880D02*
X147661214Y-65555880D01*
X147327880Y-65936833D01*
X147470738Y-65936833D01*
X147565976Y-65984452D01*
X147613595Y-66032071D01*
X147661214Y-66127309D01*
X147661214Y-66365404D01*
X147613595Y-66460642D01*
X147565976Y-66508261D01*
X147470738Y-66555880D01*
X147185023Y-66555880D01*
X147089785Y-66508261D01*
X147042166Y-66460642D01*
%TO.C,R4*%
X113752333Y-133643380D02*
X113419000Y-133167190D01*
X113180904Y-133643380D02*
X113180904Y-132643380D01*
X113561857Y-132643380D01*
X113657095Y-132691000D01*
X113704714Y-132738619D01*
X113752333Y-132833857D01*
X113752333Y-132976714D01*
X113704714Y-133071952D01*
X113657095Y-133119571D01*
X113561857Y-133167190D01*
X113180904Y-133167190D01*
X114609476Y-132976714D02*
X114609476Y-133643380D01*
X114371380Y-132595761D02*
X114133285Y-133310047D01*
X114752333Y-133310047D01*
%TO.C,R5*%
X158583333Y-68651380D02*
X158250000Y-68175190D01*
X158011904Y-68651380D02*
X158011904Y-67651380D01*
X158392857Y-67651380D01*
X158488095Y-67699000D01*
X158535714Y-67746619D01*
X158583333Y-67841857D01*
X158583333Y-67984714D01*
X158535714Y-68079952D01*
X158488095Y-68127571D01*
X158392857Y-68175190D01*
X158011904Y-68175190D01*
X159488095Y-67651380D02*
X159011904Y-67651380D01*
X158964285Y-68127571D01*
X159011904Y-68079952D01*
X159107142Y-68032333D01*
X159345238Y-68032333D01*
X159440476Y-68079952D01*
X159488095Y-68127571D01*
X159535714Y-68222809D01*
X159535714Y-68460904D01*
X159488095Y-68556142D01*
X159440476Y-68603761D01*
X159345238Y-68651380D01*
X159107142Y-68651380D01*
X159011904Y-68603761D01*
X158964285Y-68556142D01*
%TO.C,R6*%
X155154333Y-70175380D02*
X154821000Y-69699190D01*
X154582904Y-70175380D02*
X154582904Y-69175380D01*
X154963857Y-69175380D01*
X155059095Y-69223000D01*
X155106714Y-69270619D01*
X155154333Y-69365857D01*
X155154333Y-69508714D01*
X155106714Y-69603952D01*
X155059095Y-69651571D01*
X154963857Y-69699190D01*
X154582904Y-69699190D01*
X156011476Y-69175380D02*
X155821000Y-69175380D01*
X155725761Y-69223000D01*
X155678142Y-69270619D01*
X155582904Y-69413476D01*
X155535285Y-69603952D01*
X155535285Y-69984904D01*
X155582904Y-70080142D01*
X155630523Y-70127761D01*
X155725761Y-70175380D01*
X155916238Y-70175380D01*
X156011476Y-70127761D01*
X156059095Y-70080142D01*
X156106714Y-69984904D01*
X156106714Y-69746809D01*
X156059095Y-69651571D01*
X156011476Y-69603952D01*
X155916238Y-69556333D01*
X155725761Y-69556333D01*
X155630523Y-69603952D01*
X155582904Y-69651571D01*
X155535285Y-69746809D01*
%TO.C,R7*%
X142517833Y-68587880D02*
X142184500Y-68111690D01*
X141946404Y-68587880D02*
X141946404Y-67587880D01*
X142327357Y-67587880D01*
X142422595Y-67635500D01*
X142470214Y-67683119D01*
X142517833Y-67778357D01*
X142517833Y-67921214D01*
X142470214Y-68016452D01*
X142422595Y-68064071D01*
X142327357Y-68111690D01*
X141946404Y-68111690D01*
X142851166Y-67587880D02*
X143517833Y-67587880D01*
X143089261Y-68587880D01*
%TO.C,R8*%
X139279333Y-68016380D02*
X138946000Y-67540190D01*
X138707904Y-68016380D02*
X138707904Y-67016380D01*
X139088857Y-67016380D01*
X139184095Y-67064000D01*
X139231714Y-67111619D01*
X139279333Y-67206857D01*
X139279333Y-67349714D01*
X139231714Y-67444952D01*
X139184095Y-67492571D01*
X139088857Y-67540190D01*
X138707904Y-67540190D01*
X139850761Y-67444952D02*
X139755523Y-67397333D01*
X139707904Y-67349714D01*
X139660285Y-67254476D01*
X139660285Y-67206857D01*
X139707904Y-67111619D01*
X139755523Y-67064000D01*
X139850761Y-67016380D01*
X140041238Y-67016380D01*
X140136476Y-67064000D01*
X140184095Y-67111619D01*
X140231714Y-67206857D01*
X140231714Y-67254476D01*
X140184095Y-67349714D01*
X140136476Y-67397333D01*
X140041238Y-67444952D01*
X139850761Y-67444952D01*
X139755523Y-67492571D01*
X139707904Y-67540190D01*
X139660285Y-67635428D01*
X139660285Y-67825904D01*
X139707904Y-67921142D01*
X139755523Y-67968761D01*
X139850761Y-68016380D01*
X140041238Y-68016380D01*
X140136476Y-67968761D01*
X140184095Y-67921142D01*
X140231714Y-67825904D01*
X140231714Y-67635428D01*
X140184095Y-67540190D01*
X140136476Y-67492571D01*
X140041238Y-67444952D01*
%TO.C,R9*%
X129690833Y-67571880D02*
X129357500Y-67095690D01*
X129119404Y-67571880D02*
X129119404Y-66571880D01*
X129500357Y-66571880D01*
X129595595Y-66619500D01*
X129643214Y-66667119D01*
X129690833Y-66762357D01*
X129690833Y-66905214D01*
X129643214Y-67000452D01*
X129595595Y-67048071D01*
X129500357Y-67095690D01*
X129119404Y-67095690D01*
X130167023Y-67571880D02*
X130357500Y-67571880D01*
X130452738Y-67524261D01*
X130500357Y-67476642D01*
X130595595Y-67333785D01*
X130643214Y-67143309D01*
X130643214Y-66762357D01*
X130595595Y-66667119D01*
X130547976Y-66619500D01*
X130452738Y-66571880D01*
X130262261Y-66571880D01*
X130167023Y-66619500D01*
X130119404Y-66667119D01*
X130071785Y-66762357D01*
X130071785Y-67000452D01*
X130119404Y-67095690D01*
X130167023Y-67143309D01*
X130262261Y-67190928D01*
X130452738Y-67190928D01*
X130547976Y-67143309D01*
X130595595Y-67095690D01*
X130643214Y-67000452D01*
%TO.C,R10*%
X114609642Y-68016380D02*
X114276309Y-67540190D01*
X114038214Y-68016380D02*
X114038214Y-67016380D01*
X114419166Y-67016380D01*
X114514404Y-67064000D01*
X114562023Y-67111619D01*
X114609642Y-67206857D01*
X114609642Y-67349714D01*
X114562023Y-67444952D01*
X114514404Y-67492571D01*
X114419166Y-67540190D01*
X114038214Y-67540190D01*
X115562023Y-68016380D02*
X114990595Y-68016380D01*
X115276309Y-68016380D02*
X115276309Y-67016380D01*
X115181071Y-67159238D01*
X115085833Y-67254476D01*
X114990595Y-67302095D01*
X116181071Y-67016380D02*
X116276309Y-67016380D01*
X116371547Y-67064000D01*
X116419166Y-67111619D01*
X116466785Y-67206857D01*
X116514404Y-67397333D01*
X116514404Y-67635428D01*
X116466785Y-67825904D01*
X116419166Y-67921142D01*
X116371547Y-67968761D01*
X116276309Y-68016380D01*
X116181071Y-68016380D01*
X116085833Y-67968761D01*
X116038214Y-67921142D01*
X115990595Y-67825904D01*
X115942976Y-67635428D01*
X115942976Y-67397333D01*
X115990595Y-67206857D01*
X116038214Y-67111619D01*
X116085833Y-67064000D01*
X116181071Y-67016380D01*
%TO.C,R11*%
X139311142Y-70111880D02*
X138977809Y-69635690D01*
X138739714Y-70111880D02*
X138739714Y-69111880D01*
X139120666Y-69111880D01*
X139215904Y-69159500D01*
X139263523Y-69207119D01*
X139311142Y-69302357D01*
X139311142Y-69445214D01*
X139263523Y-69540452D01*
X139215904Y-69588071D01*
X139120666Y-69635690D01*
X138739714Y-69635690D01*
X140263523Y-70111880D02*
X139692095Y-70111880D01*
X139977809Y-70111880D02*
X139977809Y-69111880D01*
X139882571Y-69254738D01*
X139787333Y-69349976D01*
X139692095Y-69397595D01*
X141215904Y-70111880D02*
X140644476Y-70111880D01*
X140930190Y-70111880D02*
X140930190Y-69111880D01*
X140834952Y-69254738D01*
X140739714Y-69349976D01*
X140644476Y-69397595D01*
%TO.C,R12*%
X123817142Y-68206880D02*
X123483809Y-67730690D01*
X123245714Y-68206880D02*
X123245714Y-67206880D01*
X123626666Y-67206880D01*
X123721904Y-67254500D01*
X123769523Y-67302119D01*
X123817142Y-67397357D01*
X123817142Y-67540214D01*
X123769523Y-67635452D01*
X123721904Y-67683071D01*
X123626666Y-67730690D01*
X123245714Y-67730690D01*
X124769523Y-68206880D02*
X124198095Y-68206880D01*
X124483809Y-68206880D02*
X124483809Y-67206880D01*
X124388571Y-67349738D01*
X124293333Y-67444976D01*
X124198095Y-67492595D01*
X125150476Y-67302119D02*
X125198095Y-67254500D01*
X125293333Y-67206880D01*
X125531428Y-67206880D01*
X125626666Y-67254500D01*
X125674285Y-67302119D01*
X125721904Y-67397357D01*
X125721904Y-67492595D01*
X125674285Y-67635452D01*
X125102857Y-68206880D01*
X125721904Y-68206880D01*
%TO.C,R13*%
X114609642Y-69921380D02*
X114276309Y-69445190D01*
X114038214Y-69921380D02*
X114038214Y-68921380D01*
X114419166Y-68921380D01*
X114514404Y-68969000D01*
X114562023Y-69016619D01*
X114609642Y-69111857D01*
X114609642Y-69254714D01*
X114562023Y-69349952D01*
X114514404Y-69397571D01*
X114419166Y-69445190D01*
X114038214Y-69445190D01*
X115562023Y-69921380D02*
X114990595Y-69921380D01*
X115276309Y-69921380D02*
X115276309Y-68921380D01*
X115181071Y-69064238D01*
X115085833Y-69159476D01*
X114990595Y-69207095D01*
X115895357Y-68921380D02*
X116514404Y-68921380D01*
X116181071Y-69302333D01*
X116323928Y-69302333D01*
X116419166Y-69349952D01*
X116466785Y-69397571D01*
X116514404Y-69492809D01*
X116514404Y-69730904D01*
X116466785Y-69826142D01*
X116419166Y-69873761D01*
X116323928Y-69921380D01*
X116038214Y-69921380D01*
X115942976Y-69873761D01*
X115895357Y-69826142D01*
%TO.C,U4*%
X123444095Y-76223880D02*
X123444095Y-77033404D01*
X123491714Y-77128642D01*
X123539333Y-77176261D01*
X123634571Y-77223880D01*
X123825047Y-77223880D01*
X123920285Y-77176261D01*
X123967904Y-77128642D01*
X124015523Y-77033404D01*
X124015523Y-76223880D01*
X124920285Y-76557214D02*
X124920285Y-77223880D01*
X124682190Y-76176261D02*
X124444095Y-76890547D01*
X125063142Y-76890547D01*
%TO.C,U5*%
X97750095Y-106411380D02*
X97750095Y-107220904D01*
X97797714Y-107316142D01*
X97845333Y-107363761D01*
X97940571Y-107411380D01*
X98131047Y-107411380D01*
X98226285Y-107363761D01*
X98273904Y-107316142D01*
X98321523Y-107220904D01*
X98321523Y-106411380D01*
X99273904Y-106411380D02*
X98797714Y-106411380D01*
X98750095Y-106887571D01*
X98797714Y-106839952D01*
X98892952Y-106792333D01*
X99131047Y-106792333D01*
X99226285Y-106839952D01*
X99273904Y-106887571D01*
X99321523Y-106982809D01*
X99321523Y-107220904D01*
X99273904Y-107316142D01*
X99226285Y-107363761D01*
X99131047Y-107411380D01*
X98892952Y-107411380D01*
X98797714Y-107363761D01*
X98750095Y-107316142D01*
%TO.C,U6*%
X107149095Y-106411380D02*
X107149095Y-107220904D01*
X107196714Y-107316142D01*
X107244333Y-107363761D01*
X107339571Y-107411380D01*
X107530047Y-107411380D01*
X107625285Y-107363761D01*
X107672904Y-107316142D01*
X107720523Y-107220904D01*
X107720523Y-106411380D01*
X108625285Y-106411380D02*
X108434809Y-106411380D01*
X108339571Y-106459000D01*
X108291952Y-106506619D01*
X108196714Y-106649476D01*
X108149095Y-106839952D01*
X108149095Y-107220904D01*
X108196714Y-107316142D01*
X108244333Y-107363761D01*
X108339571Y-107411380D01*
X108530047Y-107411380D01*
X108625285Y-107363761D01*
X108672904Y-107316142D01*
X108720523Y-107220904D01*
X108720523Y-106982809D01*
X108672904Y-106887571D01*
X108625285Y-106839952D01*
X108530047Y-106792333D01*
X108339571Y-106792333D01*
X108244333Y-106839952D01*
X108196714Y-106887571D01*
X108149095Y-106982809D01*
%TD*%
M02*
