%TF.GenerationSoftware,KiCad,Pcbnew,(5.1.8-0-10_14)*%
%TF.CreationDate,2021-04-23T13:19:29-04:00*%
%TF.ProjectId,Data Collection Shield for Chest Strap Assembly,44617461-2043-46f6-9c6c-656374696f6e,rev?*%
%TF.SameCoordinates,Original*%
%TF.FileFunction,Copper,L2,Inr*%
%TF.FilePolarity,Positive*%
%FSLAX46Y46*%
G04 Gerber Fmt 4.6, Leading zero omitted, Abs format (unit mm)*
G04 Created by KiCad (PCBNEW (5.1.8-0-10_14)) date 2021-04-23 13:19:29*
%MOMM*%
%LPD*%
G01*
G04 APERTURE LIST*
%TA.AperFunction,ComponentPad*%
%ADD10C,1.524000*%
%TD*%
%TA.AperFunction,ComponentPad*%
%ADD11O,1.700000X1.700000*%
%TD*%
%TA.AperFunction,ComponentPad*%
%ADD12R,1.700000X1.700000*%
%TD*%
%TA.AperFunction,ViaPad*%
%ADD13C,0.685000*%
%TD*%
%TA.AperFunction,ViaPad*%
%ADD14C,0.800000*%
%TD*%
%TA.AperFunction,Conductor*%
%ADD15C,0.254000*%
%TD*%
%TA.AperFunction,Conductor*%
%ADD16C,0.100000*%
%TD*%
G04 APERTURE END LIST*
D10*
%TO.N,SIG_IN2*%
%TO.C,J1*%
X177926000Y-49981000D03*
%TO.N,SIG_IN1*%
X177926000Y-52721000D03*
%TO.N,SIG_IN0*%
X177926000Y-55461000D03*
%TO.N,CH6*%
X177926000Y-58201000D03*
%TO.N,FLEX_SCL*%
X177926000Y-60941000D03*
%TO.N,FLEX_SDA*%
X177926000Y-63681000D03*
%TO.N,FLEX_nDRDY*%
X177926000Y-66421000D03*
%TO.N,FLEX_nRST*%
X175086000Y-48449000D03*
%TO.N,SIG_IN3*%
X175086000Y-51189000D03*
%TO.N,SIG_IN4*%
X175086000Y-53929000D03*
%TO.N,SIG_IN5*%
X175086000Y-56669000D03*
%TO.N,10V*%
X175086000Y-59409000D03*
%TO.N,5V*%
X175086000Y-62149000D03*
%TO.N,3.3V*%
X175086000Y-64889000D03*
%TO.N,AGND*%
X175086000Y-67629000D03*
%TD*%
%TO.N,Net-(C13-Pad1)*%
%TO.C,U3*%
X104316000Y-138684000D03*
%TO.N,Net-(U3-Pad3)*%
X104316000Y-136144000D03*
%TO.N,AGND*%
X104316000Y-133604000D03*
%TO.N,DGND*%
X104316000Y-125984000D03*
%TO.N,Net-(C8-Pad1)*%
X104316000Y-123444000D03*
%TD*%
D11*
%TO.N,DGND*%
%TO.C,U8*%
X111252000Y-143510000D03*
%TO.N,5V_IN*%
X113792000Y-143510000D03*
%TO.N,Net-(U8-Pad18)*%
X116332000Y-143510000D03*
%TO.N,Net-(U8-Pad17)*%
X118872000Y-143510000D03*
%TO.N,Net-(U8-Pad16)*%
X121412000Y-143510000D03*
%TO.N,Net-(U8-Pad15)*%
X123952000Y-143510000D03*
%TO.N,DGND*%
X126492000Y-143510000D03*
%TO.N,Net-(U8-Pad13)*%
X129032000Y-143510000D03*
%TO.N,DGND*%
X131572000Y-143510000D03*
%TO.N,Net-(U8-Pad11)*%
X134112000Y-143510000D03*
%TO.N,DGND*%
X136652000Y-143510000D03*
%TO.N,Net-(U8-Pad9)*%
X139192000Y-143510000D03*
%TO.N,DGND*%
X141732000Y-143510000D03*
%TO.N,FLEX_nRST*%
X144272000Y-143510000D03*
%TO.N,DGND*%
X146812000Y-143510000D03*
%TO.N,FLEX_nDRDY*%
X149352000Y-143510000D03*
%TO.N,DGND*%
X151892000Y-143510000D03*
%TO.N,FLEX_SDA*%
X154432000Y-143510000D03*
%TO.N,DGND*%
X156972000Y-143510000D03*
D12*
%TO.N,FLEX_SCL*%
X159512000Y-143510000D03*
%TD*%
D11*
%TO.N,AGND*%
%TO.C,U10*%
X111252000Y-81280000D03*
X113792000Y-81280000D03*
X116332000Y-81280000D03*
%TO.N,Net-(U10-Pad17)*%
X118872000Y-81280000D03*
%TO.N,AGND*%
X121412000Y-81280000D03*
%TO.N,Net-(U10-Pad15)*%
X123952000Y-81280000D03*
%TO.N,AGND*%
X126492000Y-81280000D03*
%TO.N,CH6*%
X129032000Y-81280000D03*
%TO.N,AGND*%
X131572000Y-81280000D03*
%TO.N,CH5*%
X134112000Y-81280000D03*
%TO.N,AGND*%
X136652000Y-81280000D03*
%TO.N,CH4*%
X139192000Y-81280000D03*
%TO.N,AGND*%
X141732000Y-81280000D03*
%TO.N,CH3*%
X144272000Y-81280000D03*
%TO.N,AGND*%
X146812000Y-81280000D03*
%TO.N,CH2*%
X149352000Y-81280000D03*
%TO.N,AGND*%
X151892000Y-81280000D03*
%TO.N,CH1*%
X154432000Y-81280000D03*
%TO.N,AGND*%
X156972000Y-81280000D03*
D12*
%TO.N,CH0*%
X159512000Y-81280000D03*
%TD*%
D13*
%TO.N,5V*%
X112395000Y-90043000D03*
X153716000Y-62149000D03*
X137241000Y-62149000D03*
X118572000Y-62149000D03*
D14*
%TO.N,AGND*%
X120269000Y-104013000D03*
D13*
X128079500Y-71818500D03*
X145288000Y-71818500D03*
X161226500Y-71818500D03*
%TO.N,10V*%
X104013000Y-93853000D03*
X120599200Y-76847700D03*
X137744200Y-76847700D03*
X153809700Y-76847700D03*
%TO.N,3.3V*%
X159385000Y-85852000D03*
%TO.N,SIG_IN0*%
X168148000Y-45593000D03*
%TO.N,SIG_IN2*%
X168148000Y-43434000D03*
X153416000Y-43434000D03*
%TO.N,SIG_IN3*%
X134620000Y-60071000D03*
%TO.N,SIG_IN4*%
X128016000Y-59817000D03*
X170815000Y-52451000D03*
%TO.N,SIG_IN5*%
X113665000Y-60198000D03*
X142494000Y-53975000D03*
X170180000Y-54229000D03*
%TD*%
D15*
%TO.N,AGND*%
X182688364Y-37453342D02*
X182625421Y-93095000D01*
X163466419Y-93095000D01*
X163434000Y-93091807D01*
X163401581Y-93095000D01*
X163304617Y-93104550D01*
X163180207Y-93142290D01*
X163065550Y-93203575D01*
X162965052Y-93286052D01*
X162882575Y-93386550D01*
X162821290Y-93501207D01*
X162783550Y-93625617D01*
X162770807Y-93755000D01*
X162774001Y-93787430D01*
X162774000Y-147375000D01*
X95736000Y-147375000D01*
X95736000Y-143363740D01*
X109767000Y-143363740D01*
X109767000Y-143656260D01*
X109824068Y-143943158D01*
X109936010Y-144213411D01*
X110098525Y-144456632D01*
X110305368Y-144663475D01*
X110548589Y-144825990D01*
X110818842Y-144937932D01*
X111105740Y-144995000D01*
X111398260Y-144995000D01*
X111685158Y-144937932D01*
X111955411Y-144825990D01*
X112198632Y-144663475D01*
X112405475Y-144456632D01*
X112522000Y-144282240D01*
X112638525Y-144456632D01*
X112845368Y-144663475D01*
X113088589Y-144825990D01*
X113358842Y-144937932D01*
X113645740Y-144995000D01*
X113938260Y-144995000D01*
X114225158Y-144937932D01*
X114495411Y-144825990D01*
X114738632Y-144663475D01*
X114945475Y-144456632D01*
X115062000Y-144282240D01*
X115178525Y-144456632D01*
X115385368Y-144663475D01*
X115628589Y-144825990D01*
X115898842Y-144937932D01*
X116185740Y-144995000D01*
X116478260Y-144995000D01*
X116765158Y-144937932D01*
X117035411Y-144825990D01*
X117278632Y-144663475D01*
X117485475Y-144456632D01*
X117602000Y-144282240D01*
X117718525Y-144456632D01*
X117925368Y-144663475D01*
X118168589Y-144825990D01*
X118438842Y-144937932D01*
X118725740Y-144995000D01*
X119018260Y-144995000D01*
X119305158Y-144937932D01*
X119575411Y-144825990D01*
X119818632Y-144663475D01*
X120025475Y-144456632D01*
X120142000Y-144282240D01*
X120258525Y-144456632D01*
X120465368Y-144663475D01*
X120708589Y-144825990D01*
X120978842Y-144937932D01*
X121265740Y-144995000D01*
X121558260Y-144995000D01*
X121845158Y-144937932D01*
X122115411Y-144825990D01*
X122358632Y-144663475D01*
X122565475Y-144456632D01*
X122682000Y-144282240D01*
X122798525Y-144456632D01*
X123005368Y-144663475D01*
X123248589Y-144825990D01*
X123518842Y-144937932D01*
X123805740Y-144995000D01*
X124098260Y-144995000D01*
X124385158Y-144937932D01*
X124655411Y-144825990D01*
X124898632Y-144663475D01*
X125105475Y-144456632D01*
X125222000Y-144282240D01*
X125338525Y-144456632D01*
X125545368Y-144663475D01*
X125788589Y-144825990D01*
X126058842Y-144937932D01*
X126345740Y-144995000D01*
X126638260Y-144995000D01*
X126925158Y-144937932D01*
X127195411Y-144825990D01*
X127438632Y-144663475D01*
X127645475Y-144456632D01*
X127762000Y-144282240D01*
X127878525Y-144456632D01*
X128085368Y-144663475D01*
X128328589Y-144825990D01*
X128598842Y-144937932D01*
X128885740Y-144995000D01*
X129178260Y-144995000D01*
X129465158Y-144937932D01*
X129735411Y-144825990D01*
X129978632Y-144663475D01*
X130185475Y-144456632D01*
X130302000Y-144282240D01*
X130418525Y-144456632D01*
X130625368Y-144663475D01*
X130868589Y-144825990D01*
X131138842Y-144937932D01*
X131425740Y-144995000D01*
X131718260Y-144995000D01*
X132005158Y-144937932D01*
X132275411Y-144825990D01*
X132518632Y-144663475D01*
X132725475Y-144456632D01*
X132842000Y-144282240D01*
X132958525Y-144456632D01*
X133165368Y-144663475D01*
X133408589Y-144825990D01*
X133678842Y-144937932D01*
X133965740Y-144995000D01*
X134258260Y-144995000D01*
X134545158Y-144937932D01*
X134815411Y-144825990D01*
X135058632Y-144663475D01*
X135265475Y-144456632D01*
X135382000Y-144282240D01*
X135498525Y-144456632D01*
X135705368Y-144663475D01*
X135948589Y-144825990D01*
X136218842Y-144937932D01*
X136505740Y-144995000D01*
X136798260Y-144995000D01*
X137085158Y-144937932D01*
X137355411Y-144825990D01*
X137598632Y-144663475D01*
X137805475Y-144456632D01*
X137922000Y-144282240D01*
X138038525Y-144456632D01*
X138245368Y-144663475D01*
X138488589Y-144825990D01*
X138758842Y-144937932D01*
X139045740Y-144995000D01*
X139338260Y-144995000D01*
X139625158Y-144937932D01*
X139895411Y-144825990D01*
X140138632Y-144663475D01*
X140345475Y-144456632D01*
X140462000Y-144282240D01*
X140578525Y-144456632D01*
X140785368Y-144663475D01*
X141028589Y-144825990D01*
X141298842Y-144937932D01*
X141585740Y-144995000D01*
X141878260Y-144995000D01*
X142165158Y-144937932D01*
X142435411Y-144825990D01*
X142678632Y-144663475D01*
X142885475Y-144456632D01*
X143002000Y-144282240D01*
X143118525Y-144456632D01*
X143325368Y-144663475D01*
X143568589Y-144825990D01*
X143838842Y-144937932D01*
X144125740Y-144995000D01*
X144418260Y-144995000D01*
X144705158Y-144937932D01*
X144975411Y-144825990D01*
X145218632Y-144663475D01*
X145425475Y-144456632D01*
X145542000Y-144282240D01*
X145658525Y-144456632D01*
X145865368Y-144663475D01*
X146108589Y-144825990D01*
X146378842Y-144937932D01*
X146665740Y-144995000D01*
X146958260Y-144995000D01*
X147245158Y-144937932D01*
X147515411Y-144825990D01*
X147758632Y-144663475D01*
X147965475Y-144456632D01*
X148082000Y-144282240D01*
X148198525Y-144456632D01*
X148405368Y-144663475D01*
X148648589Y-144825990D01*
X148918842Y-144937932D01*
X149205740Y-144995000D01*
X149498260Y-144995000D01*
X149785158Y-144937932D01*
X150055411Y-144825990D01*
X150298632Y-144663475D01*
X150505475Y-144456632D01*
X150622000Y-144282240D01*
X150738525Y-144456632D01*
X150945368Y-144663475D01*
X151188589Y-144825990D01*
X151458842Y-144937932D01*
X151745740Y-144995000D01*
X152038260Y-144995000D01*
X152325158Y-144937932D01*
X152595411Y-144825990D01*
X152838632Y-144663475D01*
X153045475Y-144456632D01*
X153162000Y-144282240D01*
X153278525Y-144456632D01*
X153485368Y-144663475D01*
X153728589Y-144825990D01*
X153998842Y-144937932D01*
X154285740Y-144995000D01*
X154578260Y-144995000D01*
X154865158Y-144937932D01*
X155135411Y-144825990D01*
X155378632Y-144663475D01*
X155585475Y-144456632D01*
X155702000Y-144282240D01*
X155818525Y-144456632D01*
X156025368Y-144663475D01*
X156268589Y-144825990D01*
X156538842Y-144937932D01*
X156825740Y-144995000D01*
X157118260Y-144995000D01*
X157405158Y-144937932D01*
X157675411Y-144825990D01*
X157918632Y-144663475D01*
X158050487Y-144531620D01*
X158072498Y-144604180D01*
X158131463Y-144714494D01*
X158210815Y-144811185D01*
X158307506Y-144890537D01*
X158417820Y-144949502D01*
X158537518Y-144985812D01*
X158662000Y-144998072D01*
X160362000Y-144998072D01*
X160486482Y-144985812D01*
X160606180Y-144949502D01*
X160716494Y-144890537D01*
X160813185Y-144811185D01*
X160892537Y-144714494D01*
X160951502Y-144604180D01*
X160987812Y-144484482D01*
X161000072Y-144360000D01*
X161000072Y-142660000D01*
X160987812Y-142535518D01*
X160951502Y-142415820D01*
X160892537Y-142305506D01*
X160813185Y-142208815D01*
X160716494Y-142129463D01*
X160606180Y-142070498D01*
X160486482Y-142034188D01*
X160362000Y-142021928D01*
X158662000Y-142021928D01*
X158537518Y-142034188D01*
X158417820Y-142070498D01*
X158307506Y-142129463D01*
X158210815Y-142208815D01*
X158131463Y-142305506D01*
X158072498Y-142415820D01*
X158050487Y-142488380D01*
X157918632Y-142356525D01*
X157675411Y-142194010D01*
X157405158Y-142082068D01*
X157118260Y-142025000D01*
X156825740Y-142025000D01*
X156538842Y-142082068D01*
X156268589Y-142194010D01*
X156025368Y-142356525D01*
X155818525Y-142563368D01*
X155702000Y-142737760D01*
X155585475Y-142563368D01*
X155378632Y-142356525D01*
X155135411Y-142194010D01*
X154865158Y-142082068D01*
X154578260Y-142025000D01*
X154285740Y-142025000D01*
X153998842Y-142082068D01*
X153728589Y-142194010D01*
X153485368Y-142356525D01*
X153278525Y-142563368D01*
X153162000Y-142737760D01*
X153045475Y-142563368D01*
X152838632Y-142356525D01*
X152595411Y-142194010D01*
X152325158Y-142082068D01*
X152038260Y-142025000D01*
X151745740Y-142025000D01*
X151458842Y-142082068D01*
X151188589Y-142194010D01*
X150945368Y-142356525D01*
X150738525Y-142563368D01*
X150622000Y-142737760D01*
X150505475Y-142563368D01*
X150298632Y-142356525D01*
X150055411Y-142194010D01*
X149785158Y-142082068D01*
X149498260Y-142025000D01*
X149205740Y-142025000D01*
X148918842Y-142082068D01*
X148648589Y-142194010D01*
X148405368Y-142356525D01*
X148198525Y-142563368D01*
X148082000Y-142737760D01*
X147965475Y-142563368D01*
X147758632Y-142356525D01*
X147515411Y-142194010D01*
X147245158Y-142082068D01*
X146958260Y-142025000D01*
X146665740Y-142025000D01*
X146378842Y-142082068D01*
X146108589Y-142194010D01*
X145865368Y-142356525D01*
X145658525Y-142563368D01*
X145542000Y-142737760D01*
X145425475Y-142563368D01*
X145218632Y-142356525D01*
X144975411Y-142194010D01*
X144705158Y-142082068D01*
X144418260Y-142025000D01*
X144125740Y-142025000D01*
X143838842Y-142082068D01*
X143568589Y-142194010D01*
X143325368Y-142356525D01*
X143118525Y-142563368D01*
X143002000Y-142737760D01*
X142885475Y-142563368D01*
X142678632Y-142356525D01*
X142435411Y-142194010D01*
X142165158Y-142082068D01*
X141878260Y-142025000D01*
X141585740Y-142025000D01*
X141298842Y-142082068D01*
X141028589Y-142194010D01*
X140785368Y-142356525D01*
X140578525Y-142563368D01*
X140462000Y-142737760D01*
X140345475Y-142563368D01*
X140138632Y-142356525D01*
X139895411Y-142194010D01*
X139625158Y-142082068D01*
X139338260Y-142025000D01*
X139045740Y-142025000D01*
X138758842Y-142082068D01*
X138488589Y-142194010D01*
X138245368Y-142356525D01*
X138038525Y-142563368D01*
X137922000Y-142737760D01*
X137805475Y-142563368D01*
X137598632Y-142356525D01*
X137355411Y-142194010D01*
X137085158Y-142082068D01*
X136798260Y-142025000D01*
X136505740Y-142025000D01*
X136218842Y-142082068D01*
X135948589Y-142194010D01*
X135705368Y-142356525D01*
X135498525Y-142563368D01*
X135382000Y-142737760D01*
X135265475Y-142563368D01*
X135058632Y-142356525D01*
X134815411Y-142194010D01*
X134545158Y-142082068D01*
X134258260Y-142025000D01*
X133965740Y-142025000D01*
X133678842Y-142082068D01*
X133408589Y-142194010D01*
X133165368Y-142356525D01*
X132958525Y-142563368D01*
X132842000Y-142737760D01*
X132725475Y-142563368D01*
X132518632Y-142356525D01*
X132275411Y-142194010D01*
X132005158Y-142082068D01*
X131718260Y-142025000D01*
X131425740Y-142025000D01*
X131138842Y-142082068D01*
X130868589Y-142194010D01*
X130625368Y-142356525D01*
X130418525Y-142563368D01*
X130302000Y-142737760D01*
X130185475Y-142563368D01*
X129978632Y-142356525D01*
X129735411Y-142194010D01*
X129465158Y-142082068D01*
X129178260Y-142025000D01*
X128885740Y-142025000D01*
X128598842Y-142082068D01*
X128328589Y-142194010D01*
X128085368Y-142356525D01*
X127878525Y-142563368D01*
X127762000Y-142737760D01*
X127645475Y-142563368D01*
X127438632Y-142356525D01*
X127195411Y-142194010D01*
X126925158Y-142082068D01*
X126638260Y-142025000D01*
X126345740Y-142025000D01*
X126058842Y-142082068D01*
X125788589Y-142194010D01*
X125545368Y-142356525D01*
X125338525Y-142563368D01*
X125222000Y-142737760D01*
X125105475Y-142563368D01*
X124898632Y-142356525D01*
X124655411Y-142194010D01*
X124385158Y-142082068D01*
X124098260Y-142025000D01*
X123805740Y-142025000D01*
X123518842Y-142082068D01*
X123248589Y-142194010D01*
X123005368Y-142356525D01*
X122798525Y-142563368D01*
X122682000Y-142737760D01*
X122565475Y-142563368D01*
X122358632Y-142356525D01*
X122115411Y-142194010D01*
X121845158Y-142082068D01*
X121558260Y-142025000D01*
X121265740Y-142025000D01*
X120978842Y-142082068D01*
X120708589Y-142194010D01*
X120465368Y-142356525D01*
X120258525Y-142563368D01*
X120142000Y-142737760D01*
X120025475Y-142563368D01*
X119818632Y-142356525D01*
X119575411Y-142194010D01*
X119305158Y-142082068D01*
X119018260Y-142025000D01*
X118725740Y-142025000D01*
X118438842Y-142082068D01*
X118168589Y-142194010D01*
X117925368Y-142356525D01*
X117718525Y-142563368D01*
X117602000Y-142737760D01*
X117485475Y-142563368D01*
X117278632Y-142356525D01*
X117035411Y-142194010D01*
X116765158Y-142082068D01*
X116478260Y-142025000D01*
X116185740Y-142025000D01*
X115898842Y-142082068D01*
X115628589Y-142194010D01*
X115385368Y-142356525D01*
X115178525Y-142563368D01*
X115062000Y-142737760D01*
X114945475Y-142563368D01*
X114738632Y-142356525D01*
X114495411Y-142194010D01*
X114225158Y-142082068D01*
X113938260Y-142025000D01*
X113645740Y-142025000D01*
X113358842Y-142082068D01*
X113088589Y-142194010D01*
X112845368Y-142356525D01*
X112638525Y-142563368D01*
X112522000Y-142737760D01*
X112405475Y-142563368D01*
X112198632Y-142356525D01*
X111955411Y-142194010D01*
X111685158Y-142082068D01*
X111398260Y-142025000D01*
X111105740Y-142025000D01*
X110818842Y-142082068D01*
X110548589Y-142194010D01*
X110305368Y-142356525D01*
X110098525Y-142563368D01*
X109936010Y-142806589D01*
X109824068Y-143076842D01*
X109767000Y-143363740D01*
X95736000Y-143363740D01*
X95736000Y-136006408D01*
X102919000Y-136006408D01*
X102919000Y-136281592D01*
X102972686Y-136551490D01*
X103077995Y-136805727D01*
X103230880Y-137034535D01*
X103425465Y-137229120D01*
X103654273Y-137382005D01*
X103731515Y-137414000D01*
X103654273Y-137445995D01*
X103425465Y-137598880D01*
X103230880Y-137793465D01*
X103077995Y-138022273D01*
X102972686Y-138276510D01*
X102919000Y-138546408D01*
X102919000Y-138821592D01*
X102972686Y-139091490D01*
X103077995Y-139345727D01*
X103230880Y-139574535D01*
X103425465Y-139769120D01*
X103654273Y-139922005D01*
X103908510Y-140027314D01*
X104178408Y-140081000D01*
X104453592Y-140081000D01*
X104723490Y-140027314D01*
X104977727Y-139922005D01*
X105206535Y-139769120D01*
X105401120Y-139574535D01*
X105554005Y-139345727D01*
X105659314Y-139091490D01*
X105713000Y-138821592D01*
X105713000Y-138546408D01*
X105659314Y-138276510D01*
X105554005Y-138022273D01*
X105401120Y-137793465D01*
X105206535Y-137598880D01*
X104977727Y-137445995D01*
X104900485Y-137414000D01*
X104977727Y-137382005D01*
X105206535Y-137229120D01*
X105401120Y-137034535D01*
X105554005Y-136805727D01*
X105659314Y-136551490D01*
X105713000Y-136281592D01*
X105713000Y-136006408D01*
X105659314Y-135736510D01*
X105554005Y-135482273D01*
X105401120Y-135253465D01*
X105206535Y-135058880D01*
X104977727Y-134905995D01*
X104906057Y-134876308D01*
X104919023Y-134871636D01*
X105034980Y-134809656D01*
X105101960Y-134569565D01*
X104316000Y-133783605D01*
X103530040Y-134569565D01*
X103597020Y-134809656D01*
X103732760Y-134873485D01*
X103654273Y-134905995D01*
X103425465Y-135058880D01*
X103230880Y-135253465D01*
X103077995Y-135482273D01*
X102972686Y-135736510D01*
X102919000Y-136006408D01*
X95736000Y-136006408D01*
X95736000Y-133676017D01*
X102914090Y-133676017D01*
X102955078Y-133948133D01*
X103048364Y-134207023D01*
X103110344Y-134322980D01*
X103350435Y-134389960D01*
X104136395Y-133604000D01*
X104495605Y-133604000D01*
X105281565Y-134389960D01*
X105521656Y-134322980D01*
X105638756Y-134073952D01*
X105705023Y-133806865D01*
X105717910Y-133531983D01*
X105676922Y-133259867D01*
X105583636Y-133000977D01*
X105521656Y-132885020D01*
X105281565Y-132818040D01*
X104495605Y-133604000D01*
X104136395Y-133604000D01*
X103350435Y-132818040D01*
X103110344Y-132885020D01*
X102993244Y-133134048D01*
X102926977Y-133401135D01*
X102914090Y-133676017D01*
X95736000Y-133676017D01*
X95736000Y-132638435D01*
X103530040Y-132638435D01*
X104316000Y-133424395D01*
X105101960Y-132638435D01*
X105034980Y-132398344D01*
X104785952Y-132281244D01*
X104518865Y-132214977D01*
X104243983Y-132202090D01*
X103971867Y-132243078D01*
X103712977Y-132336364D01*
X103597020Y-132398344D01*
X103530040Y-132638435D01*
X95736000Y-132638435D01*
X95736000Y-123306408D01*
X102919000Y-123306408D01*
X102919000Y-123581592D01*
X102972686Y-123851490D01*
X103077995Y-124105727D01*
X103230880Y-124334535D01*
X103425465Y-124529120D01*
X103654273Y-124682005D01*
X103731515Y-124714000D01*
X103654273Y-124745995D01*
X103425465Y-124898880D01*
X103230880Y-125093465D01*
X103077995Y-125322273D01*
X102972686Y-125576510D01*
X102919000Y-125846408D01*
X102919000Y-126121592D01*
X102972686Y-126391490D01*
X103077995Y-126645727D01*
X103230880Y-126874535D01*
X103425465Y-127069120D01*
X103654273Y-127222005D01*
X103908510Y-127327314D01*
X104178408Y-127381000D01*
X104453592Y-127381000D01*
X104723490Y-127327314D01*
X104977727Y-127222005D01*
X105206535Y-127069120D01*
X105401120Y-126874535D01*
X105554005Y-126645727D01*
X105659314Y-126391490D01*
X105713000Y-126121592D01*
X105713000Y-125846408D01*
X105659314Y-125576510D01*
X105554005Y-125322273D01*
X105401120Y-125093465D01*
X105206535Y-124898880D01*
X104977727Y-124745995D01*
X104900485Y-124714000D01*
X104977727Y-124682005D01*
X105206535Y-124529120D01*
X105401120Y-124334535D01*
X105554005Y-124105727D01*
X105659314Y-123851490D01*
X105713000Y-123581592D01*
X105713000Y-123306408D01*
X105659314Y-123036510D01*
X105554005Y-122782273D01*
X105401120Y-122553465D01*
X105206535Y-122358880D01*
X104977727Y-122205995D01*
X104723490Y-122100686D01*
X104453592Y-122047000D01*
X104178408Y-122047000D01*
X103908510Y-122100686D01*
X103654273Y-122205995D01*
X103425465Y-122358880D01*
X103230880Y-122553465D01*
X103077995Y-122782273D01*
X102972686Y-123036510D01*
X102919000Y-123306408D01*
X95736000Y-123306408D01*
X95736000Y-111936280D01*
X127676535Y-111936280D01*
X127676535Y-112853720D01*
X127855519Y-113753532D01*
X128206608Y-114601137D01*
X128716311Y-115363961D01*
X129365039Y-116012689D01*
X130127863Y-116522392D01*
X130975468Y-116873481D01*
X131875280Y-117052465D01*
X132792720Y-117052465D01*
X133692532Y-116873481D01*
X134540137Y-116522392D01*
X135302961Y-116012689D01*
X135951689Y-115363961D01*
X136461392Y-114601137D01*
X136812481Y-113753532D01*
X136991465Y-112853720D01*
X136991465Y-111936280D01*
X136812481Y-111036468D01*
X136461392Y-110188863D01*
X135951689Y-109426039D01*
X135302961Y-108777311D01*
X134540137Y-108267608D01*
X133692532Y-107916519D01*
X132792720Y-107737535D01*
X131875280Y-107737535D01*
X130975468Y-107916519D01*
X130127863Y-108267608D01*
X129365039Y-108777311D01*
X128716311Y-109426039D01*
X128206608Y-110188863D01*
X127855519Y-111036468D01*
X127676535Y-111936280D01*
X95736000Y-111936280D01*
X95736000Y-93756725D01*
X103035500Y-93756725D01*
X103035500Y-93949275D01*
X103073064Y-94138126D01*
X103146750Y-94316020D01*
X103253726Y-94476120D01*
X103389880Y-94612274D01*
X103549980Y-94719250D01*
X103727874Y-94792936D01*
X103916725Y-94830500D01*
X104109275Y-94830500D01*
X104298126Y-94792936D01*
X104476020Y-94719250D01*
X104636120Y-94612274D01*
X104772274Y-94476120D01*
X104879250Y-94316020D01*
X104952936Y-94138126D01*
X104990500Y-93949275D01*
X104990500Y-93756725D01*
X104952936Y-93567874D01*
X104879250Y-93389980D01*
X104772274Y-93229880D01*
X104636120Y-93093726D01*
X104476020Y-92986750D01*
X104298126Y-92913064D01*
X104109275Y-92875500D01*
X103916725Y-92875500D01*
X103727874Y-92913064D01*
X103549980Y-92986750D01*
X103389880Y-93093726D01*
X103253726Y-93229880D01*
X103146750Y-93389980D01*
X103073064Y-93567874D01*
X103035500Y-93756725D01*
X95736000Y-93756725D01*
X95736000Y-89946725D01*
X111417500Y-89946725D01*
X111417500Y-90139275D01*
X111455064Y-90328126D01*
X111528750Y-90506020D01*
X111635726Y-90666120D01*
X111771880Y-90802274D01*
X111931980Y-90909250D01*
X112109874Y-90982936D01*
X112298725Y-91020500D01*
X112491275Y-91020500D01*
X112680126Y-90982936D01*
X112858020Y-90909250D01*
X113018120Y-90802274D01*
X113154274Y-90666120D01*
X113261250Y-90506020D01*
X113334936Y-90328126D01*
X113372500Y-90139275D01*
X113372500Y-89946725D01*
X113334936Y-89757874D01*
X113261250Y-89579980D01*
X113154274Y-89419880D01*
X113018120Y-89283726D01*
X112858020Y-89176750D01*
X112680126Y-89103064D01*
X112491275Y-89065500D01*
X112298725Y-89065500D01*
X112109874Y-89103064D01*
X111931980Y-89176750D01*
X111771880Y-89283726D01*
X111635726Y-89419880D01*
X111528750Y-89579980D01*
X111455064Y-89757874D01*
X111417500Y-89946725D01*
X95736000Y-89946725D01*
X95736000Y-85755725D01*
X158407500Y-85755725D01*
X158407500Y-85948275D01*
X158445064Y-86137126D01*
X158518750Y-86315020D01*
X158625726Y-86475120D01*
X158761880Y-86611274D01*
X158921980Y-86718250D01*
X159099874Y-86791936D01*
X159288725Y-86829500D01*
X159481275Y-86829500D01*
X159670126Y-86791936D01*
X159848020Y-86718250D01*
X160008120Y-86611274D01*
X160144274Y-86475120D01*
X160251250Y-86315020D01*
X160324936Y-86137126D01*
X160362500Y-85948275D01*
X160362500Y-85755725D01*
X160324936Y-85566874D01*
X160251250Y-85388980D01*
X160144274Y-85228880D01*
X160008120Y-85092726D01*
X159848020Y-84985750D01*
X159670126Y-84912064D01*
X159481275Y-84874500D01*
X159288725Y-84874500D01*
X159099874Y-84912064D01*
X158921980Y-84985750D01*
X158761880Y-85092726D01*
X158625726Y-85228880D01*
X158518750Y-85388980D01*
X158445064Y-85566874D01*
X158407500Y-85755725D01*
X95736000Y-85755725D01*
X95736000Y-81636891D01*
X109810519Y-81636891D01*
X109907843Y-81911252D01*
X110056822Y-82161355D01*
X110251731Y-82377588D01*
X110485080Y-82551641D01*
X110747901Y-82676825D01*
X110895110Y-82721476D01*
X111125000Y-82600155D01*
X111125000Y-81407000D01*
X111379000Y-81407000D01*
X111379000Y-82600155D01*
X111608890Y-82721476D01*
X111756099Y-82676825D01*
X112018920Y-82551641D01*
X112252269Y-82377588D01*
X112447178Y-82161355D01*
X112522000Y-82035745D01*
X112596822Y-82161355D01*
X112791731Y-82377588D01*
X113025080Y-82551641D01*
X113287901Y-82676825D01*
X113435110Y-82721476D01*
X113665000Y-82600155D01*
X113665000Y-81407000D01*
X113919000Y-81407000D01*
X113919000Y-82600155D01*
X114148890Y-82721476D01*
X114296099Y-82676825D01*
X114558920Y-82551641D01*
X114792269Y-82377588D01*
X114987178Y-82161355D01*
X115062000Y-82035745D01*
X115136822Y-82161355D01*
X115331731Y-82377588D01*
X115565080Y-82551641D01*
X115827901Y-82676825D01*
X115975110Y-82721476D01*
X116205000Y-82600155D01*
X116205000Y-81407000D01*
X113919000Y-81407000D01*
X113665000Y-81407000D01*
X111379000Y-81407000D01*
X111125000Y-81407000D01*
X109931186Y-81407000D01*
X109810519Y-81636891D01*
X95736000Y-81636891D01*
X95736000Y-80923109D01*
X109810519Y-80923109D01*
X109931186Y-81153000D01*
X111125000Y-81153000D01*
X111125000Y-79959845D01*
X111379000Y-79959845D01*
X111379000Y-81153000D01*
X113665000Y-81153000D01*
X113665000Y-79959845D01*
X113919000Y-79959845D01*
X113919000Y-81153000D01*
X116205000Y-81153000D01*
X116205000Y-79959845D01*
X116459000Y-79959845D01*
X116459000Y-81153000D01*
X116479000Y-81153000D01*
X116479000Y-81407000D01*
X116459000Y-81407000D01*
X116459000Y-82600155D01*
X116688890Y-82721476D01*
X116836099Y-82676825D01*
X117098920Y-82551641D01*
X117332269Y-82377588D01*
X117527178Y-82161355D01*
X117596805Y-82044466D01*
X117718525Y-82226632D01*
X117925368Y-82433475D01*
X118168589Y-82595990D01*
X118438842Y-82707932D01*
X118725740Y-82765000D01*
X119018260Y-82765000D01*
X119305158Y-82707932D01*
X119575411Y-82595990D01*
X119818632Y-82433475D01*
X120025475Y-82226632D01*
X120147195Y-82044466D01*
X120216822Y-82161355D01*
X120411731Y-82377588D01*
X120645080Y-82551641D01*
X120907901Y-82676825D01*
X121055110Y-82721476D01*
X121285000Y-82600155D01*
X121285000Y-81407000D01*
X121265000Y-81407000D01*
X121265000Y-81153000D01*
X121285000Y-81153000D01*
X121285000Y-79959845D01*
X121539000Y-79959845D01*
X121539000Y-81153000D01*
X121559000Y-81153000D01*
X121559000Y-81407000D01*
X121539000Y-81407000D01*
X121539000Y-82600155D01*
X121768890Y-82721476D01*
X121916099Y-82676825D01*
X122178920Y-82551641D01*
X122412269Y-82377588D01*
X122607178Y-82161355D01*
X122676805Y-82044466D01*
X122798525Y-82226632D01*
X123005368Y-82433475D01*
X123248589Y-82595990D01*
X123518842Y-82707932D01*
X123805740Y-82765000D01*
X124098260Y-82765000D01*
X124385158Y-82707932D01*
X124655411Y-82595990D01*
X124898632Y-82433475D01*
X125105475Y-82226632D01*
X125227195Y-82044466D01*
X125296822Y-82161355D01*
X125491731Y-82377588D01*
X125725080Y-82551641D01*
X125987901Y-82676825D01*
X126135110Y-82721476D01*
X126365000Y-82600155D01*
X126365000Y-81407000D01*
X126345000Y-81407000D01*
X126345000Y-81153000D01*
X126365000Y-81153000D01*
X126365000Y-79959845D01*
X126619000Y-79959845D01*
X126619000Y-81153000D01*
X126639000Y-81153000D01*
X126639000Y-81407000D01*
X126619000Y-81407000D01*
X126619000Y-82600155D01*
X126848890Y-82721476D01*
X126996099Y-82676825D01*
X127258920Y-82551641D01*
X127492269Y-82377588D01*
X127687178Y-82161355D01*
X127756805Y-82044466D01*
X127878525Y-82226632D01*
X128085368Y-82433475D01*
X128328589Y-82595990D01*
X128598842Y-82707932D01*
X128885740Y-82765000D01*
X129178260Y-82765000D01*
X129465158Y-82707932D01*
X129735411Y-82595990D01*
X129978632Y-82433475D01*
X130185475Y-82226632D01*
X130307195Y-82044466D01*
X130376822Y-82161355D01*
X130571731Y-82377588D01*
X130805080Y-82551641D01*
X131067901Y-82676825D01*
X131215110Y-82721476D01*
X131445000Y-82600155D01*
X131445000Y-81407000D01*
X131425000Y-81407000D01*
X131425000Y-81153000D01*
X131445000Y-81153000D01*
X131445000Y-79959845D01*
X131699000Y-79959845D01*
X131699000Y-81153000D01*
X131719000Y-81153000D01*
X131719000Y-81407000D01*
X131699000Y-81407000D01*
X131699000Y-82600155D01*
X131928890Y-82721476D01*
X132076099Y-82676825D01*
X132338920Y-82551641D01*
X132572269Y-82377588D01*
X132767178Y-82161355D01*
X132836805Y-82044466D01*
X132958525Y-82226632D01*
X133165368Y-82433475D01*
X133408589Y-82595990D01*
X133678842Y-82707932D01*
X133965740Y-82765000D01*
X134258260Y-82765000D01*
X134545158Y-82707932D01*
X134815411Y-82595990D01*
X135058632Y-82433475D01*
X135265475Y-82226632D01*
X135387195Y-82044466D01*
X135456822Y-82161355D01*
X135651731Y-82377588D01*
X135885080Y-82551641D01*
X136147901Y-82676825D01*
X136295110Y-82721476D01*
X136525000Y-82600155D01*
X136525000Y-81407000D01*
X136505000Y-81407000D01*
X136505000Y-81153000D01*
X136525000Y-81153000D01*
X136525000Y-79959845D01*
X136779000Y-79959845D01*
X136779000Y-81153000D01*
X136799000Y-81153000D01*
X136799000Y-81407000D01*
X136779000Y-81407000D01*
X136779000Y-82600155D01*
X137008890Y-82721476D01*
X137156099Y-82676825D01*
X137418920Y-82551641D01*
X137652269Y-82377588D01*
X137847178Y-82161355D01*
X137916805Y-82044466D01*
X138038525Y-82226632D01*
X138245368Y-82433475D01*
X138488589Y-82595990D01*
X138758842Y-82707932D01*
X139045740Y-82765000D01*
X139338260Y-82765000D01*
X139625158Y-82707932D01*
X139895411Y-82595990D01*
X140138632Y-82433475D01*
X140345475Y-82226632D01*
X140467195Y-82044466D01*
X140536822Y-82161355D01*
X140731731Y-82377588D01*
X140965080Y-82551641D01*
X141227901Y-82676825D01*
X141375110Y-82721476D01*
X141605000Y-82600155D01*
X141605000Y-81407000D01*
X141585000Y-81407000D01*
X141585000Y-81153000D01*
X141605000Y-81153000D01*
X141605000Y-79959845D01*
X141859000Y-79959845D01*
X141859000Y-81153000D01*
X141879000Y-81153000D01*
X141879000Y-81407000D01*
X141859000Y-81407000D01*
X141859000Y-82600155D01*
X142088890Y-82721476D01*
X142236099Y-82676825D01*
X142498920Y-82551641D01*
X142732269Y-82377588D01*
X142927178Y-82161355D01*
X142996805Y-82044466D01*
X143118525Y-82226632D01*
X143325368Y-82433475D01*
X143568589Y-82595990D01*
X143838842Y-82707932D01*
X144125740Y-82765000D01*
X144418260Y-82765000D01*
X144705158Y-82707932D01*
X144975411Y-82595990D01*
X145218632Y-82433475D01*
X145425475Y-82226632D01*
X145547195Y-82044466D01*
X145616822Y-82161355D01*
X145811731Y-82377588D01*
X146045080Y-82551641D01*
X146307901Y-82676825D01*
X146455110Y-82721476D01*
X146685000Y-82600155D01*
X146685000Y-81407000D01*
X146665000Y-81407000D01*
X146665000Y-81153000D01*
X146685000Y-81153000D01*
X146685000Y-79959845D01*
X146939000Y-79959845D01*
X146939000Y-81153000D01*
X146959000Y-81153000D01*
X146959000Y-81407000D01*
X146939000Y-81407000D01*
X146939000Y-82600155D01*
X147168890Y-82721476D01*
X147316099Y-82676825D01*
X147578920Y-82551641D01*
X147812269Y-82377588D01*
X148007178Y-82161355D01*
X148076805Y-82044466D01*
X148198525Y-82226632D01*
X148405368Y-82433475D01*
X148648589Y-82595990D01*
X148918842Y-82707932D01*
X149205740Y-82765000D01*
X149498260Y-82765000D01*
X149785158Y-82707932D01*
X150055411Y-82595990D01*
X150298632Y-82433475D01*
X150505475Y-82226632D01*
X150627195Y-82044466D01*
X150696822Y-82161355D01*
X150891731Y-82377588D01*
X151125080Y-82551641D01*
X151387901Y-82676825D01*
X151535110Y-82721476D01*
X151765000Y-82600155D01*
X151765000Y-81407000D01*
X151745000Y-81407000D01*
X151745000Y-81153000D01*
X151765000Y-81153000D01*
X151765000Y-79959845D01*
X152019000Y-79959845D01*
X152019000Y-81153000D01*
X152039000Y-81153000D01*
X152039000Y-81407000D01*
X152019000Y-81407000D01*
X152019000Y-82600155D01*
X152248890Y-82721476D01*
X152396099Y-82676825D01*
X152658920Y-82551641D01*
X152892269Y-82377588D01*
X153087178Y-82161355D01*
X153156805Y-82044466D01*
X153278525Y-82226632D01*
X153485368Y-82433475D01*
X153728589Y-82595990D01*
X153998842Y-82707932D01*
X154285740Y-82765000D01*
X154578260Y-82765000D01*
X154865158Y-82707932D01*
X155135411Y-82595990D01*
X155378632Y-82433475D01*
X155585475Y-82226632D01*
X155707195Y-82044466D01*
X155776822Y-82161355D01*
X155971731Y-82377588D01*
X156205080Y-82551641D01*
X156467901Y-82676825D01*
X156615110Y-82721476D01*
X156845000Y-82600155D01*
X156845000Y-81407000D01*
X156825000Y-81407000D01*
X156825000Y-81153000D01*
X156845000Y-81153000D01*
X156845000Y-79959845D01*
X157099000Y-79959845D01*
X157099000Y-81153000D01*
X157119000Y-81153000D01*
X157119000Y-81407000D01*
X157099000Y-81407000D01*
X157099000Y-82600155D01*
X157328890Y-82721476D01*
X157476099Y-82676825D01*
X157738920Y-82551641D01*
X157972269Y-82377588D01*
X158048034Y-82293534D01*
X158072498Y-82374180D01*
X158131463Y-82484494D01*
X158210815Y-82581185D01*
X158307506Y-82660537D01*
X158417820Y-82719502D01*
X158537518Y-82755812D01*
X158662000Y-82768072D01*
X160362000Y-82768072D01*
X160486482Y-82755812D01*
X160606180Y-82719502D01*
X160716494Y-82660537D01*
X160813185Y-82581185D01*
X160892537Y-82484494D01*
X160951502Y-82374180D01*
X160987812Y-82254482D01*
X161000072Y-82130000D01*
X161000072Y-80430000D01*
X160987812Y-80305518D01*
X160951502Y-80185820D01*
X160892537Y-80075506D01*
X160813185Y-79978815D01*
X160716494Y-79899463D01*
X160606180Y-79840498D01*
X160486482Y-79804188D01*
X160362000Y-79791928D01*
X158662000Y-79791928D01*
X158537518Y-79804188D01*
X158417820Y-79840498D01*
X158307506Y-79899463D01*
X158210815Y-79978815D01*
X158131463Y-80075506D01*
X158072498Y-80185820D01*
X158048034Y-80266466D01*
X157972269Y-80182412D01*
X157738920Y-80008359D01*
X157476099Y-79883175D01*
X157328890Y-79838524D01*
X157099000Y-79959845D01*
X156845000Y-79959845D01*
X156615110Y-79838524D01*
X156467901Y-79883175D01*
X156205080Y-80008359D01*
X155971731Y-80182412D01*
X155776822Y-80398645D01*
X155707195Y-80515534D01*
X155585475Y-80333368D01*
X155378632Y-80126525D01*
X155135411Y-79964010D01*
X154865158Y-79852068D01*
X154578260Y-79795000D01*
X154285740Y-79795000D01*
X153998842Y-79852068D01*
X153728589Y-79964010D01*
X153485368Y-80126525D01*
X153278525Y-80333368D01*
X153156805Y-80515534D01*
X153087178Y-80398645D01*
X152892269Y-80182412D01*
X152658920Y-80008359D01*
X152396099Y-79883175D01*
X152248890Y-79838524D01*
X152019000Y-79959845D01*
X151765000Y-79959845D01*
X151535110Y-79838524D01*
X151387901Y-79883175D01*
X151125080Y-80008359D01*
X150891731Y-80182412D01*
X150696822Y-80398645D01*
X150627195Y-80515534D01*
X150505475Y-80333368D01*
X150298632Y-80126525D01*
X150055411Y-79964010D01*
X149785158Y-79852068D01*
X149498260Y-79795000D01*
X149205740Y-79795000D01*
X148918842Y-79852068D01*
X148648589Y-79964010D01*
X148405368Y-80126525D01*
X148198525Y-80333368D01*
X148076805Y-80515534D01*
X148007178Y-80398645D01*
X147812269Y-80182412D01*
X147578920Y-80008359D01*
X147316099Y-79883175D01*
X147168890Y-79838524D01*
X146939000Y-79959845D01*
X146685000Y-79959845D01*
X146455110Y-79838524D01*
X146307901Y-79883175D01*
X146045080Y-80008359D01*
X145811731Y-80182412D01*
X145616822Y-80398645D01*
X145547195Y-80515534D01*
X145425475Y-80333368D01*
X145218632Y-80126525D01*
X144975411Y-79964010D01*
X144705158Y-79852068D01*
X144418260Y-79795000D01*
X144125740Y-79795000D01*
X143838842Y-79852068D01*
X143568589Y-79964010D01*
X143325368Y-80126525D01*
X143118525Y-80333368D01*
X142996805Y-80515534D01*
X142927178Y-80398645D01*
X142732269Y-80182412D01*
X142498920Y-80008359D01*
X142236099Y-79883175D01*
X142088890Y-79838524D01*
X141859000Y-79959845D01*
X141605000Y-79959845D01*
X141375110Y-79838524D01*
X141227901Y-79883175D01*
X140965080Y-80008359D01*
X140731731Y-80182412D01*
X140536822Y-80398645D01*
X140467195Y-80515534D01*
X140345475Y-80333368D01*
X140138632Y-80126525D01*
X139895411Y-79964010D01*
X139625158Y-79852068D01*
X139338260Y-79795000D01*
X139045740Y-79795000D01*
X138758842Y-79852068D01*
X138488589Y-79964010D01*
X138245368Y-80126525D01*
X138038525Y-80333368D01*
X137916805Y-80515534D01*
X137847178Y-80398645D01*
X137652269Y-80182412D01*
X137418920Y-80008359D01*
X137156099Y-79883175D01*
X137008890Y-79838524D01*
X136779000Y-79959845D01*
X136525000Y-79959845D01*
X136295110Y-79838524D01*
X136147901Y-79883175D01*
X135885080Y-80008359D01*
X135651731Y-80182412D01*
X135456822Y-80398645D01*
X135387195Y-80515534D01*
X135265475Y-80333368D01*
X135058632Y-80126525D01*
X134815411Y-79964010D01*
X134545158Y-79852068D01*
X134258260Y-79795000D01*
X133965740Y-79795000D01*
X133678842Y-79852068D01*
X133408589Y-79964010D01*
X133165368Y-80126525D01*
X132958525Y-80333368D01*
X132836805Y-80515534D01*
X132767178Y-80398645D01*
X132572269Y-80182412D01*
X132338920Y-80008359D01*
X132076099Y-79883175D01*
X131928890Y-79838524D01*
X131699000Y-79959845D01*
X131445000Y-79959845D01*
X131215110Y-79838524D01*
X131067901Y-79883175D01*
X130805080Y-80008359D01*
X130571731Y-80182412D01*
X130376822Y-80398645D01*
X130307195Y-80515534D01*
X130185475Y-80333368D01*
X129978632Y-80126525D01*
X129735411Y-79964010D01*
X129465158Y-79852068D01*
X129178260Y-79795000D01*
X128885740Y-79795000D01*
X128598842Y-79852068D01*
X128328589Y-79964010D01*
X128085368Y-80126525D01*
X127878525Y-80333368D01*
X127756805Y-80515534D01*
X127687178Y-80398645D01*
X127492269Y-80182412D01*
X127258920Y-80008359D01*
X126996099Y-79883175D01*
X126848890Y-79838524D01*
X126619000Y-79959845D01*
X126365000Y-79959845D01*
X126135110Y-79838524D01*
X125987901Y-79883175D01*
X125725080Y-80008359D01*
X125491731Y-80182412D01*
X125296822Y-80398645D01*
X125227195Y-80515534D01*
X125105475Y-80333368D01*
X124898632Y-80126525D01*
X124655411Y-79964010D01*
X124385158Y-79852068D01*
X124098260Y-79795000D01*
X123805740Y-79795000D01*
X123518842Y-79852068D01*
X123248589Y-79964010D01*
X123005368Y-80126525D01*
X122798525Y-80333368D01*
X122676805Y-80515534D01*
X122607178Y-80398645D01*
X122412269Y-80182412D01*
X122178920Y-80008359D01*
X121916099Y-79883175D01*
X121768890Y-79838524D01*
X121539000Y-79959845D01*
X121285000Y-79959845D01*
X121055110Y-79838524D01*
X120907901Y-79883175D01*
X120645080Y-80008359D01*
X120411731Y-80182412D01*
X120216822Y-80398645D01*
X120147195Y-80515534D01*
X120025475Y-80333368D01*
X119818632Y-80126525D01*
X119575411Y-79964010D01*
X119305158Y-79852068D01*
X119018260Y-79795000D01*
X118725740Y-79795000D01*
X118438842Y-79852068D01*
X118168589Y-79964010D01*
X117925368Y-80126525D01*
X117718525Y-80333368D01*
X117596805Y-80515534D01*
X117527178Y-80398645D01*
X117332269Y-80182412D01*
X117098920Y-80008359D01*
X116836099Y-79883175D01*
X116688890Y-79838524D01*
X116459000Y-79959845D01*
X116205000Y-79959845D01*
X115975110Y-79838524D01*
X115827901Y-79883175D01*
X115565080Y-80008359D01*
X115331731Y-80182412D01*
X115136822Y-80398645D01*
X115062000Y-80524255D01*
X114987178Y-80398645D01*
X114792269Y-80182412D01*
X114558920Y-80008359D01*
X114296099Y-79883175D01*
X114148890Y-79838524D01*
X113919000Y-79959845D01*
X113665000Y-79959845D01*
X113435110Y-79838524D01*
X113287901Y-79883175D01*
X113025080Y-80008359D01*
X112791731Y-80182412D01*
X112596822Y-80398645D01*
X112522000Y-80524255D01*
X112447178Y-80398645D01*
X112252269Y-80182412D01*
X112018920Y-80008359D01*
X111756099Y-79883175D01*
X111608890Y-79838524D01*
X111379000Y-79959845D01*
X111125000Y-79959845D01*
X110895110Y-79838524D01*
X110747901Y-79883175D01*
X110485080Y-80008359D01*
X110251731Y-80182412D01*
X110056822Y-80398645D01*
X109907843Y-80648748D01*
X109810519Y-80923109D01*
X95736000Y-80923109D01*
X95736000Y-76751425D01*
X119621700Y-76751425D01*
X119621700Y-76943975D01*
X119659264Y-77132826D01*
X119732950Y-77310720D01*
X119839926Y-77470820D01*
X119976080Y-77606974D01*
X120136180Y-77713950D01*
X120314074Y-77787636D01*
X120502925Y-77825200D01*
X120695475Y-77825200D01*
X120884326Y-77787636D01*
X121062220Y-77713950D01*
X121222320Y-77606974D01*
X121358474Y-77470820D01*
X121465450Y-77310720D01*
X121539136Y-77132826D01*
X121576700Y-76943975D01*
X121576700Y-76751425D01*
X136766700Y-76751425D01*
X136766700Y-76943975D01*
X136804264Y-77132826D01*
X136877950Y-77310720D01*
X136984926Y-77470820D01*
X137121080Y-77606974D01*
X137281180Y-77713950D01*
X137459074Y-77787636D01*
X137647925Y-77825200D01*
X137840475Y-77825200D01*
X138029326Y-77787636D01*
X138207220Y-77713950D01*
X138367320Y-77606974D01*
X138503474Y-77470820D01*
X138610450Y-77310720D01*
X138684136Y-77132826D01*
X138721700Y-76943975D01*
X138721700Y-76751425D01*
X152832200Y-76751425D01*
X152832200Y-76943975D01*
X152869764Y-77132826D01*
X152943450Y-77310720D01*
X153050426Y-77470820D01*
X153186580Y-77606974D01*
X153346680Y-77713950D01*
X153524574Y-77787636D01*
X153713425Y-77825200D01*
X153905975Y-77825200D01*
X154094826Y-77787636D01*
X154272720Y-77713950D01*
X154432820Y-77606974D01*
X154568974Y-77470820D01*
X154675950Y-77310720D01*
X154749636Y-77132826D01*
X154787200Y-76943975D01*
X154787200Y-76751425D01*
X154749636Y-76562574D01*
X154675950Y-76384680D01*
X154568974Y-76224580D01*
X154432820Y-76088426D01*
X154272720Y-75981450D01*
X154094826Y-75907764D01*
X153905975Y-75870200D01*
X153713425Y-75870200D01*
X153524574Y-75907764D01*
X153346680Y-75981450D01*
X153186580Y-76088426D01*
X153050426Y-76224580D01*
X152943450Y-76384680D01*
X152869764Y-76562574D01*
X152832200Y-76751425D01*
X138721700Y-76751425D01*
X138684136Y-76562574D01*
X138610450Y-76384680D01*
X138503474Y-76224580D01*
X138367320Y-76088426D01*
X138207220Y-75981450D01*
X138029326Y-75907764D01*
X137840475Y-75870200D01*
X137647925Y-75870200D01*
X137459074Y-75907764D01*
X137281180Y-75981450D01*
X137121080Y-76088426D01*
X136984926Y-76224580D01*
X136877950Y-76384680D01*
X136804264Y-76562574D01*
X136766700Y-76751425D01*
X121576700Y-76751425D01*
X121539136Y-76562574D01*
X121465450Y-76384680D01*
X121358474Y-76224580D01*
X121222320Y-76088426D01*
X121062220Y-75981450D01*
X120884326Y-75907764D01*
X120695475Y-75870200D01*
X120502925Y-75870200D01*
X120314074Y-75907764D01*
X120136180Y-75981450D01*
X119976080Y-76088426D01*
X119839926Y-76224580D01*
X119732950Y-76384680D01*
X119659264Y-76562574D01*
X119621700Y-76751425D01*
X95736000Y-76751425D01*
X95736000Y-74494422D01*
X174450738Y-74494422D01*
X174450738Y-74931578D01*
X174536023Y-75360335D01*
X174703316Y-75764215D01*
X174946187Y-76127697D01*
X175255303Y-76436813D01*
X175618785Y-76679684D01*
X176022665Y-76846977D01*
X176451422Y-76932262D01*
X176888578Y-76932262D01*
X177317335Y-76846977D01*
X177721215Y-76679684D01*
X178084697Y-76436813D01*
X178393813Y-76127697D01*
X178636684Y-75764215D01*
X178803977Y-75360335D01*
X178889262Y-74931578D01*
X178889262Y-74494422D01*
X178803977Y-74065665D01*
X178636684Y-73661785D01*
X178393813Y-73298303D01*
X178084697Y-72989187D01*
X177721215Y-72746316D01*
X177317335Y-72579023D01*
X176888578Y-72493738D01*
X176451422Y-72493738D01*
X176022665Y-72579023D01*
X175618785Y-72746316D01*
X175255303Y-72989187D01*
X174946187Y-73298303D01*
X174703316Y-73661785D01*
X174536023Y-74065665D01*
X174450738Y-74494422D01*
X95736000Y-74494422D01*
X95736000Y-68594565D01*
X174300040Y-68594565D01*
X174367020Y-68834656D01*
X174616048Y-68951756D01*
X174883135Y-69018023D01*
X175158017Y-69030910D01*
X175430133Y-68989922D01*
X175689023Y-68896636D01*
X175804980Y-68834656D01*
X175871960Y-68594565D01*
X175086000Y-67808605D01*
X174300040Y-68594565D01*
X95736000Y-68594565D01*
X95736000Y-67701017D01*
X173684090Y-67701017D01*
X173725078Y-67973133D01*
X173818364Y-68232023D01*
X173880344Y-68347980D01*
X174120435Y-68414960D01*
X174906395Y-67629000D01*
X175265605Y-67629000D01*
X176051565Y-68414960D01*
X176291656Y-68347980D01*
X176408756Y-68098952D01*
X176475023Y-67831865D01*
X176487910Y-67556983D01*
X176446922Y-67284867D01*
X176353636Y-67025977D01*
X176291656Y-66910020D01*
X176051565Y-66843040D01*
X175265605Y-67629000D01*
X174906395Y-67629000D01*
X174120435Y-66843040D01*
X173880344Y-66910020D01*
X173763244Y-67159048D01*
X173696977Y-67426135D01*
X173684090Y-67701017D01*
X95736000Y-67701017D01*
X95736000Y-62052725D01*
X117594500Y-62052725D01*
X117594500Y-62245275D01*
X117632064Y-62434126D01*
X117705750Y-62612020D01*
X117812726Y-62772120D01*
X117948880Y-62908274D01*
X118108980Y-63015250D01*
X118286874Y-63088936D01*
X118475725Y-63126500D01*
X118668275Y-63126500D01*
X118857126Y-63088936D01*
X119035020Y-63015250D01*
X119195120Y-62908274D01*
X119331274Y-62772120D01*
X119438250Y-62612020D01*
X119511936Y-62434126D01*
X119549500Y-62245275D01*
X119549500Y-62052725D01*
X136263500Y-62052725D01*
X136263500Y-62245275D01*
X136301064Y-62434126D01*
X136374750Y-62612020D01*
X136481726Y-62772120D01*
X136617880Y-62908274D01*
X136777980Y-63015250D01*
X136955874Y-63088936D01*
X137144725Y-63126500D01*
X137337275Y-63126500D01*
X137526126Y-63088936D01*
X137704020Y-63015250D01*
X137864120Y-62908274D01*
X138000274Y-62772120D01*
X138107250Y-62612020D01*
X138180936Y-62434126D01*
X138218500Y-62245275D01*
X138218500Y-62052725D01*
X152738500Y-62052725D01*
X152738500Y-62245275D01*
X152776064Y-62434126D01*
X152849750Y-62612020D01*
X152956726Y-62772120D01*
X153092880Y-62908274D01*
X153252980Y-63015250D01*
X153430874Y-63088936D01*
X153619725Y-63126500D01*
X153812275Y-63126500D01*
X154001126Y-63088936D01*
X154179020Y-63015250D01*
X154339120Y-62908274D01*
X154475274Y-62772120D01*
X154582250Y-62612020D01*
X154655936Y-62434126D01*
X154693500Y-62245275D01*
X154693500Y-62052725D01*
X154655936Y-61863874D01*
X154582250Y-61685980D01*
X154475274Y-61525880D01*
X154339120Y-61389726D01*
X154179020Y-61282750D01*
X154001126Y-61209064D01*
X153812275Y-61171500D01*
X153619725Y-61171500D01*
X153430874Y-61209064D01*
X153252980Y-61282750D01*
X153092880Y-61389726D01*
X152956726Y-61525880D01*
X152849750Y-61685980D01*
X152776064Y-61863874D01*
X152738500Y-62052725D01*
X138218500Y-62052725D01*
X138180936Y-61863874D01*
X138107250Y-61685980D01*
X138000274Y-61525880D01*
X137864120Y-61389726D01*
X137704020Y-61282750D01*
X137526126Y-61209064D01*
X137337275Y-61171500D01*
X137144725Y-61171500D01*
X136955874Y-61209064D01*
X136777980Y-61282750D01*
X136617880Y-61389726D01*
X136481726Y-61525880D01*
X136374750Y-61685980D01*
X136301064Y-61863874D01*
X136263500Y-62052725D01*
X119549500Y-62052725D01*
X119511936Y-61863874D01*
X119438250Y-61685980D01*
X119331274Y-61525880D01*
X119195120Y-61389726D01*
X119035020Y-61282750D01*
X118857126Y-61209064D01*
X118668275Y-61171500D01*
X118475725Y-61171500D01*
X118286874Y-61209064D01*
X118108980Y-61282750D01*
X117948880Y-61389726D01*
X117812726Y-61525880D01*
X117705750Y-61685980D01*
X117632064Y-61863874D01*
X117594500Y-62052725D01*
X95736000Y-62052725D01*
X95736000Y-60101725D01*
X112687500Y-60101725D01*
X112687500Y-60294275D01*
X112725064Y-60483126D01*
X112798750Y-60661020D01*
X112905726Y-60821120D01*
X113041880Y-60957274D01*
X113201980Y-61064250D01*
X113379874Y-61137936D01*
X113568725Y-61175500D01*
X113761275Y-61175500D01*
X113950126Y-61137936D01*
X114128020Y-61064250D01*
X114288120Y-60957274D01*
X114424274Y-60821120D01*
X114531250Y-60661020D01*
X114604936Y-60483126D01*
X114642500Y-60294275D01*
X114642500Y-60101725D01*
X114604936Y-59912874D01*
X114531250Y-59734980D01*
X114521726Y-59720725D01*
X127038500Y-59720725D01*
X127038500Y-59913275D01*
X127076064Y-60102126D01*
X127149750Y-60280020D01*
X127256726Y-60440120D01*
X127392880Y-60576274D01*
X127552980Y-60683250D01*
X127730874Y-60756936D01*
X127919725Y-60794500D01*
X128112275Y-60794500D01*
X128301126Y-60756936D01*
X128479020Y-60683250D01*
X128639120Y-60576274D01*
X128775274Y-60440120D01*
X128882250Y-60280020D01*
X128955936Y-60102126D01*
X128981277Y-59974725D01*
X133642500Y-59974725D01*
X133642500Y-60167275D01*
X133680064Y-60356126D01*
X133753750Y-60534020D01*
X133860726Y-60694120D01*
X133996880Y-60830274D01*
X134156980Y-60937250D01*
X134334874Y-61010936D01*
X134523725Y-61048500D01*
X134716275Y-61048500D01*
X134905126Y-61010936D01*
X135083020Y-60937250D01*
X135243120Y-60830274D01*
X135379274Y-60694120D01*
X135486250Y-60534020D01*
X135559936Y-60356126D01*
X135597500Y-60167275D01*
X135597500Y-59974725D01*
X135559936Y-59785874D01*
X135486250Y-59607980D01*
X135379274Y-59447880D01*
X135243120Y-59311726D01*
X135083020Y-59204750D01*
X134905126Y-59131064D01*
X134716275Y-59093500D01*
X134523725Y-59093500D01*
X134334874Y-59131064D01*
X134156980Y-59204750D01*
X133996880Y-59311726D01*
X133860726Y-59447880D01*
X133753750Y-59607980D01*
X133680064Y-59785874D01*
X133642500Y-59974725D01*
X128981277Y-59974725D01*
X128993500Y-59913275D01*
X128993500Y-59720725D01*
X128955936Y-59531874D01*
X128882250Y-59353980D01*
X128775274Y-59193880D01*
X128639120Y-59057726D01*
X128479020Y-58950750D01*
X128301126Y-58877064D01*
X128112275Y-58839500D01*
X127919725Y-58839500D01*
X127730874Y-58877064D01*
X127552980Y-58950750D01*
X127392880Y-59057726D01*
X127256726Y-59193880D01*
X127149750Y-59353980D01*
X127076064Y-59531874D01*
X127038500Y-59720725D01*
X114521726Y-59720725D01*
X114424274Y-59574880D01*
X114288120Y-59438726D01*
X114128020Y-59331750D01*
X113950126Y-59258064D01*
X113761275Y-59220500D01*
X113568725Y-59220500D01*
X113379874Y-59258064D01*
X113201980Y-59331750D01*
X113041880Y-59438726D01*
X112905726Y-59574880D01*
X112798750Y-59734980D01*
X112725064Y-59912874D01*
X112687500Y-60101725D01*
X95736000Y-60101725D01*
X95736000Y-53878725D01*
X141516500Y-53878725D01*
X141516500Y-54071275D01*
X141554064Y-54260126D01*
X141627750Y-54438020D01*
X141734726Y-54598120D01*
X141870880Y-54734274D01*
X142030980Y-54841250D01*
X142208874Y-54914936D01*
X142397725Y-54952500D01*
X142590275Y-54952500D01*
X142779126Y-54914936D01*
X142957020Y-54841250D01*
X143117120Y-54734274D01*
X143253274Y-54598120D01*
X143360250Y-54438020D01*
X143433936Y-54260126D01*
X143459277Y-54132725D01*
X169202500Y-54132725D01*
X169202500Y-54325275D01*
X169240064Y-54514126D01*
X169313750Y-54692020D01*
X169420726Y-54852120D01*
X169556880Y-54988274D01*
X169716980Y-55095250D01*
X169894874Y-55168936D01*
X170083725Y-55206500D01*
X170276275Y-55206500D01*
X170465126Y-55168936D01*
X170643020Y-55095250D01*
X170803120Y-54988274D01*
X170939274Y-54852120D01*
X171046250Y-54692020D01*
X171119936Y-54514126D01*
X171157500Y-54325275D01*
X171157500Y-54132725D01*
X171119936Y-53943874D01*
X171046250Y-53765980D01*
X170939274Y-53605880D01*
X170803120Y-53469726D01*
X170741421Y-53428500D01*
X170911275Y-53428500D01*
X171100126Y-53390936D01*
X171278020Y-53317250D01*
X171438120Y-53210274D01*
X171574274Y-53074120D01*
X171681250Y-52914020D01*
X171754936Y-52736126D01*
X171792500Y-52547275D01*
X171792500Y-52354725D01*
X171754936Y-52165874D01*
X171681250Y-51987980D01*
X171574274Y-51827880D01*
X171438120Y-51691726D01*
X171278020Y-51584750D01*
X171100126Y-51511064D01*
X170911275Y-51473500D01*
X170718725Y-51473500D01*
X170529874Y-51511064D01*
X170351980Y-51584750D01*
X170191880Y-51691726D01*
X170055726Y-51827880D01*
X169948750Y-51987980D01*
X169875064Y-52165874D01*
X169837500Y-52354725D01*
X169837500Y-52547275D01*
X169875064Y-52736126D01*
X169948750Y-52914020D01*
X170055726Y-53074120D01*
X170191880Y-53210274D01*
X170253579Y-53251500D01*
X170083725Y-53251500D01*
X169894874Y-53289064D01*
X169716980Y-53362750D01*
X169556880Y-53469726D01*
X169420726Y-53605880D01*
X169313750Y-53765980D01*
X169240064Y-53943874D01*
X169202500Y-54132725D01*
X143459277Y-54132725D01*
X143471500Y-54071275D01*
X143471500Y-53878725D01*
X143433936Y-53689874D01*
X143360250Y-53511980D01*
X143253274Y-53351880D01*
X143117120Y-53215726D01*
X142957020Y-53108750D01*
X142779126Y-53035064D01*
X142590275Y-52997500D01*
X142397725Y-52997500D01*
X142208874Y-53035064D01*
X142030980Y-53108750D01*
X141870880Y-53215726D01*
X141734726Y-53351880D01*
X141627750Y-53511980D01*
X141554064Y-53689874D01*
X141516500Y-53878725D01*
X95736000Y-53878725D01*
X95736000Y-48311408D01*
X173689000Y-48311408D01*
X173689000Y-48586592D01*
X173742686Y-48856490D01*
X173847995Y-49110727D01*
X174000880Y-49339535D01*
X174195465Y-49534120D01*
X174424273Y-49687005D01*
X174678510Y-49792314D01*
X174812670Y-49819000D01*
X174678510Y-49845686D01*
X174424273Y-49950995D01*
X174195465Y-50103880D01*
X174000880Y-50298465D01*
X173847995Y-50527273D01*
X173742686Y-50781510D01*
X173689000Y-51051408D01*
X173689000Y-51326592D01*
X173742686Y-51596490D01*
X173847995Y-51850727D01*
X174000880Y-52079535D01*
X174195465Y-52274120D01*
X174424273Y-52427005D01*
X174678510Y-52532314D01*
X174812670Y-52559000D01*
X174678510Y-52585686D01*
X174424273Y-52690995D01*
X174195465Y-52843880D01*
X174000880Y-53038465D01*
X173847995Y-53267273D01*
X173742686Y-53521510D01*
X173689000Y-53791408D01*
X173689000Y-54066592D01*
X173742686Y-54336490D01*
X173847995Y-54590727D01*
X174000880Y-54819535D01*
X174195465Y-55014120D01*
X174424273Y-55167005D01*
X174678510Y-55272314D01*
X174812670Y-55299000D01*
X174678510Y-55325686D01*
X174424273Y-55430995D01*
X174195465Y-55583880D01*
X174000880Y-55778465D01*
X173847995Y-56007273D01*
X173742686Y-56261510D01*
X173689000Y-56531408D01*
X173689000Y-56806592D01*
X173742686Y-57076490D01*
X173847995Y-57330727D01*
X174000880Y-57559535D01*
X174195465Y-57754120D01*
X174424273Y-57907005D01*
X174678510Y-58012314D01*
X174812670Y-58039000D01*
X174678510Y-58065686D01*
X174424273Y-58170995D01*
X174195465Y-58323880D01*
X174000880Y-58518465D01*
X173847995Y-58747273D01*
X173742686Y-59001510D01*
X173689000Y-59271408D01*
X173689000Y-59546592D01*
X173742686Y-59816490D01*
X173847995Y-60070727D01*
X174000880Y-60299535D01*
X174195465Y-60494120D01*
X174424273Y-60647005D01*
X174678510Y-60752314D01*
X174812670Y-60779000D01*
X174678510Y-60805686D01*
X174424273Y-60910995D01*
X174195465Y-61063880D01*
X174000880Y-61258465D01*
X173847995Y-61487273D01*
X173742686Y-61741510D01*
X173689000Y-62011408D01*
X173689000Y-62286592D01*
X173742686Y-62556490D01*
X173847995Y-62810727D01*
X174000880Y-63039535D01*
X174195465Y-63234120D01*
X174424273Y-63387005D01*
X174678510Y-63492314D01*
X174812670Y-63519000D01*
X174678510Y-63545686D01*
X174424273Y-63650995D01*
X174195465Y-63803880D01*
X174000880Y-63998465D01*
X173847995Y-64227273D01*
X173742686Y-64481510D01*
X173689000Y-64751408D01*
X173689000Y-65026592D01*
X173742686Y-65296490D01*
X173847995Y-65550727D01*
X174000880Y-65779535D01*
X174195465Y-65974120D01*
X174424273Y-66127005D01*
X174678510Y-66232314D01*
X174808130Y-66258097D01*
X174741867Y-66268078D01*
X174482977Y-66361364D01*
X174367020Y-66423344D01*
X174300040Y-66663435D01*
X175086000Y-67449395D01*
X175871960Y-66663435D01*
X175804980Y-66423344D01*
X175555952Y-66306244D01*
X175362775Y-66258315D01*
X175493490Y-66232314D01*
X175747727Y-66127005D01*
X175976535Y-65974120D01*
X176171120Y-65779535D01*
X176324005Y-65550727D01*
X176429314Y-65296490D01*
X176483000Y-65026592D01*
X176483000Y-64751408D01*
X176429314Y-64481510D01*
X176324005Y-64227273D01*
X176171120Y-63998465D01*
X175976535Y-63803880D01*
X175747727Y-63650995D01*
X175493490Y-63545686D01*
X175359330Y-63519000D01*
X175493490Y-63492314D01*
X175747727Y-63387005D01*
X175976535Y-63234120D01*
X176171120Y-63039535D01*
X176324005Y-62810727D01*
X176429314Y-62556490D01*
X176483000Y-62286592D01*
X176483000Y-62011408D01*
X176429314Y-61741510D01*
X176324005Y-61487273D01*
X176171120Y-61258465D01*
X175976535Y-61063880D01*
X175747727Y-60910995D01*
X175493490Y-60805686D01*
X175359330Y-60779000D01*
X175493490Y-60752314D01*
X175747727Y-60647005D01*
X175976535Y-60494120D01*
X176171120Y-60299535D01*
X176324005Y-60070727D01*
X176429314Y-59816490D01*
X176483000Y-59546592D01*
X176483000Y-59271408D01*
X176429314Y-59001510D01*
X176324005Y-58747273D01*
X176171120Y-58518465D01*
X175976535Y-58323880D01*
X175747727Y-58170995D01*
X175493490Y-58065686D01*
X175359330Y-58039000D01*
X175493490Y-58012314D01*
X175747727Y-57907005D01*
X175976535Y-57754120D01*
X176171120Y-57559535D01*
X176324005Y-57330727D01*
X176429314Y-57076490D01*
X176483000Y-56806592D01*
X176483000Y-56531408D01*
X176429314Y-56261510D01*
X176324005Y-56007273D01*
X176171120Y-55778465D01*
X175976535Y-55583880D01*
X175747727Y-55430995D01*
X175493490Y-55325686D01*
X175359330Y-55299000D01*
X175493490Y-55272314D01*
X175747727Y-55167005D01*
X175976535Y-55014120D01*
X176171120Y-54819535D01*
X176324005Y-54590727D01*
X176429314Y-54336490D01*
X176483000Y-54066592D01*
X176483000Y-53791408D01*
X176429314Y-53521510D01*
X176324005Y-53267273D01*
X176171120Y-53038465D01*
X175976535Y-52843880D01*
X175747727Y-52690995D01*
X175493490Y-52585686D01*
X175359330Y-52559000D01*
X175493490Y-52532314D01*
X175747727Y-52427005D01*
X175976535Y-52274120D01*
X176171120Y-52079535D01*
X176324005Y-51850727D01*
X176429314Y-51596490D01*
X176483000Y-51326592D01*
X176483000Y-51051408D01*
X176429314Y-50781510D01*
X176324005Y-50527273D01*
X176171120Y-50298465D01*
X175976535Y-50103880D01*
X175747727Y-49950995D01*
X175493490Y-49845686D01*
X175482038Y-49843408D01*
X176529000Y-49843408D01*
X176529000Y-50118592D01*
X176582686Y-50388490D01*
X176687995Y-50642727D01*
X176840880Y-50871535D01*
X177035465Y-51066120D01*
X177264273Y-51219005D01*
X177518510Y-51324314D01*
X177652670Y-51351000D01*
X177518510Y-51377686D01*
X177264273Y-51482995D01*
X177035465Y-51635880D01*
X176840880Y-51830465D01*
X176687995Y-52059273D01*
X176582686Y-52313510D01*
X176529000Y-52583408D01*
X176529000Y-52858592D01*
X176582686Y-53128490D01*
X176687995Y-53382727D01*
X176840880Y-53611535D01*
X177035465Y-53806120D01*
X177264273Y-53959005D01*
X177518510Y-54064314D01*
X177652670Y-54091000D01*
X177518510Y-54117686D01*
X177264273Y-54222995D01*
X177035465Y-54375880D01*
X176840880Y-54570465D01*
X176687995Y-54799273D01*
X176582686Y-55053510D01*
X176529000Y-55323408D01*
X176529000Y-55598592D01*
X176582686Y-55868490D01*
X176687995Y-56122727D01*
X176840880Y-56351535D01*
X177035465Y-56546120D01*
X177264273Y-56699005D01*
X177518510Y-56804314D01*
X177652670Y-56831000D01*
X177518510Y-56857686D01*
X177264273Y-56962995D01*
X177035465Y-57115880D01*
X176840880Y-57310465D01*
X176687995Y-57539273D01*
X176582686Y-57793510D01*
X176529000Y-58063408D01*
X176529000Y-58338592D01*
X176582686Y-58608490D01*
X176687995Y-58862727D01*
X176840880Y-59091535D01*
X177035465Y-59286120D01*
X177264273Y-59439005D01*
X177518510Y-59544314D01*
X177652670Y-59571000D01*
X177518510Y-59597686D01*
X177264273Y-59702995D01*
X177035465Y-59855880D01*
X176840880Y-60050465D01*
X176687995Y-60279273D01*
X176582686Y-60533510D01*
X176529000Y-60803408D01*
X176529000Y-61078592D01*
X176582686Y-61348490D01*
X176687995Y-61602727D01*
X176840880Y-61831535D01*
X177035465Y-62026120D01*
X177264273Y-62179005D01*
X177518510Y-62284314D01*
X177652670Y-62311000D01*
X177518510Y-62337686D01*
X177264273Y-62442995D01*
X177035465Y-62595880D01*
X176840880Y-62790465D01*
X176687995Y-63019273D01*
X176582686Y-63273510D01*
X176529000Y-63543408D01*
X176529000Y-63818592D01*
X176582686Y-64088490D01*
X176687995Y-64342727D01*
X176840880Y-64571535D01*
X177035465Y-64766120D01*
X177264273Y-64919005D01*
X177518510Y-65024314D01*
X177652670Y-65051000D01*
X177518510Y-65077686D01*
X177264273Y-65182995D01*
X177035465Y-65335880D01*
X176840880Y-65530465D01*
X176687995Y-65759273D01*
X176582686Y-66013510D01*
X176529000Y-66283408D01*
X176529000Y-66558592D01*
X176582686Y-66828490D01*
X176687995Y-67082727D01*
X176840880Y-67311535D01*
X177035465Y-67506120D01*
X177264273Y-67659005D01*
X177518510Y-67764314D01*
X177788408Y-67818000D01*
X178063592Y-67818000D01*
X178333490Y-67764314D01*
X178587727Y-67659005D01*
X178816535Y-67506120D01*
X179011120Y-67311535D01*
X179164005Y-67082727D01*
X179269314Y-66828490D01*
X179323000Y-66558592D01*
X179323000Y-66283408D01*
X179269314Y-66013510D01*
X179164005Y-65759273D01*
X179011120Y-65530465D01*
X178816535Y-65335880D01*
X178587727Y-65182995D01*
X178333490Y-65077686D01*
X178199330Y-65051000D01*
X178333490Y-65024314D01*
X178587727Y-64919005D01*
X178816535Y-64766120D01*
X179011120Y-64571535D01*
X179164005Y-64342727D01*
X179269314Y-64088490D01*
X179323000Y-63818592D01*
X179323000Y-63543408D01*
X179269314Y-63273510D01*
X179164005Y-63019273D01*
X179011120Y-62790465D01*
X178816535Y-62595880D01*
X178587727Y-62442995D01*
X178333490Y-62337686D01*
X178199330Y-62311000D01*
X178333490Y-62284314D01*
X178587727Y-62179005D01*
X178816535Y-62026120D01*
X179011120Y-61831535D01*
X179164005Y-61602727D01*
X179269314Y-61348490D01*
X179323000Y-61078592D01*
X179323000Y-60803408D01*
X179269314Y-60533510D01*
X179164005Y-60279273D01*
X179011120Y-60050465D01*
X178816535Y-59855880D01*
X178587727Y-59702995D01*
X178333490Y-59597686D01*
X178199330Y-59571000D01*
X178333490Y-59544314D01*
X178587727Y-59439005D01*
X178816535Y-59286120D01*
X179011120Y-59091535D01*
X179164005Y-58862727D01*
X179269314Y-58608490D01*
X179323000Y-58338592D01*
X179323000Y-58063408D01*
X179269314Y-57793510D01*
X179164005Y-57539273D01*
X179011120Y-57310465D01*
X178816535Y-57115880D01*
X178587727Y-56962995D01*
X178333490Y-56857686D01*
X178199330Y-56831000D01*
X178333490Y-56804314D01*
X178587727Y-56699005D01*
X178816535Y-56546120D01*
X179011120Y-56351535D01*
X179164005Y-56122727D01*
X179269314Y-55868490D01*
X179323000Y-55598592D01*
X179323000Y-55323408D01*
X179269314Y-55053510D01*
X179164005Y-54799273D01*
X179011120Y-54570465D01*
X178816535Y-54375880D01*
X178587727Y-54222995D01*
X178333490Y-54117686D01*
X178199330Y-54091000D01*
X178333490Y-54064314D01*
X178587727Y-53959005D01*
X178816535Y-53806120D01*
X179011120Y-53611535D01*
X179164005Y-53382727D01*
X179269314Y-53128490D01*
X179323000Y-52858592D01*
X179323000Y-52583408D01*
X179269314Y-52313510D01*
X179164005Y-52059273D01*
X179011120Y-51830465D01*
X178816535Y-51635880D01*
X178587727Y-51482995D01*
X178333490Y-51377686D01*
X178199330Y-51351000D01*
X178333490Y-51324314D01*
X178587727Y-51219005D01*
X178816535Y-51066120D01*
X179011120Y-50871535D01*
X179164005Y-50642727D01*
X179269314Y-50388490D01*
X179323000Y-50118592D01*
X179323000Y-49843408D01*
X179269314Y-49573510D01*
X179164005Y-49319273D01*
X179011120Y-49090465D01*
X178816535Y-48895880D01*
X178587727Y-48742995D01*
X178333490Y-48637686D01*
X178063592Y-48584000D01*
X177788408Y-48584000D01*
X177518510Y-48637686D01*
X177264273Y-48742995D01*
X177035465Y-48895880D01*
X176840880Y-49090465D01*
X176687995Y-49319273D01*
X176582686Y-49573510D01*
X176529000Y-49843408D01*
X175482038Y-49843408D01*
X175359330Y-49819000D01*
X175493490Y-49792314D01*
X175747727Y-49687005D01*
X175976535Y-49534120D01*
X176171120Y-49339535D01*
X176324005Y-49110727D01*
X176429314Y-48856490D01*
X176483000Y-48586592D01*
X176483000Y-48311408D01*
X176429314Y-48041510D01*
X176324005Y-47787273D01*
X176171120Y-47558465D01*
X175976535Y-47363880D01*
X175747727Y-47210995D01*
X175493490Y-47105686D01*
X175223592Y-47052000D01*
X174948408Y-47052000D01*
X174678510Y-47105686D01*
X174424273Y-47210995D01*
X174195465Y-47363880D01*
X174000880Y-47558465D01*
X173847995Y-47787273D01*
X173742686Y-48041510D01*
X173689000Y-48311408D01*
X95736000Y-48311408D01*
X95736000Y-45496725D01*
X167170500Y-45496725D01*
X167170500Y-45689275D01*
X167208064Y-45878126D01*
X167281750Y-46056020D01*
X167388726Y-46216120D01*
X167524880Y-46352274D01*
X167684980Y-46459250D01*
X167862874Y-46532936D01*
X168051725Y-46570500D01*
X168244275Y-46570500D01*
X168433126Y-46532936D01*
X168611020Y-46459250D01*
X168771120Y-46352274D01*
X168907274Y-46216120D01*
X169014250Y-46056020D01*
X169087936Y-45878126D01*
X169125500Y-45689275D01*
X169125500Y-45496725D01*
X169087936Y-45307874D01*
X169014250Y-45129980D01*
X168907274Y-44969880D01*
X168771120Y-44833726D01*
X168611020Y-44726750D01*
X168433126Y-44653064D01*
X168244275Y-44615500D01*
X168051725Y-44615500D01*
X167862874Y-44653064D01*
X167684980Y-44726750D01*
X167524880Y-44833726D01*
X167388726Y-44969880D01*
X167281750Y-45129980D01*
X167208064Y-45307874D01*
X167170500Y-45496725D01*
X95736000Y-45496725D01*
X95736000Y-43337725D01*
X152438500Y-43337725D01*
X152438500Y-43530275D01*
X152476064Y-43719126D01*
X152549750Y-43897020D01*
X152656726Y-44057120D01*
X152792880Y-44193274D01*
X152952980Y-44300250D01*
X153130874Y-44373936D01*
X153319725Y-44411500D01*
X153512275Y-44411500D01*
X153701126Y-44373936D01*
X153879020Y-44300250D01*
X154039120Y-44193274D01*
X154175274Y-44057120D01*
X154282250Y-43897020D01*
X154355936Y-43719126D01*
X154393500Y-43530275D01*
X154393500Y-43337725D01*
X167170500Y-43337725D01*
X167170500Y-43530275D01*
X167208064Y-43719126D01*
X167281750Y-43897020D01*
X167388726Y-44057120D01*
X167524880Y-44193274D01*
X167684980Y-44300250D01*
X167862874Y-44373936D01*
X168051725Y-44411500D01*
X168244275Y-44411500D01*
X168433126Y-44373936D01*
X168611020Y-44300250D01*
X168771120Y-44193274D01*
X168907274Y-44057120D01*
X169014250Y-43897020D01*
X169087936Y-43719126D01*
X169125500Y-43530275D01*
X169125500Y-43337725D01*
X169087936Y-43148874D01*
X169014250Y-42970980D01*
X168907274Y-42810880D01*
X168771120Y-42674726D01*
X168611020Y-42567750D01*
X168433126Y-42494064D01*
X168244275Y-42456500D01*
X168051725Y-42456500D01*
X167862874Y-42494064D01*
X167684980Y-42567750D01*
X167524880Y-42674726D01*
X167388726Y-42810880D01*
X167281750Y-42970980D01*
X167208064Y-43148874D01*
X167170500Y-43337725D01*
X154393500Y-43337725D01*
X154355936Y-43148874D01*
X154282250Y-42970980D01*
X154175274Y-42810880D01*
X154039120Y-42674726D01*
X153879020Y-42567750D01*
X153701126Y-42494064D01*
X153512275Y-42456500D01*
X153319725Y-42456500D01*
X153130874Y-42494064D01*
X152952980Y-42567750D01*
X152792880Y-42674726D01*
X152656726Y-42810880D01*
X152549750Y-42970980D01*
X152476064Y-43148874D01*
X152438500Y-43337725D01*
X95736000Y-43337725D01*
X95736000Y-41154422D01*
X174450738Y-41154422D01*
X174450738Y-41591578D01*
X174536023Y-42020335D01*
X174703316Y-42424215D01*
X174946187Y-42787697D01*
X175255303Y-43096813D01*
X175618785Y-43339684D01*
X176022665Y-43506977D01*
X176451422Y-43592262D01*
X176888578Y-43592262D01*
X177317335Y-43506977D01*
X177721215Y-43339684D01*
X178084697Y-43096813D01*
X178393813Y-42787697D01*
X178636684Y-42424215D01*
X178803977Y-42020335D01*
X178889262Y-41591578D01*
X178889262Y-41154422D01*
X178803977Y-40725665D01*
X178636684Y-40321785D01*
X178393813Y-39958303D01*
X178084697Y-39649187D01*
X177721215Y-39406316D01*
X177317335Y-39239023D01*
X176888578Y-39153738D01*
X176451422Y-39153738D01*
X176022665Y-39239023D01*
X175618785Y-39406316D01*
X175255303Y-39649187D01*
X174946187Y-39958303D01*
X174703316Y-40321785D01*
X174536023Y-40725665D01*
X174450738Y-41154422D01*
X95736000Y-41154422D01*
X95736000Y-37415000D01*
X182684636Y-37415000D01*
X182688364Y-37453342D01*
%TA.AperFunction,Conductor*%
D16*
G36*
X182688364Y-37453342D02*
G01*
X182625421Y-93095000D01*
X163466419Y-93095000D01*
X163434000Y-93091807D01*
X163401581Y-93095000D01*
X163304617Y-93104550D01*
X163180207Y-93142290D01*
X163065550Y-93203575D01*
X162965052Y-93286052D01*
X162882575Y-93386550D01*
X162821290Y-93501207D01*
X162783550Y-93625617D01*
X162770807Y-93755000D01*
X162774001Y-93787430D01*
X162774000Y-147375000D01*
X95736000Y-147375000D01*
X95736000Y-143363740D01*
X109767000Y-143363740D01*
X109767000Y-143656260D01*
X109824068Y-143943158D01*
X109936010Y-144213411D01*
X110098525Y-144456632D01*
X110305368Y-144663475D01*
X110548589Y-144825990D01*
X110818842Y-144937932D01*
X111105740Y-144995000D01*
X111398260Y-144995000D01*
X111685158Y-144937932D01*
X111955411Y-144825990D01*
X112198632Y-144663475D01*
X112405475Y-144456632D01*
X112522000Y-144282240D01*
X112638525Y-144456632D01*
X112845368Y-144663475D01*
X113088589Y-144825990D01*
X113358842Y-144937932D01*
X113645740Y-144995000D01*
X113938260Y-144995000D01*
X114225158Y-144937932D01*
X114495411Y-144825990D01*
X114738632Y-144663475D01*
X114945475Y-144456632D01*
X115062000Y-144282240D01*
X115178525Y-144456632D01*
X115385368Y-144663475D01*
X115628589Y-144825990D01*
X115898842Y-144937932D01*
X116185740Y-144995000D01*
X116478260Y-144995000D01*
X116765158Y-144937932D01*
X117035411Y-144825990D01*
X117278632Y-144663475D01*
X117485475Y-144456632D01*
X117602000Y-144282240D01*
X117718525Y-144456632D01*
X117925368Y-144663475D01*
X118168589Y-144825990D01*
X118438842Y-144937932D01*
X118725740Y-144995000D01*
X119018260Y-144995000D01*
X119305158Y-144937932D01*
X119575411Y-144825990D01*
X119818632Y-144663475D01*
X120025475Y-144456632D01*
X120142000Y-144282240D01*
X120258525Y-144456632D01*
X120465368Y-144663475D01*
X120708589Y-144825990D01*
X120978842Y-144937932D01*
X121265740Y-144995000D01*
X121558260Y-144995000D01*
X121845158Y-144937932D01*
X122115411Y-144825990D01*
X122358632Y-144663475D01*
X122565475Y-144456632D01*
X122682000Y-144282240D01*
X122798525Y-144456632D01*
X123005368Y-144663475D01*
X123248589Y-144825990D01*
X123518842Y-144937932D01*
X123805740Y-144995000D01*
X124098260Y-144995000D01*
X124385158Y-144937932D01*
X124655411Y-144825990D01*
X124898632Y-144663475D01*
X125105475Y-144456632D01*
X125222000Y-144282240D01*
X125338525Y-144456632D01*
X125545368Y-144663475D01*
X125788589Y-144825990D01*
X126058842Y-144937932D01*
X126345740Y-144995000D01*
X126638260Y-144995000D01*
X126925158Y-144937932D01*
X127195411Y-144825990D01*
X127438632Y-144663475D01*
X127645475Y-144456632D01*
X127762000Y-144282240D01*
X127878525Y-144456632D01*
X128085368Y-144663475D01*
X128328589Y-144825990D01*
X128598842Y-144937932D01*
X128885740Y-144995000D01*
X129178260Y-144995000D01*
X129465158Y-144937932D01*
X129735411Y-144825990D01*
X129978632Y-144663475D01*
X130185475Y-144456632D01*
X130302000Y-144282240D01*
X130418525Y-144456632D01*
X130625368Y-144663475D01*
X130868589Y-144825990D01*
X131138842Y-144937932D01*
X131425740Y-144995000D01*
X131718260Y-144995000D01*
X132005158Y-144937932D01*
X132275411Y-144825990D01*
X132518632Y-144663475D01*
X132725475Y-144456632D01*
X132842000Y-144282240D01*
X132958525Y-144456632D01*
X133165368Y-144663475D01*
X133408589Y-144825990D01*
X133678842Y-144937932D01*
X133965740Y-144995000D01*
X134258260Y-144995000D01*
X134545158Y-144937932D01*
X134815411Y-144825990D01*
X135058632Y-144663475D01*
X135265475Y-144456632D01*
X135382000Y-144282240D01*
X135498525Y-144456632D01*
X135705368Y-144663475D01*
X135948589Y-144825990D01*
X136218842Y-144937932D01*
X136505740Y-144995000D01*
X136798260Y-144995000D01*
X137085158Y-144937932D01*
X137355411Y-144825990D01*
X137598632Y-144663475D01*
X137805475Y-144456632D01*
X137922000Y-144282240D01*
X138038525Y-144456632D01*
X138245368Y-144663475D01*
X138488589Y-144825990D01*
X138758842Y-144937932D01*
X139045740Y-144995000D01*
X139338260Y-144995000D01*
X139625158Y-144937932D01*
X139895411Y-144825990D01*
X140138632Y-144663475D01*
X140345475Y-144456632D01*
X140462000Y-144282240D01*
X140578525Y-144456632D01*
X140785368Y-144663475D01*
X141028589Y-144825990D01*
X141298842Y-144937932D01*
X141585740Y-144995000D01*
X141878260Y-144995000D01*
X142165158Y-144937932D01*
X142435411Y-144825990D01*
X142678632Y-144663475D01*
X142885475Y-144456632D01*
X143002000Y-144282240D01*
X143118525Y-144456632D01*
X143325368Y-144663475D01*
X143568589Y-144825990D01*
X143838842Y-144937932D01*
X144125740Y-144995000D01*
X144418260Y-144995000D01*
X144705158Y-144937932D01*
X144975411Y-144825990D01*
X145218632Y-144663475D01*
X145425475Y-144456632D01*
X145542000Y-144282240D01*
X145658525Y-144456632D01*
X145865368Y-144663475D01*
X146108589Y-144825990D01*
X146378842Y-144937932D01*
X146665740Y-144995000D01*
X146958260Y-144995000D01*
X147245158Y-144937932D01*
X147515411Y-144825990D01*
X147758632Y-144663475D01*
X147965475Y-144456632D01*
X148082000Y-144282240D01*
X148198525Y-144456632D01*
X148405368Y-144663475D01*
X148648589Y-144825990D01*
X148918842Y-144937932D01*
X149205740Y-144995000D01*
X149498260Y-144995000D01*
X149785158Y-144937932D01*
X150055411Y-144825990D01*
X150298632Y-144663475D01*
X150505475Y-144456632D01*
X150622000Y-144282240D01*
X150738525Y-144456632D01*
X150945368Y-144663475D01*
X151188589Y-144825990D01*
X151458842Y-144937932D01*
X151745740Y-144995000D01*
X152038260Y-144995000D01*
X152325158Y-144937932D01*
X152595411Y-144825990D01*
X152838632Y-144663475D01*
X153045475Y-144456632D01*
X153162000Y-144282240D01*
X153278525Y-144456632D01*
X153485368Y-144663475D01*
X153728589Y-144825990D01*
X153998842Y-144937932D01*
X154285740Y-144995000D01*
X154578260Y-144995000D01*
X154865158Y-144937932D01*
X155135411Y-144825990D01*
X155378632Y-144663475D01*
X155585475Y-144456632D01*
X155702000Y-144282240D01*
X155818525Y-144456632D01*
X156025368Y-144663475D01*
X156268589Y-144825990D01*
X156538842Y-144937932D01*
X156825740Y-144995000D01*
X157118260Y-144995000D01*
X157405158Y-144937932D01*
X157675411Y-144825990D01*
X157918632Y-144663475D01*
X158050487Y-144531620D01*
X158072498Y-144604180D01*
X158131463Y-144714494D01*
X158210815Y-144811185D01*
X158307506Y-144890537D01*
X158417820Y-144949502D01*
X158537518Y-144985812D01*
X158662000Y-144998072D01*
X160362000Y-144998072D01*
X160486482Y-144985812D01*
X160606180Y-144949502D01*
X160716494Y-144890537D01*
X160813185Y-144811185D01*
X160892537Y-144714494D01*
X160951502Y-144604180D01*
X160987812Y-144484482D01*
X161000072Y-144360000D01*
X161000072Y-142660000D01*
X160987812Y-142535518D01*
X160951502Y-142415820D01*
X160892537Y-142305506D01*
X160813185Y-142208815D01*
X160716494Y-142129463D01*
X160606180Y-142070498D01*
X160486482Y-142034188D01*
X160362000Y-142021928D01*
X158662000Y-142021928D01*
X158537518Y-142034188D01*
X158417820Y-142070498D01*
X158307506Y-142129463D01*
X158210815Y-142208815D01*
X158131463Y-142305506D01*
X158072498Y-142415820D01*
X158050487Y-142488380D01*
X157918632Y-142356525D01*
X157675411Y-142194010D01*
X157405158Y-142082068D01*
X157118260Y-142025000D01*
X156825740Y-142025000D01*
X156538842Y-142082068D01*
X156268589Y-142194010D01*
X156025368Y-142356525D01*
X155818525Y-142563368D01*
X155702000Y-142737760D01*
X155585475Y-142563368D01*
X155378632Y-142356525D01*
X155135411Y-142194010D01*
X154865158Y-142082068D01*
X154578260Y-142025000D01*
X154285740Y-142025000D01*
X153998842Y-142082068D01*
X153728589Y-142194010D01*
X153485368Y-142356525D01*
X153278525Y-142563368D01*
X153162000Y-142737760D01*
X153045475Y-142563368D01*
X152838632Y-142356525D01*
X152595411Y-142194010D01*
X152325158Y-142082068D01*
X152038260Y-142025000D01*
X151745740Y-142025000D01*
X151458842Y-142082068D01*
X151188589Y-142194010D01*
X150945368Y-142356525D01*
X150738525Y-142563368D01*
X150622000Y-142737760D01*
X150505475Y-142563368D01*
X150298632Y-142356525D01*
X150055411Y-142194010D01*
X149785158Y-142082068D01*
X149498260Y-142025000D01*
X149205740Y-142025000D01*
X148918842Y-142082068D01*
X148648589Y-142194010D01*
X148405368Y-142356525D01*
X148198525Y-142563368D01*
X148082000Y-142737760D01*
X147965475Y-142563368D01*
X147758632Y-142356525D01*
X147515411Y-142194010D01*
X147245158Y-142082068D01*
X146958260Y-142025000D01*
X146665740Y-142025000D01*
X146378842Y-142082068D01*
X146108589Y-142194010D01*
X145865368Y-142356525D01*
X145658525Y-142563368D01*
X145542000Y-142737760D01*
X145425475Y-142563368D01*
X145218632Y-142356525D01*
X144975411Y-142194010D01*
X144705158Y-142082068D01*
X144418260Y-142025000D01*
X144125740Y-142025000D01*
X143838842Y-142082068D01*
X143568589Y-142194010D01*
X143325368Y-142356525D01*
X143118525Y-142563368D01*
X143002000Y-142737760D01*
X142885475Y-142563368D01*
X142678632Y-142356525D01*
X142435411Y-142194010D01*
X142165158Y-142082068D01*
X141878260Y-142025000D01*
X141585740Y-142025000D01*
X141298842Y-142082068D01*
X141028589Y-142194010D01*
X140785368Y-142356525D01*
X140578525Y-142563368D01*
X140462000Y-142737760D01*
X140345475Y-142563368D01*
X140138632Y-142356525D01*
X139895411Y-142194010D01*
X139625158Y-142082068D01*
X139338260Y-142025000D01*
X139045740Y-142025000D01*
X138758842Y-142082068D01*
X138488589Y-142194010D01*
X138245368Y-142356525D01*
X138038525Y-142563368D01*
X137922000Y-142737760D01*
X137805475Y-142563368D01*
X137598632Y-142356525D01*
X137355411Y-142194010D01*
X137085158Y-142082068D01*
X136798260Y-142025000D01*
X136505740Y-142025000D01*
X136218842Y-142082068D01*
X135948589Y-142194010D01*
X135705368Y-142356525D01*
X135498525Y-142563368D01*
X135382000Y-142737760D01*
X135265475Y-142563368D01*
X135058632Y-142356525D01*
X134815411Y-142194010D01*
X134545158Y-142082068D01*
X134258260Y-142025000D01*
X133965740Y-142025000D01*
X133678842Y-142082068D01*
X133408589Y-142194010D01*
X133165368Y-142356525D01*
X132958525Y-142563368D01*
X132842000Y-142737760D01*
X132725475Y-142563368D01*
X132518632Y-142356525D01*
X132275411Y-142194010D01*
X132005158Y-142082068D01*
X131718260Y-142025000D01*
X131425740Y-142025000D01*
X131138842Y-142082068D01*
X130868589Y-142194010D01*
X130625368Y-142356525D01*
X130418525Y-142563368D01*
X130302000Y-142737760D01*
X130185475Y-142563368D01*
X129978632Y-142356525D01*
X129735411Y-142194010D01*
X129465158Y-142082068D01*
X129178260Y-142025000D01*
X128885740Y-142025000D01*
X128598842Y-142082068D01*
X128328589Y-142194010D01*
X128085368Y-142356525D01*
X127878525Y-142563368D01*
X127762000Y-142737760D01*
X127645475Y-142563368D01*
X127438632Y-142356525D01*
X127195411Y-142194010D01*
X126925158Y-142082068D01*
X126638260Y-142025000D01*
X126345740Y-142025000D01*
X126058842Y-142082068D01*
X125788589Y-142194010D01*
X125545368Y-142356525D01*
X125338525Y-142563368D01*
X125222000Y-142737760D01*
X125105475Y-142563368D01*
X124898632Y-142356525D01*
X124655411Y-142194010D01*
X124385158Y-142082068D01*
X124098260Y-142025000D01*
X123805740Y-142025000D01*
X123518842Y-142082068D01*
X123248589Y-142194010D01*
X123005368Y-142356525D01*
X122798525Y-142563368D01*
X122682000Y-142737760D01*
X122565475Y-142563368D01*
X122358632Y-142356525D01*
X122115411Y-142194010D01*
X121845158Y-142082068D01*
X121558260Y-142025000D01*
X121265740Y-142025000D01*
X120978842Y-142082068D01*
X120708589Y-142194010D01*
X120465368Y-142356525D01*
X120258525Y-142563368D01*
X120142000Y-142737760D01*
X120025475Y-142563368D01*
X119818632Y-142356525D01*
X119575411Y-142194010D01*
X119305158Y-142082068D01*
X119018260Y-142025000D01*
X118725740Y-142025000D01*
X118438842Y-142082068D01*
X118168589Y-142194010D01*
X117925368Y-142356525D01*
X117718525Y-142563368D01*
X117602000Y-142737760D01*
X117485475Y-142563368D01*
X117278632Y-142356525D01*
X117035411Y-142194010D01*
X116765158Y-142082068D01*
X116478260Y-142025000D01*
X116185740Y-142025000D01*
X115898842Y-142082068D01*
X115628589Y-142194010D01*
X115385368Y-142356525D01*
X115178525Y-142563368D01*
X115062000Y-142737760D01*
X114945475Y-142563368D01*
X114738632Y-142356525D01*
X114495411Y-142194010D01*
X114225158Y-142082068D01*
X113938260Y-142025000D01*
X113645740Y-142025000D01*
X113358842Y-142082068D01*
X113088589Y-142194010D01*
X112845368Y-142356525D01*
X112638525Y-142563368D01*
X112522000Y-142737760D01*
X112405475Y-142563368D01*
X112198632Y-142356525D01*
X111955411Y-142194010D01*
X111685158Y-142082068D01*
X111398260Y-142025000D01*
X111105740Y-142025000D01*
X110818842Y-142082068D01*
X110548589Y-142194010D01*
X110305368Y-142356525D01*
X110098525Y-142563368D01*
X109936010Y-142806589D01*
X109824068Y-143076842D01*
X109767000Y-143363740D01*
X95736000Y-143363740D01*
X95736000Y-136006408D01*
X102919000Y-136006408D01*
X102919000Y-136281592D01*
X102972686Y-136551490D01*
X103077995Y-136805727D01*
X103230880Y-137034535D01*
X103425465Y-137229120D01*
X103654273Y-137382005D01*
X103731515Y-137414000D01*
X103654273Y-137445995D01*
X103425465Y-137598880D01*
X103230880Y-137793465D01*
X103077995Y-138022273D01*
X102972686Y-138276510D01*
X102919000Y-138546408D01*
X102919000Y-138821592D01*
X102972686Y-139091490D01*
X103077995Y-139345727D01*
X103230880Y-139574535D01*
X103425465Y-139769120D01*
X103654273Y-139922005D01*
X103908510Y-140027314D01*
X104178408Y-140081000D01*
X104453592Y-140081000D01*
X104723490Y-140027314D01*
X104977727Y-139922005D01*
X105206535Y-139769120D01*
X105401120Y-139574535D01*
X105554005Y-139345727D01*
X105659314Y-139091490D01*
X105713000Y-138821592D01*
X105713000Y-138546408D01*
X105659314Y-138276510D01*
X105554005Y-138022273D01*
X105401120Y-137793465D01*
X105206535Y-137598880D01*
X104977727Y-137445995D01*
X104900485Y-137414000D01*
X104977727Y-137382005D01*
X105206535Y-137229120D01*
X105401120Y-137034535D01*
X105554005Y-136805727D01*
X105659314Y-136551490D01*
X105713000Y-136281592D01*
X105713000Y-136006408D01*
X105659314Y-135736510D01*
X105554005Y-135482273D01*
X105401120Y-135253465D01*
X105206535Y-135058880D01*
X104977727Y-134905995D01*
X104906057Y-134876308D01*
X104919023Y-134871636D01*
X105034980Y-134809656D01*
X105101960Y-134569565D01*
X104316000Y-133783605D01*
X103530040Y-134569565D01*
X103597020Y-134809656D01*
X103732760Y-134873485D01*
X103654273Y-134905995D01*
X103425465Y-135058880D01*
X103230880Y-135253465D01*
X103077995Y-135482273D01*
X102972686Y-135736510D01*
X102919000Y-136006408D01*
X95736000Y-136006408D01*
X95736000Y-133676017D01*
X102914090Y-133676017D01*
X102955078Y-133948133D01*
X103048364Y-134207023D01*
X103110344Y-134322980D01*
X103350435Y-134389960D01*
X104136395Y-133604000D01*
X104495605Y-133604000D01*
X105281565Y-134389960D01*
X105521656Y-134322980D01*
X105638756Y-134073952D01*
X105705023Y-133806865D01*
X105717910Y-133531983D01*
X105676922Y-133259867D01*
X105583636Y-133000977D01*
X105521656Y-132885020D01*
X105281565Y-132818040D01*
X104495605Y-133604000D01*
X104136395Y-133604000D01*
X103350435Y-132818040D01*
X103110344Y-132885020D01*
X102993244Y-133134048D01*
X102926977Y-133401135D01*
X102914090Y-133676017D01*
X95736000Y-133676017D01*
X95736000Y-132638435D01*
X103530040Y-132638435D01*
X104316000Y-133424395D01*
X105101960Y-132638435D01*
X105034980Y-132398344D01*
X104785952Y-132281244D01*
X104518865Y-132214977D01*
X104243983Y-132202090D01*
X103971867Y-132243078D01*
X103712977Y-132336364D01*
X103597020Y-132398344D01*
X103530040Y-132638435D01*
X95736000Y-132638435D01*
X95736000Y-123306408D01*
X102919000Y-123306408D01*
X102919000Y-123581592D01*
X102972686Y-123851490D01*
X103077995Y-124105727D01*
X103230880Y-124334535D01*
X103425465Y-124529120D01*
X103654273Y-124682005D01*
X103731515Y-124714000D01*
X103654273Y-124745995D01*
X103425465Y-124898880D01*
X103230880Y-125093465D01*
X103077995Y-125322273D01*
X102972686Y-125576510D01*
X102919000Y-125846408D01*
X102919000Y-126121592D01*
X102972686Y-126391490D01*
X103077995Y-126645727D01*
X103230880Y-126874535D01*
X103425465Y-127069120D01*
X103654273Y-127222005D01*
X103908510Y-127327314D01*
X104178408Y-127381000D01*
X104453592Y-127381000D01*
X104723490Y-127327314D01*
X104977727Y-127222005D01*
X105206535Y-127069120D01*
X105401120Y-126874535D01*
X105554005Y-126645727D01*
X105659314Y-126391490D01*
X105713000Y-126121592D01*
X105713000Y-125846408D01*
X105659314Y-125576510D01*
X105554005Y-125322273D01*
X105401120Y-125093465D01*
X105206535Y-124898880D01*
X104977727Y-124745995D01*
X104900485Y-124714000D01*
X104977727Y-124682005D01*
X105206535Y-124529120D01*
X105401120Y-124334535D01*
X105554005Y-124105727D01*
X105659314Y-123851490D01*
X105713000Y-123581592D01*
X105713000Y-123306408D01*
X105659314Y-123036510D01*
X105554005Y-122782273D01*
X105401120Y-122553465D01*
X105206535Y-122358880D01*
X104977727Y-122205995D01*
X104723490Y-122100686D01*
X104453592Y-122047000D01*
X104178408Y-122047000D01*
X103908510Y-122100686D01*
X103654273Y-122205995D01*
X103425465Y-122358880D01*
X103230880Y-122553465D01*
X103077995Y-122782273D01*
X102972686Y-123036510D01*
X102919000Y-123306408D01*
X95736000Y-123306408D01*
X95736000Y-111936280D01*
X127676535Y-111936280D01*
X127676535Y-112853720D01*
X127855519Y-113753532D01*
X128206608Y-114601137D01*
X128716311Y-115363961D01*
X129365039Y-116012689D01*
X130127863Y-116522392D01*
X130975468Y-116873481D01*
X131875280Y-117052465D01*
X132792720Y-117052465D01*
X133692532Y-116873481D01*
X134540137Y-116522392D01*
X135302961Y-116012689D01*
X135951689Y-115363961D01*
X136461392Y-114601137D01*
X136812481Y-113753532D01*
X136991465Y-112853720D01*
X136991465Y-111936280D01*
X136812481Y-111036468D01*
X136461392Y-110188863D01*
X135951689Y-109426039D01*
X135302961Y-108777311D01*
X134540137Y-108267608D01*
X133692532Y-107916519D01*
X132792720Y-107737535D01*
X131875280Y-107737535D01*
X130975468Y-107916519D01*
X130127863Y-108267608D01*
X129365039Y-108777311D01*
X128716311Y-109426039D01*
X128206608Y-110188863D01*
X127855519Y-111036468D01*
X127676535Y-111936280D01*
X95736000Y-111936280D01*
X95736000Y-93756725D01*
X103035500Y-93756725D01*
X103035500Y-93949275D01*
X103073064Y-94138126D01*
X103146750Y-94316020D01*
X103253726Y-94476120D01*
X103389880Y-94612274D01*
X103549980Y-94719250D01*
X103727874Y-94792936D01*
X103916725Y-94830500D01*
X104109275Y-94830500D01*
X104298126Y-94792936D01*
X104476020Y-94719250D01*
X104636120Y-94612274D01*
X104772274Y-94476120D01*
X104879250Y-94316020D01*
X104952936Y-94138126D01*
X104990500Y-93949275D01*
X104990500Y-93756725D01*
X104952936Y-93567874D01*
X104879250Y-93389980D01*
X104772274Y-93229880D01*
X104636120Y-93093726D01*
X104476020Y-92986750D01*
X104298126Y-92913064D01*
X104109275Y-92875500D01*
X103916725Y-92875500D01*
X103727874Y-92913064D01*
X103549980Y-92986750D01*
X103389880Y-93093726D01*
X103253726Y-93229880D01*
X103146750Y-93389980D01*
X103073064Y-93567874D01*
X103035500Y-93756725D01*
X95736000Y-93756725D01*
X95736000Y-89946725D01*
X111417500Y-89946725D01*
X111417500Y-90139275D01*
X111455064Y-90328126D01*
X111528750Y-90506020D01*
X111635726Y-90666120D01*
X111771880Y-90802274D01*
X111931980Y-90909250D01*
X112109874Y-90982936D01*
X112298725Y-91020500D01*
X112491275Y-91020500D01*
X112680126Y-90982936D01*
X112858020Y-90909250D01*
X113018120Y-90802274D01*
X113154274Y-90666120D01*
X113261250Y-90506020D01*
X113334936Y-90328126D01*
X113372500Y-90139275D01*
X113372500Y-89946725D01*
X113334936Y-89757874D01*
X113261250Y-89579980D01*
X113154274Y-89419880D01*
X113018120Y-89283726D01*
X112858020Y-89176750D01*
X112680126Y-89103064D01*
X112491275Y-89065500D01*
X112298725Y-89065500D01*
X112109874Y-89103064D01*
X111931980Y-89176750D01*
X111771880Y-89283726D01*
X111635726Y-89419880D01*
X111528750Y-89579980D01*
X111455064Y-89757874D01*
X111417500Y-89946725D01*
X95736000Y-89946725D01*
X95736000Y-85755725D01*
X158407500Y-85755725D01*
X158407500Y-85948275D01*
X158445064Y-86137126D01*
X158518750Y-86315020D01*
X158625726Y-86475120D01*
X158761880Y-86611274D01*
X158921980Y-86718250D01*
X159099874Y-86791936D01*
X159288725Y-86829500D01*
X159481275Y-86829500D01*
X159670126Y-86791936D01*
X159848020Y-86718250D01*
X160008120Y-86611274D01*
X160144274Y-86475120D01*
X160251250Y-86315020D01*
X160324936Y-86137126D01*
X160362500Y-85948275D01*
X160362500Y-85755725D01*
X160324936Y-85566874D01*
X160251250Y-85388980D01*
X160144274Y-85228880D01*
X160008120Y-85092726D01*
X159848020Y-84985750D01*
X159670126Y-84912064D01*
X159481275Y-84874500D01*
X159288725Y-84874500D01*
X159099874Y-84912064D01*
X158921980Y-84985750D01*
X158761880Y-85092726D01*
X158625726Y-85228880D01*
X158518750Y-85388980D01*
X158445064Y-85566874D01*
X158407500Y-85755725D01*
X95736000Y-85755725D01*
X95736000Y-81636891D01*
X109810519Y-81636891D01*
X109907843Y-81911252D01*
X110056822Y-82161355D01*
X110251731Y-82377588D01*
X110485080Y-82551641D01*
X110747901Y-82676825D01*
X110895110Y-82721476D01*
X111125000Y-82600155D01*
X111125000Y-81407000D01*
X111379000Y-81407000D01*
X111379000Y-82600155D01*
X111608890Y-82721476D01*
X111756099Y-82676825D01*
X112018920Y-82551641D01*
X112252269Y-82377588D01*
X112447178Y-82161355D01*
X112522000Y-82035745D01*
X112596822Y-82161355D01*
X112791731Y-82377588D01*
X113025080Y-82551641D01*
X113287901Y-82676825D01*
X113435110Y-82721476D01*
X113665000Y-82600155D01*
X113665000Y-81407000D01*
X113919000Y-81407000D01*
X113919000Y-82600155D01*
X114148890Y-82721476D01*
X114296099Y-82676825D01*
X114558920Y-82551641D01*
X114792269Y-82377588D01*
X114987178Y-82161355D01*
X115062000Y-82035745D01*
X115136822Y-82161355D01*
X115331731Y-82377588D01*
X115565080Y-82551641D01*
X115827901Y-82676825D01*
X115975110Y-82721476D01*
X116205000Y-82600155D01*
X116205000Y-81407000D01*
X113919000Y-81407000D01*
X113665000Y-81407000D01*
X111379000Y-81407000D01*
X111125000Y-81407000D01*
X109931186Y-81407000D01*
X109810519Y-81636891D01*
X95736000Y-81636891D01*
X95736000Y-80923109D01*
X109810519Y-80923109D01*
X109931186Y-81153000D01*
X111125000Y-81153000D01*
X111125000Y-79959845D01*
X111379000Y-79959845D01*
X111379000Y-81153000D01*
X113665000Y-81153000D01*
X113665000Y-79959845D01*
X113919000Y-79959845D01*
X113919000Y-81153000D01*
X116205000Y-81153000D01*
X116205000Y-79959845D01*
X116459000Y-79959845D01*
X116459000Y-81153000D01*
X116479000Y-81153000D01*
X116479000Y-81407000D01*
X116459000Y-81407000D01*
X116459000Y-82600155D01*
X116688890Y-82721476D01*
X116836099Y-82676825D01*
X117098920Y-82551641D01*
X117332269Y-82377588D01*
X117527178Y-82161355D01*
X117596805Y-82044466D01*
X117718525Y-82226632D01*
X117925368Y-82433475D01*
X118168589Y-82595990D01*
X118438842Y-82707932D01*
X118725740Y-82765000D01*
X119018260Y-82765000D01*
X119305158Y-82707932D01*
X119575411Y-82595990D01*
X119818632Y-82433475D01*
X120025475Y-82226632D01*
X120147195Y-82044466D01*
X120216822Y-82161355D01*
X120411731Y-82377588D01*
X120645080Y-82551641D01*
X120907901Y-82676825D01*
X121055110Y-82721476D01*
X121285000Y-82600155D01*
X121285000Y-81407000D01*
X121265000Y-81407000D01*
X121265000Y-81153000D01*
X121285000Y-81153000D01*
X121285000Y-79959845D01*
X121539000Y-79959845D01*
X121539000Y-81153000D01*
X121559000Y-81153000D01*
X121559000Y-81407000D01*
X121539000Y-81407000D01*
X121539000Y-82600155D01*
X121768890Y-82721476D01*
X121916099Y-82676825D01*
X122178920Y-82551641D01*
X122412269Y-82377588D01*
X122607178Y-82161355D01*
X122676805Y-82044466D01*
X122798525Y-82226632D01*
X123005368Y-82433475D01*
X123248589Y-82595990D01*
X123518842Y-82707932D01*
X123805740Y-82765000D01*
X124098260Y-82765000D01*
X124385158Y-82707932D01*
X124655411Y-82595990D01*
X124898632Y-82433475D01*
X125105475Y-82226632D01*
X125227195Y-82044466D01*
X125296822Y-82161355D01*
X125491731Y-82377588D01*
X125725080Y-82551641D01*
X125987901Y-82676825D01*
X126135110Y-82721476D01*
X126365000Y-82600155D01*
X126365000Y-81407000D01*
X126345000Y-81407000D01*
X126345000Y-81153000D01*
X126365000Y-81153000D01*
X126365000Y-79959845D01*
X126619000Y-79959845D01*
X126619000Y-81153000D01*
X126639000Y-81153000D01*
X126639000Y-81407000D01*
X126619000Y-81407000D01*
X126619000Y-82600155D01*
X126848890Y-82721476D01*
X126996099Y-82676825D01*
X127258920Y-82551641D01*
X127492269Y-82377588D01*
X127687178Y-82161355D01*
X127756805Y-82044466D01*
X127878525Y-82226632D01*
X128085368Y-82433475D01*
X128328589Y-82595990D01*
X128598842Y-82707932D01*
X128885740Y-82765000D01*
X129178260Y-82765000D01*
X129465158Y-82707932D01*
X129735411Y-82595990D01*
X129978632Y-82433475D01*
X130185475Y-82226632D01*
X130307195Y-82044466D01*
X130376822Y-82161355D01*
X130571731Y-82377588D01*
X130805080Y-82551641D01*
X131067901Y-82676825D01*
X131215110Y-82721476D01*
X131445000Y-82600155D01*
X131445000Y-81407000D01*
X131425000Y-81407000D01*
X131425000Y-81153000D01*
X131445000Y-81153000D01*
X131445000Y-79959845D01*
X131699000Y-79959845D01*
X131699000Y-81153000D01*
X131719000Y-81153000D01*
X131719000Y-81407000D01*
X131699000Y-81407000D01*
X131699000Y-82600155D01*
X131928890Y-82721476D01*
X132076099Y-82676825D01*
X132338920Y-82551641D01*
X132572269Y-82377588D01*
X132767178Y-82161355D01*
X132836805Y-82044466D01*
X132958525Y-82226632D01*
X133165368Y-82433475D01*
X133408589Y-82595990D01*
X133678842Y-82707932D01*
X133965740Y-82765000D01*
X134258260Y-82765000D01*
X134545158Y-82707932D01*
X134815411Y-82595990D01*
X135058632Y-82433475D01*
X135265475Y-82226632D01*
X135387195Y-82044466D01*
X135456822Y-82161355D01*
X135651731Y-82377588D01*
X135885080Y-82551641D01*
X136147901Y-82676825D01*
X136295110Y-82721476D01*
X136525000Y-82600155D01*
X136525000Y-81407000D01*
X136505000Y-81407000D01*
X136505000Y-81153000D01*
X136525000Y-81153000D01*
X136525000Y-79959845D01*
X136779000Y-79959845D01*
X136779000Y-81153000D01*
X136799000Y-81153000D01*
X136799000Y-81407000D01*
X136779000Y-81407000D01*
X136779000Y-82600155D01*
X137008890Y-82721476D01*
X137156099Y-82676825D01*
X137418920Y-82551641D01*
X137652269Y-82377588D01*
X137847178Y-82161355D01*
X137916805Y-82044466D01*
X138038525Y-82226632D01*
X138245368Y-82433475D01*
X138488589Y-82595990D01*
X138758842Y-82707932D01*
X139045740Y-82765000D01*
X139338260Y-82765000D01*
X139625158Y-82707932D01*
X139895411Y-82595990D01*
X140138632Y-82433475D01*
X140345475Y-82226632D01*
X140467195Y-82044466D01*
X140536822Y-82161355D01*
X140731731Y-82377588D01*
X140965080Y-82551641D01*
X141227901Y-82676825D01*
X141375110Y-82721476D01*
X141605000Y-82600155D01*
X141605000Y-81407000D01*
X141585000Y-81407000D01*
X141585000Y-81153000D01*
X141605000Y-81153000D01*
X141605000Y-79959845D01*
X141859000Y-79959845D01*
X141859000Y-81153000D01*
X141879000Y-81153000D01*
X141879000Y-81407000D01*
X141859000Y-81407000D01*
X141859000Y-82600155D01*
X142088890Y-82721476D01*
X142236099Y-82676825D01*
X142498920Y-82551641D01*
X142732269Y-82377588D01*
X142927178Y-82161355D01*
X142996805Y-82044466D01*
X143118525Y-82226632D01*
X143325368Y-82433475D01*
X143568589Y-82595990D01*
X143838842Y-82707932D01*
X144125740Y-82765000D01*
X144418260Y-82765000D01*
X144705158Y-82707932D01*
X144975411Y-82595990D01*
X145218632Y-82433475D01*
X145425475Y-82226632D01*
X145547195Y-82044466D01*
X145616822Y-82161355D01*
X145811731Y-82377588D01*
X146045080Y-82551641D01*
X146307901Y-82676825D01*
X146455110Y-82721476D01*
X146685000Y-82600155D01*
X146685000Y-81407000D01*
X146665000Y-81407000D01*
X146665000Y-81153000D01*
X146685000Y-81153000D01*
X146685000Y-79959845D01*
X146939000Y-79959845D01*
X146939000Y-81153000D01*
X146959000Y-81153000D01*
X146959000Y-81407000D01*
X146939000Y-81407000D01*
X146939000Y-82600155D01*
X147168890Y-82721476D01*
X147316099Y-82676825D01*
X147578920Y-82551641D01*
X147812269Y-82377588D01*
X148007178Y-82161355D01*
X148076805Y-82044466D01*
X148198525Y-82226632D01*
X148405368Y-82433475D01*
X148648589Y-82595990D01*
X148918842Y-82707932D01*
X149205740Y-82765000D01*
X149498260Y-82765000D01*
X149785158Y-82707932D01*
X150055411Y-82595990D01*
X150298632Y-82433475D01*
X150505475Y-82226632D01*
X150627195Y-82044466D01*
X150696822Y-82161355D01*
X150891731Y-82377588D01*
X151125080Y-82551641D01*
X151387901Y-82676825D01*
X151535110Y-82721476D01*
X151765000Y-82600155D01*
X151765000Y-81407000D01*
X151745000Y-81407000D01*
X151745000Y-81153000D01*
X151765000Y-81153000D01*
X151765000Y-79959845D01*
X152019000Y-79959845D01*
X152019000Y-81153000D01*
X152039000Y-81153000D01*
X152039000Y-81407000D01*
X152019000Y-81407000D01*
X152019000Y-82600155D01*
X152248890Y-82721476D01*
X152396099Y-82676825D01*
X152658920Y-82551641D01*
X152892269Y-82377588D01*
X153087178Y-82161355D01*
X153156805Y-82044466D01*
X153278525Y-82226632D01*
X153485368Y-82433475D01*
X153728589Y-82595990D01*
X153998842Y-82707932D01*
X154285740Y-82765000D01*
X154578260Y-82765000D01*
X154865158Y-82707932D01*
X155135411Y-82595990D01*
X155378632Y-82433475D01*
X155585475Y-82226632D01*
X155707195Y-82044466D01*
X155776822Y-82161355D01*
X155971731Y-82377588D01*
X156205080Y-82551641D01*
X156467901Y-82676825D01*
X156615110Y-82721476D01*
X156845000Y-82600155D01*
X156845000Y-81407000D01*
X156825000Y-81407000D01*
X156825000Y-81153000D01*
X156845000Y-81153000D01*
X156845000Y-79959845D01*
X157099000Y-79959845D01*
X157099000Y-81153000D01*
X157119000Y-81153000D01*
X157119000Y-81407000D01*
X157099000Y-81407000D01*
X157099000Y-82600155D01*
X157328890Y-82721476D01*
X157476099Y-82676825D01*
X157738920Y-82551641D01*
X157972269Y-82377588D01*
X158048034Y-82293534D01*
X158072498Y-82374180D01*
X158131463Y-82484494D01*
X158210815Y-82581185D01*
X158307506Y-82660537D01*
X158417820Y-82719502D01*
X158537518Y-82755812D01*
X158662000Y-82768072D01*
X160362000Y-82768072D01*
X160486482Y-82755812D01*
X160606180Y-82719502D01*
X160716494Y-82660537D01*
X160813185Y-82581185D01*
X160892537Y-82484494D01*
X160951502Y-82374180D01*
X160987812Y-82254482D01*
X161000072Y-82130000D01*
X161000072Y-80430000D01*
X160987812Y-80305518D01*
X160951502Y-80185820D01*
X160892537Y-80075506D01*
X160813185Y-79978815D01*
X160716494Y-79899463D01*
X160606180Y-79840498D01*
X160486482Y-79804188D01*
X160362000Y-79791928D01*
X158662000Y-79791928D01*
X158537518Y-79804188D01*
X158417820Y-79840498D01*
X158307506Y-79899463D01*
X158210815Y-79978815D01*
X158131463Y-80075506D01*
X158072498Y-80185820D01*
X158048034Y-80266466D01*
X157972269Y-80182412D01*
X157738920Y-80008359D01*
X157476099Y-79883175D01*
X157328890Y-79838524D01*
X157099000Y-79959845D01*
X156845000Y-79959845D01*
X156615110Y-79838524D01*
X156467901Y-79883175D01*
X156205080Y-80008359D01*
X155971731Y-80182412D01*
X155776822Y-80398645D01*
X155707195Y-80515534D01*
X155585475Y-80333368D01*
X155378632Y-80126525D01*
X155135411Y-79964010D01*
X154865158Y-79852068D01*
X154578260Y-79795000D01*
X154285740Y-79795000D01*
X153998842Y-79852068D01*
X153728589Y-79964010D01*
X153485368Y-80126525D01*
X153278525Y-80333368D01*
X153156805Y-80515534D01*
X153087178Y-80398645D01*
X152892269Y-80182412D01*
X152658920Y-80008359D01*
X152396099Y-79883175D01*
X152248890Y-79838524D01*
X152019000Y-79959845D01*
X151765000Y-79959845D01*
X151535110Y-79838524D01*
X151387901Y-79883175D01*
X151125080Y-80008359D01*
X150891731Y-80182412D01*
X150696822Y-80398645D01*
X150627195Y-80515534D01*
X150505475Y-80333368D01*
X150298632Y-80126525D01*
X150055411Y-79964010D01*
X149785158Y-79852068D01*
X149498260Y-79795000D01*
X149205740Y-79795000D01*
X148918842Y-79852068D01*
X148648589Y-79964010D01*
X148405368Y-80126525D01*
X148198525Y-80333368D01*
X148076805Y-80515534D01*
X148007178Y-80398645D01*
X147812269Y-80182412D01*
X147578920Y-80008359D01*
X147316099Y-79883175D01*
X147168890Y-79838524D01*
X146939000Y-79959845D01*
X146685000Y-79959845D01*
X146455110Y-79838524D01*
X146307901Y-79883175D01*
X146045080Y-80008359D01*
X145811731Y-80182412D01*
X145616822Y-80398645D01*
X145547195Y-80515534D01*
X145425475Y-80333368D01*
X145218632Y-80126525D01*
X144975411Y-79964010D01*
X144705158Y-79852068D01*
X144418260Y-79795000D01*
X144125740Y-79795000D01*
X143838842Y-79852068D01*
X143568589Y-79964010D01*
X143325368Y-80126525D01*
X143118525Y-80333368D01*
X142996805Y-80515534D01*
X142927178Y-80398645D01*
X142732269Y-80182412D01*
X142498920Y-80008359D01*
X142236099Y-79883175D01*
X142088890Y-79838524D01*
X141859000Y-79959845D01*
X141605000Y-79959845D01*
X141375110Y-79838524D01*
X141227901Y-79883175D01*
X140965080Y-80008359D01*
X140731731Y-80182412D01*
X140536822Y-80398645D01*
X140467195Y-80515534D01*
X140345475Y-80333368D01*
X140138632Y-80126525D01*
X139895411Y-79964010D01*
X139625158Y-79852068D01*
X139338260Y-79795000D01*
X139045740Y-79795000D01*
X138758842Y-79852068D01*
X138488589Y-79964010D01*
X138245368Y-80126525D01*
X138038525Y-80333368D01*
X137916805Y-80515534D01*
X137847178Y-80398645D01*
X137652269Y-80182412D01*
X137418920Y-80008359D01*
X137156099Y-79883175D01*
X137008890Y-79838524D01*
X136779000Y-79959845D01*
X136525000Y-79959845D01*
X136295110Y-79838524D01*
X136147901Y-79883175D01*
X135885080Y-80008359D01*
X135651731Y-80182412D01*
X135456822Y-80398645D01*
X135387195Y-80515534D01*
X135265475Y-80333368D01*
X135058632Y-80126525D01*
X134815411Y-79964010D01*
X134545158Y-79852068D01*
X134258260Y-79795000D01*
X133965740Y-79795000D01*
X133678842Y-79852068D01*
X133408589Y-79964010D01*
X133165368Y-80126525D01*
X132958525Y-80333368D01*
X132836805Y-80515534D01*
X132767178Y-80398645D01*
X132572269Y-80182412D01*
X132338920Y-80008359D01*
X132076099Y-79883175D01*
X131928890Y-79838524D01*
X131699000Y-79959845D01*
X131445000Y-79959845D01*
X131215110Y-79838524D01*
X131067901Y-79883175D01*
X130805080Y-80008359D01*
X130571731Y-80182412D01*
X130376822Y-80398645D01*
X130307195Y-80515534D01*
X130185475Y-80333368D01*
X129978632Y-80126525D01*
X129735411Y-79964010D01*
X129465158Y-79852068D01*
X129178260Y-79795000D01*
X128885740Y-79795000D01*
X128598842Y-79852068D01*
X128328589Y-79964010D01*
X128085368Y-80126525D01*
X127878525Y-80333368D01*
X127756805Y-80515534D01*
X127687178Y-80398645D01*
X127492269Y-80182412D01*
X127258920Y-80008359D01*
X126996099Y-79883175D01*
X126848890Y-79838524D01*
X126619000Y-79959845D01*
X126365000Y-79959845D01*
X126135110Y-79838524D01*
X125987901Y-79883175D01*
X125725080Y-80008359D01*
X125491731Y-80182412D01*
X125296822Y-80398645D01*
X125227195Y-80515534D01*
X125105475Y-80333368D01*
X124898632Y-80126525D01*
X124655411Y-79964010D01*
X124385158Y-79852068D01*
X124098260Y-79795000D01*
X123805740Y-79795000D01*
X123518842Y-79852068D01*
X123248589Y-79964010D01*
X123005368Y-80126525D01*
X122798525Y-80333368D01*
X122676805Y-80515534D01*
X122607178Y-80398645D01*
X122412269Y-80182412D01*
X122178920Y-80008359D01*
X121916099Y-79883175D01*
X121768890Y-79838524D01*
X121539000Y-79959845D01*
X121285000Y-79959845D01*
X121055110Y-79838524D01*
X120907901Y-79883175D01*
X120645080Y-80008359D01*
X120411731Y-80182412D01*
X120216822Y-80398645D01*
X120147195Y-80515534D01*
X120025475Y-80333368D01*
X119818632Y-80126525D01*
X119575411Y-79964010D01*
X119305158Y-79852068D01*
X119018260Y-79795000D01*
X118725740Y-79795000D01*
X118438842Y-79852068D01*
X118168589Y-79964010D01*
X117925368Y-80126525D01*
X117718525Y-80333368D01*
X117596805Y-80515534D01*
X117527178Y-80398645D01*
X117332269Y-80182412D01*
X117098920Y-80008359D01*
X116836099Y-79883175D01*
X116688890Y-79838524D01*
X116459000Y-79959845D01*
X116205000Y-79959845D01*
X115975110Y-79838524D01*
X115827901Y-79883175D01*
X115565080Y-80008359D01*
X115331731Y-80182412D01*
X115136822Y-80398645D01*
X115062000Y-80524255D01*
X114987178Y-80398645D01*
X114792269Y-80182412D01*
X114558920Y-80008359D01*
X114296099Y-79883175D01*
X114148890Y-79838524D01*
X113919000Y-79959845D01*
X113665000Y-79959845D01*
X113435110Y-79838524D01*
X113287901Y-79883175D01*
X113025080Y-80008359D01*
X112791731Y-80182412D01*
X112596822Y-80398645D01*
X112522000Y-80524255D01*
X112447178Y-80398645D01*
X112252269Y-80182412D01*
X112018920Y-80008359D01*
X111756099Y-79883175D01*
X111608890Y-79838524D01*
X111379000Y-79959845D01*
X111125000Y-79959845D01*
X110895110Y-79838524D01*
X110747901Y-79883175D01*
X110485080Y-80008359D01*
X110251731Y-80182412D01*
X110056822Y-80398645D01*
X109907843Y-80648748D01*
X109810519Y-80923109D01*
X95736000Y-80923109D01*
X95736000Y-76751425D01*
X119621700Y-76751425D01*
X119621700Y-76943975D01*
X119659264Y-77132826D01*
X119732950Y-77310720D01*
X119839926Y-77470820D01*
X119976080Y-77606974D01*
X120136180Y-77713950D01*
X120314074Y-77787636D01*
X120502925Y-77825200D01*
X120695475Y-77825200D01*
X120884326Y-77787636D01*
X121062220Y-77713950D01*
X121222320Y-77606974D01*
X121358474Y-77470820D01*
X121465450Y-77310720D01*
X121539136Y-77132826D01*
X121576700Y-76943975D01*
X121576700Y-76751425D01*
X136766700Y-76751425D01*
X136766700Y-76943975D01*
X136804264Y-77132826D01*
X136877950Y-77310720D01*
X136984926Y-77470820D01*
X137121080Y-77606974D01*
X137281180Y-77713950D01*
X137459074Y-77787636D01*
X137647925Y-77825200D01*
X137840475Y-77825200D01*
X138029326Y-77787636D01*
X138207220Y-77713950D01*
X138367320Y-77606974D01*
X138503474Y-77470820D01*
X138610450Y-77310720D01*
X138684136Y-77132826D01*
X138721700Y-76943975D01*
X138721700Y-76751425D01*
X152832200Y-76751425D01*
X152832200Y-76943975D01*
X152869764Y-77132826D01*
X152943450Y-77310720D01*
X153050426Y-77470820D01*
X153186580Y-77606974D01*
X153346680Y-77713950D01*
X153524574Y-77787636D01*
X153713425Y-77825200D01*
X153905975Y-77825200D01*
X154094826Y-77787636D01*
X154272720Y-77713950D01*
X154432820Y-77606974D01*
X154568974Y-77470820D01*
X154675950Y-77310720D01*
X154749636Y-77132826D01*
X154787200Y-76943975D01*
X154787200Y-76751425D01*
X154749636Y-76562574D01*
X154675950Y-76384680D01*
X154568974Y-76224580D01*
X154432820Y-76088426D01*
X154272720Y-75981450D01*
X154094826Y-75907764D01*
X153905975Y-75870200D01*
X153713425Y-75870200D01*
X153524574Y-75907764D01*
X153346680Y-75981450D01*
X153186580Y-76088426D01*
X153050426Y-76224580D01*
X152943450Y-76384680D01*
X152869764Y-76562574D01*
X152832200Y-76751425D01*
X138721700Y-76751425D01*
X138684136Y-76562574D01*
X138610450Y-76384680D01*
X138503474Y-76224580D01*
X138367320Y-76088426D01*
X138207220Y-75981450D01*
X138029326Y-75907764D01*
X137840475Y-75870200D01*
X137647925Y-75870200D01*
X137459074Y-75907764D01*
X137281180Y-75981450D01*
X137121080Y-76088426D01*
X136984926Y-76224580D01*
X136877950Y-76384680D01*
X136804264Y-76562574D01*
X136766700Y-76751425D01*
X121576700Y-76751425D01*
X121539136Y-76562574D01*
X121465450Y-76384680D01*
X121358474Y-76224580D01*
X121222320Y-76088426D01*
X121062220Y-75981450D01*
X120884326Y-75907764D01*
X120695475Y-75870200D01*
X120502925Y-75870200D01*
X120314074Y-75907764D01*
X120136180Y-75981450D01*
X119976080Y-76088426D01*
X119839926Y-76224580D01*
X119732950Y-76384680D01*
X119659264Y-76562574D01*
X119621700Y-76751425D01*
X95736000Y-76751425D01*
X95736000Y-74494422D01*
X174450738Y-74494422D01*
X174450738Y-74931578D01*
X174536023Y-75360335D01*
X174703316Y-75764215D01*
X174946187Y-76127697D01*
X175255303Y-76436813D01*
X175618785Y-76679684D01*
X176022665Y-76846977D01*
X176451422Y-76932262D01*
X176888578Y-76932262D01*
X177317335Y-76846977D01*
X177721215Y-76679684D01*
X178084697Y-76436813D01*
X178393813Y-76127697D01*
X178636684Y-75764215D01*
X178803977Y-75360335D01*
X178889262Y-74931578D01*
X178889262Y-74494422D01*
X178803977Y-74065665D01*
X178636684Y-73661785D01*
X178393813Y-73298303D01*
X178084697Y-72989187D01*
X177721215Y-72746316D01*
X177317335Y-72579023D01*
X176888578Y-72493738D01*
X176451422Y-72493738D01*
X176022665Y-72579023D01*
X175618785Y-72746316D01*
X175255303Y-72989187D01*
X174946187Y-73298303D01*
X174703316Y-73661785D01*
X174536023Y-74065665D01*
X174450738Y-74494422D01*
X95736000Y-74494422D01*
X95736000Y-68594565D01*
X174300040Y-68594565D01*
X174367020Y-68834656D01*
X174616048Y-68951756D01*
X174883135Y-69018023D01*
X175158017Y-69030910D01*
X175430133Y-68989922D01*
X175689023Y-68896636D01*
X175804980Y-68834656D01*
X175871960Y-68594565D01*
X175086000Y-67808605D01*
X174300040Y-68594565D01*
X95736000Y-68594565D01*
X95736000Y-67701017D01*
X173684090Y-67701017D01*
X173725078Y-67973133D01*
X173818364Y-68232023D01*
X173880344Y-68347980D01*
X174120435Y-68414960D01*
X174906395Y-67629000D01*
X175265605Y-67629000D01*
X176051565Y-68414960D01*
X176291656Y-68347980D01*
X176408756Y-68098952D01*
X176475023Y-67831865D01*
X176487910Y-67556983D01*
X176446922Y-67284867D01*
X176353636Y-67025977D01*
X176291656Y-66910020D01*
X176051565Y-66843040D01*
X175265605Y-67629000D01*
X174906395Y-67629000D01*
X174120435Y-66843040D01*
X173880344Y-66910020D01*
X173763244Y-67159048D01*
X173696977Y-67426135D01*
X173684090Y-67701017D01*
X95736000Y-67701017D01*
X95736000Y-62052725D01*
X117594500Y-62052725D01*
X117594500Y-62245275D01*
X117632064Y-62434126D01*
X117705750Y-62612020D01*
X117812726Y-62772120D01*
X117948880Y-62908274D01*
X118108980Y-63015250D01*
X118286874Y-63088936D01*
X118475725Y-63126500D01*
X118668275Y-63126500D01*
X118857126Y-63088936D01*
X119035020Y-63015250D01*
X119195120Y-62908274D01*
X119331274Y-62772120D01*
X119438250Y-62612020D01*
X119511936Y-62434126D01*
X119549500Y-62245275D01*
X119549500Y-62052725D01*
X136263500Y-62052725D01*
X136263500Y-62245275D01*
X136301064Y-62434126D01*
X136374750Y-62612020D01*
X136481726Y-62772120D01*
X136617880Y-62908274D01*
X136777980Y-63015250D01*
X136955874Y-63088936D01*
X137144725Y-63126500D01*
X137337275Y-63126500D01*
X137526126Y-63088936D01*
X137704020Y-63015250D01*
X137864120Y-62908274D01*
X138000274Y-62772120D01*
X138107250Y-62612020D01*
X138180936Y-62434126D01*
X138218500Y-62245275D01*
X138218500Y-62052725D01*
X152738500Y-62052725D01*
X152738500Y-62245275D01*
X152776064Y-62434126D01*
X152849750Y-62612020D01*
X152956726Y-62772120D01*
X153092880Y-62908274D01*
X153252980Y-63015250D01*
X153430874Y-63088936D01*
X153619725Y-63126500D01*
X153812275Y-63126500D01*
X154001126Y-63088936D01*
X154179020Y-63015250D01*
X154339120Y-62908274D01*
X154475274Y-62772120D01*
X154582250Y-62612020D01*
X154655936Y-62434126D01*
X154693500Y-62245275D01*
X154693500Y-62052725D01*
X154655936Y-61863874D01*
X154582250Y-61685980D01*
X154475274Y-61525880D01*
X154339120Y-61389726D01*
X154179020Y-61282750D01*
X154001126Y-61209064D01*
X153812275Y-61171500D01*
X153619725Y-61171500D01*
X153430874Y-61209064D01*
X153252980Y-61282750D01*
X153092880Y-61389726D01*
X152956726Y-61525880D01*
X152849750Y-61685980D01*
X152776064Y-61863874D01*
X152738500Y-62052725D01*
X138218500Y-62052725D01*
X138180936Y-61863874D01*
X138107250Y-61685980D01*
X138000274Y-61525880D01*
X137864120Y-61389726D01*
X137704020Y-61282750D01*
X137526126Y-61209064D01*
X137337275Y-61171500D01*
X137144725Y-61171500D01*
X136955874Y-61209064D01*
X136777980Y-61282750D01*
X136617880Y-61389726D01*
X136481726Y-61525880D01*
X136374750Y-61685980D01*
X136301064Y-61863874D01*
X136263500Y-62052725D01*
X119549500Y-62052725D01*
X119511936Y-61863874D01*
X119438250Y-61685980D01*
X119331274Y-61525880D01*
X119195120Y-61389726D01*
X119035020Y-61282750D01*
X118857126Y-61209064D01*
X118668275Y-61171500D01*
X118475725Y-61171500D01*
X118286874Y-61209064D01*
X118108980Y-61282750D01*
X117948880Y-61389726D01*
X117812726Y-61525880D01*
X117705750Y-61685980D01*
X117632064Y-61863874D01*
X117594500Y-62052725D01*
X95736000Y-62052725D01*
X95736000Y-60101725D01*
X112687500Y-60101725D01*
X112687500Y-60294275D01*
X112725064Y-60483126D01*
X112798750Y-60661020D01*
X112905726Y-60821120D01*
X113041880Y-60957274D01*
X113201980Y-61064250D01*
X113379874Y-61137936D01*
X113568725Y-61175500D01*
X113761275Y-61175500D01*
X113950126Y-61137936D01*
X114128020Y-61064250D01*
X114288120Y-60957274D01*
X114424274Y-60821120D01*
X114531250Y-60661020D01*
X114604936Y-60483126D01*
X114642500Y-60294275D01*
X114642500Y-60101725D01*
X114604936Y-59912874D01*
X114531250Y-59734980D01*
X114521726Y-59720725D01*
X127038500Y-59720725D01*
X127038500Y-59913275D01*
X127076064Y-60102126D01*
X127149750Y-60280020D01*
X127256726Y-60440120D01*
X127392880Y-60576274D01*
X127552980Y-60683250D01*
X127730874Y-60756936D01*
X127919725Y-60794500D01*
X128112275Y-60794500D01*
X128301126Y-60756936D01*
X128479020Y-60683250D01*
X128639120Y-60576274D01*
X128775274Y-60440120D01*
X128882250Y-60280020D01*
X128955936Y-60102126D01*
X128981277Y-59974725D01*
X133642500Y-59974725D01*
X133642500Y-60167275D01*
X133680064Y-60356126D01*
X133753750Y-60534020D01*
X133860726Y-60694120D01*
X133996880Y-60830274D01*
X134156980Y-60937250D01*
X134334874Y-61010936D01*
X134523725Y-61048500D01*
X134716275Y-61048500D01*
X134905126Y-61010936D01*
X135083020Y-60937250D01*
X135243120Y-60830274D01*
X135379274Y-60694120D01*
X135486250Y-60534020D01*
X135559936Y-60356126D01*
X135597500Y-60167275D01*
X135597500Y-59974725D01*
X135559936Y-59785874D01*
X135486250Y-59607980D01*
X135379274Y-59447880D01*
X135243120Y-59311726D01*
X135083020Y-59204750D01*
X134905126Y-59131064D01*
X134716275Y-59093500D01*
X134523725Y-59093500D01*
X134334874Y-59131064D01*
X134156980Y-59204750D01*
X133996880Y-59311726D01*
X133860726Y-59447880D01*
X133753750Y-59607980D01*
X133680064Y-59785874D01*
X133642500Y-59974725D01*
X128981277Y-59974725D01*
X128993500Y-59913275D01*
X128993500Y-59720725D01*
X128955936Y-59531874D01*
X128882250Y-59353980D01*
X128775274Y-59193880D01*
X128639120Y-59057726D01*
X128479020Y-58950750D01*
X128301126Y-58877064D01*
X128112275Y-58839500D01*
X127919725Y-58839500D01*
X127730874Y-58877064D01*
X127552980Y-58950750D01*
X127392880Y-59057726D01*
X127256726Y-59193880D01*
X127149750Y-59353980D01*
X127076064Y-59531874D01*
X127038500Y-59720725D01*
X114521726Y-59720725D01*
X114424274Y-59574880D01*
X114288120Y-59438726D01*
X114128020Y-59331750D01*
X113950126Y-59258064D01*
X113761275Y-59220500D01*
X113568725Y-59220500D01*
X113379874Y-59258064D01*
X113201980Y-59331750D01*
X113041880Y-59438726D01*
X112905726Y-59574880D01*
X112798750Y-59734980D01*
X112725064Y-59912874D01*
X112687500Y-60101725D01*
X95736000Y-60101725D01*
X95736000Y-53878725D01*
X141516500Y-53878725D01*
X141516500Y-54071275D01*
X141554064Y-54260126D01*
X141627750Y-54438020D01*
X141734726Y-54598120D01*
X141870880Y-54734274D01*
X142030980Y-54841250D01*
X142208874Y-54914936D01*
X142397725Y-54952500D01*
X142590275Y-54952500D01*
X142779126Y-54914936D01*
X142957020Y-54841250D01*
X143117120Y-54734274D01*
X143253274Y-54598120D01*
X143360250Y-54438020D01*
X143433936Y-54260126D01*
X143459277Y-54132725D01*
X169202500Y-54132725D01*
X169202500Y-54325275D01*
X169240064Y-54514126D01*
X169313750Y-54692020D01*
X169420726Y-54852120D01*
X169556880Y-54988274D01*
X169716980Y-55095250D01*
X169894874Y-55168936D01*
X170083725Y-55206500D01*
X170276275Y-55206500D01*
X170465126Y-55168936D01*
X170643020Y-55095250D01*
X170803120Y-54988274D01*
X170939274Y-54852120D01*
X171046250Y-54692020D01*
X171119936Y-54514126D01*
X171157500Y-54325275D01*
X171157500Y-54132725D01*
X171119936Y-53943874D01*
X171046250Y-53765980D01*
X170939274Y-53605880D01*
X170803120Y-53469726D01*
X170741421Y-53428500D01*
X170911275Y-53428500D01*
X171100126Y-53390936D01*
X171278020Y-53317250D01*
X171438120Y-53210274D01*
X171574274Y-53074120D01*
X171681250Y-52914020D01*
X171754936Y-52736126D01*
X171792500Y-52547275D01*
X171792500Y-52354725D01*
X171754936Y-52165874D01*
X171681250Y-51987980D01*
X171574274Y-51827880D01*
X171438120Y-51691726D01*
X171278020Y-51584750D01*
X171100126Y-51511064D01*
X170911275Y-51473500D01*
X170718725Y-51473500D01*
X170529874Y-51511064D01*
X170351980Y-51584750D01*
X170191880Y-51691726D01*
X170055726Y-51827880D01*
X169948750Y-51987980D01*
X169875064Y-52165874D01*
X169837500Y-52354725D01*
X169837500Y-52547275D01*
X169875064Y-52736126D01*
X169948750Y-52914020D01*
X170055726Y-53074120D01*
X170191880Y-53210274D01*
X170253579Y-53251500D01*
X170083725Y-53251500D01*
X169894874Y-53289064D01*
X169716980Y-53362750D01*
X169556880Y-53469726D01*
X169420726Y-53605880D01*
X169313750Y-53765980D01*
X169240064Y-53943874D01*
X169202500Y-54132725D01*
X143459277Y-54132725D01*
X143471500Y-54071275D01*
X143471500Y-53878725D01*
X143433936Y-53689874D01*
X143360250Y-53511980D01*
X143253274Y-53351880D01*
X143117120Y-53215726D01*
X142957020Y-53108750D01*
X142779126Y-53035064D01*
X142590275Y-52997500D01*
X142397725Y-52997500D01*
X142208874Y-53035064D01*
X142030980Y-53108750D01*
X141870880Y-53215726D01*
X141734726Y-53351880D01*
X141627750Y-53511980D01*
X141554064Y-53689874D01*
X141516500Y-53878725D01*
X95736000Y-53878725D01*
X95736000Y-48311408D01*
X173689000Y-48311408D01*
X173689000Y-48586592D01*
X173742686Y-48856490D01*
X173847995Y-49110727D01*
X174000880Y-49339535D01*
X174195465Y-49534120D01*
X174424273Y-49687005D01*
X174678510Y-49792314D01*
X174812670Y-49819000D01*
X174678510Y-49845686D01*
X174424273Y-49950995D01*
X174195465Y-50103880D01*
X174000880Y-50298465D01*
X173847995Y-50527273D01*
X173742686Y-50781510D01*
X173689000Y-51051408D01*
X173689000Y-51326592D01*
X173742686Y-51596490D01*
X173847995Y-51850727D01*
X174000880Y-52079535D01*
X174195465Y-52274120D01*
X174424273Y-52427005D01*
X174678510Y-52532314D01*
X174812670Y-52559000D01*
X174678510Y-52585686D01*
X174424273Y-52690995D01*
X174195465Y-52843880D01*
X174000880Y-53038465D01*
X173847995Y-53267273D01*
X173742686Y-53521510D01*
X173689000Y-53791408D01*
X173689000Y-54066592D01*
X173742686Y-54336490D01*
X173847995Y-54590727D01*
X174000880Y-54819535D01*
X174195465Y-55014120D01*
X174424273Y-55167005D01*
X174678510Y-55272314D01*
X174812670Y-55299000D01*
X174678510Y-55325686D01*
X174424273Y-55430995D01*
X174195465Y-55583880D01*
X174000880Y-55778465D01*
X173847995Y-56007273D01*
X173742686Y-56261510D01*
X173689000Y-56531408D01*
X173689000Y-56806592D01*
X173742686Y-57076490D01*
X173847995Y-57330727D01*
X174000880Y-57559535D01*
X174195465Y-57754120D01*
X174424273Y-57907005D01*
X174678510Y-58012314D01*
X174812670Y-58039000D01*
X174678510Y-58065686D01*
X174424273Y-58170995D01*
X174195465Y-58323880D01*
X174000880Y-58518465D01*
X173847995Y-58747273D01*
X173742686Y-59001510D01*
X173689000Y-59271408D01*
X173689000Y-59546592D01*
X173742686Y-59816490D01*
X173847995Y-60070727D01*
X174000880Y-60299535D01*
X174195465Y-60494120D01*
X174424273Y-60647005D01*
X174678510Y-60752314D01*
X174812670Y-60779000D01*
X174678510Y-60805686D01*
X174424273Y-60910995D01*
X174195465Y-61063880D01*
X174000880Y-61258465D01*
X173847995Y-61487273D01*
X173742686Y-61741510D01*
X173689000Y-62011408D01*
X173689000Y-62286592D01*
X173742686Y-62556490D01*
X173847995Y-62810727D01*
X174000880Y-63039535D01*
X174195465Y-63234120D01*
X174424273Y-63387005D01*
X174678510Y-63492314D01*
X174812670Y-63519000D01*
X174678510Y-63545686D01*
X174424273Y-63650995D01*
X174195465Y-63803880D01*
X174000880Y-63998465D01*
X173847995Y-64227273D01*
X173742686Y-64481510D01*
X173689000Y-64751408D01*
X173689000Y-65026592D01*
X173742686Y-65296490D01*
X173847995Y-65550727D01*
X174000880Y-65779535D01*
X174195465Y-65974120D01*
X174424273Y-66127005D01*
X174678510Y-66232314D01*
X174808130Y-66258097D01*
X174741867Y-66268078D01*
X174482977Y-66361364D01*
X174367020Y-66423344D01*
X174300040Y-66663435D01*
X175086000Y-67449395D01*
X175871960Y-66663435D01*
X175804980Y-66423344D01*
X175555952Y-66306244D01*
X175362775Y-66258315D01*
X175493490Y-66232314D01*
X175747727Y-66127005D01*
X175976535Y-65974120D01*
X176171120Y-65779535D01*
X176324005Y-65550727D01*
X176429314Y-65296490D01*
X176483000Y-65026592D01*
X176483000Y-64751408D01*
X176429314Y-64481510D01*
X176324005Y-64227273D01*
X176171120Y-63998465D01*
X175976535Y-63803880D01*
X175747727Y-63650995D01*
X175493490Y-63545686D01*
X175359330Y-63519000D01*
X175493490Y-63492314D01*
X175747727Y-63387005D01*
X175976535Y-63234120D01*
X176171120Y-63039535D01*
X176324005Y-62810727D01*
X176429314Y-62556490D01*
X176483000Y-62286592D01*
X176483000Y-62011408D01*
X176429314Y-61741510D01*
X176324005Y-61487273D01*
X176171120Y-61258465D01*
X175976535Y-61063880D01*
X175747727Y-60910995D01*
X175493490Y-60805686D01*
X175359330Y-60779000D01*
X175493490Y-60752314D01*
X175747727Y-60647005D01*
X175976535Y-60494120D01*
X176171120Y-60299535D01*
X176324005Y-60070727D01*
X176429314Y-59816490D01*
X176483000Y-59546592D01*
X176483000Y-59271408D01*
X176429314Y-59001510D01*
X176324005Y-58747273D01*
X176171120Y-58518465D01*
X175976535Y-58323880D01*
X175747727Y-58170995D01*
X175493490Y-58065686D01*
X175359330Y-58039000D01*
X175493490Y-58012314D01*
X175747727Y-57907005D01*
X175976535Y-57754120D01*
X176171120Y-57559535D01*
X176324005Y-57330727D01*
X176429314Y-57076490D01*
X176483000Y-56806592D01*
X176483000Y-56531408D01*
X176429314Y-56261510D01*
X176324005Y-56007273D01*
X176171120Y-55778465D01*
X175976535Y-55583880D01*
X175747727Y-55430995D01*
X175493490Y-55325686D01*
X175359330Y-55299000D01*
X175493490Y-55272314D01*
X175747727Y-55167005D01*
X175976535Y-55014120D01*
X176171120Y-54819535D01*
X176324005Y-54590727D01*
X176429314Y-54336490D01*
X176483000Y-54066592D01*
X176483000Y-53791408D01*
X176429314Y-53521510D01*
X176324005Y-53267273D01*
X176171120Y-53038465D01*
X175976535Y-52843880D01*
X175747727Y-52690995D01*
X175493490Y-52585686D01*
X175359330Y-52559000D01*
X175493490Y-52532314D01*
X175747727Y-52427005D01*
X175976535Y-52274120D01*
X176171120Y-52079535D01*
X176324005Y-51850727D01*
X176429314Y-51596490D01*
X176483000Y-51326592D01*
X176483000Y-51051408D01*
X176429314Y-50781510D01*
X176324005Y-50527273D01*
X176171120Y-50298465D01*
X175976535Y-50103880D01*
X175747727Y-49950995D01*
X175493490Y-49845686D01*
X175482038Y-49843408D01*
X176529000Y-49843408D01*
X176529000Y-50118592D01*
X176582686Y-50388490D01*
X176687995Y-50642727D01*
X176840880Y-50871535D01*
X177035465Y-51066120D01*
X177264273Y-51219005D01*
X177518510Y-51324314D01*
X177652670Y-51351000D01*
X177518510Y-51377686D01*
X177264273Y-51482995D01*
X177035465Y-51635880D01*
X176840880Y-51830465D01*
X176687995Y-52059273D01*
X176582686Y-52313510D01*
X176529000Y-52583408D01*
X176529000Y-52858592D01*
X176582686Y-53128490D01*
X176687995Y-53382727D01*
X176840880Y-53611535D01*
X177035465Y-53806120D01*
X177264273Y-53959005D01*
X177518510Y-54064314D01*
X177652670Y-54091000D01*
X177518510Y-54117686D01*
X177264273Y-54222995D01*
X177035465Y-54375880D01*
X176840880Y-54570465D01*
X176687995Y-54799273D01*
X176582686Y-55053510D01*
X176529000Y-55323408D01*
X176529000Y-55598592D01*
X176582686Y-55868490D01*
X176687995Y-56122727D01*
X176840880Y-56351535D01*
X177035465Y-56546120D01*
X177264273Y-56699005D01*
X177518510Y-56804314D01*
X177652670Y-56831000D01*
X177518510Y-56857686D01*
X177264273Y-56962995D01*
X177035465Y-57115880D01*
X176840880Y-57310465D01*
X176687995Y-57539273D01*
X176582686Y-57793510D01*
X176529000Y-58063408D01*
X176529000Y-58338592D01*
X176582686Y-58608490D01*
X176687995Y-58862727D01*
X176840880Y-59091535D01*
X177035465Y-59286120D01*
X177264273Y-59439005D01*
X177518510Y-59544314D01*
X177652670Y-59571000D01*
X177518510Y-59597686D01*
X177264273Y-59702995D01*
X177035465Y-59855880D01*
X176840880Y-60050465D01*
X176687995Y-60279273D01*
X176582686Y-60533510D01*
X176529000Y-60803408D01*
X176529000Y-61078592D01*
X176582686Y-61348490D01*
X176687995Y-61602727D01*
X176840880Y-61831535D01*
X177035465Y-62026120D01*
X177264273Y-62179005D01*
X177518510Y-62284314D01*
X177652670Y-62311000D01*
X177518510Y-62337686D01*
X177264273Y-62442995D01*
X177035465Y-62595880D01*
X176840880Y-62790465D01*
X176687995Y-63019273D01*
X176582686Y-63273510D01*
X176529000Y-63543408D01*
X176529000Y-63818592D01*
X176582686Y-64088490D01*
X176687995Y-64342727D01*
X176840880Y-64571535D01*
X177035465Y-64766120D01*
X177264273Y-64919005D01*
X177518510Y-65024314D01*
X177652670Y-65051000D01*
X177518510Y-65077686D01*
X177264273Y-65182995D01*
X177035465Y-65335880D01*
X176840880Y-65530465D01*
X176687995Y-65759273D01*
X176582686Y-66013510D01*
X176529000Y-66283408D01*
X176529000Y-66558592D01*
X176582686Y-66828490D01*
X176687995Y-67082727D01*
X176840880Y-67311535D01*
X177035465Y-67506120D01*
X177264273Y-67659005D01*
X177518510Y-67764314D01*
X177788408Y-67818000D01*
X178063592Y-67818000D01*
X178333490Y-67764314D01*
X178587727Y-67659005D01*
X178816535Y-67506120D01*
X179011120Y-67311535D01*
X179164005Y-67082727D01*
X179269314Y-66828490D01*
X179323000Y-66558592D01*
X179323000Y-66283408D01*
X179269314Y-66013510D01*
X179164005Y-65759273D01*
X179011120Y-65530465D01*
X178816535Y-65335880D01*
X178587727Y-65182995D01*
X178333490Y-65077686D01*
X178199330Y-65051000D01*
X178333490Y-65024314D01*
X178587727Y-64919005D01*
X178816535Y-64766120D01*
X179011120Y-64571535D01*
X179164005Y-64342727D01*
X179269314Y-64088490D01*
X179323000Y-63818592D01*
X179323000Y-63543408D01*
X179269314Y-63273510D01*
X179164005Y-63019273D01*
X179011120Y-62790465D01*
X178816535Y-62595880D01*
X178587727Y-62442995D01*
X178333490Y-62337686D01*
X178199330Y-62311000D01*
X178333490Y-62284314D01*
X178587727Y-62179005D01*
X178816535Y-62026120D01*
X179011120Y-61831535D01*
X179164005Y-61602727D01*
X179269314Y-61348490D01*
X179323000Y-61078592D01*
X179323000Y-60803408D01*
X179269314Y-60533510D01*
X179164005Y-60279273D01*
X179011120Y-60050465D01*
X178816535Y-59855880D01*
X178587727Y-59702995D01*
X178333490Y-59597686D01*
X178199330Y-59571000D01*
X178333490Y-59544314D01*
X178587727Y-59439005D01*
X178816535Y-59286120D01*
X179011120Y-59091535D01*
X179164005Y-58862727D01*
X179269314Y-58608490D01*
X179323000Y-58338592D01*
X179323000Y-58063408D01*
X179269314Y-57793510D01*
X179164005Y-57539273D01*
X179011120Y-57310465D01*
X178816535Y-57115880D01*
X178587727Y-56962995D01*
X178333490Y-56857686D01*
X178199330Y-56831000D01*
X178333490Y-56804314D01*
X178587727Y-56699005D01*
X178816535Y-56546120D01*
X179011120Y-56351535D01*
X179164005Y-56122727D01*
X179269314Y-55868490D01*
X179323000Y-55598592D01*
X179323000Y-55323408D01*
X179269314Y-55053510D01*
X179164005Y-54799273D01*
X179011120Y-54570465D01*
X178816535Y-54375880D01*
X178587727Y-54222995D01*
X178333490Y-54117686D01*
X178199330Y-54091000D01*
X178333490Y-54064314D01*
X178587727Y-53959005D01*
X178816535Y-53806120D01*
X179011120Y-53611535D01*
X179164005Y-53382727D01*
X179269314Y-53128490D01*
X179323000Y-52858592D01*
X179323000Y-52583408D01*
X179269314Y-52313510D01*
X179164005Y-52059273D01*
X179011120Y-51830465D01*
X178816535Y-51635880D01*
X178587727Y-51482995D01*
X178333490Y-51377686D01*
X178199330Y-51351000D01*
X178333490Y-51324314D01*
X178587727Y-51219005D01*
X178816535Y-51066120D01*
X179011120Y-50871535D01*
X179164005Y-50642727D01*
X179269314Y-50388490D01*
X179323000Y-50118592D01*
X179323000Y-49843408D01*
X179269314Y-49573510D01*
X179164005Y-49319273D01*
X179011120Y-49090465D01*
X178816535Y-48895880D01*
X178587727Y-48742995D01*
X178333490Y-48637686D01*
X178063592Y-48584000D01*
X177788408Y-48584000D01*
X177518510Y-48637686D01*
X177264273Y-48742995D01*
X177035465Y-48895880D01*
X176840880Y-49090465D01*
X176687995Y-49319273D01*
X176582686Y-49573510D01*
X176529000Y-49843408D01*
X175482038Y-49843408D01*
X175359330Y-49819000D01*
X175493490Y-49792314D01*
X175747727Y-49687005D01*
X175976535Y-49534120D01*
X176171120Y-49339535D01*
X176324005Y-49110727D01*
X176429314Y-48856490D01*
X176483000Y-48586592D01*
X176483000Y-48311408D01*
X176429314Y-48041510D01*
X176324005Y-47787273D01*
X176171120Y-47558465D01*
X175976535Y-47363880D01*
X175747727Y-47210995D01*
X175493490Y-47105686D01*
X175223592Y-47052000D01*
X174948408Y-47052000D01*
X174678510Y-47105686D01*
X174424273Y-47210995D01*
X174195465Y-47363880D01*
X174000880Y-47558465D01*
X173847995Y-47787273D01*
X173742686Y-48041510D01*
X173689000Y-48311408D01*
X95736000Y-48311408D01*
X95736000Y-45496725D01*
X167170500Y-45496725D01*
X167170500Y-45689275D01*
X167208064Y-45878126D01*
X167281750Y-46056020D01*
X167388726Y-46216120D01*
X167524880Y-46352274D01*
X167684980Y-46459250D01*
X167862874Y-46532936D01*
X168051725Y-46570500D01*
X168244275Y-46570500D01*
X168433126Y-46532936D01*
X168611020Y-46459250D01*
X168771120Y-46352274D01*
X168907274Y-46216120D01*
X169014250Y-46056020D01*
X169087936Y-45878126D01*
X169125500Y-45689275D01*
X169125500Y-45496725D01*
X169087936Y-45307874D01*
X169014250Y-45129980D01*
X168907274Y-44969880D01*
X168771120Y-44833726D01*
X168611020Y-44726750D01*
X168433126Y-44653064D01*
X168244275Y-44615500D01*
X168051725Y-44615500D01*
X167862874Y-44653064D01*
X167684980Y-44726750D01*
X167524880Y-44833726D01*
X167388726Y-44969880D01*
X167281750Y-45129980D01*
X167208064Y-45307874D01*
X167170500Y-45496725D01*
X95736000Y-45496725D01*
X95736000Y-43337725D01*
X152438500Y-43337725D01*
X152438500Y-43530275D01*
X152476064Y-43719126D01*
X152549750Y-43897020D01*
X152656726Y-44057120D01*
X152792880Y-44193274D01*
X152952980Y-44300250D01*
X153130874Y-44373936D01*
X153319725Y-44411500D01*
X153512275Y-44411500D01*
X153701126Y-44373936D01*
X153879020Y-44300250D01*
X154039120Y-44193274D01*
X154175274Y-44057120D01*
X154282250Y-43897020D01*
X154355936Y-43719126D01*
X154393500Y-43530275D01*
X154393500Y-43337725D01*
X167170500Y-43337725D01*
X167170500Y-43530275D01*
X167208064Y-43719126D01*
X167281750Y-43897020D01*
X167388726Y-44057120D01*
X167524880Y-44193274D01*
X167684980Y-44300250D01*
X167862874Y-44373936D01*
X168051725Y-44411500D01*
X168244275Y-44411500D01*
X168433126Y-44373936D01*
X168611020Y-44300250D01*
X168771120Y-44193274D01*
X168907274Y-44057120D01*
X169014250Y-43897020D01*
X169087936Y-43719126D01*
X169125500Y-43530275D01*
X169125500Y-43337725D01*
X169087936Y-43148874D01*
X169014250Y-42970980D01*
X168907274Y-42810880D01*
X168771120Y-42674726D01*
X168611020Y-42567750D01*
X168433126Y-42494064D01*
X168244275Y-42456500D01*
X168051725Y-42456500D01*
X167862874Y-42494064D01*
X167684980Y-42567750D01*
X167524880Y-42674726D01*
X167388726Y-42810880D01*
X167281750Y-42970980D01*
X167208064Y-43148874D01*
X167170500Y-43337725D01*
X154393500Y-43337725D01*
X154355936Y-43148874D01*
X154282250Y-42970980D01*
X154175274Y-42810880D01*
X154039120Y-42674726D01*
X153879020Y-42567750D01*
X153701126Y-42494064D01*
X153512275Y-42456500D01*
X153319725Y-42456500D01*
X153130874Y-42494064D01*
X152952980Y-42567750D01*
X152792880Y-42674726D01*
X152656726Y-42810880D01*
X152549750Y-42970980D01*
X152476064Y-43148874D01*
X152438500Y-43337725D01*
X95736000Y-43337725D01*
X95736000Y-41154422D01*
X174450738Y-41154422D01*
X174450738Y-41591578D01*
X174536023Y-42020335D01*
X174703316Y-42424215D01*
X174946187Y-42787697D01*
X175255303Y-43096813D01*
X175618785Y-43339684D01*
X176022665Y-43506977D01*
X176451422Y-43592262D01*
X176888578Y-43592262D01*
X177317335Y-43506977D01*
X177721215Y-43339684D01*
X178084697Y-43096813D01*
X178393813Y-42787697D01*
X178636684Y-42424215D01*
X178803977Y-42020335D01*
X178889262Y-41591578D01*
X178889262Y-41154422D01*
X178803977Y-40725665D01*
X178636684Y-40321785D01*
X178393813Y-39958303D01*
X178084697Y-39649187D01*
X177721215Y-39406316D01*
X177317335Y-39239023D01*
X176888578Y-39153738D01*
X176451422Y-39153738D01*
X176022665Y-39239023D01*
X175618785Y-39406316D01*
X175255303Y-39649187D01*
X174946187Y-39958303D01*
X174703316Y-40321785D01*
X174536023Y-40725665D01*
X174450738Y-41154422D01*
X95736000Y-41154422D01*
X95736000Y-37415000D01*
X182684636Y-37415000D01*
X182688364Y-37453342D01*
G37*
%TD.AperFunction*%
%TD*%
M02*
