  0
SECTION
  2
HEADER
  9
$ACADVER
  1
AC1009
  9
$FILLMODE
 70
 0
  9
$SPLFRAME
 70
 1
  9
$EXTMIN
 10
0
 20
0
 30
0.0
  9
$EXTMAX
 10
41.6667
 20
41.6667
 30
0.0
  0
ENDSEC
  0
SECTION
  2
TABLES
  0
TABLE
  2
LAYER
 70
1
  0
LAYER
  2
0
 70
     0
 62
     7
  6
CONTINUOUS
  0
ENDTAB
  0
ENDSEC
  0
SECTION
  2
ENTITIES
  0
POLYLINE
  8
0
 62
     22
 66
     1
 10
0
 20
0
 30
0.0
 70
     1
 40
0
 41
0
  0
VERTEX
  8
0
 10
1.3125
 20
1.03874
 30
0.0
 40
0
 41
0
  0
VERTEX
  8
0
 10
0
 20
1.03874
 30
0.0
 40
0
 41
0
  0
VERTEX
  8
0
 10
0
 20
0.00748699
 30
0.0
 40
0
 41
0
  0
VERTEX
  8
0
 10
1.3125
 20
0.00748699
 30
0.0
 40
0
 41
0
  0
VERTEX
  8
0
 10
1.3125
 20
1.03874
 30
0.0
 40
0
 41
0
  0
SEQEND
 8
0
  0
POLYLINE
  8
0
 62
     22
 66
     1
 10
0
 20
0
 30
0.0
 70
     1
 40
0
 41
0
  0
VERTEX
  8
0
 10
0.09375
 20
1.00597
 30
0.0
 40
0
 41
0
  0
VERTEX
  8
0
 10
0.0996636
 20
1.00597
 30
0.0
 40
0
 41
0
  0
VERTEX
  8
0
 10
0.117405
 20
1.00119
 30
0.0
 40
0
 41
0
  0
VERTEX
  8
0
 10
0.136773
 20
0.988172
 30
0.0
 40
0
 41
0
  0
VERTEX
  8
0
 10
0.149794
 20
0.968804
 30
0.0
 40
0
 41
0
  0
VERTEX
  8
0
 10
0.154622
 20
0.951064
 30
0.0
 40
0
 41
0
  0
VERTEX
  8
0
 10
0.154622
 20
0.945096
 30
0.0
 40
0
 41
0
  0
VERTEX
  8
0
 10
0.154622
 20
0.939182
 30
0.0
 40
0
 41
0
  0
VERTEX
  8
0
 10
0.149794
 20
0.921386
 30
0.0
 40
0
 41
0
  0
VERTEX
  8
0
 10
0.136773
 20
0.902072
 30
0.0
 40
0
 41
0
  0
VERTEX
  8
0
 10
0.117405
 20
0.888997
 30
0.0
 40
0
 41
0
  0
VERTEX
  8
0
 10
0.0996636
 20
0.884224
 30
0.0
 40
0
 41
0
  0
VERTEX
  8
0
 10
0.09375
 20
0.884224
 30
0.0
 40
0
 41
0
  0
VERTEX
  8
0
 10
0.0877821
 20
0.884224
 30
0.0
 40
0
 41
0
  0
VERTEX
  8
0
 10
0.0700413
 20
0.888997
 30
0.0
 40
0
 41
0
  0
VERTEX
  8
0
 10
0.0506728
 20
0.902072
 30
0.0
 40
0
 41
0
  0
VERTEX
  8
0
 10
0.0376519
 20
0.921386
 30
0.0
 40
0
 41
0
  0
VERTEX
  8
0
 10
0.0328776
 20
0.939182
 30
0.0
 40
0
 41
0
  0
VERTEX
  8
0
 10
0.0328776
 20
0.945096
 30
0.0
 40
0
 41
0
  0
VERTEX
  8
0
 10
0.0328776
 20
0.951064
 30
0.0
 40
0
 41
0
  0
VERTEX
  8
0
 10
0.0376519
 20
0.968804
 30
0.0
 40
0
 41
0
  0
VERTEX
  8
0
 10
0.0506728
 20
0.988172
 30
0.0
 40
0
 41
0
  0
VERTEX
  8
0
 10
0.0700413
 20
1.00119
 30
0.0
 40
0
 41
0
  0
VERTEX
  8
0
 10
0.0877821
 20
1.00597
 30
0.0
 40
0
 41
0
  0
VERTEX
  8
0
 10
0.09375
 20
1.00597
 30
0.0
 40
0
 41
0
  0
SEQEND
 8
0
  0
POLYLINE
  8
0
 62
     22
 66
     1
 10
0
 20
0
 30
0.0
 70
     1
 40
0
 41
0
  0
VERTEX
  8
0
 10
1.21875
 20
1.00597
 30
0.0
 40
0
 41
0
  0
VERTEX
  8
0
 10
1.22466
 20
1.00597
 30
0.0
 40
0
 41
0
  0
VERTEX
  8
0
 10
1.2424
 20
1.00119
 30
0.0
 40
0
 41
0
  0
VERTEX
  8
0
 10
1.26177
 20
0.988172
 30
0.0
 40
0
 41
0
  0
VERTEX
  8
0
 10
1.27479
 20
0.968804
 30
0.0
 40
0
 41
0
  0
VERTEX
  8
0
 10
1.27962
 20
0.951064
 30
0.0
 40
0
 41
0
  0
VERTEX
  8
0
 10
1.27962
 20
0.945096
 30
0.0
 40
0
 41
0
  0
VERTEX
  8
0
 10
1.27962
 20
0.939182
 30
0.0
 40
0
 41
0
  0
VERTEX
  8
0
 10
1.27479
 20
0.921386
 30
0.0
 40
0
 41
0
  0
VERTEX
  8
0
 10
1.26177
 20
0.902072
 30
0.0
 40
0
 41
0
  0
VERTEX
  8
0
 10
1.2424
 20
0.888997
 30
0.0
 40
0
 41
0
  0
VERTEX
  8
0
 10
1.22466
 20
0.884224
 30
0.0
 40
0
 41
0
  0
VERTEX
  8
0
 10
1.21875
 20
0.884224
 30
0.0
 40
0
 41
0
  0
VERTEX
  8
0
 10
1.21278
 20
0.884224
 30
0.0
 40
0
 41
0
  0
VERTEX
  8
0
 10
1.19504
 20
0.888997
 30
0.0
 40
0
 41
0
  0
VERTEX
  8
0
 10
1.17567
 20
0.902072
 30
0.0
 40
0
 41
0
  0
VERTEX
  8
0
 10
1.16265
 20
0.921386
 30
0.0
 40
0
 41
0
  0
VERTEX
  8
0
 10
1.15788
 20
0.939182
 30
0.0
 40
0
 41
0
  0
VERTEX
  8
0
 10
1.15788
 20
0.945096
 30
0.0
 40
0
 41
0
  0
VERTEX
  8
0
 10
1.15788
 20
0.951064
 30
0.0
 40
0
 41
0
  0
VERTEX
  8
0
 10
1.16265
 20
0.968804
 30
0.0
 40
0
 41
0
  0
VERTEX
  8
0
 10
1.17567
 20
0.988172
 30
0.0
 40
0
 41
0
  0
VERTEX
  8
0
 10
1.19504
 20
1.00119
 30
0.0
 40
0
 41
0
  0
VERTEX
  8
0
 10
1.21278
 20
1.00597
 30
0.0
 40
0
 41
0
  0
VERTEX
  8
0
 10
1.21875
 20
1.00597
 30
0.0
 40
0
 41
0
  0
SEQEND
 8
0
  0
POLYLINE
  8
0
 62
     22
 66
     1
 10
0
 20
0
 30
0.0
 70
     1
 40
0
 41
0
  0
VERTEX
  8
0
 10
0.0472006
 20
0.776476
 30
0.0
 40
0
 41
0
  0
VERTEX
  8
0
 10
0.05051
 20
0.776476
 30
0.0
 40
0
 41
0
  0
VERTEX
  8
0
 10
0.0604926
 20
0.771104
 30
0.0
 40
0
 41
0
  0
VERTEX
  8
0
 10
0.0660807
 20
0.761231
 30
0.0
 40
0
 41
0
  0
VERTEX
  8
0
 10
0.0660807
 20
0.757921
 30
0.0
 40
0
 41
0
  0
VERTEX
  8
0
 10
0.0660807
 20
0.754611
 30
0.0
 40
0
 41
0
  0
VERTEX
  8
0
 10
0.0604926
 20
0.744575
 30
0.0
 40
0
 41
0
  0
VERTEX
  8
0
 10
0.05051
 20
0.73904
 30
0.0
 40
0
 41
0
  0
VERTEX
  8
0
 10
0.0472006
 20
0.73904
 30
0.0
 40
0
 41
0
  0
VERTEX
  8
0
 10
0.0438368
 20
0.73904
 30
0.0
 40
0
 41
0
  0
VERTEX
  8
0
 10
0.0338542
 20
0.744575
 30
0.0
 40
0
 41
0
  0
VERTEX
  8
0
 10
0.0283203
 20
0.754611
 30
0.0
 40
0
 41
0
  0
VERTEX
  8
0
 10
0.0283203
 20
0.757921
 30
0.0
 40
0
 41
0
  0
VERTEX
  8
0
 10
0.0283203
 20
0.761231
 30
0.0
 40
0
 41
0
  0
VERTEX
  8
0
 10
0.0338542
 20
0.771104
 30
0.0
 40
0
 41
0
  0
VERTEX
  8
0
 10
0.0438368
 20
0.776476
 30
0.0
 40
0
 41
0
  0
VERTEX
  8
0
 10
0.0472006
 20
0.776476
 30
0.0
 40
0
 41
0
  0
SEQEND
 8
0
  0
POLYLINE
  8
0
 62
     22
 66
     1
 10
0
 20
0
 30
0.0
 70
     1
 40
0
 41
0
  0
VERTEX
  8
0
 10
0.0472006
 20
0.682726
 30
0.0
 40
0
 41
0
  0
VERTEX
  8
0
 10
0.05051
 20
0.682726
 30
0.0
 40
0
 41
0
  0
VERTEX
  8
0
 10
0.0604926
 20
0.677354
 30
0.0
 40
0
 41
0
  0
VERTEX
  8
0
 10
0.0660807
 20
0.667481
 30
0.0
 40
0
 41
0
  0
VERTEX
  8
0
 10
0.0660807
 20
0.664171
 30
0.0
 40
0
 41
0
  0
VERTEX
  8
0
 10
0.0660807
 20
0.660861
 30
0.0
 40
0
 41
0
  0
VERTEX
  8
0
 10
0.0604926
 20
0.650825
 30
0.0
 40
0
 41
0
  0
VERTEX
  8
0
 10
0.05051
 20
0.64529
 30
0.0
 40
0
 41
0
  0
VERTEX
  8
0
 10
0.0472006
 20
0.64529
 30
0.0
 40
0
 41
0
  0
VERTEX
  8
0
 10
0.0438368
 20
0.64529
 30
0.0
 40
0
 41
0
  0
VERTEX
  8
0
 10
0.0338542
 20
0.650825
 30
0.0
 40
0
 41
0
  0
VERTEX
  8
0
 10
0.0283203
 20
0.660861
 30
0.0
 40
0
 41
0
  0
VERTEX
  8
0
 10
0.0283203
 20
0.664171
 30
0.0
 40
0
 41
0
  0
VERTEX
  8
0
 10
0.0283203
 20
0.667481
 30
0.0
 40
0
 41
0
  0
VERTEX
  8
0
 10
0.0338542
 20
0.677354
 30
0.0
 40
0
 41
0
  0
VERTEX
  8
0
 10
0.0438368
 20
0.682726
 30
0.0
 40
0
 41
0
  0
VERTEX
  8
0
 10
0.0472006
 20
0.682726
 30
0.0
 40
0
 41
0
  0
SEQEND
 8
0
  0
POLYLINE
  8
0
 62
     22
 66
     1
 10
0
 20
0
 30
0.0
 70
     1
 40
0
 41
0
  0
VERTEX
  8
0
 10
0.0472006
 20
0.588976
 30
0.0
 40
0
 41
0
  0
VERTEX
  8
0
 10
0.05051
 20
0.588976
 30
0.0
 40
0
 41
0
  0
VERTEX
  8
0
 10
0.0604926
 20
0.583604
 30
0.0
 40
0
 41
0
  0
VERTEX
  8
0
 10
0.0660807
 20
0.573731
 30
0.0
 40
0
 41
0
  0
VERTEX
  8
0
 10
0.0660807
 20
0.570421
 30
0.0
 40
0
 41
0
  0
VERTEX
  8
0
 10
0.0660807
 20
0.567111
 30
0.0
 40
0
 41
0
  0
VERTEX
  8
0
 10
0.0604926
 20
0.557075
 30
0.0
 40
0
 41
0
  0
VERTEX
  8
0
 10
0.05051
 20
0.55154
 30
0.0
 40
0
 41
0
  0
VERTEX
  8
0
 10
0.0472006
 20
0.55154
 30
0.0
 40
0
 41
0
  0
VERTEX
  8
0
 10
0.0438368
 20
0.55154
 30
0.0
 40
0
 41
0
  0
VERTEX
  8
0
 10
0.0338542
 20
0.557075
 30
0.0
 40
0
 41
0
  0
VERTEX
  8
0
 10
0.0283203
 20
0.567111
 30
0.0
 40
0
 41
0
  0
VERTEX
  8
0
 10
0.0283203
 20
0.570421
 30
0.0
 40
0
 41
0
  0
VERTEX
  8
0
 10
0.0283203
 20
0.573731
 30
0.0
 40
0
 41
0
  0
VERTEX
  8
0
 10
0.0338542
 20
0.583604
 30
0.0
 40
0
 41
0
  0
VERTEX
  8
0
 10
0.0438368
 20
0.588976
 30
0.0
 40
0
 41
0
  0
VERTEX
  8
0
 10
0.0472006
 20
0.588976
 30
0.0
 40
0
 41
0
  0
SEQEND
 8
0
  0
POLYLINE
  8
0
 62
     22
 66
     1
 10
0
 20
0
 30
0.0
 70
     1
 40
0
 41
0
  0
VERTEX
  8
0
 10
1.21875
 20
0.162543
 30
0.0
 40
0
 41
0
  0
VERTEX
  8
0
 10
1.22466
 20
0.162543
 30
0.0
 40
0
 41
0
  0
VERTEX
  8
0
 10
1.2424
 20
0.157769
 30
0.0
 40
0
 41
0
  0
VERTEX
  8
0
 10
1.26177
 20
0.144749
 30
0.0
 40
0
 41
0
  0
VERTEX
  8
0
 10
1.27479
 20
0.12538
 30
0.0
 40
0
 41
0
  0
VERTEX
  8
0
 10
1.27962
 20
0.107639
 30
0.0
 40
0
 41
0
  0
VERTEX
  8
0
 10
1.27962
 20
0.101671
 30
0.0
 40
0
 41
0
  0
VERTEX
  8
0
 10
1.27962
 20
0.0957574
 30
0.0
 40
0
 41
0
  0
VERTEX
  8
0
 10
1.27479
 20
0.0779081
 30
0.0
 40
0
 41
0
  0
VERTEX
  8
0
 10
1.26177
 20
0.0584853
 30
0.0
 40
0
 41
0
  0
VERTEX
  8
0
 10
1.2424
 20
0.0453017
 30
0.0
 40
0
 41
0
  0
VERTEX
  8
0
 10
1.22466
 20
0.0404731
 30
0.0
 40
0
 41
0
  0
VERTEX
  8
0
 10
1.21875
 20
0.0404731
 30
0.0
 40
0
 41
0
  0
VERTEX
  8
0
 10
1.21278
 20
0.0404731
 30
0.0
 40
0
 41
0
  0
VERTEX
  8
0
 10
1.19504
 20
0.0453017
 30
0.0
 40
0
 41
0
  0
VERTEX
  8
0
 10
1.17567
 20
0.0584853
 30
0.0
 40
0
 41
0
  0
VERTEX
  8
0
 10
1.16265
 20
0.0779081
 30
0.0
 40
0
 41
0
  0
VERTEX
  8
0
 10
1.15788
 20
0.0957574
 30
0.0
 40
0
 41
0
  0
VERTEX
  8
0
 10
1.15788
 20
0.101671
 30
0.0
 40
0
 41
0
  0
VERTEX
  8
0
 10
1.15788
 20
0.107639
 30
0.0
 40
0
 41
0
  0
VERTEX
  8
0
 10
1.16265
 20
0.12538
 30
0.0
 40
0
 41
0
  0
VERTEX
  8
0
 10
1.17567
 20
0.144749
 30
0.0
 40
0
 41
0
  0
VERTEX
  8
0
 10
1.19504
 20
0.157769
 30
0.0
 40
0
 41
0
  0
VERTEX
  8
0
 10
1.21278
 20
0.162543
 30
0.0
 40
0
 41
0
  0
VERTEX
  8
0
 10
1.21875
 20
0.162543
 30
0.0
 40
0
 41
0
  0
SEQEND
 8
0
  0
POLYLINE
  8
0
 62
     22
 66
     1
 10
0
 20
0
 30
0.0
 70
     1
 40
0
 41
0
  0
VERTEX
  8
0
 10
0.09375
 20
0.162164
 30
0.0
 40
0
 41
0
  0
VERTEX
  8
0
 10
0.0996636
 20
0.162164
 30
0.0
 40
0
 41
0
  0
VERTEX
  8
0
 10
0.117405
 20
0.157389
 30
0.0
 40
0
 41
0
  0
VERTEX
  8
0
 10
0.136773
 20
0.144368
 30
0.0
 40
0
 41
0
  0
VERTEX
  8
0
 10
0.149794
 20
0.125
 30
0.0
 40
0
 41
0
  0
VERTEX
  8
0
 10
0.154622
 20
0.107259
 30
0.0
 40
0
 41
0
  0
VERTEX
  8
0
 10
0.154622
 20
0.101291
 30
0.0
 40
0
 41
0
  0
VERTEX
  8
0
 10
0.154622
 20
0.0953776
 30
0.0
 40
0
 41
0
  0
VERTEX
  8
0
 10
0.149794
 20
0.0776367
 30
0.0
 40
0
 41
0
  0
VERTEX
  8
0
 10
0.136773
 20
0.0582682
 30
0.0
 40
0
 41
0
  0
VERTEX
  8
0
 10
0.117405
 20
0.0452474
 30
0.0
 40
0
 41
0
  0
VERTEX
  8
0
 10
0.0996636
 20
0.0404189
 30
0.0
 40
0
 41
0
  0
VERTEX
  8
0
 10
0.09375
 20
0.0404189
 30
0.0
 40
0
 41
0
  0
VERTEX
  8
0
 10
0.0877821
 20
0.0404189
 30
0.0
 40
0
 41
0
  0
VERTEX
  8
0
 10
0.0700413
 20
0.0452474
 30
0.0
 40
0
 41
0
  0
VERTEX
  8
0
 10
0.0506728
 20
0.0582682
 30
0.0
 40
0
 41
0
  0
VERTEX
  8
0
 10
0.0376519
 20
0.0776367
 30
0.0
 40
0
 41
0
  0
VERTEX
  8
0
 10
0.0328776
 20
0.0953776
 30
0.0
 40
0
 41
0
  0
VERTEX
  8
0
 10
0.0328776
 20
0.101291
 30
0.0
 40
0
 41
0
  0
VERTEX
  8
0
 10
0.0328776
 20
0.107259
 30
0.0
 40
0
 41
0
  0
VERTEX
  8
0
 10
0.0376519
 20
0.125
 30
0.0
 40
0
 41
0
  0
VERTEX
  8
0
 10
0.0506728
 20
0.144368
 30
0.0
 40
0
 41
0
  0
VERTEX
  8
0
 10
0.0700413
 20
0.157389
 30
0.0
 40
0
 41
0
  0
VERTEX
  8
0
 10
0.0877821
 20
0.162164
 30
0.0
 40
0
 41
0
  0
VERTEX
  8
0
 10
0.09375
 20
0.162164
 30
0.0
 40
0
 41
0
  0
SEQEND
 8
0
  0
POLYLINE
  8
0
 62
     22
 66
     1
 10
0
 20
0
 30
0.0
 70
     1
 40
0
 41
0
  0
VERTEX
  8
0
 10
0.4222
 20
0.0732964
 30
0.0
 40
0
 41
0
  0
VERTEX
  8
0
 10
0.42551
 20
0.0732964
 30
0.0
 40
0
 41
0
  0
VERTEX
  8
0
 10
0.435493
 20
0.0679254
 30
0.0
 40
0
 41
0
  0
VERTEX
  8
0
 10
0.441081
 20
0.0580512
 30
0.0
 40
0
 41
0
  0
VERTEX
  8
0
 10
0.441081
 20
0.0547418
 30
0.0
 40
0
 41
0
  0
VERTEX
  8
0
 10
0.441081
 20
0.0514324
 30
0.0
 40
0
 41
0
  0
VERTEX
  8
0
 10
0.435493
 20
0.0413954
 30
0.0
 40
0
 41
0
  0
VERTEX
  8
0
 10
0.42551
 20
0.0358615
 30
0.0
 40
0
 41
0
  0
VERTEX
  8
0
 10
0.4222
 20
0.0358615
 30
0.0
 40
0
 41
0
  0
VERTEX
  8
0
 10
0.418837
 20
0.0358615
 30
0.0
 40
0
 41
0
  0
VERTEX
  8
0
 10
0.408854
 20
0.0413954
 30
0.0
 40
0
 41
0
  0
VERTEX
  8
0
 10
0.403321
 20
0.0514324
 30
0.0
 40
0
 41
0
  0
VERTEX
  8
0
 10
0.403321
 20
0.0547418
 30
0.0
 40
0
 41
0
  0
VERTEX
  8
0
 10
0.403321
 20
0.0580512
 30
0.0
 40
0
 41
0
  0
VERTEX
  8
0
 10
0.408854
 20
0.0679254
 30
0.0
 40
0
 41
0
  0
VERTEX
  8
0
 10
0.418837
 20
0.0732964
 30
0.0
 40
0
 41
0
  0
VERTEX
  8
0
 10
0.4222
 20
0.0732964
 30
0.0
 40
0
 41
0
  0
SEQEND
 8
0
  0
POLYLINE
  8
0
 62
     22
 66
     1
 10
0
 20
0
 30
0.0
 70
     1
 40
0
 41
0
  0
VERTEX
  8
0
 10
0.51595
 20
0.0732964
 30
0.0
 40
0
 41
0
  0
VERTEX
  8
0
 10
0.51926
 20
0.0732964
 30
0.0
 40
0
 41
0
  0
VERTEX
  8
0
 10
0.529243
 20
0.0679254
 30
0.0
 40
0
 41
0
  0
VERTEX
  8
0
 10
0.534831
 20
0.0580512
 30
0.0
 40
0
 41
0
  0
VERTEX
  8
0
 10
0.534831
 20
0.0547418
 30
0.0
 40
0
 41
0
  0
VERTEX
  8
0
 10
0.534831
 20
0.0514324
 30
0.0
 40
0
 41
0
  0
VERTEX
  8
0
 10
0.529243
 20
0.0413954
 30
0.0
 40
0
 41
0
  0
VERTEX
  8
0
 10
0.51926
 20
0.0358615
 30
0.0
 40
0
 41
0
  0
VERTEX
  8
0
 10
0.51595
 20
0.0358615
 30
0.0
 40
0
 41
0
  0
VERTEX
  8
0
 10
0.512587
 20
0.0358615
 30
0.0
 40
0
 41
0
  0
VERTEX
  8
0
 10
0.502604
 20
0.0413954
 30
0.0
 40
0
 41
0
  0
VERTEX
  8
0
 10
0.497071
 20
0.0514324
 30
0.0
 40
0
 41
0
  0
VERTEX
  8
0
 10
0.497071
 20
0.0547418
 30
0.0
 40
0
 41
0
  0
VERTEX
  8
0
 10
0.497071
 20
0.0580512
 30
0.0
 40
0
 41
0
  0
VERTEX
  8
0
 10
0.502604
 20
0.0679254
 30
0.0
 40
0
 41
0
  0
VERTEX
  8
0
 10
0.512587
 20
0.0732964
 30
0.0
 40
0
 41
0
  0
VERTEX
  8
0
 10
0.51595
 20
0.0732964
 30
0.0
 40
0
 41
0
  0
SEQEND
 8
0
  0
POLYLINE
  8
0
 62
     22
 66
     1
 10
0
 20
0
 30
0.0
 70
     1
 40
0
 41
0
  0
VERTEX
  8
0
 10
0.6097
 20
0.0732964
 30
0.0
 40
0
 41
0
  0
VERTEX
  8
0
 10
0.61301
 20
0.0732964
 30
0.0
 40
0
 41
0
  0
VERTEX
  8
0
 10
0.622993
 20
0.0679254
 30
0.0
 40
0
 41
0
  0
VERTEX
  8
0
 10
0.628581
 20
0.0580512
 30
0.0
 40
0
 41
0
  0
VERTEX
  8
0
 10
0.628581
 20
0.0547418
 30
0.0
 40
0
 41
0
  0
VERTEX
  8
0
 10
0.628581
 20
0.0514324
 30
0.0
 40
0
 41
0
  0
VERTEX
  8
0
 10
0.622993
 20
0.0413954
 30
0.0
 40
0
 41
0
  0
VERTEX
  8
0
 10
0.61301
 20
0.0358615
 30
0.0
 40
0
 41
0
  0
VERTEX
  8
0
 10
0.6097
 20
0.0358615
 30
0.0
 40
0
 41
0
  0
VERTEX
  8
0
 10
0.606337
 20
0.0358615
 30
0.0
 40
0
 41
0
  0
VERTEX
  8
0
 10
0.596354
 20
0.0413954
 30
0.0
 40
0
 41
0
  0
VERTEX
  8
0
 10
0.590821
 20
0.0514324
 30
0.0
 40
0
 41
0
  0
VERTEX
  8
0
 10
0.590821
 20
0.0547418
 30
0.0
 40
0
 41
0
  0
VERTEX
  8
0
 10
0.590821
 20
0.0580512
 30
0.0
 40
0
 41
0
  0
VERTEX
  8
0
 10
0.596354
 20
0.0679254
 30
0.0
 40
0
 41
0
  0
VERTEX
  8
0
 10
0.606337
 20
0.0732964
 30
0.0
 40
0
 41
0
  0
VERTEX
  8
0
 10
0.6097
 20
0.0732964
 30
0.0
 40
0
 41
0
  0
SEQEND
 8
0
  0
POLYLINE
  8
0
 62
     22
 66
     1
 10
0
 20
0
 30
0.0
 70
     1
 40
0
 41
0
  0
VERTEX
  8
0
 10
0.70345
 20
0.0732964
 30
0.0
 40
0
 41
0
  0
VERTEX
  8
0
 10
0.70676
 20
0.0732964
 30
0.0
 40
0
 41
0
  0
VERTEX
  8
0
 10
0.716743
 20
0.0679254
 30
0.0
 40
0
 41
0
  0
VERTEX
  8
0
 10
0.722331
 20
0.0580512
 30
0.0
 40
0
 41
0
  0
VERTEX
  8
0
 10
0.722331
 20
0.0547418
 30
0.0
 40
0
 41
0
  0
VERTEX
  8
0
 10
0.722331
 20
0.0514324
 30
0.0
 40
0
 41
0
  0
VERTEX
  8
0
 10
0.716743
 20
0.0413954
 30
0.0
 40
0
 41
0
  0
VERTEX
  8
0
 10
0.70676
 20
0.0358615
 30
0.0
 40
0
 41
0
  0
VERTEX
  8
0
 10
0.70345
 20
0.0358615
 30
0.0
 40
0
 41
0
  0
VERTEX
  8
0
 10
0.700087
 20
0.0358615
 30
0.0
 40
0
 41
0
  0
VERTEX
  8
0
 10
0.690104
 20
0.0413954
 30
0.0
 40
0
 41
0
  0
VERTEX
  8
0
 10
0.684571
 20
0.0514324
 30
0.0
 40
0
 41
0
  0
VERTEX
  8
0
 10
0.684571
 20
0.0547418
 30
0.0
 40
0
 41
0
  0
VERTEX
  8
0
 10
0.684571
 20
0.0580512
 30
0.0
 40
0
 41
0
  0
VERTEX
  8
0
 10
0.690104
 20
0.0679254
 30
0.0
 40
0
 41
0
  0
VERTEX
  8
0
 10
0.700087
 20
0.0732964
 30
0.0
 40
0
 41
0
  0
VERTEX
  8
0
 10
0.70345
 20
0.0732964
 30
0.0
 40
0
 41
0
  0
SEQEND
 8
0
  0
POLYLINE
  8
0
 62
     22
 66
     1
 10
0
 20
0
 30
0.0
 70
     1
 40
0
 41
0
  0
VERTEX
  8
0
 10
0.7972
 20
0.0732964
 30
0.0
 40
0
 41
0
  0
VERTEX
  8
0
 10
0.80051
 20
0.0732964
 30
0.0
 40
0
 41
0
  0
VERTEX
  8
0
 10
0.810493
 20
0.0679254
 30
0.0
 40
0
 41
0
  0
VERTEX
  8
0
 10
0.816081
 20
0.0580512
 30
0.0
 40
0
 41
0
  0
VERTEX
  8
0
 10
0.816081
 20
0.0547418
 30
0.0
 40
0
 41
0
  0
VERTEX
  8
0
 10
0.816081
 20
0.0514324
 30
0.0
 40
0
 41
0
  0
VERTEX
  8
0
 10
0.810493
 20
0.0413954
 30
0.0
 40
0
 41
0
  0
VERTEX
  8
0
 10
0.80051
 20
0.0358615
 30
0.0
 40
0
 41
0
  0
VERTEX
  8
0
 10
0.7972
 20
0.0358615
 30
0.0
 40
0
 41
0
  0
VERTEX
  8
0
 10
0.793838
 20
0.0358615
 30
0.0
 40
0
 41
0
  0
VERTEX
  8
0
 10
0.783854
 20
0.0413954
 30
0.0
 40
0
 41
0
  0
VERTEX
  8
0
 10
0.778321
 20
0.0514324
 30
0.0
 40
0
 41
0
  0
VERTEX
  8
0
 10
0.778321
 20
0.0547418
 30
0.0
 40
0
 41
0
  0
VERTEX
  8
0
 10
0.778321
 20
0.0580512
 30
0.0
 40
0
 41
0
  0
VERTEX
  8
0
 10
0.783854
 20
0.0679254
 30
0.0
 40
0
 41
0
  0
VERTEX
  8
0
 10
0.793838
 20
0.0732964
 30
0.0
 40
0
 41
0
  0
VERTEX
  8
0
 10
0.7972
 20
0.0732964
 30
0.0
 40
0
 41
0
  0
SEQEND
 8
0
  0
POLYLINE
  8
0
 62
     22
 66
     1
 10
0
 20
0
 30
0.0
 70
     1
 40
0
 41
0
  0
VERTEX
  8
0
 10
0.89095
 20
0.0732964
 30
0.0
 40
0
 41
0
  0
VERTEX
  8
0
 10
0.89426
 20
0.0732964
 30
0.0
 40
0
 41
0
  0
VERTEX
  8
0
 10
0.904243
 20
0.0679254
 30
0.0
 40
0
 41
0
  0
VERTEX
  8
0
 10
0.909831
 20
0.0580512
 30
0.0
 40
0
 41
0
  0
VERTEX
  8
0
 10
0.909831
 20
0.0547418
 30
0.0
 40
0
 41
0
  0
VERTEX
  8
0
 10
0.909831
 20
0.0514324
 30
0.0
 40
0
 41
0
  0
VERTEX
  8
0
 10
0.904243
 20
0.0413954
 30
0.0
 40
0
 41
0
  0
VERTEX
  8
0
 10
0.89426
 20
0.0358615
 30
0.0
 40
0
 41
0
  0
VERTEX
  8
0
 10
0.89095
 20
0.0358615
 30
0.0
 40
0
 41
0
  0
VERTEX
  8
0
 10
0.887588
 20
0.0358615
 30
0.0
 40
0
 41
0
  0
VERTEX
  8
0
 10
0.877604
 20
0.0413954
 30
0.0
 40
0
 41
0
  0
VERTEX
  8
0
 10
0.872071
 20
0.0514324
 30
0.0
 40
0
 41
0
  0
VERTEX
  8
0
 10
0.872071
 20
0.0547418
 30
0.0
 40
0
 41
0
  0
VERTEX
  8
0
 10
0.872071
 20
0.0580512
 30
0.0
 40
0
 41
0
  0
VERTEX
  8
0
 10
0.877604
 20
0.0679254
 30
0.0
 40
0
 41
0
  0
VERTEX
  8
0
 10
0.887588
 20
0.0732964
 30
0.0
 40
0
 41
0
  0
VERTEX
  8
0
 10
0.89095
 20
0.0732964
 30
0.0
 40
0
 41
0
  0
SEQEND
 8
0
  0
POLYLINE
  8
0
 62
     7
 66
     1
 10
0
 20
0
 30
0.0
 40
0.675
 41
0.675
  0
VERTEX
  8
0
 10
0.409343
 20
0.149631
 30
0.0
 40
0.009375
 41
0.009375
  0
VERTEX
  8
0
 10
0.403103
 20
0.143392
 30
0.0
 40
0.009375
 41
0.009375
  0
SEQEND
 8
0
  0
POLYLINE
  8
0
 62
     7
 66
     1
 10
0
 20
0
 30
0.0
 40
0.675
 41
0.675
  0
VERTEX
  8
0
 10
0.403103
 20
0.143392
 30
0.0
 40
0.009375
 41
0.009375
  0
VERTEX
  8
0
 10
0.403103
 20
0.130859
 30
0.0
 40
0.009375
 41
0.009375
  0
SEQEND
 8
0
  0
POLYLINE
  8
0
 62
     7
 66
     1
 10
0
 20
0
 30
0.0
 40
0.675
 41
0.675
  0
VERTEX
  8
0
 10
0.403103
 20
0.130859
 30
0.0
 40
0.009375
 41
0.009375
  0
VERTEX
  8
0
 10
0.409343
 20
0.12462
 30
0.0
 40
0.009375
 41
0.009375
  0
SEQEND
 8
0
  0
POLYLINE
  8
0
 62
     7
 66
     1
 10
0
 20
0
 30
0.0
 40
0.675
 41
0.675
  0
VERTEX
  8
0
 10
0.409343
 20
0.12462
 30
0.0
 40
0.009375
 41
0.009375
  0
VERTEX
  8
0
 10
0.434353
 20
0.12462
 30
0.0
 40
0.009375
 41
0.009375
  0
SEQEND
 8
0
  0
POLYLINE
  8
0
 62
     7
 66
     1
 10
0
 20
0
 30
0.0
 40
0.675
 41
0.675
  0
VERTEX
  8
0
 10
0.434353
 20
0.12462
 30
0.0
 40
0.009375
 41
0.009375
  0
VERTEX
  8
0
 10
0.440647
 20
0.130859
 30
0.0
 40
0.009375
 41
0.009375
  0
SEQEND
 8
0
  0
POLYLINE
  8
0
 62
     7
 66
     1
 10
0
 20
0
 30
0.0
 40
0.675
 41
0.675
  0
VERTEX
  8
0
 10
0.440647
 20
0.130859
 30
0.0
 40
0.009375
 41
0.009375
  0
VERTEX
  8
0
 10
0.440647
 20
0.143392
 30
0.0
 40
0.009375
 41
0.009375
  0
SEQEND
 8
0
  0
POLYLINE
  8
0
 62
     7
 66
     1
 10
0
 20
0
 30
0.0
 40
0.675
 41
0.675
  0
VERTEX
  8
0
 10
0.440647
 20
0.143392
 30
0.0
 40
0.009375
 41
0.009375
  0
VERTEX
  8
0
 10
0.434353
 20
0.149631
 30
0.0
 40
0.009375
 41
0.009375
  0
SEQEND
 8
0
  0
POLYLINE
  8
0
 62
     7
 66
     1
 10
0
 20
0
 30
0.0
 40
0.675
 41
0.675
  0
VERTEX
  8
0
 10
0.434353
 20
0.149631
 30
0.0
 40
0.009375
 41
0.009375
  0
VERTEX
  8
0
 10
0.421875
 20
0.149631
 30
0.0
 40
0.009375
 41
0.009375
  0
SEQEND
 8
0
  0
POLYLINE
  8
0
 62
     7
 66
     1
 10
0
 20
0
 30
0.0
 40
0.675
 41
0.675
  0
VERTEX
  8
0
 10
0.421875
 20
0.149631
 30
0.0
 40
0.009375
 41
0.009375
  0
VERTEX
  8
0
 10
0.421875
 20
0.137098
 30
0.0
 40
0.009375
 41
0.009375
  0
SEQEND
 8
0
  0
POLYLINE
  8
0
 62
     7
 66
     1
 10
0
 20
0
 30
0.0
 40
0.675
 41
0.675
  0
VERTEX
  8
0
 10
0.440647
 20
0.167751
 30
0.0
 40
0.009375
 41
0.009375
  0
VERTEX
  8
0
 10
0.403103
 20
0.167751
 30
0.0
 40
0.009375
 41
0.009375
  0
SEQEND
 8
0
  0
POLYLINE
  8
0
 62
     7
 66
     1
 10
0
 20
0
 30
0.0
 40
0.675
 41
0.675
  0
VERTEX
  8
0
 10
0.403103
 20
0.167751
 30
0.0
 40
0.009375
 41
0.009375
  0
VERTEX
  8
0
 10
0.440647
 20
0.192817
 30
0.0
 40
0.009375
 41
0.009375
  0
SEQEND
 8
0
  0
POLYLINE
  8
0
 62
     7
 66
     1
 10
0
 20
0
 30
0.0
 40
0.675
 41
0.675
  0
VERTEX
  8
0
 10
0.440647
 20
0.192817
 30
0.0
 40
0.009375
 41
0.009375
  0
VERTEX
  8
0
 10
0.403103
 20
0.192817
 30
0.0
 40
0.009375
 41
0.009375
  0
SEQEND
 8
0
  0
POLYLINE
  8
0
 62
     7
 66
     1
 10
0
 20
0
 30
0.0
 40
0.675
 41
0.675
  0
VERTEX
  8
0
 10
0.403103
 20
0.210938
 30
0.0
 40
0.009375
 41
0.009375
  0
VERTEX
  8
0
 10
0.440647
 20
0.210938
 30
0.0
 40
0.009375
 41
0.009375
  0
SEQEND
 8
0
  0
POLYLINE
  8
0
 62
     7
 66
     1
 10
0
 20
0
 30
0.0
 40
0.675
 41
0.675
  0
VERTEX
  8
0
 10
0.440647
 20
0.210938
 30
0.0
 40
0.009375
 41
0.009375
  0
VERTEX
  8
0
 10
0.440647
 20
0.22971
 30
0.0
 40
0.009375
 41
0.009375
  0
SEQEND
 8
0
  0
POLYLINE
  8
0
 62
     7
 66
     1
 10
0
 20
0
 30
0.0
 40
0.675
 41
0.675
  0
VERTEX
  8
0
 10
0.440647
 20
0.22971
 30
0.0
 40
0.009375
 41
0.009375
  0
VERTEX
  8
0
 10
0.434353
 20
0.235949
 30
0.0
 40
0.009375
 41
0.009375
  0
SEQEND
 8
0
  0
POLYLINE
  8
0
 62
     7
 66
     1
 10
0
 20
0
 30
0.0
 40
0.675
 41
0.675
  0
VERTEX
  8
0
 10
0.434353
 20
0.235949
 30
0.0
 40
0.009375
 41
0.009375
  0
VERTEX
  8
0
 10
0.409343
 20
0.235949
 30
0.0
 40
0.009375
 41
0.009375
  0
SEQEND
 8
0
  0
POLYLINE
  8
0
 62
     7
 66
     1
 10
0
 20
0
 30
0.0
 40
0.675
 41
0.675
  0
VERTEX
  8
0
 10
0.409343
 20
0.235949
 30
0.0
 40
0.009375
 41
0.009375
  0
VERTEX
  8
0
 10
0.403103
 20
0.22971
 30
0.0
 40
0.009375
 41
0.009375
  0
SEQEND
 8
0
  0
POLYLINE
  8
0
 62
     7
 66
     1
 10
0
 20
0
 30
0.0
 40
0.675
 41
0.675
  0
VERTEX
  8
0
 10
0.403103
 20
0.22971
 30
0.0
 40
0.009375
 41
0.009375
  0
VERTEX
  8
0
 10
0.403103
 20
0.210938
 30
0.0
 40
0.009375
 41
0.009375
  0
SEQEND
 8
0
  0
POLYLINE
  8
0
 62
     7
 66
     1
 10
0
 20
0
 30
0.0
 40
0.675
 41
0.675
  0
VERTEX
  8
0
 10
0.503093
 20
0.12462
 30
0.0
 40
0.009375
 41
0.009375
  0
VERTEX
  8
0
 10
0.496853
 20
0.130859
 30
0.0
 40
0.009375
 41
0.009375
  0
SEQEND
 8
0
  0
POLYLINE
  8
0
 62
     7
 66
     1
 10
0
 20
0
 30
0.0
 40
0.675
 41
0.675
  0
VERTEX
  8
0
 10
0.496853
 20
0.130859
 30
0.0
 40
0.009375
 41
0.009375
  0
VERTEX
  8
0
 10
0.496853
 20
0.143392
 30
0.0
 40
0.009375
 41
0.009375
  0
SEQEND
 8
0
  0
POLYLINE
  8
0
 62
     7
 66
     1
 10
0
 20
0
 30
0.0
 40
0.675
 41
0.675
  0
VERTEX
  8
0
 10
0.496853
 20
0.143392
 30
0.0
 40
0.009375
 41
0.009375
  0
VERTEX
  8
0
 10
0.503093
 20
0.149631
 30
0.0
 40
0.009375
 41
0.009375
  0
SEQEND
 8
0
  0
POLYLINE
  8
0
 62
     7
 66
     1
 10
0
 20
0
 30
0.0
 40
0.675
 41
0.675
  0
VERTEX
  8
0
 10
0.503093
 20
0.149631
 30
0.0
 40
0.009375
 41
0.009375
  0
VERTEX
  8
0
 10
0.509386
 20
0.149631
 30
0.0
 40
0.009375
 41
0.009375
  0
SEQEND
 8
0
  0
POLYLINE
  8
0
 62
     7
 66
     1
 10
0
 20
0
 30
0.0
 40
0.675
 41
0.675
  0
VERTEX
  8
0
 10
0.509386
 20
0.149631
 30
0.0
 40
0.009375
 41
0.009375
  0
VERTEX
  8
0
 10
0.515625
 20
0.143392
 30
0.0
 40
0.009375
 41
0.009375
  0
SEQEND
 8
0
  0
POLYLINE
  8
0
 62
     7
 66
     1
 10
0
 20
0
 30
0.0
 40
0.675
 41
0.675
  0
VERTEX
  8
0
 10
0.515625
 20
0.143392
 30
0.0
 40
0.009375
 41
0.009375
  0
VERTEX
  8
0
 10
0.515625
 20
0.137098
 30
0.0
 40
0.009375
 41
0.009375
  0
SEQEND
 8
0
  0
POLYLINE
  8
0
 62
     7
 66
     1
 10
0
 20
0
 30
0.0
 40
0.675
 41
0.675
  0
VERTEX
  8
0
 10
0.515625
 20
0.143392
 30
0.0
 40
0.009375
 41
0.009375
  0
VERTEX
  8
0
 10
0.521864
 20
0.149631
 30
0.0
 40
0.009375
 41
0.009375
  0
SEQEND
 8
0
  0
POLYLINE
  8
0
 62
     7
 66
     1
 10
0
 20
0
 30
0.0
 40
0.675
 41
0.675
  0
VERTEX
  8
0
 10
0.521864
 20
0.149631
 30
0.0
 40
0.009375
 41
0.009375
  0
VERTEX
  8
0
 10
0.528103
 20
0.149631
 30
0.0
 40
0.009375
 41
0.009375
  0
SEQEND
 8
0
  0
POLYLINE
  8
0
 62
     7
 66
     1
 10
0
 20
0
 30
0.0
 40
0.675
 41
0.675
  0
VERTEX
  8
0
 10
0.528103
 20
0.149631
 30
0.0
 40
0.009375
 41
0.009375
  0
VERTEX
  8
0
 10
0.534397
 20
0.143392
 30
0.0
 40
0.009375
 41
0.009375
  0
SEQEND
 8
0
  0
POLYLINE
  8
0
 62
     7
 66
     1
 10
0
 20
0
 30
0.0
 40
0.675
 41
0.675
  0
VERTEX
  8
0
 10
0.534397
 20
0.143392
 30
0.0
 40
0.009375
 41
0.009375
  0
VERTEX
  8
0
 10
0.534397
 20
0.130859
 30
0.0
 40
0.009375
 41
0.009375
  0
SEQEND
 8
0
  0
POLYLINE
  8
0
 62
     7
 66
     1
 10
0
 20
0
 30
0.0
 40
0.675
 41
0.675
  0
VERTEX
  8
0
 10
0.534397
 20
0.130859
 30
0.0
 40
0.009375
 41
0.009375
  0
VERTEX
  8
0
 10
0.528103
 20
0.12462
 30
0.0
 40
0.009375
 41
0.009375
  0
SEQEND
 8
0
  0
POLYLINE
  8
0
 62
     7
 66
     1
 10
0
 20
0
 30
0.0
 40
0.675
 41
0.675
  0
VERTEX
  8
0
 10
0.534397
 20
0.167751
 30
0.0
 40
0.009375
 41
0.009375
  0
VERTEX
  8
0
 10
0.528103
 20
0.167751
 30
0.0
 40
0.009375
 41
0.009375
  0
SEQEND
 8
0
  0
POLYLINE
  8
0
 62
     7
 66
     1
 10
0
 20
0
 30
0.0
 40
0.675
 41
0.675
  0
VERTEX
  8
0
 10
0.528103
 20
0.167751
 30
0.0
 40
0.009375
 41
0.009375
  0
VERTEX
  8
0
 10
0.528103
 20
0.174046
 30
0.0
 40
0.009375
 41
0.009375
  0
SEQEND
 8
0
  0
POLYLINE
  8
0
 62
     7
 66
     1
 10
0
 20
0
 30
0.0
 40
0.675
 41
0.675
  0
VERTEX
  8
0
 10
0.528103
 20
0.174046
 30
0.0
 40
0.009375
 41
0.009375
  0
VERTEX
  8
0
 10
0.534397
 20
0.174046
 30
0.0
 40
0.009375
 41
0.009375
  0
SEQEND
 8
0
  0
POLYLINE
  8
0
 62
     7
 66
     1
 10
0
 20
0
 30
0.0
 40
0.675
 41
0.675
  0
VERTEX
  8
0
 10
0.534397
 20
0.174046
 30
0.0
 40
0.009375
 41
0.009375
  0
VERTEX
  8
0
 10
0.534397
 20
0.167751
 30
0.0
 40
0.009375
 41
0.009375
  0
SEQEND
 8
0
  0
POLYLINE
  8
0
 62
     7
 66
     1
 10
0
 20
0
 30
0.0
 40
0.675
 41
0.675
  0
VERTEX
  8
0
 10
0.503093
 20
0.189344
 30
0.0
 40
0.009375
 41
0.009375
  0
VERTEX
  8
0
 10
0.496853
 20
0.195583
 30
0.0
 40
0.009375
 41
0.009375
  0
SEQEND
 8
0
  0
POLYLINE
  8
0
 62
     7
 66
     1
 10
0
 20
0
 30
0.0
 40
0.675
 41
0.675
  0
VERTEX
  8
0
 10
0.496853
 20
0.195583
 30
0.0
 40
0.009375
 41
0.009375
  0
VERTEX
  8
0
 10
0.496853
 20
0.208117
 30
0.0
 40
0.009375
 41
0.009375
  0
SEQEND
 8
0
  0
POLYLINE
  8
0
 62
     7
 66
     1
 10
0
 20
0
 30
0.0
 40
0.675
 41
0.675
  0
VERTEX
  8
0
 10
0.496853
 20
0.208117
 30
0.0
 40
0.009375
 41
0.009375
  0
VERTEX
  8
0
 10
0.503093
 20
0.214356
 30
0.0
 40
0.009375
 41
0.009375
  0
SEQEND
 8
0
  0
POLYLINE
  8
0
 62
     7
 66
     1
 10
0
 20
0
 30
0.0
 40
0.675
 41
0.675
  0
VERTEX
  8
0
 10
0.503093
 20
0.214356
 30
0.0
 40
0.009375
 41
0.009375
  0
VERTEX
  8
0
 10
0.509386
 20
0.214356
 30
0.0
 40
0.009375
 41
0.009375
  0
SEQEND
 8
0
  0
POLYLINE
  8
0
 62
     7
 66
     1
 10
0
 20
0
 30
0.0
 40
0.675
 41
0.675
  0
VERTEX
  8
0
 10
0.509386
 20
0.214356
 30
0.0
 40
0.009375
 41
0.009375
  0
VERTEX
  8
0
 10
0.515625
 20
0.208117
 30
0.0
 40
0.009375
 41
0.009375
  0
SEQEND
 8
0
  0
POLYLINE
  8
0
 62
     7
 66
     1
 10
0
 20
0
 30
0.0
 40
0.675
 41
0.675
  0
VERTEX
  8
0
 10
0.515625
 20
0.208117
 30
0.0
 40
0.009375
 41
0.009375
  0
VERTEX
  8
0
 10
0.515625
 20
0.201878
 30
0.0
 40
0.009375
 41
0.009375
  0
SEQEND
 8
0
  0
POLYLINE
  8
0
 62
     7
 66
     1
 10
0
 20
0
 30
0.0
 40
0.675
 41
0.675
  0
VERTEX
  8
0
 10
0.515625
 20
0.208117
 30
0.0
 40
0.009375
 41
0.009375
  0
VERTEX
  8
0
 10
0.521864
 20
0.214356
 30
0.0
 40
0.009375
 41
0.009375
  0
SEQEND
 8
0
  0
POLYLINE
  8
0
 62
     7
 66
     1
 10
0
 20
0
 30
0.0
 40
0.675
 41
0.675
  0
VERTEX
  8
0
 10
0.521864
 20
0.214356
 30
0.0
 40
0.009375
 41
0.009375
  0
VERTEX
  8
0
 10
0.528103
 20
0.214356
 30
0.0
 40
0.009375
 41
0.009375
  0
SEQEND
 8
0
  0
POLYLINE
  8
0
 62
     7
 66
     1
 10
0
 20
0
 30
0.0
 40
0.675
 41
0.675
  0
VERTEX
  8
0
 10
0.528103
 20
0.214356
 30
0.0
 40
0.009375
 41
0.009375
  0
VERTEX
  8
0
 10
0.534397
 20
0.208117
 30
0.0
 40
0.009375
 41
0.009375
  0
SEQEND
 8
0
  0
POLYLINE
  8
0
 62
     7
 66
     1
 10
0
 20
0
 30
0.0
 40
0.675
 41
0.675
  0
VERTEX
  8
0
 10
0.534397
 20
0.208117
 30
0.0
 40
0.009375
 41
0.009375
  0
VERTEX
  8
0
 10
0.534397
 20
0.195583
 30
0.0
 40
0.009375
 41
0.009375
  0
SEQEND
 8
0
  0
POLYLINE
  8
0
 62
     7
 66
     1
 10
0
 20
0
 30
0.0
 40
0.675
 41
0.675
  0
VERTEX
  8
0
 10
0.534397
 20
0.195583
 30
0.0
 40
0.009375
 41
0.009375
  0
VERTEX
  8
0
 10
0.528103
 20
0.189344
 30
0.0
 40
0.009375
 41
0.009375
  0
SEQEND
 8
0
  0
POLYLINE
  8
0
 62
     7
 66
     1
 10
0
 20
0
 30
0.0
 40
0.675
 41
0.675
  0
VERTEX
  8
0
 10
0.509386
 20
0.232531
 30
0.0
 40
0.009375
 41
0.009375
  0
VERTEX
  8
0
 10
0.534397
 20
0.245008
 30
0.0
 40
0.009375
 41
0.009375
  0
SEQEND
 8
0
  0
POLYLINE
  8
0
 62
     7
 66
     1
 10
0
 20
0
 30
0.0
 40
0.675
 41
0.675
  0
VERTEX
  8
0
 10
0.534397
 20
0.245008
 30
0.0
 40
0.009375
 41
0.009375
  0
VERTEX
  8
0
 10
0.509386
 20
0.257542
 30
0.0
 40
0.009375
 41
0.009375
  0
SEQEND
 8
0
  0
POLYLINE
  8
0
 62
     7
 66
     1
 10
0
 20
0
 30
0.0
 40
0.675
 41
0.675
  0
VERTEX
  8
0
 10
0.853136
 20
0.1199
 30
0.0
 40
0.009375
 41
0.009375
  0
VERTEX
  8
0
 10
0.853136
 20
0.249403
 30
0.0
 40
0.009375
 41
0.009375
  0
SEQEND
 8
0
  0
POLYLINE
  8
0
 62
     7
 66
     1
 10
0
 20
0
 30
0.0
 40
0.675
 41
0.675
  0
VERTEX
  8
0
 10
0.878093
 20
0.149631
 30
0.0
 40
0.009375
 41
0.009375
  0
VERTEX
  8
0
 10
0.871853
 20
0.143392
 30
0.0
 40
0.009375
 41
0.009375
  0
SEQEND
 8
0
  0
POLYLINE
  8
0
 62
     7
 66
     1
 10
0
 20
0
 30
0.0
 40
0.675
 41
0.675
  0
VERTEX
  8
0
 10
0.871853
 20
0.143392
 30
0.0
 40
0.009375
 41
0.009375
  0
VERTEX
  8
0
 10
0.871853
 20
0.130859
 30
0.0
 40
0.009375
 41
0.009375
  0
SEQEND
 8
0
  0
POLYLINE
  8
0
 62
     7
 66
     1
 10
0
 20
0
 30
0.0
 40
0.675
 41
0.675
  0
VERTEX
  8
0
 10
0.871853
 20
0.130859
 30
0.0
 40
0.009375
 41
0.009375
  0
VERTEX
  8
0
 10
0.878093
 20
0.12462
 30
0.0
 40
0.009375
 41
0.009375
  0
SEQEND
 8
0
  0
POLYLINE
  8
0
 62
     7
 66
     1
 10
0
 20
0
 30
0.0
 40
0.675
 41
0.675
  0
VERTEX
  8
0
 10
0.878093
 20
0.12462
 30
0.0
 40
0.009375
 41
0.009375
  0
VERTEX
  8
0
 10
0.884386
 20
0.12462
 30
0.0
 40
0.009375
 41
0.009375
  0
SEQEND
 8
0
  0
POLYLINE
  8
0
 62
     7
 66
     1
 10
0
 20
0
 30
0.0
 40
0.675
 41
0.675
  0
VERTEX
  8
0
 10
0.884386
 20
0.12462
 30
0.0
 40
0.009375
 41
0.009375
  0
VERTEX
  8
0
 10
0.890625
 20
0.130859
 30
0.0
 40
0.009375
 41
0.009375
  0
SEQEND
 8
0
  0
POLYLINE
  8
0
 62
     7
 66
     1
 10
0
 20
0
 30
0.0
 40
0.675
 41
0.675
  0
VERTEX
  8
0
 10
0.890625
 20
0.130859
 30
0.0
 40
0.009375
 41
0.009375
  0
VERTEX
  8
0
 10
0.890625
 20
0.143392
 30
0.0
 40
0.009375
 41
0.009375
  0
SEQEND
 8
0
  0
POLYLINE
  8
0
 62
     7
 66
     1
 10
0
 20
0
 30
0.0
 40
0.675
 41
0.675
  0
VERTEX
  8
0
 10
0.890625
 20
0.143392
 30
0.0
 40
0.009375
 41
0.009375
  0
VERTEX
  8
0
 10
0.896864
 20
0.149631
 30
0.0
 40
0.009375
 41
0.009375
  0
SEQEND
 8
0
  0
POLYLINE
  8
0
 62
     7
 66
     1
 10
0
 20
0
 30
0.0
 40
0.675
 41
0.675
  0
VERTEX
  8
0
 10
0.896864
 20
0.149631
 30
0.0
 40
0.009375
 41
0.009375
  0
VERTEX
  8
0
 10
0.903103
 20
0.149631
 30
0.0
 40
0.009375
 41
0.009375
  0
SEQEND
 8
0
  0
POLYLINE
  8
0
 62
     7
 66
     1
 10
0
 20
0
 30
0.0
 40
0.675
 41
0.675
  0
VERTEX
  8
0
 10
0.903103
 20
0.149631
 30
0.0
 40
0.009375
 41
0.009375
  0
VERTEX
  8
0
 10
0.909397
 20
0.143392
 30
0.0
 40
0.009375
 41
0.009375
  0
SEQEND
 8
0
  0
POLYLINE
  8
0
 62
     7
 66
     1
 10
0
 20
0
 30
0.0
 40
0.675
 41
0.675
  0
VERTEX
  8
0
 10
0.909397
 20
0.143392
 30
0.0
 40
0.009375
 41
0.009375
  0
VERTEX
  8
0
 10
0.909397
 20
0.130859
 30
0.0
 40
0.009375
 41
0.009375
  0
SEQEND
 8
0
  0
POLYLINE
  8
0
 62
     7
 66
     1
 10
0
 20
0
 30
0.0
 40
0.675
 41
0.675
  0
VERTEX
  8
0
 10
0.909397
 20
0.130859
 30
0.0
 40
0.009375
 41
0.009375
  0
VERTEX
  8
0
 10
0.903103
 20
0.12462
 30
0.0
 40
0.009375
 41
0.009375
  0
SEQEND
 8
0
  0
POLYLINE
  8
0
 62
     7
 66
     1
 10
0
 20
0
 30
0.0
 40
0.675
 41
0.675
  0
VERTEX
  8
0
 10
0.871853
 20
0.167751
 30
0.0
 40
0.009375
 41
0.009375
  0
VERTEX
  8
0
 10
0.909397
 20
0.167751
 30
0.0
 40
0.009375
 41
0.009375
  0
SEQEND
 8
0
  0
POLYLINE
  8
0
 62
     7
 66
     1
 10
0
 20
0
 30
0.0
 40
0.675
 41
0.675
  0
VERTEX
  8
0
 10
0.909397
 20
0.167751
 30
0.0
 40
0.009375
 41
0.009375
  0
VERTEX
  8
0
 10
0.909397
 20
0.186524
 30
0.0
 40
0.009375
 41
0.009375
  0
SEQEND
 8
0
  0
POLYLINE
  8
0
 62
     7
 66
     1
 10
0
 20
0
 30
0.0
 40
0.675
 41
0.675
  0
VERTEX
  8
0
 10
0.909397
 20
0.186524
 30
0.0
 40
0.009375
 41
0.009375
  0
VERTEX
  8
0
 10
0.903103
 20
0.192817
 30
0.0
 40
0.009375
 41
0.009375
  0
SEQEND
 8
0
  0
POLYLINE
  8
0
 62
     7
 66
     1
 10
0
 20
0
 30
0.0
 40
0.675
 41
0.675
  0
VERTEX
  8
0
 10
0.903103
 20
0.192817
 30
0.0
 40
0.009375
 41
0.009375
  0
VERTEX
  8
0
 10
0.878093
 20
0.192817
 30
0.0
 40
0.009375
 41
0.009375
  0
SEQEND
 8
0
  0
POLYLINE
  8
0
 62
     7
 66
     1
 10
0
 20
0
 30
0.0
 40
0.675
 41
0.675
  0
VERTEX
  8
0
 10
0.878093
 20
0.192817
 30
0.0
 40
0.009375
 41
0.009375
  0
VERTEX
  8
0
 10
0.871853
 20
0.186524
 30
0.0
 40
0.009375
 41
0.009375
  0
SEQEND
 8
0
  0
POLYLINE
  8
0
 62
     7
 66
     1
 10
0
 20
0
 30
0.0
 40
0.675
 41
0.675
  0
VERTEX
  8
0
 10
0.871853
 20
0.186524
 30
0.0
 40
0.009375
 41
0.009375
  0
VERTEX
  8
0
 10
0.871853
 20
0.167751
 30
0.0
 40
0.009375
 41
0.009375
  0
SEQEND
 8
0
  0
POLYLINE
  8
0
 62
     7
 66
     1
 10
0
 20
0
 30
0.0
 40
0.675
 41
0.675
  0
VERTEX
  8
0
 10
0.909397
 20
0.210938
 30
0.0
 40
0.009375
 41
0.009375
  0
VERTEX
  8
0
 10
0.871853
 20
0.210938
 30
0.0
 40
0.009375
 41
0.009375
  0
SEQEND
 8
0
  0
POLYLINE
  8
0
 62
     7
 66
     1
 10
0
 20
0
 30
0.0
 40
0.675
 41
0.675
  0
VERTEX
  8
0
 10
0.871853
 20
0.210938
 30
0.0
 40
0.009375
 41
0.009375
  0
VERTEX
  8
0
 10
0.909397
 20
0.235949
 30
0.0
 40
0.009375
 41
0.009375
  0
SEQEND
 8
0
  0
POLYLINE
  8
0
 62
     7
 66
     1
 10
0
 20
0
 30
0.0
 40
0.675
 41
0.675
  0
VERTEX
  8
0
 10
0.909397
 20
0.235949
 30
0.0
 40
0.009375
 41
0.009375
  0
VERTEX
  8
0
 10
0.871853
 20
0.235949
 30
0.0
 40
0.009375
 41
0.009375
  0
SEQEND
 8
0
  0
POLYLINE
  8
0
 62
     7
 66
     1
 10
0
 20
0
 30
0.0
 40
0.675
 41
0.675
  0
VERTEX
  8
0
 10
0.684353
 20
0.12462
 30
0.0
 40
0.009375
 41
0.009375
  0
VERTEX
  8
0
 10
0.721897
 20
0.12462
 30
0.0
 40
0.009375
 41
0.009375
  0
SEQEND
 8
0
  0
POLYLINE
  8
0
 62
     7
 66
     1
 10
0
 20
0
 30
0.0
 40
0.675
 41
0.675
  0
VERTEX
  8
0
 10
0.721897
 20
0.12462
 30
0.0
 40
0.009375
 41
0.009375
  0
VERTEX
  8
0
 10
0.721897
 20
0.149631
 30
0.0
 40
0.009375
 41
0.009375
  0
SEQEND
 8
0
  0
POLYLINE
  8
0
 62
     7
 66
     1
 10
0
 20
0
 30
0.0
 40
0.675
 41
0.675
  0
VERTEX
  8
0
 10
0.684353
 20
0.186524
 30
0.0
 40
0.009375
 41
0.009375
  0
VERTEX
  8
0
 10
0.684353
 20
0.174046
 30
0.0
 40
0.009375
 41
0.009375
  0
SEQEND
 8
0
  0
POLYLINE
  8
0
 62
     7
 66
     1
 10
0
 20
0
 30
0.0
 40
0.675
 41
0.675
  0
VERTEX
  8
0
 10
0.684353
 20
0.174046
 30
0.0
 40
0.009375
 41
0.009375
  0
VERTEX
  8
0
 10
0.690593
 20
0.167751
 30
0.0
 40
0.009375
 41
0.009375
  0
SEQEND
 8
0
  0
POLYLINE
  8
0
 62
     7
 66
     1
 10
0
 20
0
 30
0.0
 40
0.675
 41
0.675
  0
VERTEX
  8
0
 10
0.690593
 20
0.167751
 30
0.0
 40
0.009375
 41
0.009375
  0
VERTEX
  8
0
 10
0.715603
 20
0.167751
 30
0.0
 40
0.009375
 41
0.009375
  0
SEQEND
 8
0
  0
POLYLINE
  8
0
 62
     7
 66
     1
 10
0
 20
0
 30
0.0
 40
0.675
 41
0.675
  0
VERTEX
  8
0
 10
0.715603
 20
0.167751
 30
0.0
 40
0.009375
 41
0.009375
  0
VERTEX
  8
0
 10
0.721897
 20
0.174046
 30
0.0
 40
0.009375
 41
0.009375
  0
SEQEND
 8
0
  0
POLYLINE
  8
0
 62
     7
 66
     1
 10
0
 20
0
 30
0.0
 40
0.675
 41
0.675
  0
VERTEX
  8
0
 10
0.721897
 20
0.174046
 30
0.0
 40
0.009375
 41
0.009375
  0
VERTEX
  8
0
 10
0.721897
 20
0.186524
 30
0.0
 40
0.009375
 41
0.009375
  0
SEQEND
 8
0
  0
POLYLINE
  8
0
 62
     7
 66
     1
 10
0
 20
0
 30
0.0
 40
0.675
 41
0.675
  0
VERTEX
  8
0
 10
0.721897
 20
0.186524
 30
0.0
 40
0.009375
 41
0.009375
  0
VERTEX
  8
0
 10
0.715603
 20
0.192817
 30
0.0
 40
0.009375
 41
0.009375
  0
SEQEND
 8
0
  0
POLYLINE
  8
0
 62
     7
 66
     1
 10
0
 20
0
 30
0.0
 40
0.675
 41
0.675
  0
VERTEX
  8
0
 10
0.715603
 20
0.192817
 30
0.0
 40
0.009375
 41
0.009375
  0
VERTEX
  8
0
 10
0.690593
 20
0.192817
 30
0.0
 40
0.009375
 41
0.009375
  0
SEQEND
 8
0
  0
POLYLINE
  8
0
 62
     7
 66
     1
 10
0
 20
0
 30
0.0
 40
0.675
 41
0.675
  0
VERTEX
  8
0
 10
0.690593
 20
0.192817
 30
0.0
 40
0.009375
 41
0.009375
  0
VERTEX
  8
0
 10
0.684353
 20
0.186524
 30
0.0
 40
0.009375
 41
0.009375
  0
SEQEND
 8
0
  0
POLYLINE
  8
0
 62
     7
 66
     1
 10
0
 20
0
 30
0.0
 40
0.675
 41
0.675
  0
VERTEX
  8
0
 10
0.703125
 20
0.210938
 30
0.0
 40
0.009375
 41
0.009375
  0
VERTEX
  8
0
 10
0.703125
 20
0.235949
 30
0.0
 40
0.009375
 41
0.009375
  0
SEQEND
 8
0
  0
POLYLINE
  8
0
 62
     7
 66
     1
 10
0
 20
0
 30
0.0
 40
0.675
 41
0.675
  0
VERTEX
  8
0
 10
0.778103
 20
0.12462
 30
0.0
 40
0.009375
 41
0.009375
  0
VERTEX
  8
0
 10
0.815647
 20
0.12462
 30
0.0
 40
0.009375
 41
0.009375
  0
SEQEND
 8
0
  0
POLYLINE
  8
0
 62
     7
 66
     1
 10
0
 20
0
 30
0.0
 40
0.675
 41
0.675
  0
VERTEX
  8
0
 10
0.815647
 20
0.12462
 30
0.0
 40
0.009375
 41
0.009375
  0
VERTEX
  8
0
 10
0.815647
 20
0.149631
 30
0.0
 40
0.009375
 41
0.009375
  0
SEQEND
 8
0
  0
POLYLINE
  8
0
 62
     7
 66
     1
 10
0
 20
0
 30
0.0
 40
0.675
 41
0.675
  0
VERTEX
  8
0
 10
0.778103
 20
0.186524
 30
0.0
 40
0.009375
 41
0.009375
  0
VERTEX
  8
0
 10
0.778103
 20
0.174046
 30
0.0
 40
0.009375
 41
0.009375
  0
SEQEND
 8
0
  0
POLYLINE
  8
0
 62
     7
 66
     1
 10
0
 20
0
 30
0.0
 40
0.675
 41
0.675
  0
VERTEX
  8
0
 10
0.778103
 20
0.174046
 30
0.0
 40
0.009375
 41
0.009375
  0
VERTEX
  8
0
 10
0.784343
 20
0.167751
 30
0.0
 40
0.009375
 41
0.009375
  0
SEQEND
 8
0
  0
POLYLINE
  8
0
 62
     7
 66
     1
 10
0
 20
0
 30
0.0
 40
0.675
 41
0.675
  0
VERTEX
  8
0
 10
0.784343
 20
0.167751
 30
0.0
 40
0.009375
 41
0.009375
  0
VERTEX
  8
0
 10
0.809353
 20
0.167751
 30
0.0
 40
0.009375
 41
0.009375
  0
SEQEND
 8
0
  0
POLYLINE
  8
0
 62
     7
 66
     1
 10
0
 20
0
 30
0.0
 40
0.675
 41
0.675
  0
VERTEX
  8
0
 10
0.809353
 20
0.167751
 30
0.0
 40
0.009375
 41
0.009375
  0
VERTEX
  8
0
 10
0.815647
 20
0.174046
 30
0.0
 40
0.009375
 41
0.009375
  0
SEQEND
 8
0
  0
POLYLINE
  8
0
 62
     7
 66
     1
 10
0
 20
0
 30
0.0
 40
0.675
 41
0.675
  0
VERTEX
  8
0
 10
0.815647
 20
0.174046
 30
0.0
 40
0.009375
 41
0.009375
  0
VERTEX
  8
0
 10
0.815647
 20
0.186524
 30
0.0
 40
0.009375
 41
0.009375
  0
SEQEND
 8
0
  0
POLYLINE
  8
0
 62
     7
 66
     1
 10
0
 20
0
 30
0.0
 40
0.675
 41
0.675
  0
VERTEX
  8
0
 10
0.815647
 20
0.186524
 30
0.0
 40
0.009375
 41
0.009375
  0
VERTEX
  8
0
 10
0.809353
 20
0.192817
 30
0.0
 40
0.009375
 41
0.009375
  0
SEQEND
 8
0
  0
POLYLINE
  8
0
 62
     7
 66
     1
 10
0
 20
0
 30
0.0
 40
0.675
 41
0.675
  0
VERTEX
  8
0
 10
0.809353
 20
0.192817
 30
0.0
 40
0.009375
 41
0.009375
  0
VERTEX
  8
0
 10
0.784343
 20
0.192817
 30
0.0
 40
0.009375
 41
0.009375
  0
SEQEND
 8
0
  0
POLYLINE
  8
0
 62
     7
 66
     1
 10
0
 20
0
 30
0.0
 40
0.675
 41
0.675
  0
VERTEX
  8
0
 10
0.784343
 20
0.192817
 30
0.0
 40
0.009375
 41
0.009375
  0
VERTEX
  8
0
 10
0.778103
 20
0.186524
 30
0.0
 40
0.009375
 41
0.009375
  0
SEQEND
 8
0
  0
POLYLINE
  8
0
 62
     7
 66
     1
 10
0
 20
0
 30
0.0
 40
0.675
 41
0.675
  0
VERTEX
  8
0
 10
0.796875
 20
0.210938
 30
0.0
 40
0.009375
 41
0.009375
  0
VERTEX
  8
0
 10
0.796875
 20
0.235949
 30
0.0
 40
0.009375
 41
0.009375
  0
SEQEND
 8
0
  0
POLYLINE
  8
0
 62
     7
 66
     1
 10
0
 20
0
 30
0.0
 40
0.675
 41
0.675
  0
VERTEX
  8
0
 10
0.784343
 20
0.223469
 30
0.0
 40
0.009375
 41
0.009375
  0
VERTEX
  8
0
 10
0.809353
 20
0.223469
 30
0.0
 40
0.009375
 41
0.009375
  0
SEQEND
 8
0
  0
POLYLINE
  8
0
 62
     7
 66
     1
 10
0
 20
0
 30
0.0
 40
0.405
 41
0.405
  0
VERTEX
  8
0
 10
0.100315
 20
0.243707
 30
0.0
 40
0.005625
 41
0.005625
  0
VERTEX
  8
0
 10
0.0790474
 20
0.243707
 30
0.0
 40
0.005625
 41
0.005625
  0
SEQEND
 8
0
  0
POLYLINE
  8
0
 62
     7
 66
     1
 10
0
 20
0
 30
0.0
 40
0.405
 41
0.405
  0
VERTEX
  8
0
 10
0.0790474
 20
0.243707
 30
0.0
 40
0.005625
 41
0.005625
  0
VERTEX
  8
0
 10
0.0684136
 20
0.25434
 30
0.0
 40
0.005625
 41
0.005625
  0
SEQEND
 8
0
  0
POLYLINE
  8
0
 62
     7
 66
     1
 10
0
 20
0
 30
0.0
 40
0.405
 41
0.405
  0
VERTEX
  8
0
 10
0.0684136
 20
0.25434
 30
0.0
 40
0.005625
 41
0.005625
  0
VERTEX
  8
0
 10
0.0790474
 20
0.264974
 30
0.0
 40
0.005625
 41
0.005625
  0
SEQEND
 8
0
  0
POLYLINE
  8
0
 62
     7
 66
     1
 10
0
 20
0
 30
0.0
 40
0.405
 41
0.405
  0
VERTEX
  8
0
 10
0.0790474
 20
0.264974
 30
0.0
 40
0.005625
 41
0.005625
  0
VERTEX
  8
0
 10
0.100315
 20
0.264974
 30
0.0
 40
0.005625
 41
0.005625
  0
SEQEND
 8
0
  0
POLYLINE
  8
0
 62
     7
 66
     1
 10
0
 20
0
 30
0.0
 40
0.405
 41
0.405
  0
VERTEX
  8
0
 10
0.0843642
 20
0.243707
 30
0.0
 40
0.005625
 41
0.005625
  0
VERTEX
  8
0
 10
0.0843642
 20
0.264974
 30
0.0
 40
0.005625
 41
0.005625
  0
SEQEND
 8
0
  0
POLYLINE
  8
0
 62
     7
 66
     1
 10
0
 20
0
 30
0.0
 40
0.405
 41
0.405
  0
VERTEX
  8
0
 10
0.0684136
 20
0.278212
 30
0.0
 40
0.005625
 41
0.005625
  0
VERTEX
  8
0
 10
0.100315
 20
0.278212
 30
0.0
 40
0.005625
 41
0.005625
  0
SEQEND
 8
0
  0
POLYLINE
  8
0
 62
     7
 66
     1
 10
0
 20
0
 30
0.0
 40
0.405
 41
0.405
  0
VERTEX
  8
0
 10
0.100315
 20
0.278212
 30
0.0
 40
0.005625
 41
0.005625
  0
VERTEX
  8
0
 10
0.100315
 20
0.294163
 30
0.0
 40
0.005625
 41
0.005625
  0
SEQEND
 8
0
  0
POLYLINE
  8
0
 62
     7
 66
     1
 10
0
 20
0
 30
0.0
 40
0.405
 41
0.405
  0
VERTEX
  8
0
 10
0.100315
 20
0.294163
 30
0.0
 40
0.005625
 41
0.005625
  0
VERTEX
  8
0
 10
0.0949978
 20
0.299479
 30
0.0
 40
0.005625
 41
0.005625
  0
SEQEND
 8
0
  0
POLYLINE
  8
0
 62
     7
 66
     1
 10
0
 20
0
 30
0.0
 40
0.405
 41
0.405
  0
VERTEX
  8
0
 10
0.0949978
 20
0.299479
 30
0.0
 40
0.005625
 41
0.005625
  0
VERTEX
  8
0
 10
0.0737304
 20
0.299479
 30
0.0
 40
0.005625
 41
0.005625
  0
SEQEND
 8
0
  0
POLYLINE
  8
0
 62
     7
 66
     1
 10
0
 20
0
 30
0.0
 40
0.405
 41
0.405
  0
VERTEX
  8
0
 10
0.0737304
 20
0.299479
 30
0.0
 40
0.005625
 41
0.005625
  0
VERTEX
  8
0
 10
0.0684136
 20
0.294163
 30
0.0
 40
0.005625
 41
0.005625
  0
SEQEND
 8
0
  0
POLYLINE
  8
0
 62
     7
 66
     1
 10
0
 20
0
 30
0.0
 40
0.405
 41
0.405
  0
VERTEX
  8
0
 10
0.0684136
 20
0.294163
 30
0.0
 40
0.005625
 41
0.005625
  0
VERTEX
  8
0
 10
0.0684136
 20
0.278212
 30
0.0
 40
0.005625
 41
0.005625
  0
SEQEND
 8
0
  0
POLYLINE
  8
0
 62
     7
 66
     1
 10
0
 20
0
 30
0.0
 40
0.405
 41
0.405
  0
VERTEX
  8
0
 10
0.0737304
 20
0.312717
 30
0.0
 40
0.005625
 41
0.005625
  0
VERTEX
  8
0
 10
0.0684136
 20
0.318088
 30
0.0
 40
0.005625
 41
0.005625
  0
SEQEND
 8
0
  0
POLYLINE
  8
0
 62
     7
 66
     1
 10
0
 20
0
 30
0.0
 40
0.405
 41
0.405
  0
VERTEX
  8
0
 10
0.0684136
 20
0.318088
 30
0.0
 40
0.005625
 41
0.005625
  0
VERTEX
  8
0
 10
0.0684136
 20
0.328722
 30
0.0
 40
0.005625
 41
0.005625
  0
SEQEND
 8
0
  0
POLYLINE
  8
0
 62
     7
 66
     1
 10
0
 20
0
 30
0.0
 40
0.405
 41
0.405
  0
VERTEX
  8
0
 10
0.0684136
 20
0.328722
 30
0.0
 40
0.005625
 41
0.005625
  0
VERTEX
  8
0
 10
0.0737304
 20
0.333985
 30
0.0
 40
0.005625
 41
0.005625
  0
SEQEND
 8
0
  0
POLYLINE
  8
0
 62
     7
 66
     1
 10
0
 20
0
 30
0.0
 40
0.405
 41
0.405
  0
VERTEX
  8
0
 10
0.0737304
 20
0.333985
 30
0.0
 40
0.005625
 41
0.005625
  0
VERTEX
  8
0
 10
0.0790474
 20
0.333985
 30
0.0
 40
0.005625
 41
0.005625
  0
SEQEND
 8
0
  0
POLYLINE
  8
0
 62
     7
 66
     1
 10
0
 20
0
 30
0.0
 40
0.405
 41
0.405
  0
VERTEX
  8
0
 10
0.0790474
 20
0.333985
 30
0.0
 40
0.005625
 41
0.005625
  0
VERTEX
  8
0
 10
0.0843642
 20
0.328722
 30
0.0
 40
0.005625
 41
0.005625
  0
SEQEND
 8
0
  0
POLYLINE
  8
0
 62
     7
 66
     1
 10
0
 20
0
 30
0.0
 40
0.405
 41
0.405
  0
VERTEX
  8
0
 10
0.0843642
 20
0.328722
 30
0.0
 40
0.005625
 41
0.005625
  0
VERTEX
  8
0
 10
0.089681
 20
0.333985
 30
0.0
 40
0.005625
 41
0.005625
  0
SEQEND
 8
0
  0
POLYLINE
  8
0
 62
     7
 66
     1
 10
0
 20
0
 30
0.0
 40
0.405
 41
0.405
  0
VERTEX
  8
0
 10
0.089681
 20
0.333985
 30
0.0
 40
0.005625
 41
0.005625
  0
VERTEX
  8
0
 10
0.0949978
 20
0.333985
 30
0.0
 40
0.005625
 41
0.005625
  0
SEQEND
 8
0
  0
POLYLINE
  8
0
 62
     7
 66
     1
 10
0
 20
0
 30
0.0
 40
0.405
 41
0.405
  0
VERTEX
  8
0
 10
0.0949978
 20
0.333985
 30
0.0
 40
0.005625
 41
0.005625
  0
VERTEX
  8
0
 10
0.100315
 20
0.328722
 30
0.0
 40
0.005625
 41
0.005625
  0
SEQEND
 8
0
  0
POLYLINE
  8
0
 62
     7
 66
     1
 10
0
 20
0
 30
0.0
 40
0.405
 41
0.405
  0
VERTEX
  8
0
 10
0.100315
 20
0.328722
 30
0.0
 40
0.005625
 41
0.005625
  0
VERTEX
  8
0
 10
0.100315
 20
0.318088
 30
0.0
 40
0.005625
 41
0.005625
  0
SEQEND
 8
0
  0
POLYLINE
  8
0
 62
     7
 66
     1
 10
0
 20
0
 30
0.0
 40
0.405
 41
0.405
  0
VERTEX
  8
0
 10
0.100315
 20
0.318088
 30
0.0
 40
0.005625
 41
0.005625
  0
VERTEX
  8
0
 10
0.0949978
 20
0.312717
 30
0.0
 40
0.005625
 41
0.005625
  0
SEQEND
 8
0
  0
POLYLINE
  8
0
 62
     7
 66
     1
 10
0
 20
0
 30
0.0
 40
0.405
 41
0.405
  0
VERTEX
  8
0
 10
0.0949978
 20
0.312717
 30
0.0
 40
0.005625
 41
0.005625
  0
VERTEX
  8
0
 10
0.089681
 20
0.312717
 30
0.0
 40
0.005625
 41
0.005625
  0
SEQEND
 8
0
  0
POLYLINE
  8
0
 62
     7
 66
     1
 10
0
 20
0
 30
0.0
 40
0.405
 41
0.405
  0
VERTEX
  8
0
 10
0.089681
 20
0.312717
 30
0.0
 40
0.005625
 41
0.005625
  0
VERTEX
  8
0
 10
0.0843642
 20
0.318088
 30
0.0
 40
0.005625
 41
0.005625
  0
SEQEND
 8
0
  0
POLYLINE
  8
0
 62
     7
 66
     1
 10
0
 20
0
 30
0.0
 40
0.405
 41
0.405
  0
VERTEX
  8
0
 10
0.0843642
 20
0.318088
 30
0.0
 40
0.005625
 41
0.005625
  0
VERTEX
  8
0
 10
0.0790474
 20
0.312717
 30
0.0
 40
0.005625
 41
0.005625
  0
SEQEND
 8
0
  0
POLYLINE
  8
0
 62
     7
 66
     1
 10
0
 20
0
 30
0.0
 40
0.405
 41
0.405
  0
VERTEX
  8
0
 10
0.0790474
 20
0.312717
 30
0.0
 40
0.005625
 41
0.005625
  0
VERTEX
  8
0
 10
0.0737304
 20
0.312717
 30
0.0
 40
0.005625
 41
0.005625
  0
SEQEND
 8
0
  0
POLYLINE
  8
0
 62
     7
 66
     1
 10
0
 20
0
 30
0.0
 40
0.405
 41
0.405
  0
VERTEX
  8
0
 10
0.0843642
 20
0.318088
 30
0.0
 40
0.005625
 41
0.005625
  0
VERTEX
  8
0
 10
0.0843642
 20
0.328722
 30
0.0
 40
0.005625
 41
0.005625
  0
SEQEND
 8
0
  0
POLYLINE
  8
0
 62
     7
 66
     1
 10
0
 20
0
 30
0.0
 40
0.405
 41
0.405
  0
VERTEX
  8
0
 10
0.100315
 20
0.368544
 30
0.0
 40
0.005625
 41
0.005625
  0
VERTEX
  8
0
 10
0.100315
 20
0.347276
 30
0.0
 40
0.005625
 41
0.005625
  0
SEQEND
 8
0
  0
POLYLINE
  8
0
 62
     7
 66
     1
 10
0
 20
0
 30
0.0
 40
0.405
 41
0.405
  0
VERTEX
  8
0
 10
0.100315
 20
0.347276
 30
0.0
 40
0.005625
 41
0.005625
  0
VERTEX
  8
0
 10
0.0790474
 20
0.368544
 30
0.0
 40
0.005625
 41
0.005625
  0
SEQEND
 8
0
  0
POLYLINE
  8
0
 62
     7
 66
     1
 10
0
 20
0
 30
0.0
 40
0.405
 41
0.405
  0
VERTEX
  8
0
 10
0.0790474
 20
0.368544
 30
0.0
 40
0.005625
 41
0.005625
  0
VERTEX
  8
0
 10
0.0737304
 20
0.368544
 30
0.0
 40
0.005625
 41
0.005625
  0
SEQEND
 8
0
  0
POLYLINE
  8
0
 62
     7
 66
     1
 10
0
 20
0
 30
0.0
 40
0.405
 41
0.405
  0
VERTEX
  8
0
 10
0.0737304
 20
0.368544
 30
0.0
 40
0.005625
 41
0.005625
  0
VERTEX
  8
0
 10
0.0684136
 20
0.363226
 30
0.0
 40
0.005625
 41
0.005625
  0
SEQEND
 8
0
  0
POLYLINE
  8
0
 62
     7
 66
     1
 10
0
 20
0
 30
0.0
 40
0.405
 41
0.405
  0
VERTEX
  8
0
 10
0.0684136
 20
0.363226
 30
0.0
 40
0.005625
 41
0.005625
  0
VERTEX
  8
0
 10
0.0684136
 20
0.352593
 30
0.0
 40
0.005625
 41
0.005625
  0
SEQEND
 8
0
  0
POLYLINE
  8
0
 62
     7
 66
     1
 10
0
 20
0
 30
0.0
 40
0.405
 41
0.405
  0
VERTEX
  8
0
 10
0.0684136
 20
0.352593
 30
0.0
 40
0.005625
 41
0.005625
  0
VERTEX
  8
0
 10
0.0737304
 20
0.347276
 30
0.0
 40
0.005625
 41
0.005625
  0
SEQEND
 8
0
  0
POLYLINE
  8
0
 62
     7
 66
     1
 10
0
 20
0
 30
0.0
 40
0.405
 41
0.405
  0
VERTEX
  8
0
 10
0.0737304
 20
0.381782
 30
0.0
 40
0.005625
 41
0.005625
  0
VERTEX
  8
0
 10
0.0684136
 20
0.387099
 30
0.0
 40
0.005625
 41
0.005625
  0
SEQEND
 8
0
  0
POLYLINE
  8
0
 62
     7
 66
     1
 10
0
 20
0
 30
0.0
 40
0.405
 41
0.405
  0
VERTEX
  8
0
 10
0.0684136
 20
0.387099
 30
0.0
 40
0.005625
 41
0.005625
  0
VERTEX
  8
0
 10
0.0684136
 20
0.397732
 30
0.0
 40
0.005625
 41
0.005625
  0
SEQEND
 8
0
  0
POLYLINE
  8
0
 62
     7
 66
     1
 10
0
 20
0
 30
0.0
 40
0.405
 41
0.405
  0
VERTEX
  8
0
 10
0.0684136
 20
0.397732
 30
0.0
 40
0.005625
 41
0.005625
  0
VERTEX
  8
0
 10
0.0737304
 20
0.403049
 30
0.0
 40
0.005625
 41
0.005625
  0
SEQEND
 8
0
  0
POLYLINE
  8
0
 62
     7
 66
     1
 10
0
 20
0
 30
0.0
 40
0.405
 41
0.405
  0
VERTEX
  8
0
 10
0.0737304
 20
0.403049
 30
0.0
 40
0.005625
 41
0.005625
  0
VERTEX
  8
0
 10
0.0790474
 20
0.403049
 30
0.0
 40
0.005625
 41
0.005625
  0
SEQEND
 8
0
  0
POLYLINE
  8
0
 62
     7
 66
     1
 10
0
 20
0
 30
0.0
 40
0.405
 41
0.405
  0
VERTEX
  8
0
 10
0.0790474
 20
0.403049
 30
0.0
 40
0.005625
 41
0.005625
  0
VERTEX
  8
0
 10
0.0843642
 20
0.397732
 30
0.0
 40
0.005625
 41
0.005625
  0
SEQEND
 8
0
  0
POLYLINE
  8
0
 62
     7
 66
     1
 10
0
 20
0
 30
0.0
 40
0.405
 41
0.405
  0
VERTEX
  8
0
 10
0.0843642
 20
0.397732
 30
0.0
 40
0.005625
 41
0.005625
  0
VERTEX
  8
0
 10
0.0843642
 20
0.392415
 30
0.0
 40
0.005625
 41
0.005625
  0
SEQEND
 8
0
  0
POLYLINE
  8
0
 62
     7
 66
     1
 10
0
 20
0
 30
0.0
 40
0.405
 41
0.405
  0
VERTEX
  8
0
 10
0.0843642
 20
0.397732
 30
0.0
 40
0.005625
 41
0.005625
  0
VERTEX
  8
0
 10
0.089681
 20
0.403049
 30
0.0
 40
0.005625
 41
0.005625
  0
SEQEND
 8
0
  0
POLYLINE
  8
0
 62
     7
 66
     1
 10
0
 20
0
 30
0.0
 40
0.405
 41
0.405
  0
VERTEX
  8
0
 10
0.089681
 20
0.403049
 30
0.0
 40
0.005625
 41
0.005625
  0
VERTEX
  8
0
 10
0.0949978
 20
0.403049
 30
0.0
 40
0.005625
 41
0.005625
  0
SEQEND
 8
0
  0
POLYLINE
  8
0
 62
     7
 66
     1
 10
0
 20
0
 30
0.0
 40
0.405
 41
0.405
  0
VERTEX
  8
0
 10
0.0949978
 20
0.403049
 30
0.0
 40
0.005625
 41
0.005625
  0
VERTEX
  8
0
 10
0.100315
 20
0.397732
 30
0.0
 40
0.005625
 41
0.005625
  0
SEQEND
 8
0
  0
POLYLINE
  8
0
 62
     7
 66
     1
 10
0
 20
0
 30
0.0
 40
0.405
 41
0.405
  0
VERTEX
  8
0
 10
0.100315
 20
0.397732
 30
0.0
 40
0.005625
 41
0.005625
  0
VERTEX
  8
0
 10
0.100315
 20
0.387099
 30
0.0
 40
0.005625
 41
0.005625
  0
SEQEND
 8
0
  0
POLYLINE
  8
0
 62
     7
 66
     1
 10
0
 20
0
 30
0.0
 40
0.405
 41
0.405
  0
VERTEX
  8
0
 10
0.100315
 20
0.387099
 30
0.0
 40
0.005625
 41
0.005625
  0
VERTEX
  8
0
 10
0.0949978
 20
0.381782
 30
0.0
 40
0.005625
 41
0.005625
  0
SEQEND
 8
0
  0
POLYLINE
  8
0
 62
     7
 66
     1
 10
0
 20
0
 30
0.0
 40
0.405
 41
0.405
  0
VERTEX
  8
0
 10
0.100315
 20
0.437608
 30
0.0
 40
0.005625
 41
0.005625
  0
VERTEX
  8
0
 10
0.100315
 20
0.416342
 30
0.0
 40
0.005625
 41
0.005625
  0
SEQEND
 8
0
  0
POLYLINE
  8
0
 62
     7
 66
     1
 10
0
 20
0
 30
0.0
 40
0.405
 41
0.405
  0
VERTEX
  8
0
 10
0.100315
 20
0.416342
 30
0.0
 40
0.005625
 41
0.005625
  0
VERTEX
  8
0
 10
0.0790474
 20
0.437608
 30
0.0
 40
0.005625
 41
0.005625
  0
SEQEND
 8
0
  0
POLYLINE
  8
0
 62
     7
 66
     1
 10
0
 20
0
 30
0.0
 40
0.405
 41
0.405
  0
VERTEX
  8
0
 10
0.0790474
 20
0.437608
 30
0.0
 40
0.005625
 41
0.005625
  0
VERTEX
  8
0
 10
0.0737304
 20
0.437608
 30
0.0
 40
0.005625
 41
0.005625
  0
SEQEND
 8
0
  0
POLYLINE
  8
0
 62
     7
 66
     1
 10
0
 20
0
 30
0.0
 40
0.405
 41
0.405
  0
VERTEX
  8
0
 10
0.0737304
 20
0.437608
 30
0.0
 40
0.005625
 41
0.005625
  0
VERTEX
  8
0
 10
0.0684136
 20
0.432292
 30
0.0
 40
0.005625
 41
0.005625
  0
SEQEND
 8
0
  0
POLYLINE
  8
0
 62
     7
 66
     1
 10
0
 20
0
 30
0.0
 40
0.405
 41
0.405
  0
VERTEX
  8
0
 10
0.0684136
 20
0.432292
 30
0.0
 40
0.005625
 41
0.005625
  0
VERTEX
  8
0
 10
0.0684136
 20
0.421658
 30
0.0
 40
0.005625
 41
0.005625
  0
SEQEND
 8
0
  0
POLYLINE
  8
0
 62
     7
 66
     1
 10
0
 20
0
 30
0.0
 40
0.405
 41
0.405
  0
VERTEX
  8
0
 10
0.0684136
 20
0.421658
 30
0.0
 40
0.005625
 41
0.005625
  0
VERTEX
  8
0
 10
0.0737304
 20
0.416342
 30
0.0
 40
0.005625
 41
0.005625
  0
SEQEND
 8
0
  0
POLYLINE
  8
0
 62
     7
 66
     1
 10
0
 20
0
 30
0.0
 40
0.675
 41
0.675
  0
VERTEX
  8
0
 10
0.590603
 20
0.138672
 30
0.0
 40
0.009375
 41
0.009375
  0
VERTEX
  8
0
 10
0.590603
 20
0.126194
 30
0.0
 40
0.009375
 41
0.009375
  0
SEQEND
 8
0
  0
POLYLINE
  8
0
 62
     7
 66
     1
 10
0
 20
0
 30
0.0
 40
0.675
 41
0.675
  0
VERTEX
  8
0
 10
0.590603
 20
0.126194
 30
0.0
 40
0.009375
 41
0.009375
  0
VERTEX
  8
0
 10
0.596843
 20
0.1199
 30
0.0
 40
0.009375
 41
0.009375
  0
SEQEND
 8
0
  0
POLYLINE
  8
0
 62
     7
 66
     1
 10
0
 20
0
 30
0.0
 40
0.675
 41
0.675
  0
VERTEX
  8
0
 10
0.596843
 20
0.1199
 30
0.0
 40
0.009375
 41
0.009375
  0
VERTEX
  8
0
 10
0.621853
 20
0.1199
 30
0.0
 40
0.009375
 41
0.009375
  0
SEQEND
 8
0
  0
POLYLINE
  8
0
 62
     7
 66
     1
 10
0
 20
0
 30
0.0
 40
0.675
 41
0.675
  0
VERTEX
  8
0
 10
0.621853
 20
0.1199
 30
0.0
 40
0.009375
 41
0.009375
  0
VERTEX
  8
0
 10
0.628147
 20
0.126194
 30
0.0
 40
0.009375
 41
0.009375
  0
SEQEND
 8
0
  0
POLYLINE
  8
0
 62
     7
 66
     1
 10
0
 20
0
 30
0.0
 40
0.675
 41
0.675
  0
VERTEX
  8
0
 10
0.628147
 20
0.126194
 30
0.0
 40
0.009375
 41
0.009375
  0
VERTEX
  8
0
 10
0.628147
 20
0.138672
 30
0.0
 40
0.009375
 41
0.009375
  0
SEQEND
 8
0
  0
POLYLINE
  8
0
 62
     7
 66
     1
 10
0
 20
0
 30
0.0
 40
0.675
 41
0.675
  0
VERTEX
  8
0
 10
0.628147
 20
0.138672
 30
0.0
 40
0.009375
 41
0.009375
  0
VERTEX
  8
0
 10
0.621853
 20
0.144965
 30
0.0
 40
0.009375
 41
0.009375
  0
SEQEND
 8
0
  0
POLYLINE
  8
0
 62
     7
 66
     1
 10
0
 20
0
 30
0.0
 40
0.675
 41
0.675
  0
VERTEX
  8
0
 10
0.621853
 20
0.144965
 30
0.0
 40
0.009375
 41
0.009375
  0
VERTEX
  8
0
 10
0.596843
 20
0.144965
 30
0.0
 40
0.009375
 41
0.009375
  0
SEQEND
 8
0
  0
POLYLINE
  8
0
 62
     7
 66
     1
 10
0
 20
0
 30
0.0
 40
0.675
 41
0.675
  0
VERTEX
  8
0
 10
0.596843
 20
0.144965
 30
0.0
 40
0.009375
 41
0.009375
  0
VERTEX
  8
0
 10
0.590603
 20
0.138672
 30
0.0
 40
0.009375
 41
0.009375
  0
SEQEND
 8
0
  0
POLYLINE
  8
0
 62
     7
 66
     1
 10
0
 20
0
 30
0.0
 40
0.675
 41
0.675
  0
VERTEX
  8
0
 10
0.590603
 20
0.163086
 30
0.0
 40
0.009375
 41
0.009375
  0
VERTEX
  8
0
 10
0.621853
 20
0.163086
 30
0.0
 40
0.009375
 41
0.009375
  0
SEQEND
 8
0
  0
POLYLINE
  8
0
 62
     7
 66
     1
 10
0
 20
0
 30
0.0
 40
0.675
 41
0.675
  0
VERTEX
  8
0
 10
0.621853
 20
0.163086
 30
0.0
 40
0.009375
 41
0.009375
  0
VERTEX
  8
0
 10
0.628147
 20
0.169325
 30
0.0
 40
0.009375
 41
0.009375
  0
SEQEND
 8
0
  0
POLYLINE
  8
0
 62
     7
 66
     1
 10
0
 20
0
 30
0.0
 40
0.675
 41
0.675
  0
VERTEX
  8
0
 10
0.628147
 20
0.169325
 30
0.0
 40
0.009375
 41
0.009375
  0
VERTEX
  8
0
 10
0.628147
 20
0.181858
 30
0.0
 40
0.009375
 41
0.009375
  0
SEQEND
 8
0
  0
POLYLINE
  8
0
 62
     7
 66
     1
 10
0
 20
0
 30
0.0
 40
0.675
 41
0.675
  0
VERTEX
  8
0
 10
0.628147
 20
0.181858
 30
0.0
 40
0.009375
 41
0.009375
  0
VERTEX
  8
0
 10
0.621853
 20
0.188097
 30
0.0
 40
0.009375
 41
0.009375
  0
SEQEND
 8
0
  0
POLYLINE
  8
0
 62
     7
 66
     1
 10
0
 20
0
 30
0.0
 40
0.675
 41
0.675
  0
VERTEX
  8
0
 10
0.621853
 20
0.188097
 30
0.0
 40
0.009375
 41
0.009375
  0
VERTEX
  8
0
 10
0.590603
 20
0.188097
 30
0.0
 40
0.009375
 41
0.009375
  0
SEQEND
 8
0
  0
POLYLINE
  8
0
 62
     7
 66
     1
 10
0
 20
0
 30
0.0
 40
0.675
 41
0.675
  0
VERTEX
  8
0
 10
0.628147
 20
0.21875
 30
0.0
 40
0.009375
 41
0.009375
  0
VERTEX
  8
0
 10
0.590603
 20
0.21875
 30
0.0
 40
0.009375
 41
0.009375
  0
SEQEND
 8
0
  0
POLYLINE
  8
0
 62
     7
 66
     1
 10
0
 20
0
 30
0.0
 40
0.675
 41
0.675
  0
VERTEX
  8
0
 10
0.590603
 20
0.206272
 30
0.0
 40
0.009375
 41
0.009375
  0
VERTEX
  8
0
 10
0.590603
 20
0.231282
 30
0.0
 40
0.009375
 41
0.009375
  0
SEQEND
 8
0
  0
POLYLINE
  8
0
 62
     7
 66
     1
 10
0
 20
0
 30
0.0
 40
0.675
 41
0.675
  0
VERTEX
  8
0
 10
0.628147
 20
0.249403
 30
0.0
 40
0.009375
 41
0.009375
  0
VERTEX
  8
0
 10
0.590603
 20
0.249403
 30
0.0
 40
0.009375
 41
0.009375
  0
SEQEND
 8
0
  0
POLYLINE
  8
0
 62
     7
 66
     1
 10
0
 20
0
 30
0.0
 40
0.675
 41
0.675
  0
VERTEX
  8
0
 10
0.590603
 20
0.249403
 30
0.0
 40
0.009375
 41
0.009375
  0
VERTEX
  8
0
 10
0.590603
 20
0.268175
 30
0.0
 40
0.009375
 41
0.009375
  0
SEQEND
 8
0
  0
POLYLINE
  8
0
 62
     7
 66
     1
 10
0
 20
0
 30
0.0
 40
0.675
 41
0.675
  0
VERTEX
  8
0
 10
0.590603
 20
0.268175
 30
0.0
 40
0.009375
 41
0.009375
  0
VERTEX
  8
0
 10
0.596843
 20
0.274414
 30
0.0
 40
0.009375
 41
0.009375
  0
SEQEND
 8
0
  0
POLYLINE
  8
0
 62
     7
 66
     1
 10
0
 20
0
 30
0.0
 40
0.675
 41
0.675
  0
VERTEX
  8
0
 10
0.596843
 20
0.274414
 30
0.0
 40
0.009375
 41
0.009375
  0
VERTEX
  8
0
 10
0.609375
 20
0.274414
 30
0.0
 40
0.009375
 41
0.009375
  0
SEQEND
 8
0
  0
POLYLINE
  8
0
 62
     7
 66
     1
 10
0
 20
0
 30
0.0
 40
0.675
 41
0.675
  0
VERTEX
  8
0
 10
0.609375
 20
0.274414
 30
0.0
 40
0.009375
 41
0.009375
  0
VERTEX
  8
0
 10
0.615614
 20
0.268175
 30
0.0
 40
0.009375
 41
0.009375
  0
SEQEND
 8
0
  0
POLYLINE
  8
0
 62
     7
 66
     1
 10
0
 20
0
 30
0.0
 40
0.675
 41
0.675
  0
VERTEX
  8
0
 10
0.615614
 20
0.268175
 30
0.0
 40
0.009375
 41
0.009375
  0
VERTEX
  8
0
 10
0.615614
 20
0.249403
 30
0.0
 40
0.009375
 41
0.009375
  0
SEQEND
 8
0
  0
POLYLINE
  8
0
 62
     7
 66
     1
 10
0
 20
0
 30
0.0
 40
0.675
 41
0.675
  0
VERTEX
  8
0
 10
0.590603
 20
0.292589
 30
0.0
 40
0.009375
 41
0.009375
  0
VERTEX
  8
0
 10
0.621853
 20
0.292589
 30
0.0
 40
0.009375
 41
0.009375
  0
SEQEND
 8
0
  0
POLYLINE
  8
0
 62
     7
 66
     1
 10
0
 20
0
 30
0.0
 40
0.675
 41
0.675
  0
VERTEX
  8
0
 10
0.621853
 20
0.292589
 30
0.0
 40
0.009375
 41
0.009375
  0
VERTEX
  8
0
 10
0.628147
 20
0.298828
 30
0.0
 40
0.009375
 41
0.009375
  0
SEQEND
 8
0
  0
POLYLINE
  8
0
 62
     7
 66
     1
 10
0
 20
0
 30
0.0
 40
0.675
 41
0.675
  0
VERTEX
  8
0
 10
0.628147
 20
0.298828
 30
0.0
 40
0.009375
 41
0.009375
  0
VERTEX
  8
0
 10
0.628147
 20
0.311361
 30
0.0
 40
0.009375
 41
0.009375
  0
SEQEND
 8
0
  0
POLYLINE
  8
0
 62
     7
 66
     1
 10
0
 20
0
 30
0.0
 40
0.675
 41
0.675
  0
VERTEX
  8
0
 10
0.628147
 20
0.311361
 30
0.0
 40
0.009375
 41
0.009375
  0
VERTEX
  8
0
 10
0.621853
 20
0.3176
 30
0.0
 40
0.009375
 41
0.009375
  0
SEQEND
 8
0
  0
POLYLINE
  8
0
 62
     7
 66
     1
 10
0
 20
0
 30
0.0
 40
0.675
 41
0.675
  0
VERTEX
  8
0
 10
0.621853
 20
0.3176
 30
0.0
 40
0.009375
 41
0.009375
  0
VERTEX
  8
0
 10
0.590603
 20
0.3176
 30
0.0
 40
0.009375
 41
0.009375
  0
SEQEND
 8
0
  0
POLYLINE
  8
0
 62
     7
 66
     1
 10
0
 20
0
 30
0.0
 40
0.675
 41
0.675
  0
VERTEX
  8
0
 10
0.628147
 20
0.348253
 30
0.0
 40
0.009375
 41
0.009375
  0
VERTEX
  8
0
 10
0.590603
 20
0.348253
 30
0.0
 40
0.009375
 41
0.009375
  0
SEQEND
 8
0
  0
POLYLINE
  8
0
 62
     7
 66
     1
 10
0
 20
0
 30
0.0
 40
0.675
 41
0.675
  0
VERTEX
  8
0
 10
0.590603
 20
0.335721
 30
0.0
 40
0.009375
 41
0.009375
  0
VERTEX
  8
0
 10
0.590603
 20
0.360732
 30
0.0
 40
0.009375
 41
0.009375
  0
SEQEND
 8
0
  0
POLYLINE
  8
0
 62
     7
 66
     1
 10
0
 20
0
 30
0.0
 40
0.54
 41
0.54
  0
VERTEX
  8
0
 10
0.116265
 20
0.683376
 30
0.0
 40
0.0075
 41
0.0075
  0
VERTEX
  8
0
 10
0.116265
 20
0.643989
 30
0.0
 40
0.0075
 41
0.0075
  0
SEQEND
 8
0
  0
POLYLINE
  8
0
 62
     7
 66
     1
 10
0
 20
0
 30
0.0
 40
0.54
 41
0.54
  0
VERTEX
  8
0
 10
0.116265
 20
0.643989
 30
0.0
 40
0.0075
 41
0.0075
  0
VERTEX
  8
0
 10
0.142524
 20
0.643989
 30
0.0
 40
0.0075
 41
0.0075
  0
SEQEND
 8
0
  0
POLYLINE
  8
0
 62
     7
 66
     1
 10
0
 20
0
 30
0.0
 40
0.54
 41
0.54
  0
VERTEX
  8
0
 10
0.159397
 20
0.643989
 30
0.0
 40
0.0075
 41
0.0075
  0
VERTEX
  8
0
 10
0.159397
 20
0.670247
 30
0.0
 40
0.0075
 41
0.0075
  0
SEQEND
 8
0
  0
POLYLINE
  8
0
 62
     7
 66
     1
 10
0
 20
0
 30
0.0
 40
0.54
 41
0.54
  0
VERTEX
  8
0
 10
0.159397
 20
0.670247
 30
0.0
 40
0.0075
 41
0.0075
  0
VERTEX
  8
0
 10
0.172581
 20
0.683376
 30
0.0
 40
0.0075
 41
0.0075
  0
SEQEND
 8
0
  0
POLYLINE
  8
0
 62
     7
 66
     1
 10
0
 20
0
 30
0.0
 40
0.54
 41
0.54
  0
VERTEX
  8
0
 10
0.172581
 20
0.683376
 30
0.0
 40
0.0075
 41
0.0075
  0
VERTEX
  8
0
 10
0.18571
 20
0.670247
 30
0.0
 40
0.0075
 41
0.0075
  0
SEQEND
 8
0
  0
POLYLINE
  8
0
 62
     7
 66
     1
 10
0
 20
0
 30
0.0
 40
0.54
 41
0.54
  0
VERTEX
  8
0
 10
0.18571
 20
0.670247
 30
0.0
 40
0.0075
 41
0.0075
  0
VERTEX
  8
0
 10
0.18571
 20
0.643989
 30
0.0
 40
0.0075
 41
0.0075
  0
SEQEND
 8
0
  0
POLYLINE
  8
0
 62
     7
 66
     1
 10
0
 20
0
 30
0.0
 40
0.54
 41
0.54
  0
VERTEX
  8
0
 10
0.159397
 20
0.663683
 30
0.0
 40
0.0075
 41
0.0075
  0
VERTEX
  8
0
 10
0.18571
 20
0.663683
 30
0.0
 40
0.0075
 41
0.0075
  0
SEQEND
 8
0
  0
POLYLINE
  8
0
 62
     7
 66
     1
 10
0
 20
0
 30
0.0
 40
0.54
 41
0.54
  0
VERTEX
  8
0
 10
0.116265
 20
0.737739
 30
0.0
 40
0.0075
 41
0.0075
  0
VERTEX
  8
0
 10
0.116265
 20
0.777126
 30
0.0
 40
0.0075
 41
0.0075
  0
SEQEND
 8
0
  0
POLYLINE
  8
0
 62
     7
 66
     1
 10
0
 20
0
 30
0.0
 40
0.54
 41
0.54
  0
VERTEX
  8
0
 10
0.116265
 20
0.777126
 30
0.0
 40
0.0075
 41
0.0075
  0
VERTEX
  8
0
 10
0.135959
 20
0.777126
 30
0.0
 40
0.0075
 41
0.0075
  0
SEQEND
 8
0
  0
POLYLINE
  8
0
 62
     7
 66
     1
 10
0
 20
0
 30
0.0
 40
0.54
 41
0.54
  0
VERTEX
  8
0
 10
0.135959
 20
0.777126
 30
0.0
 40
0.0075
 41
0.0075
  0
VERTEX
  8
0
 10
0.142524
 20
0.770562
 30
0.0
 40
0.0075
 41
0.0075
  0
SEQEND
 8
0
  0
POLYLINE
  8
0
 62
     7
 66
     1
 10
0
 20
0
 30
0.0
 40
0.54
 41
0.54
  0
VERTEX
  8
0
 10
0.142524
 20
0.770562
 30
0.0
 40
0.0075
 41
0.0075
  0
VERTEX
  8
0
 10
0.142524
 20
0.757433
 30
0.0
 40
0.0075
 41
0.0075
  0
SEQEND
 8
0
  0
POLYLINE
  8
0
 62
     7
 66
     1
 10
0
 20
0
 30
0.0
 40
0.54
 41
0.54
  0
VERTEX
  8
0
 10
0.142524
 20
0.757433
 30
0.0
 40
0.0075
 41
0.0075
  0
VERTEX
  8
0
 10
0.135959
 20
0.750868
 30
0.0
 40
0.0075
 41
0.0075
  0
SEQEND
 8
0
  0
POLYLINE
  8
0
 62
     7
 66
     1
 10
0
 20
0
 30
0.0
 40
0.54
 41
0.54
  0
VERTEX
  8
0
 10
0.135959
 20
0.750868
 30
0.0
 40
0.0075
 41
0.0075
  0
VERTEX
  8
0
 10
0.116265
 20
0.750868
 30
0.0
 40
0.0075
 41
0.0075
  0
SEQEND
 8
0
  0
POLYLINE
  8
0
 62
     7
 66
     1
 10
0
 20
0
 30
0.0
 40
0.54
 41
0.54
  0
VERTEX
  8
0
 10
0.129395
 20
0.750868
 30
0.0
 40
0.0075
 41
0.0075
  0
VERTEX
  8
0
 10
0.142524
 20
0.737739
 30
0.0
 40
0.0075
 41
0.0075
  0
SEQEND
 8
0
  0
POLYLINE
  8
0
 62
     7
 66
     1
 10
0
 20
0
 30
0.0
 40
0.54
 41
0.54
  0
VERTEX
  8
0
 10
0.159397
 20
0.737739
 30
0.0
 40
0.0075
 41
0.0075
  0
VERTEX
  8
0
 10
0.159397
 20
0.763997
 30
0.0
 40
0.0075
 41
0.0075
  0
SEQEND
 8
0
  0
POLYLINE
  8
0
 62
     7
 66
     1
 10
0
 20
0
 30
0.0
 40
0.54
 41
0.54
  0
VERTEX
  8
0
 10
0.159397
 20
0.763997
 30
0.0
 40
0.0075
 41
0.0075
  0
VERTEX
  8
0
 10
0.172581
 20
0.777126
 30
0.0
 40
0.0075
 41
0.0075
  0
SEQEND
 8
0
  0
POLYLINE
  8
0
 62
     7
 66
     1
 10
0
 20
0
 30
0.0
 40
0.54
 41
0.54
  0
VERTEX
  8
0
 10
0.172581
 20
0.777126
 30
0.0
 40
0.0075
 41
0.0075
  0
VERTEX
  8
0
 10
0.18571
 20
0.763997
 30
0.0
 40
0.0075
 41
0.0075
  0
SEQEND
 8
0
  0
POLYLINE
  8
0
 62
     7
 66
     1
 10
0
 20
0
 30
0.0
 40
0.54
 41
0.54
  0
VERTEX
  8
0
 10
0.18571
 20
0.763997
 30
0.0
 40
0.0075
 41
0.0075
  0
VERTEX
  8
0
 10
0.18571
 20
0.737739
 30
0.0
 40
0.0075
 41
0.0075
  0
SEQEND
 8
0
  0
POLYLINE
  8
0
 62
     7
 66
     1
 10
0
 20
0
 30
0.0
 40
0.54
 41
0.54
  0
VERTEX
  8
0
 10
0.159397
 20
0.757433
 30
0.0
 40
0.0075
 41
0.0075
  0
VERTEX
  8
0
 10
0.18571
 20
0.757433
 30
0.0
 40
0.0075
 41
0.0075
  0
SEQEND
 8
0
  0
POLYLINE
  8
0
 62
     7
 66
     1
 10
0
 20
0
 30
0.0
 40
0.54
 41
0.54
  0
VERTEX
  8
0
 10
0.116265
 20
0.550239
 30
0.0
 40
0.0075
 41
0.0075
  0
VERTEX
  8
0
 10
0.116265
 20
0.589626
 30
0.0
 40
0.0075
 41
0.0075
  0
SEQEND
 8
0
  0
POLYLINE
  8
0
 62
     7
 66
     1
 10
0
 20
0
 30
0.0
 40
0.54
 41
0.54
  0
VERTEX
  8
0
 10
0.116265
 20
0.589626
 30
0.0
 40
0.0075
 41
0.0075
  0
VERTEX
  8
0
 10
0.135959
 20
0.589626
 30
0.0
 40
0.0075
 41
0.0075
  0
SEQEND
 8
0
  0
POLYLINE
  8
0
 62
     7
 66
     1
 10
0
 20
0
 30
0.0
 40
0.54
 41
0.54
  0
VERTEX
  8
0
 10
0.135959
 20
0.589626
 30
0.0
 40
0.0075
 41
0.0075
  0
VERTEX
  8
0
 10
0.142524
 20
0.583062
 30
0.0
 40
0.0075
 41
0.0075
  0
SEQEND
 8
0
  0
POLYLINE
  8
0
 62
     7
 66
     1
 10
0
 20
0
 30
0.0
 40
0.54
 41
0.54
  0
VERTEX
  8
0
 10
0.142524
 20
0.583062
 30
0.0
 40
0.0075
 41
0.0075
  0
VERTEX
  8
0
 10
0.142524
 20
0.569933
 30
0.0
 40
0.0075
 41
0.0075
  0
SEQEND
 8
0
  0
POLYLINE
  8
0
 62
     7
 66
     1
 10
0
 20
0
 30
0.0
 40
0.54
 41
0.54
  0
VERTEX
  8
0
 10
0.142524
 20
0.569933
 30
0.0
 40
0.0075
 41
0.0075
  0
VERTEX
  8
0
 10
0.135959
 20
0.563368
 30
0.0
 40
0.0075
 41
0.0075
  0
SEQEND
 8
0
  0
POLYLINE
  8
0
 62
     7
 66
     1
 10
0
 20
0
 30
0.0
 40
0.54
 41
0.54
  0
VERTEX
  8
0
 10
0.135959
 20
0.563368
 30
0.0
 40
0.0075
 41
0.0075
  0
VERTEX
  8
0
 10
0.116265
 20
0.563368
 30
0.0
 40
0.0075
 41
0.0075
  0
SEQEND
 8
0
  0
POLYLINE
  8
0
 62
     7
 66
     1
 10
0
 20
0
 30
0.0
 40
0.54
 41
0.54
  0
VERTEX
  8
0
 10
0.129395
 20
0.563368
 30
0.0
 40
0.0075
 41
0.0075
  0
VERTEX
  8
0
 10
0.142524
 20
0.550239
 30
0.0
 40
0.0075
 41
0.0075
  0
SEQEND
 8
0
  0
POLYLINE
  8
0
 62
     7
 66
     1
 10
0
 20
0
 30
0.0
 40
0.54
 41
0.54
  0
VERTEX
  8
0
 10
0.159397
 20
0.589626
 30
0.0
 40
0.0075
 41
0.0075
  0
VERTEX
  8
0
 10
0.159397
 20
0.550239
 30
0.0
 40
0.0075
 41
0.0075
  0
SEQEND
 8
0
  0
POLYLINE
  8
0
 62
     7
 66
     1
 10
0
 20
0
 30
0.0
 40
0.54
 41
0.54
  0
VERTEX
  8
0
 10
0.159397
 20
0.550239
 30
0.0
 40
0.0075
 41
0.0075
  0
VERTEX
  8
0
 10
0.18571
 20
0.550239
 30
0.0
 40
0.0075
 41
0.0075
  0
SEQEND
 8
0
  0
POLYLINE
  8
0
 62
     7
 66
     1
 10
0
 20
0
 30
0.0
 40
0.3375
 41
0.3375
  0
VERTEX
  8
0
 10
0.143935
 20
0.197265
 30
0.0
 40
0.0046875
 41
0.0046875
  0
VERTEX
  8
0
 10
0.118598
 20
0.197265
 30
0.0
 40
0.0046875
 41
0.0046875
  0
SEQEND
 8
0
  0
POLYLINE
  8
0
 62
     7
 66
     1
 10
0
 20
0
 30
0.0
 40
0.3375
 41
0.3375
  0
VERTEX
  8
0
 10
0.131239
 20
0.197265
 30
0.0
 40
0.0046875
 41
0.0046875
  0
VERTEX
  8
0
 10
0.131239
 20
0.214139
 30
0.0
 40
0.0046875
 41
0.0046875
  0
SEQEND
 8
0
  0
POLYLINE
  8
0
 62
     7
 66
     1
 10
0
 20
0
 30
0.0
 40
0.3375
 41
0.3375
  0
VERTEX
  8
0
 10
0.118598
 20
0.214139
 30
0.0
 40
0.0046875
 41
0.0046875
  0
VERTEX
  8
0
 10
0.143935
 20
0.214139
 30
0.0
 40
0.0046875
 41
0.0046875
  0
SEQEND
 8
0
  0
POLYLINE
  8
0
 62
     7
 66
     1
 10
0
 20
0
 30
0.0
 40
0.3375
 41
0.3375
  0
VERTEX
  8
0
 10
0.143935
 20
0.237576
 30
0.0
 40
0.0046875
 41
0.0046875
  0
VERTEX
  8
0
 10
0.143935
 20
0.229112
 30
0.0
 40
0.0046875
 41
0.0046875
  0
SEQEND
 8
0
  0
POLYLINE
  8
0
 62
     7
 66
     1
 10
0
 20
0
 30
0.0
 40
0.3375
 41
0.3375
  0
VERTEX
  8
0
 10
0.143935
 20
0.229112
 30
0.0
 40
0.0046875
 41
0.0046875
  0
VERTEX
  8
0
 10
0.139703
 20
0.224881
 30
0.0
 40
0.0046875
 41
0.0046875
  0
SEQEND
 8
0
  0
POLYLINE
  8
0
 62
     7
 66
     1
 10
0
 20
0
 30
0.0
 40
0.3375
 41
0.3375
  0
VERTEX
  8
0
 10
0.139703
 20
0.224881
 30
0.0
 40
0.0046875
 41
0.0046875
  0
VERTEX
  8
0
 10
0.131239
 20
0.224881
 30
0.0
 40
0.0046875
 41
0.0046875
  0
SEQEND
 8
0
  0
POLYLINE
  8
0
 62
     7
 66
     1
 10
0
 20
0
 30
0.0
 40
0.3375
 41
0.3375
  0
VERTEX
  8
0
 10
0.131239
 20
0.224881
 30
0.0
 40
0.0046875
 41
0.0046875
  0
VERTEX
  8
0
 10
0.127007
 20
0.229112
 30
0.0
 40
0.0046875
 41
0.0046875
  0
SEQEND
 8
0
  0
POLYLINE
  8
0
 62
     7
 66
     1
 10
0
 20
0
 30
0.0
 40
0.3375
 41
0.3375
  0
VERTEX
  8
0
 10
0.127007
 20
0.229112
 30
0.0
 40
0.0046875
 41
0.0046875
  0
VERTEX
  8
0
 10
0.127007
 20
0.237576
 30
0.0
 40
0.0046875
 41
0.0046875
  0
SEQEND
 8
0
  0
POLYLINE
  8
0
 62
     7
 66
     1
 10
0
 20
0
 30
0.0
 40
0.3375
 41
0.3375
  0
VERTEX
  8
0
 10
0.127007
 20
0.237576
 30
0.0
 40
0.0046875
 41
0.0046875
  0
VERTEX
  8
0
 10
0.131239
 20
0.241808
 30
0.0
 40
0.0046875
 41
0.0046875
  0
SEQEND
 8
0
  0
POLYLINE
  8
0
 62
     7
 66
     1
 10
0
 20
0
 30
0.0
 40
0.3375
 41
0.3375
  0
VERTEX
  8
0
 10
0.131239
 20
0.241808
 30
0.0
 40
0.0046875
 41
0.0046875
  0
VERTEX
  8
0
 10
0.135471
 20
0.241808
 30
0.0
 40
0.0046875
 41
0.0046875
  0
SEQEND
 8
0
  0
POLYLINE
  8
0
 62
     7
 66
     1
 10
0
 20
0
 30
0.0
 40
0.3375
 41
0.3375
  0
VERTEX
  8
0
 10
0.135471
 20
0.241808
 30
0.0
 40
0.0046875
 41
0.0046875
  0
VERTEX
  8
0
 10
0.135471
 20
0.224881
 30
0.0
 40
0.0046875
 41
0.0046875
  0
SEQEND
 8
0
  0
POLYLINE
  8
0
 62
     7
 66
     1
 10
0
 20
0
 30
0.0
 40
0.3375
 41
0.3375
  0
VERTEX
  8
0
 10
0.127007
 20
0.256728
 30
0.0
 40
0.0046875
 41
0.0046875
  0
VERTEX
  8
0
 10
0.127007
 20
0.265192
 30
0.0
 40
0.0046875
 41
0.0046875
  0
SEQEND
 8
0
  0
POLYLINE
  8
0
 62
     7
 66
     1
 10
0
 20
0
 30
0.0
 40
0.3375
 41
0.3375
  0
VERTEX
  8
0
 10
0.127007
 20
0.265192
 30
0.0
 40
0.0046875
 41
0.0046875
  0
VERTEX
  8
0
 10
0.131239
 20
0.269422
 30
0.0
 40
0.0046875
 41
0.0046875
  0
SEQEND
 8
0
  0
POLYLINE
  8
0
 62
     7
 66
     1
 10
0
 20
0
 30
0.0
 40
0.3375
 41
0.3375
  0
VERTEX
  8
0
 10
0.131239
 20
0.269422
 30
0.0
 40
0.0046875
 41
0.0046875
  0
VERTEX
  8
0
 10
0.143935
 20
0.269422
 30
0.0
 40
0.0046875
 41
0.0046875
  0
SEQEND
 8
0
  0
POLYLINE
  8
0
 62
     7
 66
     1
 10
0
 20
0
 30
0.0
 40
0.3375
 41
0.3375
  0
VERTEX
  8
0
 10
0.143935
 20
0.269422
 30
0.0
 40
0.0046875
 41
0.0046875
  0
VERTEX
  8
0
 10
0.143935
 20
0.256728
 30
0.0
 40
0.0046875
 41
0.0046875
  0
SEQEND
 8
0
  0
POLYLINE
  8
0
 62
     7
 66
     1
 10
0
 20
0
 30
0.0
 40
0.3375
 41
0.3375
  0
VERTEX
  8
0
 10
0.143935
 20
0.256728
 30
0.0
 40
0.0046875
 41
0.0046875
  0
VERTEX
  8
0
 10
0.139703
 20
0.252496
 30
0.0
 40
0.0046875
 41
0.0046875
  0
SEQEND
 8
0
  0
POLYLINE
  8
0
 62
     7
 66
     1
 10
0
 20
0
 30
0.0
 40
0.3375
 41
0.3375
  0
VERTEX
  8
0
 10
0.139703
 20
0.252496
 30
0.0
 40
0.0046875
 41
0.0046875
  0
VERTEX
  8
0
 10
0.135471
 20
0.256728
 30
0.0
 40
0.0046875
 41
0.0046875
  0
SEQEND
 8
0
  0
POLYLINE
  8
0
 62
     7
 66
     1
 10
0
 20
0
 30
0.0
 40
0.3375
 41
0.3375
  0
VERTEX
  8
0
 10
0.135471
 20
0.256728
 30
0.0
 40
0.0046875
 41
0.0046875
  0
VERTEX
  8
0
 10
0.135471
 20
0.269422
 30
0.0
 40
0.0046875
 41
0.0046875
  0
SEQEND
 8
0
  0
POLYLINE
  8
0
 62
     7
 66
     1
 10
0
 20
0
 30
0.0
 40
0.3375
 41
0.3375
  0
VERTEX
  8
0
 10
0.143935
 20
0.280111
 30
0.0
 40
0.0046875
 41
0.0046875
  0
VERTEX
  8
0
 10
0.127007
 20
0.280111
 30
0.0
 40
0.0046875
 41
0.0046875
  0
SEQEND
 8
0
  0
POLYLINE
  8
0
 62
     7
 66
     1
 10
0
 20
0
 30
0.0
 40
0.3375
 41
0.3375
  0
VERTEX
  8
0
 10
0.135471
 20
0.280111
 30
0.0
 40
0.0046875
 41
0.0046875
  0
VERTEX
  8
0
 10
0.127007
 20
0.288574
 30
0.0
 40
0.0046875
 41
0.0046875
  0
SEQEND
 8
0
  0
POLYLINE
  8
0
 62
     7
 66
     1
 10
0
 20
0
 30
0.0
 40
0.3375
 41
0.3375
  0
VERTEX
  8
0
 10
0.127007
 20
0.288574
 30
0.0
 40
0.0046875
 41
0.0046875
  0
VERTEX
  8
0
 10
0.127007
 20
0.292806
 30
0.0
 40
0.0046875
 41
0.0046875
  0
SEQEND
 8
0
  0
POLYLINE
  8
0
 62
     7
 66
     1
 10
0
 20
0
 30
0.0
 40
0.3375
 41
0.3375
  0
VERTEX
  8
0
 10
0.122776
 20
0.3074
 30
0.0
 40
0.0046875
 41
0.0046875
  0
VERTEX
  8
0
 10
0.139703
 20
0.3074
 30
0.0
 40
0.0046875
 41
0.0046875
  0
SEQEND
 8
0
  0
POLYLINE
  8
0
 62
     7
 66
     1
 10
0
 20
0
 30
0.0
 40
0.3375
 41
0.3375
  0
VERTEX
  8
0
 10
0.139703
 20
0.3074
 30
0.0
 40
0.0046875
 41
0.0046875
  0
VERTEX
  8
0
 10
0.143935
 20
0.311578
 30
0.0
 40
0.0046875
 41
0.0046875
  0
SEQEND
 8
0
  0
POLYLINE
  8
0
 62
     7
 66
     1
 10
0
 20
0
 30
0.0
 40
0.3375
 41
0.3375
  0
VERTEX
  8
0
 10
0.127007
 20
0.303168
 30
0.0
 40
0.0046875
 41
0.0046875
  0
VERTEX
  8
0
 10
0.127007
 20
0.311578
 30
0.0
 40
0.0046875
 41
0.0046875
  0
SEQEND
 8
0
  0
POLYLINE
  8
0
 62
     7
 66
     1
 10
0
 20
0
 30
0.0
 40
0.3375
 41
0.3375
  0
VERTEX
  8
0
 10
0.143935
 20
0.349175
 30
0.0
 40
0.0046875
 41
0.0046875
  0
VERTEX
  8
0
 10
0.118598
 20
0.349175
 30
0.0
 40
0.0046875
 41
0.0046875
  0
SEQEND
 8
0
  0
POLYLINE
  8
0
 62
     7
 66
     1
 10
0
 20
0
 30
0.0
 40
0.3375
 41
0.3375
  0
VERTEX
  8
0
 10
0.118598
 20
0.349175
 30
0.0
 40
0.0046875
 41
0.0046875
  0
VERTEX
  8
0
 10
0.127007
 20
0.357639
 30
0.0
 40
0.0046875
 41
0.0046875
  0
SEQEND
 8
0
  0
POLYLINE
  8
0
 62
     7
 66
     1
 10
0
 20
0
 30
0.0
 40
0.3375
 41
0.3375
  0
VERTEX
  8
0
 10
0.127007
 20
0.357639
 30
0.0
 40
0.0046875
 41
0.0046875
  0
VERTEX
  8
0
 10
0.118598
 20
0.366103
 30
0.0
 40
0.0046875
 41
0.0046875
  0
SEQEND
 8
0
  0
POLYLINE
  8
0
 62
     7
 66
     1
 10
0
 20
0
 30
0.0
 40
0.3375
 41
0.3375
  0
VERTEX
  8
0
 10
0.118598
 20
0.366103
 30
0.0
 40
0.0046875
 41
0.0046875
  0
VERTEX
  8
0
 10
0.143935
 20
0.366103
 30
0.0
 40
0.0046875
 41
0.0046875
  0
SEQEND
 8
0
  0
POLYLINE
  8
0
 62
     7
 66
     1
 10
0
 20
0
 30
0.0
 40
0.3375
 41
0.3375
  0
VERTEX
  8
0
 10
0.143935
 20
0.381022
 30
0.0
 40
0.0046875
 41
0.0046875
  0
VERTEX
  8
0
 10
0.143935
 20
0.389486
 30
0.0
 40
0.0046875
 41
0.0046875
  0
SEQEND
 8
0
  0
POLYLINE
  8
0
 62
     7
 66
     1
 10
0
 20
0
 30
0.0
 40
0.3375
 41
0.3375
  0
VERTEX
  8
0
 10
0.143935
 20
0.389486
 30
0.0
 40
0.0046875
 41
0.0046875
  0
VERTEX
  8
0
 10
0.139703
 20
0.393718
 30
0.0
 40
0.0046875
 41
0.0046875
  0
SEQEND
 8
0
  0
POLYLINE
  8
0
 62
     7
 66
     1
 10
0
 20
0
 30
0.0
 40
0.3375
 41
0.3375
  0
VERTEX
  8
0
 10
0.139703
 20
0.393718
 30
0.0
 40
0.0046875
 41
0.0046875
  0
VERTEX
  8
0
 10
0.131239
 20
0.393718
 30
0.0
 40
0.0046875
 41
0.0046875
  0
SEQEND
 8
0
  0
POLYLINE
  8
0
 62
     7
 66
     1
 10
0
 20
0
 30
0.0
 40
0.3375
 41
0.3375
  0
VERTEX
  8
0
 10
0.131239
 20
0.393718
 30
0.0
 40
0.0046875
 41
0.0046875
  0
VERTEX
  8
0
 10
0.127007
 20
0.389486
 30
0.0
 40
0.0046875
 41
0.0046875
  0
SEQEND
 8
0
  0
POLYLINE
  8
0
 62
     7
 66
     1
 10
0
 20
0
 30
0.0
 40
0.3375
 41
0.3375
  0
VERTEX
  8
0
 10
0.127007
 20
0.389486
 30
0.0
 40
0.0046875
 41
0.0046875
  0
VERTEX
  8
0
 10
0.127007
 20
0.381022
 30
0.0
 40
0.0046875
 41
0.0046875
  0
SEQEND
 8
0
  0
POLYLINE
  8
0
 62
     7
 66
     1
 10
0
 20
0
 30
0.0
 40
0.3375
 41
0.3375
  0
VERTEX
  8
0
 10
0.127007
 20
0.381022
 30
0.0
 40
0.0046875
 41
0.0046875
  0
VERTEX
  8
0
 10
0.131239
 20
0.376844
 30
0.0
 40
0.0046875
 41
0.0046875
  0
SEQEND
 8
0
  0
POLYLINE
  8
0
 62
     7
 66
     1
 10
0
 20
0
 30
0.0
 40
0.3375
 41
0.3375
  0
VERTEX
  8
0
 10
0.131239
 20
0.376844
 30
0.0
 40
0.0046875
 41
0.0046875
  0
VERTEX
  8
0
 10
0.139703
 20
0.376844
 30
0.0
 40
0.0046875
 41
0.0046875
  0
SEQEND
 8
0
  0
POLYLINE
  8
0
 62
     7
 66
     1
 10
0
 20
0
 30
0.0
 40
0.3375
 41
0.3375
  0
VERTEX
  8
0
 10
0.139703
 20
0.376844
 30
0.0
 40
0.0046875
 41
0.0046875
  0
VERTEX
  8
0
 10
0.143935
 20
0.381022
 30
0.0
 40
0.0046875
 41
0.0046875
  0
SEQEND
 8
0
  0
POLYLINE
  8
0
 62
     7
 66
     1
 10
0
 20
0
 30
0.0
 40
0.3375
 41
0.3375
  0
VERTEX
  8
0
 10
0.143935
 20
0.40446
 30
0.0
 40
0.0046875
 41
0.0046875
  0
VERTEX
  8
0
 10
0.127007
 20
0.40446
 30
0.0
 40
0.0046875
 41
0.0046875
  0
SEQEND
 8
0
  0
POLYLINE
  8
0
 62
     7
 66
     1
 10
0
 20
0
 30
0.0
 40
0.3375
 41
0.3375
  0
VERTEX
  8
0
 10
0.127007
 20
0.40446
 30
0.0
 40
0.0046875
 41
0.0046875
  0
VERTEX
  8
0
 10
0.127007
 20
0.417101
 30
0.0
 40
0.0046875
 41
0.0046875
  0
SEQEND
 8
0
  0
POLYLINE
  8
0
 62
     7
 66
     1
 10
0
 20
0
 30
0.0
 40
0.3375
 41
0.3375
  0
VERTEX
  8
0
 10
0.127007
 20
0.417101
 30
0.0
 40
0.0046875
 41
0.0046875
  0
VERTEX
  8
0
 10
0.131239
 20
0.421332
 30
0.0
 40
0.0046875
 41
0.0046875
  0
SEQEND
 8
0
  0
POLYLINE
  8
0
 62
     7
 66
     1
 10
0
 20
0
 30
0.0
 40
0.3375
 41
0.3375
  0
VERTEX
  8
0
 10
0.131239
 20
0.421332
 30
0.0
 40
0.0046875
 41
0.0046875
  0
VERTEX
  8
0
 10
0.143935
 20
0.421332
 30
0.0
 40
0.0046875
 41
0.0046875
  0
SEQEND
 8
0
  0
POLYLINE
  8
0
 62
     7
 66
     1
 10
0
 20
0
 30
0.0
 40
0.3375
 41
0.3375
  0
VERTEX
  8
0
 10
0.127007
 20
0.432075
 30
0.0
 40
0.0046875
 41
0.0046875
  0
VERTEX
  8
0
 10
0.127007
 20
0.436307
 30
0.0
 40
0.0046875
 41
0.0046875
  0
SEQEND
 8
0
  0
POLYLINE
  8
0
 62
     7
 66
     1
 10
0
 20
0
 30
0.0
 40
0.3375
 41
0.3375
  0
VERTEX
  8
0
 10
0.127007
 20
0.436307
 30
0.0
 40
0.0046875
 41
0.0046875
  0
VERTEX
  8
0
 10
0.143935
 20
0.436307
 30
0.0
 40
0.0046875
 41
0.0046875
  0
SEQEND
 8
0
  0
POLYLINE
  8
0
 62
     7
 66
     1
 10
0
 20
0
 30
0.0
 40
0.3375
 41
0.3375
  0
VERTEX
  8
0
 10
0.143935
 20
0.432075
 30
0.0
 40
0.0046875
 41
0.0046875
  0
VERTEX
  8
0
 10
0.143935
 20
0.440539
 30
0.0
 40
0.0046875
 41
0.0046875
  0
SEQEND
 8
0
  0
POLYLINE
  8
0
 62
     7
 66
     1
 10
0
 20
0
 30
0.0
 40
0.3375
 41
0.3375
  0
VERTEX
  8
0
 10
0.114366
 20
0.436307
 30
0.0
 40
0.0046875
 41
0.0046875
  0
VERTEX
  8
0
 10
0.118598
 20
0.436307
 30
0.0
 40
0.0046875
 41
0.0046875
  0
SEQEND
 8
0
  0
POLYLINE
  8
0
 62
     7
 66
     1
 10
0
 20
0
 30
0.0
 40
0.3375
 41
0.3375
  0
VERTEX
  8
0
 10
0.122776
 20
0.454699
 30
0.0
 40
0.0046875
 41
0.0046875
  0
VERTEX
  8
0
 10
0.139703
 20
0.454699
 30
0.0
 40
0.0046875
 41
0.0046875
  0
SEQEND
 8
0
  0
POLYLINE
  8
0
 62
     7
 66
     1
 10
0
 20
0
 30
0.0
 40
0.3375
 41
0.3375
  0
VERTEX
  8
0
 10
0.139703
 20
0.454699
 30
0.0
 40
0.0046875
 41
0.0046875
  0
VERTEX
  8
0
 10
0.143935
 20
0.458931
 30
0.0
 40
0.0046875
 41
0.0046875
  0
SEQEND
 8
0
  0
POLYLINE
  8
0
 62
     7
 66
     1
 10
0
 20
0
 30
0.0
 40
0.3375
 41
0.3375
  0
VERTEX
  8
0
 10
0.127007
 20
0.450467
 30
0.0
 40
0.0046875
 41
0.0046875
  0
VERTEX
  8
0
 10
0.127007
 20
0.458931
 30
0.0
 40
0.0046875
 41
0.0046875
  0
SEQEND
 8
0
  0
POLYLINE
  8
0
 62
     7
 66
     1
 10
0
 20
0
 30
0.0
 40
0.3375
 41
0.3375
  0
VERTEX
  8
0
 10
0.143935
 20
0.473144
 30
0.0
 40
0.0046875
 41
0.0046875
  0
VERTEX
  8
0
 10
0.143935
 20
0.481554
 30
0.0
 40
0.0046875
 41
0.0046875
  0
SEQEND
 8
0
  0
POLYLINE
  8
0
 62
     7
 66
     1
 10
0
 20
0
 30
0.0
 40
0.3375
 41
0.3375
  0
VERTEX
  8
0
 10
0.143935
 20
0.481554
 30
0.0
 40
0.0046875
 41
0.0046875
  0
VERTEX
  8
0
 10
0.139703
 20
0.485786
 30
0.0
 40
0.0046875
 41
0.0046875
  0
SEQEND
 8
0
  0
POLYLINE
  8
0
 62
     7
 66
     1
 10
0
 20
0
 30
0.0
 40
0.3375
 41
0.3375
  0
VERTEX
  8
0
 10
0.139703
 20
0.485786
 30
0.0
 40
0.0046875
 41
0.0046875
  0
VERTEX
  8
0
 10
0.131239
 20
0.485786
 30
0.0
 40
0.0046875
 41
0.0046875
  0
SEQEND
 8
0
  0
POLYLINE
  8
0
 62
     7
 66
     1
 10
0
 20
0
 30
0.0
 40
0.3375
 41
0.3375
  0
VERTEX
  8
0
 10
0.131239
 20
0.485786
 30
0.0
 40
0.0046875
 41
0.0046875
  0
VERTEX
  8
0
 10
0.127007
 20
0.481554
 30
0.0
 40
0.0046875
 41
0.0046875
  0
SEQEND
 8
0
  0
POLYLINE
  8
0
 62
     7
 66
     1
 10
0
 20
0
 30
0.0
 40
0.3375
 41
0.3375
  0
VERTEX
  8
0
 10
0.127007
 20
0.481554
 30
0.0
 40
0.0046875
 41
0.0046875
  0
VERTEX
  8
0
 10
0.127007
 20
0.473144
 30
0.0
 40
0.0046875
 41
0.0046875
  0
SEQEND
 8
0
  0
POLYLINE
  8
0
 62
     7
 66
     1
 10
0
 20
0
 30
0.0
 40
0.3375
 41
0.3375
  0
VERTEX
  8
0
 10
0.127007
 20
0.473144
 30
0.0
 40
0.0046875
 41
0.0046875
  0
VERTEX
  8
0
 10
0.131239
 20
0.468912
 30
0.0
 40
0.0046875
 41
0.0046875
  0
SEQEND
 8
0
  0
POLYLINE
  8
0
 62
     7
 66
     1
 10
0
 20
0
 30
0.0
 40
0.3375
 41
0.3375
  0
VERTEX
  8
0
 10
0.131239
 20
0.468912
 30
0.0
 40
0.0046875
 41
0.0046875
  0
VERTEX
  8
0
 10
0.139703
 20
0.468912
 30
0.0
 40
0.0046875
 41
0.0046875
  0
SEQEND
 8
0
  0
POLYLINE
  8
0
 62
     7
 66
     1
 10
0
 20
0
 30
0.0
 40
0.3375
 41
0.3375
  0
VERTEX
  8
0
 10
0.139703
 20
0.468912
 30
0.0
 40
0.0046875
 41
0.0046875
  0
VERTEX
  8
0
 10
0.143935
 20
0.473144
 30
0.0
 40
0.0046875
 41
0.0046875
  0
SEQEND
 8
0
  0
POLYLINE
  8
0
 62
     7
 66
     1
 10
0
 20
0
 30
0.0
 40
0.3375
 41
0.3375
  0
VERTEX
  8
0
 10
0.143935
 20
0.496528
 30
0.0
 40
0.0046875
 41
0.0046875
  0
VERTEX
  8
0
 10
0.127007
 20
0.496528
 30
0.0
 40
0.0046875
 41
0.0046875
  0
SEQEND
 8
0
  0
POLYLINE
  8
0
 62
     7
 66
     1
 10
0
 20
0
 30
0.0
 40
0.3375
 41
0.3375
  0
VERTEX
  8
0
 10
0.135471
 20
0.496528
 30
0.0
 40
0.0046875
 41
0.0046875
  0
VERTEX
  8
0
 10
0.127007
 20
0.504992
 30
0.0
 40
0.0046875
 41
0.0046875
  0
SEQEND
 8
0
  0
POLYLINE
  8
0
 62
     7
 66
     1
 10
0
 20
0
 30
0.0
 40
0.3375
 41
0.3375
  0
VERTEX
  8
0
 10
0.127007
 20
0.504992
 30
0.0
 40
0.0046875
 41
0.0046875
  0
VERTEX
  8
0
 10
0.127007
 20
0.509169
 30
0.0
 40
0.0046875
 41
0.0046875
  0
SEQEND
 8
0
  0
POLYLINE
  8
0
 62
     7
 66
     1
 10
0
 20
0
 30
0.0
 40
0.3375
 41
0.3375
  0
VERTEX
  8
0
 10
0.202963
 20
0.0472547
 30
0.0
 40
0.0046875
 41
0.0046875
  0
VERTEX
  8
0
 10
0.228299
 20
0.0472547
 30
0.0
 40
0.0046875
 41
0.0046875
  0
SEQEND
 8
0
  0
POLYLINE
  8
0
 62
     7
 66
     1
 10
0
 20
0
 30
0.0
 40
0.3375
 41
0.3375
  0
VERTEX
  8
0
 10
0.228299
 20
0.0472547
 30
0.0
 40
0.0046875
 41
0.0046875
  0
VERTEX
  8
0
 10
0.228299
 20
0.0641818
 30
0.0
 40
0.0046875
 41
0.0046875
  0
SEQEND
 8
0
  0
POLYLINE
  8
0
 62
     7
 66
     1
 10
0
 20
0
 30
0.0
 40
0.3375
 41
0.3375
  0
VERTEX
  8
0
 10
0.202963
 20
0.0917969
 30
0.0
 40
0.0046875
 41
0.0046875
  0
VERTEX
  8
0
 10
0.202963
 20
0.0748699
 30
0.0
 40
0.0046875
 41
0.0046875
  0
SEQEND
 8
0
  0
POLYLINE
  8
0
 62
     7
 66
     1
 10
0
 20
0
 30
0.0
 40
0.3375
 41
0.3375
  0
VERTEX
  8
0
 10
0.202963
 20
0.0748699
 30
0.0
 40
0.0046875
 41
0.0046875
  0
VERTEX
  8
0
 10
0.228299
 20
0.0748699
 30
0.0
 40
0.0046875
 41
0.0046875
  0
SEQEND
 8
0
  0
POLYLINE
  8
0
 62
     7
 66
     1
 10
0
 20
0
 30
0.0
 40
0.3375
 41
0.3375
  0
VERTEX
  8
0
 10
0.228299
 20
0.0748699
 30
0.0
 40
0.0046875
 41
0.0046875
  0
VERTEX
  8
0
 10
0.228299
 20
0.0917969
 30
0.0
 40
0.0046875
 41
0.0046875
  0
SEQEND
 8
0
  0
POLYLINE
  8
0
 62
     7
 66
     1
 10
0
 20
0
 30
0.0
 40
0.3375
 41
0.3375
  0
VERTEX
  8
0
 10
0.215603
 20
0.0748699
 30
0.0
 40
0.0046875
 41
0.0046875
  0
VERTEX
  8
0
 10
0.215603
 20
0.0833333
 30
0.0
 40
0.0046875
 41
0.0046875
  0
SEQEND
 8
0
  0
POLYLINE
  8
0
 62
     7
 66
     1
 10
0
 20
0
 30
0.0
 40
0.3375
 41
0.3375
  0
VERTEX
  8
0
 10
0.202963
 20
0.102539
 30
0.0
 40
0.0046875
 41
0.0046875
  0
VERTEX
  8
0
 10
0.228299
 20
0.102539
 30
0.0
 40
0.0046875
 41
0.0046875
  0
SEQEND
 8
0
  0
POLYLINE
  8
0
 62
     7
 66
     1
 10
0
 20
0
 30
0.0
 40
0.3375
 41
0.3375
  0
VERTEX
  8
0
 10
0.228299
 20
0.102539
 30
0.0
 40
0.0046875
 41
0.0046875
  0
VERTEX
  8
0
 10
0.228299
 20
0.11518
 30
0.0
 40
0.0046875
 41
0.0046875
  0
SEQEND
 8
0
  0
POLYLINE
  8
0
 62
     7
 66
     1
 10
0
 20
0
 30
0.0
 40
0.3375
 41
0.3375
  0
VERTEX
  8
0
 10
0.228299
 20
0.11518
 30
0.0
 40
0.0046875
 41
0.0046875
  0
VERTEX
  8
0
 10
0.224067
 20
0.119412
 30
0.0
 40
0.0046875
 41
0.0046875
  0
SEQEND
 8
0
  0
POLYLINE
  8
0
 62
     7
 66
     1
 10
0
 20
0
 30
0.0
 40
0.3375
 41
0.3375
  0
VERTEX
  8
0
 10
0.224067
 20
0.119412
 30
0.0
 40
0.0046875
 41
0.0046875
  0
VERTEX
  8
0
 10
0.207194
 20
0.119412
 30
0.0
 40
0.0046875
 41
0.0046875
  0
SEQEND
 8
0
  0
POLYLINE
  8
0
 62
     7
 66
     1
 10
0
 20
0
 30
0.0
 40
0.3375
 41
0.3375
  0
VERTEX
  8
0
 10
0.207194
 20
0.119412
 30
0.0
 40
0.0046875
 41
0.0046875
  0
VERTEX
  8
0
 10
0.202963
 20
0.11518
 30
0.0
 40
0.0046875
 41
0.0046875
  0
SEQEND
 8
0
  0
POLYLINE
  8
0
 62
     7
 66
     1
 10
0
 20
0
 30
0.0
 40
0.3375
 41
0.3375
  0
VERTEX
  8
0
 10
0.202963
 20
0.11518
 30
0.0
 40
0.0046875
 41
0.0046875
  0
VERTEX
  8
0
 10
0.202963
 20
0.102539
 30
0.0
 40
0.0046875
 41
0.0046875
  0
SEQEND
 8
0
  0
POLYLINE
  8
0
 62
     7
 66
     1
 10
0
 20
0
 30
0.0
 40
1.08
 41
1.08
  0
VERTEX
  8
0
 10
0.290636
 20
0.204318
 30
0.0
 40
0.015
 41
0.015
  0
VERTEX
  8
0
 10
0.440647
 20
0.316786
 30
0.0
 40
0.015
 41
0.015
  0
SEQEND
 8
0
  0
POLYLINE
  8
0
 62
     7
 66
     1
 10
0
 20
0
 30
0.0
 40
1.08
 41
1.08
  0
VERTEX
  8
0
 10
0.440647
 20
0.316786
 30
0.0
 40
0.015
 41
0.015
  0
VERTEX
  8
0
 10
0.290636
 20
0.429308
 30
0.0
 40
0.015
 41
0.015
  0
SEQEND
 8
0
  0
POLYLINE
  8
0
 62
     7
 66
     1
 10
0
 20
0
 30
0.0
 40
1.08
 41
1.08
  0
VERTEX
  8
0
 10
0.234375
 20
0.316786
 30
0.0
 40
0.015
 41
0.015
  0
VERTEX
  8
0
 10
0.228896
 20
0.314074
 30
0.0
 40
0.015
 41
0.015
  0
VERTEX
  8
0
 10
0.214626
 20
0.301432
 30
0.0
 40
0.015
 41
0.015
  0
VERTEX
  8
0
 10
0.2028
 20
0.28049
 30
0.0
 40
0.015
 41
0.015
  0
VERTEX
  8
0
 10
0.199653
 20
0.256565
 30
0.0
 40
0.015
 41
0.015
  0
VERTEX
  8
0
 10
0.20345
 20
0.237901
 30
0.0
 40
0.015
 41
0.015
  0
VERTEX
  8
0
 10
0.206218
 20
0.232422
 30
0.0
 40
0.015
 41
0.015
  0
VERTEX
  8
0
 10
0.208931
 20
0.226997
 30
0.0
 40
0.015
 41
0.015
  0
VERTEX
  8
0
 10
0.221571
 20
0.212728
 30
0.0
 40
0.015
 41
0.015
  0
VERTEX
  8
0
 10
0.242567
 20
0.2009
 30
0.0
 40
0.015
 41
0.015
  0
VERTEX
  8
0
 10
0.266493
 20
0.197808
 30
0.0
 40
0.015
 41
0.015
  0
VERTEX
  8
0
 10
0.285157
 20
0.201606
 30
0.0
 40
0.015
 41
0.015
  0
VERTEX
  8
0
 10
0.290636
 20
0.204318
 30
0.0
 40
0.015
 41
0.015
  0
SEQEND
 8
0
  0
POLYLINE
  8
0
 62
     7
 66
     1
 10
0
 20
0
 30
0.0
 40
1.08
 41
1.08
  0
VERTEX
  8
0
 10
0.290636
 20
0.429308
 30
0.0
 40
0.015
 41
0.015
  0
VERTEX
  8
0
 10
0.285157
 20
0.432075
 30
0.0
 40
0.015
 41
0.015
  0
VERTEX
  8
0
 10
0.266493
 20
0.435872
 30
0.0
 40
0.015
 41
0.015
  0
VERTEX
  8
0
 10
0.242567
 20
0.432781
 30
0.0
 40
0.015
 41
0.015
  0
VERTEX
  8
0
 10
0.221571
 20
0.420953
 30
0.0
 40
0.015
 41
0.015
  0
VERTEX
  8
0
 10
0.208931
 20
0.406685
 30
0.0
 40
0.015
 41
0.015
  0
VERTEX
  8
0
 10
0.206218
 20
0.401204
 30
0.0
 40
0.015
 41
0.015
  0
VERTEX
  8
0
 10
0.20345
 20
0.395779
 30
0.0
 40
0.015
 41
0.015
  0
VERTEX
  8
0
 10
0.199653
 20
0.377115
 30
0.0
 40
0.015
 41
0.015
  0
VERTEX
  8
0
 10
0.2028
 20
0.35319
 30
0.0
 40
0.015
 41
0.015
  0
VERTEX
  8
0
 10
0.214626
 20
0.332194
 30
0.0
 40
0.015
 41
0.015
  0
VERTEX
  8
0
 10
0.228896
 20
0.319553
 30
0.0
 40
0.015
 41
0.015
  0
VERTEX
  8
0
 10
0.234375
 20
0.316786
 30
0.0
 40
0.015
 41
0.015
  0
SEQEND
 8
0
  0
POLYLINE
  8
0
 62
     7
 66
     1
 10
0
 20
0
 30
0.0
 40
0.54
 41
0.54
  0
VERTEX
  8
0
 10
0.740614
 20
0.996474
 30
0.0
 40
0.0075
 41
0.0075
  0
VERTEX
  8
0
 10
0.745335
 20
0.996474
 30
0.0
 40
0.0075
 41
0.0075
  0
SEQEND
 8
0
  0
POLYLINE
  8
0
 62
     7
 66
     1
 10
0
 20
0
 30
0.0
 40
0.54
 41
0.54
  0
VERTEX
  8
0
 10
0.740614
 20
0.996474
 30
0.0
 40
0.0075
 41
0.0075
  0
VERTEX
  8
0
 10
0.740614
 20
0.940212
 30
0.0
 40
0.0075
 41
0.0075
  0
SEQEND
 8
0
  0
POLYLINE
  8
0
 62
     7
 66
     1
 10
0
 20
0
 30
0.0
 40
0.54
 41
0.54
  0
VERTEX
  8
0
 10
0.740614
 20
0.940212
 30
0.0
 40
0.0075
 41
0.0075
  0
VERTEX
  8
0
 10
0.745335
 20
0.940212
 30
0.0
 40
0.0075
 41
0.0075
  0
SEQEND
 8
0
  0
POLYLINE
  8
0
 62
     7
 66
     1
 10
0
 20
0
 30
0.0
 40
0.54
 41
0.54
  0
VERTEX
  8
0
 10
0.918782
 20
0.996474
 30
0.0
 40
0.0075
 41
0.0075
  0
VERTEX
  8
0
 10
0.923449
 20
0.996474
 30
0.0
 40
0.0075
 41
0.0075
  0
SEQEND
 8
0
  0
POLYLINE
  8
0
 62
     7
 66
     1
 10
0
 20
0
 30
0.0
 40
0.54
 41
0.54
  0
VERTEX
  8
0
 10
0.923449
 20
0.996474
 30
0.0
 40
0.0075
 41
0.0075
  0
VERTEX
  8
0
 10
0.923449
 20
0.940212
 30
0.0
 40
0.0075
 41
0.0075
  0
SEQEND
 8
0
  0
POLYLINE
  8
0
 62
     7
 66
     1
 10
0
 20
0
 30
0.0
 40
0.54
 41
0.54
  0
VERTEX
  8
0
 10
0.923449
 20
0.940212
 30
0.0
 40
0.0075
 41
0.0075
  0
VERTEX
  8
0
 10
0.918782
 20
0.940212
 30
0.0
 40
0.0075
 41
0.0075
  0
SEQEND
 8
0
  0
POLYLINE
  8
0
 62
     7
 66
     1
 10
0
 20
0
 30
0.0
 40
0.54
 41
0.54
  0
VERTEX
  8
0
 10
1.10628
 20
0.729275
 30
0.0
 40
0.0075
 41
0.0075
  0
VERTEX
  8
0
 10
1.10628
 20
0.733996
 30
0.0
 40
0.0075
 41
0.0075
  0
SEQEND
 8
0
  0
POLYLINE
  8
0
 62
     7
 66
     1
 10
0
 20
0
 30
0.0
 40
0.54
 41
0.54
  0
VERTEX
  8
0
 10
1.10628
 20
0.733996
 30
0.0
 40
0.0075
 41
0.0075
  0
VERTEX
  8
0
 10
1.16249
 20
0.733996
 30
0.0
 40
0.0075
 41
0.0075
  0
SEQEND
 8
0
  0
POLYLINE
  8
0
 62
     7
 66
     1
 10
0
 20
0
 30
0.0
 40
0.54
 41
0.54
  0
VERTEX
  8
0
 10
1.16249
 20
0.733996
 30
0.0
 40
0.0075
 41
0.0075
  0
VERTEX
  8
0
 10
1.16249
 20
0.729275
 30
0.0
 40
0.0075
 41
0.0075
  0
SEQEND
 8
0
  0
POLYLINE
  8
0
 62
     7
 66
     1
 10
0
 20
0
 30
0.0
 40
0.54
 41
0.54
  0
VERTEX
  8
0
 10
1.16249
 20
0.560547
 30
0.0
 40
0.0075
 41
0.0075
  0
VERTEX
  8
0
 10
1.16249
 20
0.555881
 30
0.0
 40
0.0075
 41
0.0075
  0
SEQEND
 8
0
  0
POLYLINE
  8
0
 62
     7
 66
     1
 10
0
 20
0
 30
0.0
 40
0.54
 41
0.54
  0
VERTEX
  8
0
 10
1.16249
 20
0.555881
 30
0.0
 40
0.0075
 41
0.0075
  0
VERTEX
  8
0
 10
1.10628
 20
0.555881
 30
0.0
 40
0.0075
 41
0.0075
  0
SEQEND
 8
0
  0
POLYLINE
  8
0
 62
     7
 66
     1
 10
0
 20
0
 30
0.0
 40
0.54
 41
0.54
  0
VERTEX
  8
0
 10
1.10628
 20
0.555881
 30
0.0
 40
0.0075
 41
0.0075
  0
VERTEX
  8
0
 10
1.10628
 20
0.560547
 30
0.0
 40
0.0075
 41
0.0075
  0
SEQEND
 8
0
  0
POLYLINE
  8
0
 62
     7
 66
     1
 10
0
 20
0
 30
0.0
 40
0.54
 41
0.54
  0
VERTEX
  8
0
 10
0.303114
 20
0.333768
 30
0.0
 40
0.0075
 41
0.0075
  0
VERTEX
  8
0
 10
0.303114
 20
0.316786
 30
0.0
 40
0.0075
 41
0.0075
  0
SEQEND
 8
0
  0
POLYLINE
  8
0
 62
     7
 66
     1
 10
0
 20
0
 30
0.0
 40
0.54
 41
0.54
  0
VERTEX
  8
0
 10
0.303114
 20
0.299804
 30
0.0
 40
0.0075
 41
0.0075
  0
VERTEX
  8
0
 10
0.303114
 20
0.316786
 30
0.0
 40
0.0075
 41
0.0075
  0
SEQEND
 8
0
  0
POLYLINE
  8
0
 62
     7
 66
     1
 10
0
 20
0
 30
0.0
 40
0.54
 41
0.54
  0
VERTEX
  8
0
 10
0.303114
 20
0.316786
 30
0.0
 40
0.0075
 41
0.0075
  0
VERTEX
  8
0
 10
0.314561
 20
0.325413
 30
0.0
 40
0.0075
 41
0.0075
  0
SEQEND
 8
0
  0
POLYLINE
  8
0
 62
     7
 66
     1
 10
0
 20
0
 30
0.0
 40
0.54
 41
0.54
  0
VERTEX
  8
0
 10
0.303657
 20
0.315864
 30
0.0
 40
0.0075
 41
0.0075
  0
VERTEX
  8
0
 10
0.314561
 20
0.308757
 30
0.0
 40
0.0075
 41
0.0075
  0
SEQEND
 8
0
  0
POLYLINE
  8
0
 62
     7
 66
     1
 10
0
 20
0
 30
0.0
 70
     1
 40
0
 41
0
  0
VERTEX
  8
0
 10
1.21745
 20
0.276313
 30
0.0
 40
0
 41
0
  0
VERTEX
  8
0
 10
1.21745
 20
0.267796
 30
0.0
 40
0
 41
0
  0
VERTEX
  8
0
 10
1.2156
 20
0.267469
 30
0.0
 40
0
 41
0
  0
VERTEX
  8
0
 10
1.21376
 20
0.26671
 30
0.0
 40
0
 41
0
  0
VERTEX
  8
0
 10
1.21267
 20
0.26595
 30
0.0
 40
0
 41
0
  0
VERTEX
  8
0
 10
1.21191
 20
0.264865
 30
0.0
 40
0
 41
0
  0
VERTEX
  8
0
 10
1.21121
 20
0.2634
 30
0.0
 40
0
 41
0
  0
VERTEX
  8
0
 10
1.21045
 20
0.261556
 30
0.0
 40
0
 41
0
  0
VERTEX
  8
0
 10
1.21045
 20
0.255263
 30
0.0
 40
0
 41
0
  0
VERTEX
  8
0
 10
1.21083
 20
0.254178
 30
0.0
 40
0
 41
0
  0
VERTEX
  8
0
 10
1.21121
 20
0.252712
 30
0.0
 40
0
 41
0
  0
VERTEX
  8
0
 10
1.21153
 20
0.251574
 30
0.0
 40
0
 41
0
  0
VERTEX
  8
0
 10
1.21267
 20
0.250868
 30
0.0
 40
0
 41
0
  0
VERTEX
  8
0
 10
1.21376
 20
0.250108
 30
0.0
 40
0
 41
0
  0
VERTEX
  8
0
 10
1.21522
 20
0.250108
 30
0.0
 40
0
 41
0
  0
VERTEX
  8
0
 10
1.21674
 20
0.250489
 30
0.0
 40
0
 41
0
  0
VERTEX
  8
0
 10
1.21821
 20
0.251574
 30
0.0
 40
0
 41
0
  0
VERTEX
  8
0
 10
1.21929
 20
0.253039
 30
0.0
 40
0
 41
0
  0
VERTEX
  8
0
 10
1.22043
 20
0.255263
 30
0.0
 40
0
 41
0
  0
VERTEX
  8
0
 10
1.22114
 20
0.257488
 30
0.0
 40
0
 41
0
  0
VERTEX
  8
0
 10
1.22152
 20
0.260417
 30
0.0
 40
0
 41
0
  0
VERTEX
  8
0
 10
1.22228
 20
0.2634
 30
0.0
 40
0
 41
0
  0
VERTEX
  8
0
 10
1.22298
 20
0.266331
 30
0.0
 40
0
 41
0
  0
VERTEX
  8
0
 10
1.22374
 20
0.269314
 30
0.0
 40
0
 41
0
  0
VERTEX
  8
0
 10
1.2245
 20
0.272624
 30
0.0
 40
0
 41
0
  0
VERTEX
  8
0
 10
1.22597
 20
0.275228
 30
0.0
 40
0
 41
0
  0
VERTEX
  8
0
 10
1.22743
 20
0.277778
 30
0.0
 40
0
 41
0
  0
VERTEX
  8
0
 10
1.22927
 20
0.280003
 30
0.0
 40
0
 41
0
  0
VERTEX
  8
0
 10
1.2315
 20
0.281467
 30
0.0
 40
0
 41
0
  0
VERTEX
  8
0
 10
1.23405
 20
0.282607
 30
0.0
 40
0
 41
0
  0
VERTEX
  8
0
 10
1.23741
 20
0.282932
 30
0.0
 40
0
 41
0
  0
VERTEX
  8
0
 10
1.24219
 20
0.282226
 30
0.0
 40
0
 41
0
  0
VERTEX
  8
0
 10
1.24626
 20
0.280761
 30
0.0
 40
0
 41
0
  0
VERTEX
  8
0
 10
1.24919
 20
0.278538
 30
0.0
 40
0
 41
0
  0
VERTEX
  8
0
 10
1.25179
 20
0.275553
 30
0.0
 40
0
 41
0
  0
VERTEX
  8
0
 10
1.25363
 20
0.271864
 30
0.0
 40
0
 41
0
  0
VERTEX
  8
0
 10
1.25472
 20
0.267796
 30
0.0
 40
0
 41
0
  0
VERTEX
  8
0
 10
1.25548
 20
0.2634
 30
0.0
 40
0
 41
0
  0
VERTEX
  8
0
 10
1.25586
 20
0.258951
 30
0.0
 40
0
 41
0
  0
VERTEX
  8
0
 10
1.25548
 20
0.254557
 30
0.0
 40
0
 41
0
  0
VERTEX
  8
0
 10
1.25472
 20
0.250108
 30
0.0
 40
0
 41
0
  0
VERTEX
  8
0
 10
1.25363
 20
0.246039
 30
0.0
 40
0
 41
0
  0
VERTEX
  8
0
 10
1.25179
 20
0.24235
 30
0.0
 40
0
 41
0
  0
VERTEX
  8
0
 10
1.24919
 20
0.239421
 30
0.0
 40
0
 41
0
  0
VERTEX
  8
0
 10
1.24588
 20
0.236817
 30
0.0
 40
0
 41
0
  0
VERTEX
  8
0
 10
1.24219
 20
0.235351
 30
0.0
 40
0
 41
0
  0
VERTEX
  8
0
 10
1.23741
 20
0.234592
 30
0.0
 40
0
 41
0
  0
VERTEX
  8
0
 10
1.23741
 20
0.248264
 30
0.0
 40
0
 41
0
  0
VERTEX
  8
0
 10
1.23958
 20
0.248264
 30
0.0
 40
0
 41
0
  0
VERTEX
  8
0
 10
1.24148
 20
0.249024
 30
0.0
 40
0
 41
0
  0
VERTEX
  8
0
 10
1.24295
 20
0.250108
 30
0.0
 40
0
 41
0
  0
VERTEX
  8
0
 10
1.24403
 20
0.251574
 30
0.0
 40
0
 41
0
  0
VERTEX
  8
0
 10
1.24517
 20
0.253039
 30
0.0
 40
0
 41
0
  0
VERTEX
  8
0
 10
1.2455
 20
0.255263
 30
0.0
 40
0
 41
0
  0
VERTEX
  8
0
 10
1.24588
 20
0.257107
 30
0.0
 40
0
 41
0
  0
VERTEX
  8
0
 10
1.24626
 20
0.259332
 30
0.0
 40
0
 41
0
  0
VERTEX
  8
0
 10
1.24588
 20
0.260796
 30
0.0
 40
0
 41
0
  0
VERTEX
  8
0
 10
1.24588
 20
0.262261
 30
0.0
 40
0
 41
0
  0
VERTEX
  8
0
 10
1.2455
 20
0.263781
 30
0.0
 40
0
 41
0
  0
VERTEX
  8
0
 10
1.24479
 20
0.265246
 30
0.0
 40
0
 41
0
  0
VERTEX
  8
0
 10
1.24365
 20
0.26671
 30
0.0
 40
0
 41
0
  0
VERTEX
  8
0
 10
1.24257
 20
0.267796
 30
0.0
 40
0
 41
0
  0
VERTEX
  8
0
 10
1.2411
 20
0.268175
 30
0.0
 40
0
 41
0
  0
VERTEX
  8
0
 10
1.23958
 20
0.268554
 30
0.0
 40
0
 41
0
  0
VERTEX
  8
0
 10
1.23812
 20
0.268175
 30
0.0
 40
0
 41
0
  0
VERTEX
  8
0
 10
1.23665
 20
0.267469
 30
0.0
 40
0
 41
0
  0
VERTEX
  8
0
 10
1.23557
 20
0.26595
 30
0.0
 40
0
 41
0
  0
VERTEX
  8
0
 10
1.23443
 20
0.264106
 30
0.0
 40
0
 41
0
  0
VERTEX
  8
0
 10
1.23372
 20
0.261936
 30
0.0
 40
0
 41
0
  0
VERTEX
  8
0
 10
1.23296
 20
0.258951
 30
0.0
 40
0
 41
0
  0
VERTEX
  8
0
 10
1.23221
 20
0.256022
 30
0.0
 40
0
 41
0
  0
VERTEX
  8
0
 10
1.2315
 20
0.252333
 30
0.0
 40
0
 41
0
  0
VERTEX
  8
0
 10
1.23074
 20
0.249024
 30
0.0
 40
0
 41
0
  0
VERTEX
  8
0
 10
1.22966
 20
0.246039
 30
0.0
 40
0
 41
0
  0
VERTEX
  8
0
 10
1.22852
 20
0.243435
 30
0.0
 40
0
 41
0
  0
VERTEX
  8
0
 10
1.22705
 20
0.240886
 30
0.0
 40
0
 41
0
  0
VERTEX
  8
0
 10
1.22559
 20
0.238661
 30
0.0
 40
0
 41
0
  0
VERTEX
  8
0
 10
1.22336
 20
0.237196
 30
0.0
 40
0
 41
0
  0
VERTEX
  8
0
 10
1.22081
 20
0.236057
 30
0.0
 40
0
 41
0
  0
VERTEX
  8
0
 10
1.21745
 20
0.235732
 30
0.0
 40
0
 41
0
  0
VERTEX
  8
0
 10
1.21305
 20
0.236057
 30
0.0
 40
0
 41
0
  0
VERTEX
  8
0
 10
1.20936
 20
0.237576
 30
0.0
 40
0
 41
0
  0
VERTEX
  8
0
 10
1.20638
 20
0.240126
 30
0.0
 40
0
 41
0
  0
VERTEX
  8
0
 10
1.20416
 20
0.242731
 30
0.0
 40
0
 41
0
  0
VERTEX
  8
0
 10
1.20231
 20
0.246419
 30
0.0
 40
0
 41
0
  0
VERTEX
  8
0
 10
1.20161
 20
0.250108
 30
0.0
 40
0
 41
0
  0
VERTEX
  8
0
 10
1.20085
 20
0.254178
 30
0.0
 40
0
 41
0
  0
VERTEX
  8
0
 10
1.20085
 20
0.262642
 30
0.0
 40
0
 41
0
  0
VERTEX
  8
0
 10
1.20161
 20
0.26671
 30
0.0
 40
0
 41
0
  0
VERTEX
  8
0
 10
1.20269
 20
0.2704
 30
0.0
 40
0
 41
0
  0
VERTEX
  8
0
 10
1.20416
 20
0.273708
 30
0.0
 40
0
 41
0
  0
VERTEX
  8
0
 10
1.20638
 20
0.276693
 30
0.0
 40
0
 41
0
  0
VERTEX
  8
0
 10
1.20936
 20
0.278917
 30
0.0
 40
0
 41
0
  0
VERTEX
  8
0
 10
1.21305
 20
0.280761
 30
0.0
 40
0
 41
0
  0
VERTEX
  8
0
 10
1.21745
 20
0.281467
 30
0.0
 40
0
 41
0
  0
VERTEX
  8
0
 10
1.21745
 20
0.276313
 30
0.0
 40
0
 41
0
  0
SEQEND
 8
0
  0
POLYLINE
  8
0
 62
     7
 66
     1
 10
0
 20
0
 30
0.0
 70
     1
 40
0
 41
0
  0
VERTEX
  8
0
 10
1.22852
 20
0.327257
 30
0.0
 40
0
 41
0
  0
VERTEX
  8
0
 10
1.2289
 20
0.341635
 30
0.0
 40
0
 41
0
  0
VERTEX
  8
0
 10
1.23405
 20
0.341254
 30
0.0
 40
0
 41
0
  0
VERTEX
  8
0
 10
1.23888
 20
0.340169
 30
0.0
 40
0
 41
0
  0
VERTEX
  8
0
 10
1.24333
 20
0.338325
 30
0.0
 40
0
 41
0
  0
VERTEX
  8
0
 10
1.23741
 20
0.325792
 30
0.0
 40
0
 41
0
  0
VERTEX
  8
0
 10
1.23443
 20
0.326878
 30
0.0
 40
0
 41
0
  0
VERTEX
  8
0
 10
1.2315
 20
0.327257
 30
0.0
 40
0
 41
0
  0
VERTEX
  8
0
 10
1.22852
 20
0.327257
 30
0.0
 40
0
 41
0
  0
SEQEND
 8
0
  0
POLYLINE
  8
0
 62
     7
 66
     1
 10
0
 20
0
 30
0.0
 70
     1
 40
0
 41
0
  0
VERTEX
  8
0
 10
1.20638
 20
0.302518
 30
0.0
 40
0
 41
0
  0
VERTEX
  8
0
 10
1.2086
 20
0.302518
 30
0.0
 40
0
 41
0
  0
VERTEX
  8
0
 10
1.20676
 20
0.303982
 30
0.0
 40
0
 41
0
  0
VERTEX
  8
0
 10
1.2053
 20
0.305447
 30
0.0
 40
0
 41
0
  0
VERTEX
  8
0
 10
1.20383
 20
0.307292
 30
0.0
 40
0
 41
0
  0
VERTEX
  8
0
 10
1.20269
 20
0.309136
 30
0.0
 40
0
 41
0
  0
VERTEX
  8
0
 10
1.20161
 20
0.310981
 30
0.0
 40
0
 41
0
  0
VERTEX
  8
0
 10
1.20085
 20
0.315429
 30
0.0
 40
0
 41
0
  0
VERTEX
  8
0
 10
1.20085
 20
0.318033
 30
0.0
 40
0
 41
0
  0
VERTEX
  8
0
 10
1.20123
 20
0.323568
 30
0.0
 40
0
 41
0
  0
VERTEX
  8
0
 10
1.20307
 20
0.328722
 30
0.0
 40
0
 41
0
  0
VERTEX
  8
0
 10
1.20568
 20
0.33279
 30
0.0
 40
0
 41
0
  0
VERTEX
  8
0
 10
1.20936
 20
0.3361
 30
0.0
 40
0
 41
0
  0
VERTEX
  8
0
 10
1.21338
 20
0.338704
 30
0.0
 40
0
 41
0
  0
VERTEX
  8
0
 10
1.21821
 20
0.340169
 30
0.0
 40
0
 41
0
  0
VERTEX
  8
0
 10
1.22336
 20
0.341254
 30
0.0
 40
0
 41
0
  0
VERTEX
  8
0
 10
1.2289
 20
0.341635
 30
0.0
 40
0
 41
0
  0
VERTEX
  8
0
 10
1.22852
 20
0.327257
 30
0.0
 40
0
 41
0
  0
VERTEX
  8
0
 10
1.22521
 20
0.327257
 30
0.0
 40
0
 41
0
  0
VERTEX
  8
0
 10
1.22228
 20
0.326878
 30
0.0
 40
0
 41
0
  0
VERTEX
  8
0
 10
1.21929
 20
0.325792
 30
0.0
 40
0
 41
0
  0
VERTEX
  8
0
 10
1.21674
 20
0.324653
 30
0.0
 40
0
 41
0
  0
VERTEX
  8
0
 10
1.21452
 20
0.322808
 30
0.0
 40
0
 41
0
  0
VERTEX
  8
0
 10
1.21305
 20
0.320583
 30
0.0
 40
0
 41
0
  0
VERTEX
  8
0
 10
1.21191
 20
0.318033
 30
0.0
 40
0
 41
0
  0
VERTEX
  8
0
 10
1.21153
 20
0.314671
 30
0.0
 40
0
 41
0
  0
VERTEX
  8
0
 10
1.21191
 20
0.31174
 30
0.0
 40
0
 41
0
  0
VERTEX
  8
0
 10
1.21305
 20
0.308811
 30
0.0
 40
0
 41
0
  0
VERTEX
  8
0
 10
1.21452
 20
0.306967
 30
0.0
 40
0
 41
0
  0
VERTEX
  8
0
 10
1.21674
 20
0.305122
 30
0.0
 40
0
 41
0
  0
VERTEX
  8
0
 10
1.21929
 20
0.303982
 30
0.0
 40
0
 41
0
  0
VERTEX
  8
0
 10
1.22228
 20
0.302897
 30
0.0
 40
0
 41
0
  0
VERTEX
  8
0
 10
1.22521
 20
0.302518
 30
0.0
 40
0
 41
0
  0
VERTEX
  8
0
 10
1.2315
 20
0.302518
 30
0.0
 40
0
 41
0
  0
VERTEX
  8
0
 10
1.23443
 20
0.303276
 30
0.0
 40
0
 41
0
  0
VERTEX
  8
0
 10
1.23741
 20
0.303982
 30
0.0
 40
0
 41
0
  0
VERTEX
  8
0
 10
1.23996
 20
0.305122
 30
0.0
 40
0
 41
0
  0
VERTEX
  8
0
 10
1.24181
 20
0.306967
 30
0.0
 40
0
 41
0
  0
VERTEX
  8
0
 10
1.24365
 20
0.309136
 30
0.0
 40
0
 41
0
  0
VERTEX
  8
0
 10
1.24441
 20
0.31174
 30
0.0
 40
0
 41
0
  0
VERTEX
  8
0
 10
1.24479
 20
0.31505
 30
0.0
 40
0
 41
0
  0
VERTEX
  8
0
 10
1.24441
 20
0.318033
 30
0.0
 40
0
 41
0
  0
VERTEX
  8
0
 10
1.24365
 20
0.320964
 30
0.0
 40
0
 41
0
  0
VERTEX
  8
0
 10
1.24181
 20
0.323188
 30
0.0
 40
0
 41
0
  0
VERTEX
  8
0
 10
1.23996
 20
0.324653
 30
0.0
 40
0
 41
0
  0
VERTEX
  8
0
 10
1.23741
 20
0.325792
 30
0.0
 40
0
 41
0
  0
VERTEX
  8
0
 10
1.24333
 20
0.338325
 30
0.0
 40
0
 41
0
  0
VERTEX
  8
0
 10
1.24734
 20
0.3361
 30
0.0
 40
0
 41
0
  0
VERTEX
  8
0
 10
1.25071
 20
0.33279
 30
0.0
 40
0
 41
0
  0
VERTEX
  8
0
 10
1.25363
 20
0.328722
 30
0.0
 40
0
 41
0
  0
VERTEX
  8
0
 10
1.2551
 20
0.324274
 30
0.0
 40
0
 41
0
  0
VERTEX
  8
0
 10
1.25586
 20
0.318739
 30
0.0
 40
0
 41
0
  0
VERTEX
  8
0
 10
1.25548
 20
0.316515
 30
0.0
 40
0
 41
0
  0
VERTEX
  8
0
 10
1.2551
 20
0.314344
 30
0.0
 40
0
 41
0
  0
VERTEX
  8
0
 10
1.25472
 20
0.312121
 30
0.0
 40
0
 41
0
  0
VERTEX
  8
0
 10
1.25363
 20
0.309896
 30
0.0
 40
0
 41
0
  0
VERTEX
  8
0
 10
1.25255
 20
0.308051
 30
0.0
 40
0
 41
0
  0
VERTEX
  8
0
 10
1.25141
 20
0.306207
 30
0.0
 40
0
 41
0
  0
VERTEX
  8
0
 10
1.24772
 20
0.303276
 30
0.0
 40
0
 41
0
  0
VERTEX
  8
0
 10
1.24772
 20
0.302897
 30
0.0
 40
0
 41
0
  0
VERTEX
  8
0
 10
1.28537
 20
0.302897
 30
0.0
 40
0
 41
0
  0
VERTEX
  8
0
 10
1.28206
 20
0.299587
 30
0.0
 40
0
 41
0
  0
VERTEX
  8
0
 10
1.2806
 20
0.297743
 30
0.0
 40
0
 41
0
  0
VERTEX
  8
0
 10
1.27908
 20
0.295899
 30
0.0
 40
0
 41
0
  0
VERTEX
  8
0
 10
1.27762
 20
0.294
 30
0.0
 40
0
 41
0
  0
VERTEX
  8
0
 10
1.27431
 20
0.29069
 30
0.0
 40
0
 41
0
  0
VERTEX
  8
0
 10
1.27284
 20
0.288846
 30
0.0
 40
0
 41
0
  0
VERTEX
  8
0
 10
1.20454
 20
0.288846
 30
0.0
 40
0
 41
0
  0
VERTEX
  8
0
 10
1.20416
 20
0.29031
 30
0.0
 40
0
 41
0
  0
VERTEX
  8
0
 10
1.20383
 20
0.292156
 30
0.0
 40
0
 41
0
  0
VERTEX
  8
0
 10
1.20383
 20
0.294
 30
0.0
 40
0
 41
0
  0
VERTEX
  8
0
 10
1.20345
 20
0.295518
 30
0.0
 40
0
 41
0
  0
VERTEX
  8
0
 10
1.20307
 20
0.297364
 30
0.0
 40
0
 41
0
  0
VERTEX
  8
0
 10
1.20269
 20
0.298828
 30
0.0
 40
0
 41
0
  0
VERTEX
  8
0
 10
1.20231
 20
0.300672
 30
0.0
 40
0
 41
0
  0
VERTEX
  8
0
 10
1.20199
 20
0.302518
 30
0.0
 40
0
 41
0
  0
VERTEX
  8
0
 10
1.20638
 20
0.302518
 30
0.0
 40
0
 41
0
  0
SEQEND
 8
0
  0
POLYLINE
  8
0
 62
     7
 66
     1
 10
0
 20
0
 30
0.0
 70
     1
 40
0
 41
0
  0
VERTEX
  8
0
 10
1.23112
 20
0.372993
 30
0.0
 40
0
 41
0
  0
VERTEX
  8
0
 10
1.2315
 20
0.371907
 30
0.0
 40
0
 41
0
  0
VERTEX
  8
0
 10
1.2315
 20
0.370443
 30
0.0
 40
0
 41
0
  0
VERTEX
  8
0
 10
1.23188
 20
0.369303
 30
0.0
 40
0
 41
0
  0
VERTEX
  8
0
 10
1.23188
 20
0.367839
 30
0.0
 40
0
 41
0
  0
VERTEX
  8
0
 10
1.23221
 20
0.367133
 30
0.0
 40
0
 41
0
  0
VERTEX
  8
0
 10
1.23221
 20
0.366374
 30
0.0
 40
0
 41
0
  0
VERTEX
  8
0
 10
1.2245
 20
0.36339
 30
0.0
 40
0
 41
0
  0
VERTEX
  8
0
 10
1.22412
 20
0.366754
 30
0.0
 40
0
 41
0
  0
VERTEX
  8
0
 10
1.22374
 20
0.370063
 30
0.0
 40
0
 41
0
  0
VERTEX
  8
0
 10
1.22336
 20
0.372667
 30
0.0
 40
0
 41
0
  0
VERTEX
  8
0
 10
1.23074
 20
0.374511
 30
0.0
 40
0
 41
0
  0
VERTEX
  8
0
 10
1.23112
 20
0.373753
 30
0.0
 40
0
 41
0
  0
VERTEX
  8
0
 10
1.23112
 20
0.372993
 30
0.0
 40
0
 41
0
  0
SEQEND
 8
0
  0
POLYLINE
  8
0
 62
     7
 66
     1
 10
0
 20
0
 30
0.0
 70
     1
 40
0
 41
0
  0
VERTEX
  8
0
 10
1.23188
 20
0.380371
 30
0.0
 40
0
 41
0
  0
VERTEX
  8
0
 10
1.2289
 20
0.380371
 30
0.0
 40
0
 41
0
  0
VERTEX
  8
0
 10
1.22927
 20
0.380046
 30
0.0
 40
0
 41
0
  0
VERTEX
  8
0
 10
1.22966
 20
0.379665
 30
0.0
 40
0
 41
0
  0
VERTEX
  8
0
 10
1.22966
 20
0.378907
 30
0.0
 40
0
 41
0
  0
VERTEX
  8
0
 10
1.23003
 20
0.378201
 30
0.0
 40
0
 41
0
  0
VERTEX
  8
0
 10
1.23036
 20
0.377442
 30
0.0
 40
0
 41
0
  0
VERTEX
  8
0
 10
1.23036
 20
0.376682
 30
0.0
 40
0
 41
0
  0
VERTEX
  8
0
 10
1.23074
 20
0.375976
 30
0.0
 40
0
 41
0
  0
VERTEX
  8
0
 10
1.23074
 20
0.374511
 30
0.0
 40
0
 41
0
  0
VERTEX
  8
0
 10
1.22336
 20
0.372667
 30
0.0
 40
0
 41
0
  0
VERTEX
  8
0
 10
1.22266
 20
0.375217
 30
0.0
 40
0
 41
0
  0
VERTEX
  8
0
 10
1.2219
 20
0.377442
 30
0.0
 40
0
 41
0
  0
VERTEX
  8
0
 10
1.22081
 20
0.379286
 30
0.0
 40
0
 41
0
  0
VERTEX
  8
0
 10
1.21929
 20
0.380371
 30
0.0
 40
0
 41
0
  0
VERTEX
  8
0
 10
1.21522
 20
0.380371
 30
0.0
 40
0
 41
0
  0
VERTEX
  8
0
 10
1.21452
 20
0.380046
 30
0.0
 40
0
 41
0
  0
VERTEX
  8
0
 10
1.21376
 20
0.379665
 30
0.0
 40
0
 41
0
  0
VERTEX
  8
0
 10
1.21305
 20
0.379286
 30
0.0
 40
0
 41
0
  0
VERTEX
  8
0
 10
1.21267
 20
0.378907
 30
0.0
 40
0
 41
0
  0
VERTEX
  8
0
 10
1.21191
 20
0.378526
 30
0.0
 40
0
 41
0
  0
VERTEX
  8
0
 10
1.21153
 20
0.377821
 30
0.0
 40
0
 41
0
  0
VERTEX
  8
0
 10
1.21121
 20
0.377061
 30
0.0
 40
0
 41
0
  0
VERTEX
  8
0
 10
1.21083
 20
0.376357
 30
0.0
 40
0
 41
0
  0
VERTEX
  8
0
 10
1.21083
 20
0.375597
 30
0.0
 40
0
 41
0
  0
VERTEX
  8
0
 10
1.21045
 20
0.374838
 30
0.0
 40
0
 41
0
  0
VERTEX
  8
0
 10
1.21045
 20
0.368218
 30
0.0
 40
0
 41
0
  0
VERTEX
  8
0
 10
1.21083
 20
0.367458
 30
0.0
 40
0
 41
0
  0
VERTEX
  8
0
 10
1.21121
 20
0.366754
 30
0.0
 40
0
 41
0
  0
VERTEX
  8
0
 10
1.21153
 20
0.365994
 30
0.0
 40
0
 41
0
  0
VERTEX
  8
0
 10
1.21191
 20
0.365289
 30
0.0
 40
0
 41
0
  0
VERTEX
  8
0
 10
1.21229
 20
0.364529
 30
0.0
 40
0
 41
0
  0
VERTEX
  8
0
 10
1.21267
 20
0.36415
 30
0.0
 40
0
 41
0
  0
VERTEX
  8
0
 10
1.21338
 20
0.36339
 30
0.0
 40
0
 41
0
  0
VERTEX
  8
0
 10
1.21376
 20
0.363064
 30
0.0
 40
0
 41
0
  0
VERTEX
  8
0
 10
1.21452
 20
0.362685
 30
0.0
 40
0
 41
0
  0
VERTEX
  8
0
 10
1.2156
 20
0.362304
 30
0.0
 40
0
 41
0
  0
VERTEX
  8
0
 10
1.21636
 20
0.361925
 30
0.0
 40
0
 41
0
  0
VERTEX
  8
0
 10
1.21821
 20
0.361925
 30
0.0
 40
0
 41
0
  0
VERTEX
  8
0
 10
1.21821
 20
0.347547
 30
0.0
 40
0
 41
0
  0
VERTEX
  8
0
 10
1.21376
 20
0.348307
 30
0.0
 40
0
 41
0
  0
VERTEX
  8
0
 10
1.21153
 20
0.349013
 30
0.0
 40
0
 41
0
  0
VERTEX
  8
0
 10
1.21007
 20
0.350151
 30
0.0
 40
0
 41
0
  0
VERTEX
  8
0
 10
1.20823
 20
0.351238
 30
0.0
 40
0
 41
0
  0
VERTEX
  8
0
 10
1.20676
 20
0.352322
 30
0.0
 40
0
 41
0
  0
VERTEX
  8
0
 10
1.20568
 20
0.353842
 30
0.0
 40
0
 41
0
  0
VERTEX
  8
0
 10
1.20454
 20
0.355686
 30
0.0
 40
0
 41
0
  0
VERTEX
  8
0
 10
1.20345
 20
0.357531
 30
0.0
 40
0
 41
0
  0
VERTEX
  8
0
 10
1.20269
 20
0.359375
 30
0.0
 40
0
 41
0
  0
VERTEX
  8
0
 10
1.20231
 20
0.361219
 30
0.0
 40
0
 41
0
  0
VERTEX
  8
0
 10
1.20161
 20
0.36339
 30
0.0
 40
0
 41
0
  0
VERTEX
  8
0
 10
1.20123
 20
0.365614
 30
0.0
 40
0
 41
0
  0
VERTEX
  8
0
 10
1.20085
 20
0.367458
 30
0.0
 40
0
 41
0
  0
VERTEX
  8
0
 10
1.20085
 20
0.375976
 30
0.0
 40
0
 41
0
  0
VERTEX
  8
0
 10
1.20123
 20
0.377821
 30
0.0
 40
0
 41
0
  0
VERTEX
  8
0
 10
1.20123
 20
0.380046
 30
0.0
 40
0
 41
0
  0
VERTEX
  8
0
 10
1.20161
 20
0.38189
 30
0.0
 40
0
 41
0
  0
VERTEX
  8
0
 10
1.20231
 20
0.383735
 30
0.0
 40
0
 41
0
  0
VERTEX
  8
0
 10
1.20269
 20
0.385579
 30
0.0
 40
0
 41
0
  0
VERTEX
  8
0
 10
1.20345
 20
0.387424
 30
0.0
 40
0
 41
0
  0
VERTEX
  8
0
 10
1.20454
 20
0.388889
 30
0.0
 40
0
 41
0
  0
VERTEX
  8
0
 10
1.20568
 20
0.390354
 30
0.0
 40
0
 41
0
  0
VERTEX
  8
0
 10
1.20676
 20
0.391818
 30
0.0
 40
0
 41
0
  0
VERTEX
  8
0
 10
1.20823
 20
0.392958
 30
0.0
 40
0
 41
0
  0
VERTEX
  8
0
 10
1.20969
 20
0.393664
 30
0.0
 40
0
 41
0
  0
VERTEX
  8
0
 10
1.21153
 20
0.394422
 30
0.0
 40
0
 41
0
  0
VERTEX
  8
0
 10
1.21338
 20
0.394803
 30
0.0
 40
0
 41
0
  0
VERTEX
  8
0
 10
1.2455
 20
0.394803
 30
0.0
 40
0
 41
0
  0
VERTEX
  8
0
 10
1.24626
 20
0.395182
 30
0.0
 40
0
 41
0
  0
VERTEX
  8
0
 10
1.24957
 20
0.395182
 30
0.0
 40
0
 41
0
  0
VERTEX
  8
0
 10
1.25033
 20
0.395508
 30
0.0
 40
0
 41
0
  0
VERTEX
  8
0
 10
1.25103
 20
0.395508
 30
0.0
 40
0
 41
0
  0
VERTEX
  8
0
 10
1.25179
 20
0.395888
 30
0.0
 40
0
 41
0
  0
VERTEX
  8
0
 10
1.25288
 20
0.395888
 30
0.0
 40
0
 41
0
  0
VERTEX
  8
0
 10
1.25363
 20
0.396268
 30
0.0
 40
0
 41
0
  0
VERTEX
  8
0
 10
1.25402
 20
0.396647
 30
0.0
 40
0
 41
0
  0
VERTEX
  8
0
 10
1.25439
 20
0.396647
 30
0.0
 40
0
 41
0
  0
VERTEX
  8
0
 10
1.25439
 20
0.382215
 30
0.0
 40
0
 41
0
  0
VERTEX
  8
0
 10
1.25402
 20
0.382215
 30
0.0
 40
0
 41
0
  0
VERTEX
  8
0
 10
1.25363
 20
0.38189
 30
0.0
 40
0
 41
0
  0
VERTEX
  8
0
 10
1.25326
 20
0.38189
 30
0.0
 40
0
 41
0
  0
VERTEX
  8
0
 10
1.25288
 20
0.381511
 30
0.0
 40
0
 41
0
  0
VERTEX
  8
0
 10
1.25179
 20
0.381511
 30
0.0
 40
0
 41
0
  0
VERTEX
  8
0
 10
1.25141
 20
0.381131
 30
0.0
 40
0
 41
0
  0
VERTEX
  8
0
 10
1.24919
 20
0.381131
 30
0.0
 40
0
 41
0
  0
VERTEX
  8
0
 10
1.25033
 20
0.380371
 30
0.0
 40
0
 41
0
  0
VERTEX
  8
0
 10
1.25103
 20
0.379286
 30
0.0
 40
0
 41
0
  0
VERTEX
  8
0
 10
1.25179
 20
0.378526
 30
0.0
 40
0
 41
0
  0
VERTEX
  8
0
 10
1.25255
 20
0.377442
 30
0.0
 40
0
 41
0
  0
VERTEX
  8
0
 10
1.25288
 20
0.376357
 30
0.0
 40
0
 41
0
  0
VERTEX
  8
0
 10
1.25363
 20
0.375217
 30
0.0
 40
0
 41
0
  0
VERTEX
  8
0
 10
1.25402
 20
0.374132
 30
0.0
 40
0
 41
0
  0
VERTEX
  8
0
 10
1.25439
 20
0.372993
 30
0.0
 40
0
 41
0
  0
VERTEX
  8
0
 10
1.25472
 20
0.371907
 30
0.0
 40
0
 41
0
  0
VERTEX
  8
0
 10
1.2551
 20
0.370822
 30
0.0
 40
0
 41
0
  0
VERTEX
  8
0
 10
1.2551
 20
0.369683
 30
0.0
 40
0
 41
0
  0
VERTEX
  8
0
 10
1.25548
 20
0.368599
 30
0.0
 40
0
 41
0
  0
VERTEX
  8
0
 10
1.25548
 20
0.367133
 30
0.0
 40
0
 41
0
  0
VERTEX
  8
0
 10
1.25586
 20
0.365994
 30
0.0
 40
0
 41
0
  0
VERTEX
  8
0
 10
1.25586
 20
0.361925
 30
0.0
 40
0
 41
0
  0
VERTEX
  8
0
 10
1.25548
 20
0.360081
 30
0.0
 40
0
 41
0
  0
VERTEX
  8
0
 10
1.25548
 20
0.358236
 30
0.0
 40
0
 41
0
  0
VERTEX
  8
0
 10
1.2551
 20
0.356771
 30
0.0
 40
0
 41
0
  0
VERTEX
  8
0
 10
1.25439
 20
0.354926
 30
0.0
 40
0
 41
0
  0
VERTEX
  8
0
 10
1.25363
 20
0.353461
 30
0.0
 40
0
 41
0
  0
VERTEX
  8
0
 10
1.25288
 20
0.352322
 30
0.0
 40
0
 41
0
  0
VERTEX
  8
0
 10
1.25217
 20
0.350857
 30
0.0
 40
0
 41
0
  0
VERTEX
  8
0
 10
1.25103
 20
0.349772
 30
0.0
 40
0
 41
0
  0
VERTEX
  8
0
 10
1.24995
 20
0.349013
 30
0.0
 40
0
 41
0
  0
VERTEX
  8
0
 10
1.24848
 20
0.347928
 30
0.0
 40
0
 41
0
  0
VERTEX
  8
0
 10
1.24734
 20
0.347168
 30
0.0
 40
0
 41
0
  0
VERTEX
  8
0
 10
1.2455
 20
0.346789
 30
0.0
 40
0
 41
0
  0
VERTEX
  8
0
 10
1.24403
 20
0.346083
 30
0.0
 40
0
 41
0
  0
VERTEX
  8
0
 10
1.24219
 20
0.346083
 30
0.0
 40
0
 41
0
  0
VERTEX
  8
0
 10
1.24034
 20
0.345703
 30
0.0
 40
0
 41
0
  0
VERTEX
  8
0
 10
1.23627
 20
0.346462
 30
0.0
 40
0
 41
0
  0
VERTEX
  8
0
 10
1.23296
 20
0.347547
 30
0.0
 40
0
 41
0
  0
VERTEX
  8
0
 10
1.23036
 20
0.349013
 30
0.0
 40
0
 41
0
  0
VERTEX
  8
0
 10
1.22819
 20
0.351617
 30
0.0
 40
0
 41
0
  0
VERTEX
  8
0
 10
1.22667
 20
0.354167
 30
0.0
 40
0
 41
0
  0
VERTEX
  8
0
 10
1.22559
 20
0.35715
 30
0.0
 40
0
 41
0
  0
VERTEX
  8
0
 10
1.22483
 20
0.360081
 30
0.0
 40
0
 41
0
  0
VERTEX
  8
0
 10
1.2245
 20
0.36339
 30
0.0
 40
0
 41
0
  0
VERTEX
  8
0
 10
1.23221
 20
0.366374
 30
0.0
 40
0
 41
0
  0
VERTEX
  8
0
 10
1.23258
 20
0.365289
 30
0.0
 40
0
 41
0
  0
VERTEX
  8
0
 10
1.23296
 20
0.364529
 30
0.0
 40
0
 41
0
  0
VERTEX
  8
0
 10
1.23334
 20
0.36415
 30
0.0
 40
0
 41
0
  0
VERTEX
  8
0
 10
1.23372
 20
0.36339
 30
0.0
 40
0
 41
0
  0
VERTEX
  8
0
 10
1.23405
 20
0.362685
 30
0.0
 40
0
 41
0
  0
VERTEX
  8
0
 10
1.23443
 20
0.362304
 30
0.0
 40
0
 41
0
  0
VERTEX
  8
0
 10
1.23481
 20
0.361546
 30
0.0
 40
0
 41
0
  0
VERTEX
  8
0
 10
1.23557
 20
0.361219
 30
0.0
 40
0
 41
0
  0
VERTEX
  8
0
 10
1.23627
 20
0.36084
 30
0.0
 40
0
 41
0
  0
VERTEX
  8
0
 10
1.23703
 20
0.36046
 30
0.0
 40
0
 41
0
  0
VERTEX
  8
0
 10
1.23774
 20
0.36046
 30
0.0
 40
0
 41
0
  0
VERTEX
  8
0
 10
1.2385
 20
0.360081
 30
0.0
 40
0
 41
0
  0
VERTEX
  8
0
 10
1.24034
 20
0.360081
 30
0.0
 40
0
 41
0
  0
VERTEX
  8
0
 10
1.24148
 20
0.36046
 30
0.0
 40
0
 41
0
  0
VERTEX
  8
0
 10
1.24219
 20
0.36046
 30
0.0
 40
0
 41
0
  0
VERTEX
  8
0
 10
1.24295
 20
0.36084
 30
0.0
 40
0
 41
0
  0
VERTEX
  8
0
 10
1.24333
 20
0.361219
 30
0.0
 40
0
 41
0
  0
VERTEX
  8
0
 10
1.24403
 20
0.361546
 30
0.0
 40
0
 41
0
  0
VERTEX
  8
0
 10
1.24441
 20
0.362304
 30
0.0
 40
0
 41
0
  0
VERTEX
  8
0
 10
1.24479
 20
0.362685
 30
0.0
 40
0
 41
0
  0
VERTEX
  8
0
 10
1.24517
 20
0.36339
 30
0.0
 40
0
 41
0
  0
VERTEX
  8
0
 10
1.2455
 20
0.36415
 30
0.0
 40
0
 41
0
  0
VERTEX
  8
0
 10
1.2455
 20
0.364908
 30
0.0
 40
0
 41
0
  0
VERTEX
  8
0
 10
1.24588
 20
0.365614
 30
0.0
 40
0
 41
0
  0
VERTEX
  8
0
 10
1.24588
 20
0.366374
 30
0.0
 40
0
 41
0
  0
VERTEX
  8
0
 10
1.24626
 20
0.367133
 30
0.0
 40
0
 41
0
  0
VERTEX
  8
0
 10
1.24626
 20
0.368978
 30
0.0
 40
0
 41
0
  0
VERTEX
  8
0
 10
1.24588
 20
0.370822
 30
0.0
 40
0
 41
0
  0
VERTEX
  8
0
 10
1.24588
 20
0.372667
 30
0.0
 40
0
 41
0
  0
VERTEX
  8
0
 10
1.24517
 20
0.374132
 30
0.0
 40
0
 41
0
  0
VERTEX
  8
0
 10
1.24479
 20
0.375597
 30
0.0
 40
0
 41
0
  0
VERTEX
  8
0
 10
1.24403
 20
0.376682
 30
0.0
 40
0
 41
0
  0
VERTEX
  8
0
 10
1.24333
 20
0.377442
 30
0.0
 40
0
 41
0
  0
VERTEX
  8
0
 10
1.24219
 20
0.378201
 30
0.0
 40
0
 41
0
  0
VERTEX
  8
0
 10
1.24148
 20
0.378907
 30
0.0
 40
0
 41
0
  0
VERTEX
  8
0
 10
1.24034
 20
0.379286
 30
0.0
 40
0
 41
0
  0
VERTEX
  8
0
 10
1.23926
 20
0.379665
 30
0.0
 40
0
 41
0
  0
VERTEX
  8
0
 10
1.2385
 20
0.380046
 30
0.0
 40
0
 41
0
  0
VERTEX
  8
0
 10
1.23741
 20
0.380371
 30
0.0
 40
0
 41
0
  0
VERTEX
  8
0
 10
1.23188
 20
0.380371
 30
0.0
 40
0
 41
0
  0
SEQEND
 8
0
  0
POLYLINE
  8
0
 62
     7
 66
     1
 10
0
 20
0
 30
0.0
 70
     1
 40
0
 41
0
  0
VERTEX
  8
0
 10
1.21674
 20
0.422092
 30
0.0
 40
0
 41
0
  0
VERTEX
  8
0
 10
1.21897
 20
0.420247
 30
0.0
 40
0
 41
0
  0
VERTEX
  8
0
 10
1.22152
 20
0.418782
 30
0.0
 40
0
 41
0
  0
VERTEX
  8
0
 10
1.22412
 20
0.418024
 30
0.0
 40
0
 41
0
  0
VERTEX
  8
0
 10
1.22743
 20
0.417318
 30
0.0
 40
0
 41
0
  0
VERTEX
  8
0
 10
1.25439
 20
0.417318
 30
0.0
 40
0
 41
0
  0
VERTEX
  8
0
 10
1.25439
 20
0.402886
 30
0.0
 40
0
 41
0
  0
VERTEX
  8
0
 10
1.20454
 20
0.402886
 30
0.0
 40
0
 41
0
  0
VERTEX
  8
0
 10
1.20416
 20
0.404731
 30
0.0
 40
0
 41
0
  0
VERTEX
  8
0
 10
1.20383
 20
0.40625
 30
0.0
 40
0
 41
0
  0
VERTEX
  8
0
 10
1.20383
 20
0.408094
 30
0.0
 40
0
 41
0
  0
VERTEX
  8
0
 10
1.20345
 20
0.409939
 30
0.0
 40
0
 41
0
  0
VERTEX
  8
0
 10
1.20307
 20
0.411404
 30
0.0
 40
0
 41
0
  0
VERTEX
  8
0
 10
1.20231
 20
0.415093
 30
0.0
 40
0
 41
0
  0
VERTEX
  8
0
 10
1.20199
 20
0.416558
 30
0.0
 40
0
 41
0
  0
VERTEX
  8
0
 10
1.21191
 20
0.416558
 30
0.0
 40
0
 41
0
  0
VERTEX
  8
0
 10
1.20936
 20
0.418024
 30
0.0
 40
0
 41
0
  0
VERTEX
  8
0
 10
1.20752
 20
0.419542
 30
0.0
 40
0
 41
0
  0
VERTEX
  8
0
 10
1.2053
 20
0.421386
 30
0.0
 40
0
 41
0
  0
VERTEX
  8
0
 10
1.20383
 20
0.423232
 30
0.0
 40
0
 41
0
  0
VERTEX
  8
0
 10
1.20231
 20
0.425782
 30
0.0
 40
0
 41
0
  0
VERTEX
  8
0
 10
1.20161
 20
0.428006
 30
0.0
 40
0
 41
0
  0
VERTEX
  8
0
 10
1.20085
 20
0.43061
 30
0.0
 40
0
 41
0
  0
VERTEX
  8
0
 10
1.20085
 20
0.435764
 30
0.0
 40
0
 41
0
  0
VERTEX
  8
0
 10
1.20123
 20
0.436143
 30
0.0
 40
0
 41
0
  0
VERTEX
  8
0
 10
1.20123
 20
0.436524
 30
0.0
 40
0
 41
0
  0
VERTEX
  8
0
 10
1.21452
 20
0.436524
 30
0.0
 40
0
 41
0
  0
VERTEX
  8
0
 10
1.21452
 20
0.436143
 30
0.0
 40
0
 41
0
  0
VERTEX
  8
0
 10
1.21414
 20
0.435385
 30
0.0
 40
0
 41
0
  0
VERTEX
  8
0
 10
1.21414
 20
0.431315
 30
0.0
 40
0
 41
0
  0
VERTEX
  8
0
 10
1.21452
 20
0.427626
 30
0.0
 40
0
 41
0
  0
VERTEX
  8
0
 10
1.21522
 20
0.424696
 30
0.0
 40
0
 41
0
  0
VERTEX
  8
0
 10
1.21674
 20
0.422092
 30
0.0
 40
0
 41
0
  0
SEQEND
 8
0
  0
POLYLINE
  8
0
 62
     7
 66
     1
 10
0
 20
0
 30
0.0
 70
     1
 40
0
 41
0
  0
VERTEX
  8
0
 10
1.20199
 20
0.474501
 30
0.0
 40
0
 41
0
  0
VERTEX
  8
0
 10
1.20199
 20
0.491482
 30
0.0
 40
0
 41
0
  0
VERTEX
  8
0
 10
1.22114
 20
0.471951
 30
0.0
 40
0
 41
0
  0
VERTEX
  8
0
 10
1.25439
 20
0.493707
 30
0.0
 40
0
 41
0
  0
VERTEX
  8
0
 10
1.25439
 20
0.476346
 30
0.0
 40
0
 41
0
  0
VERTEX
  8
0
 10
1.23112
 20
0.461968
 30
0.0
 40
0
 41
0
  0
VERTEX
  8
0
 10
1.23627
 20
0.456435
 30
0.0
 40
0
 41
0
  0
VERTEX
  8
0
 10
1.25439
 20
0.456435
 30
0.0
 40
0
 41
0
  0
VERTEX
  8
0
 10
1.25439
 20
0.442057
 30
0.0
 40
0
 41
0
  0
VERTEX
  8
0
 10
1.19016
 20
0.442057
 30
0.0
 40
0
 41
0
  0
VERTEX
  8
0
 10
1.1824
 20
0.456435
 30
0.0
 40
0
 41
0
  0
VERTEX
  8
0
 10
1.22081
 20
0.456435
 30
0.0
 40
0
 41
0
  0
VERTEX
  8
0
 10
1.20199
 20
0.474501
 30
0.0
 40
0
 41
0
  0
SEQEND
 8
0
  0
POLYLINE
  8
0
 62
     7
 66
     1
 10
0
 20
0
 30
0.0
 70
     1
 40
0
 41
0
  0
VERTEX
  8
0
 10
1.18647
 20
0.527289
 30
0.0
 40
0
 41
0
  0
VERTEX
  8
0
 10
1.19309
 20
0.527289
 30
0.0
 40
0
 41
0
  0
VERTEX
  8
0
 10
1.19309
 20
0.520996
 30
0.0
 40
0
 41
0
  0
VERTEX
  8
0
 10
1.19347
 20
0.519532
 30
0.0
 40
0
 41
0
  0
VERTEX
  8
0
 10
1.19385
 20
0.518826
 30
0.0
 40
0
 41
0
  0
VERTEX
  8
0
 10
1.19423
 20
0.518067
 30
0.0
 40
0
 41
0
  0
VERTEX
  8
0
 10
1.19531
 20
0.517307
 30
0.0
 40
0
 41
0
  0
VERTEX
  8
0
 10
1.19607
 20
0.516982
 30
0.0
 40
0
 41
0
  0
VERTEX
  8
0
 10
1.19754
 20
0.516982
 30
0.0
 40
0
 41
0
  0
VERTEX
  8
0
 10
1.199
 20
0.516601
 30
0.0
 40
0
 41
0
  0
VERTEX
  8
0
 10
1.20199
 20
0.516601
 30
0.0
 40
0
 41
0
  0
VERTEX
  8
0
 10
1.20199
 20
0.526531
 30
0.0
 40
0
 41
0
  0
VERTEX
  8
0
 10
1.21153
 20
0.526531
 30
0.0
 40
0
 41
0
  0
VERTEX
  8
0
 10
1.21153
 20
0.516601
 30
0.0
 40
0
 41
0
  0
VERTEX
  8
0
 10
1.25439
 20
0.516601
 30
0.0
 40
0
 41
0
  0
VERTEX
  8
0
 10
1.25439
 20
0.50255
 30
0.0
 40
0
 41
0
  0
VERTEX
  8
0
 10
1.21153
 20
0.50255
 30
0.0
 40
0
 41
0
  0
VERTEX
  8
0
 10
1.21153
 20
0.488172
 30
0.0
 40
0
 41
0
  0
VERTEX
  8
0
 10
1.21045
 20
0.489637
 30
0.0
 40
0
 41
0
  0
VERTEX
  8
0
 10
1.20936
 20
0.490776
 30
0.0
 40
0
 41
0
  0
VERTEX
  8
0
 10
1.20823
 20
0.491863
 30
0.0
 40
0
 41
0
  0
VERTEX
  8
0
 10
1.20676
 20
0.493326
 30
0.0
 40
0
 41
0
  0
VERTEX
  8
0
 10
1.20568
 20
0.494467
 30
0.0
 40
0
 41
0
  0
VERTEX
  8
0
 10
1.20454
 20
0.495551
 30
0.0
 40
0
 41
0
  0
VERTEX
  8
0
 10
1.20345
 20
0.497017
 30
0.0
 40
0
 41
0
  0
VERTEX
  8
0
 10
1.20199
 20
0.498156
 30
0.0
 40
0
 41
0
  0
VERTEX
  8
0
 10
1.20199
 20
0.50255
 30
0.0
 40
0
 41
0
  0
VERTEX
  8
0
 10
1.19461
 20
0.50255
 30
0.0
 40
0
 41
0
  0
VERTEX
  8
0
 10
1.19162
 20
0.503689
 30
0.0
 40
0
 41
0
  0
VERTEX
  8
0
 10
1.18902
 20
0.504775
 30
0.0
 40
0
 41
0
  0
VERTEX
  8
0
 10
1.18685
 20
0.506619
 30
0.0
 40
0
 41
0
  0
VERTEX
  8
0
 10
1.185
 20
0.509224
 30
0.0
 40
0
 41
0
  0
VERTEX
  8
0
 10
1.18348
 20
0.512153
 30
0.0
 40
0
 41
0
  0
VERTEX
  8
0
 10
1.1824
 20
0.515842
 30
0.0
 40
0
 41
0
  0
VERTEX
  8
0
 10
1.1824
 20
0.526531
 30
0.0
 40
0
 41
0
  0
VERTEX
  8
0
 10
1.18278
 20
0.527289
 30
0.0
 40
0
 41
0
  0
VERTEX
  8
0
 10
1.18647
 20
0.527289
 30
0.0
 40
0
 41
0
  0
SEQEND
 8
0
  0
POLYLINE
  8
0
 62
     7
 66
     1
 10
0
 20
0
 30
0.0
 70
     1
 40
0
 41
0
  0
VERTEX
  8
0
 10
1.20936
 20
0.545031
 30
0.0
 40
0
 41
0
  0
VERTEX
  8
0
 10
1.2315
 20
0.545031
 30
0.0
 40
0
 41
0
  0
VERTEX
  8
0
 10
1.23443
 20
0.545356
 30
0.0
 40
0
 41
0
  0
VERTEX
  8
0
 10
1.23741
 20
0.545736
 30
0.0
 40
0
 41
0
  0
VERTEX
  8
0
 10
1.23958
 20
0.546115
 30
0.0
 40
0
 41
0
  0
VERTEX
  8
0
 10
1.2411
 20
0.5472
 30
0.0
 40
0
 41
0
  0
VERTEX
  8
0
 10
1.24257
 20
0.54834
 30
0.0
 40
0
 41
0
  0
VERTEX
  8
0
 10
1.24365
 20
0.550185
 30
0.0
 40
0
 41
0
  0
VERTEX
  8
0
 10
1.24403
 20
0.552029
 30
0.0
 40
0
 41
0
  0
VERTEX
  8
0
 10
1.24441
 20
0.554254
 30
0.0
 40
0
 41
0
  0
VERTEX
  8
0
 10
1.24403
 20
0.557183
 30
0.0
 40
0
 41
0
  0
VERTEX
  8
0
 10
1.24365
 20
0.559407
 30
0.0
 40
0
 41
0
  0
VERTEX
  8
0
 10
1.24257
 20
0.561253
 30
0.0
 40
0
 41
0
  0
VERTEX
  8
0
 10
1.2411
 20
0.562717
 30
0.0
 40
0
 41
0
  0
VERTEX
  8
0
 10
1.23888
 20
0.563857
 30
0.0
 40
0
 41
0
  0
VERTEX
  8
0
 10
1.23627
 20
0.564942
 30
0.0
 40
0
 41
0
  0
VERTEX
  8
0
 10
1.23334
 20
0.565321
 30
0.0
 40
0
 41
0
  0
VERTEX
  8
0
 10
1.20199
 20
0.565321
 30
0.0
 40
0
 41
0
  0
VERTEX
  8
0
 10
1.20199
 20
0.579699
 30
0.0
 40
0
 41
0
  0
VERTEX
  8
0
 10
1.25439
 20
0.579699
 30
0.0
 40
0
 41
0
  0
VERTEX
  8
0
 10
1.25439
 20
0.566026
 30
0.0
 40
0
 41
0
  0
VERTEX
  8
0
 10
1.24702
 20
0.566026
 30
0.0
 40
0
 41
0
  0
VERTEX
  8
0
 10
1.24702
 20
0.565701
 30
0.0
 40
0
 41
0
  0
VERTEX
  8
0
 10
1.24919
 20
0.564182
 30
0.0
 40
0
 41
0
  0
VERTEX
  8
0
 10
1.25103
 20
0.562717
 30
0.0
 40
0
 41
0
  0
VERTEX
  8
0
 10
1.25255
 20
0.560872
 30
0.0
 40
0
 41
0
  0
VERTEX
  8
0
 10
1.25363
 20
0.558649
 30
0.0
 40
0
 41
0
  0
VERTEX
  8
0
 10
1.25439
 20
0.556803
 30
0.0
 40
0
 41
0
  0
VERTEX
  8
0
 10
1.2551
 20
0.554633
 30
0.0
 40
0
 41
0
  0
VERTEX
  8
0
 10
1.25548
 20
0.552029
 30
0.0
 40
0
 41
0
  0
VERTEX
  8
0
 10
1.25586
 20
0.549804
 30
0.0
 40
0
 41
0
  0
VERTEX
  8
0
 10
1.25548
 20
0.54465
 30
0.0
 40
0
 41
0
  0
VERTEX
  8
0
 10
1.25402
 20
0.540582
 30
0.0
 40
0
 41
0
  0
VERTEX
  8
0
 10
1.25217
 20
0.537272
 30
0.0
 40
0
 41
0
  0
VERTEX
  8
0
 10
1.24995
 20
0.534668
 30
0.0
 40
0
 41
0
  0
VERTEX
  8
0
 10
1.24664
 20
0.532824
 30
0.0
 40
0
 41
0
  0
VERTEX
  8
0
 10
1.24295
 20
0.531739
 30
0.0
 40
0
 41
0
  0
VERTEX
  8
0
 10
1.23888
 20
0.530979
 30
0.0
 40
0
 41
0
  0
VERTEX
  8
0
 10
1.20199
 20
0.530979
 30
0.0
 40
0
 41
0
  0
VERTEX
  8
0
 10
1.20199
 20
0.545031
 30
0.0
 40
0
 41
0
  0
VERTEX
  8
0
 10
1.20936
 20
0.545031
 30
0.0
 40
0
 41
0
  0
SEQEND
 8
0
  0
POLYLINE
  8
0
 62
     7
 66
     1
 10
0
 20
0
 30
0.0
 70
     1
 40
0
 41
0
  0
VERTEX
  8
0
 10
1.24702
 20
0.622125
 30
0.0
 40
0
 41
0
  0
VERTEX
  8
0
 10
1.22483
 20
0.622125
 30
0.0
 40
0
 41
0
  0
VERTEX
  8
0
 10
1.2219
 20
0.621799
 30
0.0
 40
0
 41
0
  0
VERTEX
  8
0
 10
1.21929
 20
0.621419
 30
0.0
 40
0
 41
0
  0
VERTEX
  8
0
 10
1.21707
 20
0.621039
 30
0.0
 40
0
 41
0
  0
VERTEX
  8
0
 10
1.21522
 20
0.619954
 30
0.0
 40
0
 41
0
  0
VERTEX
  8
0
 10
1.21376
 20
0.618815
 30
0.0
 40
0
 41
0
  0
VERTEX
  8
0
 10
1.21267
 20
0.616971
 30
0.0
 40
0
 41
0
  0
VERTEX
  8
0
 10
1.21229
 20
0.615126
 30
0.0
 40
0
 41
0
  0
VERTEX
  8
0
 10
1.21191
 20
0.612901
 30
0.0
 40
0
 41
0
  0
VERTEX
  8
0
 10
1.21229
 20
0.609972
 30
0.0
 40
0
 41
0
  0
VERTEX
  8
0
 10
1.21267
 20
0.607747
 30
0.0
 40
0
 41
0
  0
VERTEX
  8
0
 10
1.21376
 20
0.605903
 30
0.0
 40
0
 41
0
  0
VERTEX
  8
0
 10
1.2156
 20
0.604438
 30
0.0
 40
0
 41
0
  0
VERTEX
  8
0
 10
1.21745
 20
0.603353
 30
0.0
 40
0
 41
0
  0
VERTEX
  8
0
 10
1.22005
 20
0.602214
 30
0.0
 40
0
 41
0
  0
VERTEX
  8
0
 10
1.22336
 20
0.601833
 30
0.0
 40
0
 41
0
  0
VERTEX
  8
0
 10
1.25439
 20
0.601833
 30
0.0
 40
0
 41
0
  0
VERTEX
  8
0
 10
1.25439
 20
0.587457
 30
0.0
 40
0
 41
0
  0
VERTEX
  8
0
 10
1.20199
 20
0.587457
 30
0.0
 40
0
 41
0
  0
VERTEX
  8
0
 10
1.20199
 20
0.601129
 30
0.0
 40
0
 41
0
  0
VERTEX
  8
0
 10
1.20936
 20
0.601129
 30
0.0
 40
0
 41
0
  0
VERTEX
  8
0
 10
1.20936
 20
0.601508
 30
0.0
 40
0
 41
0
  0
VERTEX
  8
0
 10
1.20714
 20
0.602974
 30
0.0
 40
0
 41
0
  0
VERTEX
  8
0
 10
1.20568
 20
0.604438
 30
0.0
 40
0
 41
0
  0
VERTEX
  8
0
 10
1.20416
 20
0.606282
 30
0.0
 40
0
 41
0
  0
VERTEX
  8
0
 10
1.20269
 20
0.608507
 30
0.0
 40
0
 41
0
  0
VERTEX
  8
0
 10
1.20199
 20
0.610732
 30
0.0
 40
0
 41
0
  0
VERTEX
  8
0
 10
1.20123
 20
0.612901
 30
0.0
 40
0
 41
0
  0
VERTEX
  8
0
 10
1.20085
 20
0.615126
 30
0.0
 40
0
 41
0
  0
VERTEX
  8
0
 10
1.20085
 20
0.61735
 30
0.0
 40
0
 41
0
  0
VERTEX
  8
0
 10
1.20123
 20
0.622504
 30
0.0
 40
0
 41
0
  0
VERTEX
  8
0
 10
1.20231
 20
0.626574
 30
0.0
 40
0
 41
0
  0
VERTEX
  8
0
 10
1.20416
 20
0.629883
 30
0.0
 40
0
 41
0
  0
VERTEX
  8
0
 10
1.20676
 20
0.632488
 30
0.0
 40
0
 41
0
  0
VERTEX
  8
0
 10
1.20969
 20
0.634332
 30
0.0
 40
0
 41
0
  0
VERTEX
  8
0
 10
1.21338
 20
0.635417
 30
0.0
 40
0
 41
0
  0
VERTEX
  8
0
 10
1.21745
 20
0.636176
 30
0.0
 40
0
 41
0
  0
VERTEX
  8
0
 10
1.22228
 20
0.636556
 30
0.0
 40
0
 41
0
  0
VERTEX
  8
0
 10
1.25439
 20
0.636556
 30
0.0
 40
0
 41
0
  0
VERTEX
  8
0
 10
1.25439
 20
0.622125
 30
0.0
 40
0
 41
0
  0
VERTEX
  8
0
 10
1.24702
 20
0.622125
 30
0.0
 40
0
 41
0
  0
SEQEND
 8
0
  0
POLYLINE
  8
0
 62
     7
 66
     1
 10
0
 20
0
 30
0.0
 70
     1
 40
0
 41
0
  0
VERTEX
  8
0
 10
1.13552
 20
0.501465
 30
0.0
 40
0
 41
0
  0
VERTEX
  8
0
 10
1.13737
 20
0.5
 30
0.0
 40
0
 41
0
  0
VERTEX
  8
0
 10
1.13883
 20
0.497775
 30
0.0
 40
0
 41
0
  0
VERTEX
  8
0
 10
1.13959
 20
0.494792
 30
0.0
 40
0
 41
0
  0
VERTEX
  8
0
 10
1.13959
 20
0.491863
 30
0.0
 40
0
 41
0
  0
VERTEX
  8
0
 10
1.13921
 20
0.490018
 30
0.0
 40
0
 41
0
  0
VERTEX
  8
0
 10
1.13846
 20
0.488172
 30
0.0
 40
0
 41
0
  0
VERTEX
  8
0
 10
1.13775
 20
0.487088
 30
0.0
 40
0
 41
0
  0
VERTEX
  8
0
 10
1.13661
 20
0.485949
 30
0.0
 40
0
 41
0
  0
VERTEX
  8
0
 10
1.13515
 20
0.485243
 30
0.0
 40
0
 41
0
  0
VERTEX
  8
0
 10
1.13406
 20
0.484864
 30
0.0
 40
0
 41
0
  0
VERTEX
  8
0
 10
1.13292
 20
0.484864
 30
0.0
 40
0
 41
0
  0
VERTEX
  8
0
 10
1.13184
 20
0.485243
 30
0.0
 40
0
 41
0
  0
VERTEX
  8
0
 10
1.13075
 20
0.485949
 30
0.0
 40
0
 41
0
  0
VERTEX
  8
0
 10
1.12999
 20
0.486708
 30
0.0
 40
0
 41
0
  0
VERTEX
  8
0
 10
1.12923
 20
0.487414
 30
0.0
 40
0
 41
0
  0
VERTEX
  8
0
 10
1.12891
 20
0.488553
 30
0.0
 40
0
 41
0
  0
VERTEX
  8
0
 10
1.12853
 20
0.489258
 30
0.0
 40
0
 41
0
  0
VERTEX
  8
0
 10
1.12815
 20
0.490018
 30
0.0
 40
0
 41
0
  0
VERTEX
  8
0
 10
1.12777
 20
0.490397
 30
0.0
 40
0
 41
0
  0
VERTEX
  8
0
 10
1.12739
 20
0.489637
 30
0.0
 40
0
 41
0
  0
VERTEX
  8
0
 10
1.12739
 20
0.488932
 30
0.0
 40
0
 41
0
  0
VERTEX
  8
0
 10
1.12706
 20
0.487414
 30
0.0
 40
0
 41
0
  0
VERTEX
  8
0
 10
1.12706
 20
0.484483
 30
0.0
 40
0
 41
0
  0
VERTEX
  8
0
 10
1.12739
 20
0.48226
 30
0.0
 40
0
 41
0
  0
VERTEX
  8
0
 10
1.12891
 20
0.478569
 30
0.0
 40
0
 41
0
  0
VERTEX
  8
0
 10
1.12999
 20
0.477106
 30
0.0
 40
0
 41
0
  0
VERTEX
  8
0
 10
1.13108
 20
0.475261
 30
0.0
 40
0
 41
0
  0
VERTEX
  8
0
 10
1.13292
 20
0.474121
 30
0.0
 40
0
 41
0
  0
VERTEX
  8
0
 10
1.13515
 20
0.473036
 30
0.0
 40
0
 41
0
  0
VERTEX
  8
0
 10
1.13737
 20
0.472276
 30
0.0
 40
0
 41
0
  0
VERTEX
  8
0
 10
1.14068
 20
0.471951
 30
0.0
 40
0
 41
0
  0
VERTEX
  8
0
 10
1.14399
 20
0.471571
 30
0.0
 40
0
 41
0
  0
VERTEX
  8
0
 10
1.19124
 20
0.471571
 30
0.0
 40
0
 41
0
  0
VERTEX
  8
0
 10
1.19124
 20
0.471951
 30
0.0
 40
0
 41
0
  0
VERTEX
  8
0
 10
1.19016
 20
0.472657
 30
0.0
 40
0
 41
0
  0
VERTEX
  8
0
 10
1.18902
 20
0.473796
 30
0.0
 40
0
 41
0
  0
VERTEX
  8
0
 10
1.18755
 20
0.474881
 30
0.0
 40
0
 41
0
  0
VERTEX
  8
0
 10
1.18571
 20
0.476725
 30
0.0
 40
0
 41
0
  0
VERTEX
  8
0
 10
1.18348
 20
0.478569
 30
0.0
 40
0
 41
0
  0
VERTEX
  8
0
 10
1.18132
 20
0.480794
 30
0.0
 40
0
 41
0
  0
VERTEX
  8
0
 10
1.17871
 20
0.482639
 30
0.0
 40
0
 41
0
  0
VERTEX
  8
0
 10
1.17394
 20
0.487414
 30
0.0
 40
0
 41
0
  0
VERTEX
  8
0
 10
1.17171
 20
0.489258
 30
0.0
 40
0
 41
0
  0
VERTEX
  8
0
 10
1.17019
 20
0.491103
 30
0.0
 40
0
 41
0
  0
VERTEX
  8
0
 10
1.16873
 20
0.492947
 30
0.0
 40
0
 41
0
  0
VERTEX
  8
0
 10
1.16764
 20
0.494792
 30
0.0
 40
0
 41
0
  0
VERTEX
  8
0
 10
1.16726
 20
0.497017
 30
0.0
 40
0
 41
0
  0
VERTEX
  8
0
 10
1.16726
 20
0.504015
 30
0.0
 40
0
 41
0
  0
VERTEX
  8
0
 10
1.1665
 20
0.508464
 30
0.0
 40
0
 41
0
  0
VERTEX
  8
0
 10
1.16542
 20
0.512532
 30
0.0
 40
0
 41
0
  0
VERTEX
  8
0
 10
1.16395
 20
0.516222
 30
0.0
 40
0
 41
0
  0
VERTEX
  8
0
 10
1.16173
 20
0.519911
 30
0.0
 40
0
 41
0
  0
VERTEX
  8
0
 10
1.15913
 20
0.52284
 30
0.0
 40
0
 41
0
  0
VERTEX
  8
0
 10
1.1562
 20
0.525825
 30
0.0
 40
0
 41
0
  0
VERTEX
  8
0
 10
1.15289
 20
0.528375
 30
0.0
 40
0
 41
0
  0
VERTEX
  8
0
 10
1.14621
 20
0.532118
 30
0.0
 40
0
 41
0
  0
VERTEX
  8
0
 10
1.13959
 20
0.533963
 30
0.0
 40
0
 41
0
  0
VERTEX
  8
0
 10
1.13292
 20
0.534289
 30
0.0
 40
0
 41
0
  0
VERTEX
  8
0
 10
1.12706
 20
0.533203
 30
0.0
 40
0
 41
0
  0
VERTEX
  8
0
 10
1.12185
 20
0.531358
 30
0.0
 40
0
 41
0
  0
VERTEX
  8
0
 10
1.11746
 20
0.528754
 30
0.0
 40
0
 41
0
  0
VERTEX
  8
0
 10
1.11409
 20
0.525825
 30
0.0
 40
0
 41
0
  0
VERTEX
  8
0
 10
1.11263
 20
0.52284
 30
0.0
 40
0
 41
0
  0
VERTEX
  8
0
 10
1.11561
 20
0.52284
 30
0.0
 40
0
 41
0
  0
VERTEX
  8
0
 10
1.1167
 20
0.522515
 30
0.0
 40
0
 41
0
  0
VERTEX
  8
0
 10
1.11778
 20
0.522136
 30
0.0
 40
0
 41
0
  0
VERTEX
  8
0
 10
1.11854
 20
0.520996
 30
0.0
 40
0
 41
0
  0
VERTEX
  8
0
 10
1.11892
 20
0.519911
 30
0.0
 40
0
 41
0
  0
VERTEX
  8
0
 10
1.11892
 20
0.517307
 30
0.0
 40
0
 41
0
  0
VERTEX
  8
0
 10
1.11816
 20
0.515842
 30
0.0
 40
0
 41
0
  0
VERTEX
  8
0
 10
1.11746
 20
0.514378
 30
0.0
 40
0
 41
0
  0
VERTEX
  8
0
 10
1.1167
 20
0.513292
 30
0.0
 40
0
 41
0
  0
VERTEX
  8
0
 10
1.11561
 20
0.511774
 30
0.0
 40
0
 41
0
  0
VERTEX
  8
0
 10
1.11485
 20
0.510688
 30
0.0
 40
0
 41
0
  0
VERTEX
  8
0
 10
1.11377
 20
0.509603
 30
0.0
 40
0
 41
0
  0
VERTEX
  8
0
 10
1.11225
 20
0.508843
 30
0.0
 40
0
 41
0
  0
VERTEX
  8
0
 10
1.11117
 20
0.508083
 30
0.0
 40
0
 41
0
  0
VERTEX
  8
0
 10
1.1097
 20
0.507758
 30
0.0
 40
0
 41
0
  0
VERTEX
  8
0
 10
1.10856
 20
0.507379
 30
0.0
 40
0
 41
0
  0
VERTEX
  8
0
 10
1.10748
 20
0.507758
 30
0.0
 40
0
 41
0
  0
VERTEX
  8
0
 10
1.10672
 20
0.508083
 30
0.0
 40
0
 41
0
  0
VERTEX
  8
0
 10
1.10563
 20
0.508464
 30
0.0
 40
0
 41
0
  0
VERTEX
  8
0
 10
1.10455
 20
0.509224
 30
0.0
 40
0
 41
0
  0
VERTEX
  8
0
 10
1.10341
 20
0.510688
 30
0.0
 40
0
 41
0
  0
VERTEX
  8
0
 10
1.1027
 20
0.512153
 30
0.0
 40
0
 41
0
  0
VERTEX
  8
0
 10
1.10232
 20
0.513997
 30
0.0
 40
0
 41
0
  0
VERTEX
  8
0
 10
1.10194
 20
0.515463
 30
0.0
 40
0
 41
0
  0
VERTEX
  8
0
 10
1.10194
 20
0.516601
 30
0.0
 40
0
 41
0
  0
VERTEX
  8
0
 10
1.10232
 20
0.517686
 30
0.0
 40
0
 41
0
  0
VERTEX
  8
0
 10
1.10232
 20
0.518826
 30
0.0
 40
0
 41
0
  0
VERTEX
  8
0
 10
1.10194
 20
0.518446
 30
0.0
 40
0
 41
0
  0
VERTEX
  8
0
 10
1.10086
 20
0.516982
 30
0.0
 40
0
 41
0
  0
VERTEX
  8
0
 10
1.09972
 20
0.514757
 30
0.0
 40
0
 41
0
  0
VERTEX
  8
0
 10
1.09863
 20
0.511774
 30
0.0
 40
0
 41
0
  0
VERTEX
  8
0
 10
1.09749
 20
0.508464
 30
0.0
 40
0
 41
0
  0
VERTEX
  8
0
 10
1.09749
 20
0.504775
 30
0.0
 40
0
 41
0
  0
VERTEX
  8
0
 10
1.09825
 20
0.500706
 30
0.0
 40
0
 41
0
  0
VERTEX
  8
0
 10
1.10048
 20
0.496636
 30
0.0
 40
0
 41
0
  0
VERTEX
  8
0
 10
1.10341
 20
0.493326
 30
0.0
 40
0
 41
0
  0
VERTEX
  8
0
 10
1.10601
 20
0.491482
 30
0.0
 40
0
 41
0
  0
VERTEX
  8
0
 10
1.10932
 20
0.490397
 30
0.0
 40
0
 41
0
  0
VERTEX
  8
0
 10
1.11225
 20
0.490397
 30
0.0
 40
0
 41
0
  0
VERTEX
  8
0
 10
1.11561
 20
0.491103
 30
0.0
 40
0
 41
0
  0
VERTEX
  8
0
 10
1.11892
 20
0.492947
 30
0.0
 40
0
 41
0
  0
VERTEX
  8
0
 10
1.12185
 20
0.495551
 30
0.0
 40
0
 41
0
  0
VERTEX
  8
0
 10
1.12522
 20
0.498481
 30
0.0
 40
0
 41
0
  0
VERTEX
  8
0
 10
1.12815
 20
0.501085
 30
0.0
 40
0
 41
0
  0
VERTEX
  8
0
 10
1.13075
 20
0.502171
 30
0.0
 40
0
 41
0
  0
VERTEX
  8
0
 10
1.1333
 20
0.502171
 30
0.0
 40
0
 41
0
  0
VERTEX
  8
0
 10
1.13552
 20
0.501465
 30
0.0
 40
0
 41
0
  0
SEQEND
 8
0
  0
POLYLINE
  8
0
 62
     32
 66
     1
 10
0
 20
0
 30
0.0
 70
     1
 40
0
 41
0
  0
VERTEX
  8
0
 10
0.615018
 20
0.719943
 30
0.0
 40
0
 41
0
  0
VERTEX
  8
0
 10
0.63189
 20
0.719943
 30
0.0
 40
0
 41
0
  0
VERTEX
  8
0
 10
0.63189
 20
0.691786
 30
0.0
 40
0
 41
0
  0
VERTEX
  8
0
 10
0.615018
 20
0.691786
 30
0.0
 40
0
 41
0
  0
VERTEX
  8
0
 10
0.615018
 20
0.719943
 30
0.0
 40
0
 41
0
  0
SEQEND
 8
0
  0
POLYLINE
  8
0
 62
     32
 66
     1
 10
0
 20
0
 30
0.0
 70
     1
 40
0
 41
0
  0
VERTEX
  8
0
 10
0.615018
 20
0.532443
 30
0.0
 40
0
 41
0
  0
VERTEX
  8
0
 10
0.63189
 20
0.532443
 30
0.0
 40
0
 41
0
  0
VERTEX
  8
0
 10
0.63189
 20
0.504286
 30
0.0
 40
0
 41
0
  0
VERTEX
  8
0
 10
0.615018
 20
0.504286
 30
0.0
 40
0
 41
0
  0
VERTEX
  8
0
 10
0.615018
 20
0.532443
 30
0.0
 40
0
 41
0
  0
SEQEND
 8
0
  0
POLYLINE
  8
0
 62
     32
 66
     1
 10
0
 20
0
 30
0.0
 70
     1
 40
0
 41
0
  0
VERTEX
  8
0
 10
0.615018
 20
0.658963
 30
0.0
 40
0
 41
0
  0
VERTEX
  8
0
 10
0.63189
 20
0.658963
 30
0.0
 40
0
 41
0
  0
VERTEX
  8
0
 10
0.63189
 20
0.63086
 30
0.0
 40
0
 41
0
  0
VERTEX
  8
0
 10
0.615018
 20
0.63086
 30
0.0
 40
0
 41
0
  0
VERTEX
  8
0
 10
0.615018
 20
0.658963
 30
0.0
 40
0
 41
0
  0
SEQEND
 8
0
  0
POLYLINE
  8
0
 62
     32
 66
     1
 10
0
 20
0
 30
0.0
 70
     1
 40
0
 41
0
  0
VERTEX
  8
0
 10
0.615018
 20
0.598036
 30
0.0
 40
0
 41
0
  0
VERTEX
  8
0
 10
0.63189
 20
0.598036
 30
0.0
 40
0
 41
0
  0
VERTEX
  8
0
 10
0.63189
 20
0.569933
 30
0.0
 40
0
 41
0
  0
VERTEX
  8
0
 10
0.615018
 20
0.569933
 30
0.0
 40
0
 41
0
  0
VERTEX
  8
0
 10
0.615018
 20
0.598036
 30
0.0
 40
0
 41
0
  0
SEQEND
 8
0
  0
POLYLINE
  8
0
 62
     32
 66
     1
 10
0
 20
0
 30
0.0
 70
     1
 40
0
 41
0
  0
VERTEX
  8
0
 10
0.615018
 20
0.466797
 30
0.0
 40
0
 41
0
  0
VERTEX
  8
0
 10
0.63189
 20
0.466797
 30
0.0
 40
0
 41
0
  0
VERTEX
  8
0
 10
0.63189
 20
0.438693
 30
0.0
 40
0
 41
0
  0
VERTEX
  8
0
 10
0.615018
 20
0.438693
 30
0.0
 40
0
 41
0
  0
VERTEX
  8
0
 10
0.615018
 20
0.466797
 30
0.0
 40
0
 41
0
  0
SEQEND
 8
0
  0
POLYLINE
  8
0
 62
     32
 66
     1
 10
0
 20
0
 30
0.0
 70
     1
 40
0
 41
0
  0
VERTEX
  8
0
 10
0.830621
 20
0.293349
 30
0.0
 40
0
 41
0
  0
VERTEX
  8
0
 10
0.847493
 20
0.293349
 30
0.0
 40
0
 41
0
  0
VERTEX
  8
0
 10
0.847493
 20
0.265246
 30
0.0
 40
0
 41
0
  0
VERTEX
  8
0
 10
0.830621
 20
0.265246
 30
0.0
 40
0
 41
0
  0
VERTEX
  8
0
 10
0.830621
 20
0.293349
 30
0.0
 40
0
 41
0
  0
SEQEND
 8
0
  0
POLYLINE
  8
0
 62
     32
 66
     1
 10
0
 20
0
 30
0.0
 70
     1
 40
0
 41
0
  0
VERTEX
  8
0
 10
0.830621
 20
0.368381
 30
0.0
 40
0
 41
0
  0
VERTEX
  8
0
 10
0.847493
 20
0.368381
 30
0.0
 40
0
 41
0
  0
VERTEX
  8
0
 10
0.847493
 20
0.340224
 30
0.0
 40
0
 41
0
  0
VERTEX
  8
0
 10
0.830621
 20
0.340224
 30
0.0
 40
0
 41
0
  0
VERTEX
  8
0
 10
0.830621
 20
0.368381
 30
0.0
 40
0
 41
0
  0
SEQEND
 8
0
  0
POLYLINE
  8
0
 62
     32
 66
     1
 10
0
 20
0
 30
0.0
 70
     1
 40
0
 41
0
  0
VERTEX
  8
0
 10
0.950142
 20
0.457411
 30
0.0
 40
0
 41
0
  0
VERTEX
  8
0
 10
0.967014
 20
0.457411
 30
0.0
 40
0
 41
0
  0
VERTEX
  8
0
 10
0.967014
 20
0.429308
 30
0.0
 40
0
 41
0
  0
VERTEX
  8
0
 10
0.950142
 20
0.429308
 30
0.0
 40
0
 41
0
  0
VERTEX
  8
0
 10
0.950142
 20
0.457411
 30
0.0
 40
0
 41
0
  0
SEQEND
 8
0
  0
POLYLINE
  8
0
 62
     32
 66
     1
 10
0
 20
0
 30
0.0
 70
     1
 40
0
 41
0
  0
VERTEX
  8
0
 10
1.06033
 20
0.457411
 30
0.0
 40
0
 41
0
  0
VERTEX
  8
0
 10
1.0772
 20
0.457411
 30
0.0
 40
0
 41
0
  0
VERTEX
  8
0
 10
1.0772
 20
0.429308
 30
0.0
 40
0
 41
0
  0
VERTEX
  8
0
 10
1.06033
 20
0.429308
 30
0.0
 40
0
 41
0
  0
VERTEX
  8
0
 10
1.06033
 20
0.457411
 30
0.0
 40
0
 41
0
  0
SEQEND
 8
0
  0
POLYLINE
  8
0
 62
     32
 66
     1
 10
0
 20
0
 30
0.0
 70
     1
 40
0
 41
0
  0
VERTEX
  8
0
 10
0.916396
 20
0.808051
 30
0.0
 40
0
 41
0
  0
VERTEX
  8
0
 10
0.944553
 20
0.808051
 30
0.0
 40
0
 41
0
  0
VERTEX
  8
0
 10
0.944553
 20
0.791178
 30
0.0
 40
0
 41
0
  0
VERTEX
  8
0
 10
0.916396
 20
0.791178
 30
0.0
 40
0
 41
0
  0
VERTEX
  8
0
 10
0.916396
 20
0.808051
 30
0.0
 40
0
 41
0
  0
SEQEND
 8
0
  0
POLYLINE
  8
0
 62
     32
 66
     1
 10
0
 20
0
 30
0.0
 70
     1
 40
0
 41
0
  0
VERTEX
  8
0
 10
0.745335
 20
0.822103
 30
0.0
 40
0
 41
0
  0
VERTEX
  8
0
 10
0.773438
 20
0.822103
 30
0.0
 40
0
 41
0
  0
VERTEX
  8
0
 10
0.773438
 20
0.805231
 30
0.0
 40
0
 41
0
  0
VERTEX
  8
0
 10
0.745335
 20
0.805231
 30
0.0
 40
0
 41
0
  0
VERTEX
  8
0
 10
0.745335
 20
0.822103
 30
0.0
 40
0
 41
0
  0
SEQEND
 8
0
  0
POLYLINE
  8
0
 62
     32
 66
     1
 10
0
 20
0
 30
0.0
 70
     1
 40
0
 41
0
  0
VERTEX
  8
0
 10
0.910319
 20
0.907443
 30
0.0
 40
0
 41
0
  0
VERTEX
  8
0
 10
0.927192
 20
0.907443
 30
0.0
 40
0
 41
0
  0
VERTEX
  8
0
 10
0.927192
 20
0.879286
 30
0.0
 40
0
 41
0
  0
VERTEX
  8
0
 10
0.910319
 20
0.879286
 30
0.0
 40
0
 41
0
  0
VERTEX
  8
0
 10
0.910319
 20
0.907443
 30
0.0
 40
0
 41
0
  0
SEQEND
 8
0
  0
POLYLINE
  8
0
 62
     32
 66
     1
 10
0
 20
0
 30
0.0
 70
     1
 40
0
 41
0
  0
VERTEX
  8
0
 10
0.797797
 20
0.907443
 30
0.0
 40
0
 41
0
  0
VERTEX
  8
0
 10
0.814671
 20
0.907443
 30
0.0
 40
0
 41
0
  0
VERTEX
  8
0
 10
0.814671
 20
0.879286
 30
0.0
 40
0
 41
0
  0
VERTEX
  8
0
 10
0.797797
 20
0.879286
 30
0.0
 40
0
 41
0
  0
VERTEX
  8
0
 10
0.797797
 20
0.907443
 30
0.0
 40
0
 41
0
  0
SEQEND
 8
0
  0
POLYLINE
  8
0
 62
     32
 66
     1
 10
0
 20
0
 30
0.0
 70
     1
 40
0
 41
0
  0
VERTEX
  8
0
 10
1.03217
 20
0.874621
 30
0.0
 40
0
 41
0
  0
VERTEX
  8
0
 10
1.04905
 20
0.874621
 30
0.0
 40
0
 41
0
  0
VERTEX
  8
0
 10
1.04905
 20
0.846463
 30
0.0
 40
0
 41
0
  0
VERTEX
  8
0
 10
1.03217
 20
0.846463
 30
0.0
 40
0
 41
0
  0
VERTEX
  8
0
 10
1.03217
 20
0.874621
 30
0.0
 40
0
 41
0
  0
SEQEND
 8
0
  0
POLYLINE
  8
0
 62
     32
 66
     1
 10
0
 20
0
 30
0.0
 70
     1
 40
0
 41
0
  0
VERTEX
  8
0
 10
0.994683
 20
0.0683594
 30
0.0
 40
0
 41
0
  0
VERTEX
  8
0
 10
1.01156
 20
0.0683594
 30
0.0
 40
0
 41
0
  0
VERTEX
  8
0
 10
1.01156
 20
0.0402561
 30
0.0
 40
0
 41
0
  0
VERTEX
  8
0
 10
0.994683
 20
0.0402561
 30
0.0
 40
0
 41
0
  0
VERTEX
  8
0
 10
0.994683
 20
0.0683594
 30
0.0
 40
0
 41
0
  0
SEQEND
 8
0
  0
POLYLINE
  8
0
 62
     32
 66
     1
 10
0
 20
0
 30
0.0
 70
     1
 40
0
 41
0
  0
VERTEX
  8
0
 10
0.615018
 20
0.40115
 30
0.0
 40
0
 41
0
  0
VERTEX
  8
0
 10
0.63189
 20
0.40115
 30
0.0
 40
0
 41
0
  0
VERTEX
  8
0
 10
0.63189
 20
0.373047
 30
0.0
 40
0
 41
0
  0
VERTEX
  8
0
 10
0.615018
 20
0.373047
 30
0.0
 40
0
 41
0
  0
VERTEX
  8
0
 10
0.615018
 20
0.40115
 30
0.0
 40
0
 41
0
  0
SEQEND
 8
0
  0
POLYLINE
  8
0
 62
     7
 66
     1
 10
0
 20
0
 30
0.0
 40
0.54
 41
0.54
  0
VERTEX
  8
0
 10
0.318739
 20
0.112902
 30
0.0
 40
0.0075
 41
0.0075
  0
VERTEX
  8
0
 10
0.318739
 20
0.0519749
 30
0.0
 40
0.0075
 41
0.0075
  0
SEQEND
 8
0
  0
POLYLINE
  8
0
 62
     7
 66
     1
 10
0
 20
0
 30
0.0
 40
0.54
 41
0.54
  0
VERTEX
  8
0
 10
0.253147
 20
0.122287
 30
0.0
 40
0.0075
 41
0.0075
  0
VERTEX
  8
0
 10
0.25076
 20
0.122287
 30
0.0
 40
0.0075
 41
0.0075
  0
VERTEX
  8
0
 10
0.243761
 20
0.115289
 30
0.0
 40
0.0075
 41
0.0075
  0
VERTEX
  8
0
 10
0.243761
 20
0.112902
 30
0.0
 40
0.0075
 41
0.0075
  0
SEQEND
 8
0
  0
POLYLINE
  8
0
 62
     7
 66
     1
 10
0
 20
0
 30
0.0
 40
0.54
 41
0.54
  0
VERTEX
  8
0
 10
0.243761
 20
0.0519749
 30
0.0
 40
0.0075
 41
0.0075
  0
VERTEX
  8
0
 10
0.243761
 20
0.0496419
 30
0.0
 40
0.0075
 41
0.0075
  0
VERTEX
  8
0
 10
0.25076
 20
0.042589
 30
0.0
 40
0.0075
 41
0.0075
  0
VERTEX
  8
0
 10
0.253147
 20
0.042589
 30
0.0
 40
0.0075
 41
0.0075
  0
SEQEND
 8
0
  0
POLYLINE
  8
0
 62
     7
 66
     1
 10
0
 20
0
 30
0.0
 40
0.54
 41
0.54
  0
VERTEX
  8
0
 10
0.309407
 20
0.042589
 30
0.0
 40
0.0075
 41
0.0075
  0
VERTEX
  8
0
 10
0.31174
 20
0.042589
 30
0.0
 40
0.0075
 41
0.0075
  0
VERTEX
  8
0
 10
0.318739
 20
0.0496419
 30
0.0
 40
0.0075
 41
0.0075
  0
VERTEX
  8
0
 10
0.318739
 20
0.0519749
 30
0.0
 40
0.0075
 41
0.0075
  0
SEQEND
 8
0
  0
POLYLINE
  8
0
 62
     7
 66
     1
 10
0
 20
0
 30
0.0
 40
0.54
 41
0.54
  0
VERTEX
  8
0
 10
0.318739
 20
0.112902
 30
0.0
 40
0.0075
 41
0.0075
  0
VERTEX
  8
0
 10
0.318739
 20
0.115289
 30
0.0
 40
0.0075
 41
0.0075
  0
VERTEX
  8
0
 10
0.31174
 20
0.122287
 30
0.0
 40
0.0075
 41
0.0075
  0
VERTEX
  8
0
 10
0.309407
 20
0.122287
 30
0.0
 40
0.0075
 41
0.0075
  0
SEQEND
 8
0
  0
POLYLINE
  8
0
 62
     7
 66
     1
 10
0
 20
0
 30
0.0
 40
0.54
 41
0.54
  0
VERTEX
  8
0
 10
0.243761
 20
0.0519749
 30
0.0
 40
0.0075
 41
0.0075
  0
VERTEX
  8
0
 10
0.243761
 20
0.112902
 30
0.0
 40
0.0075
 41
0.0075
  0
SEQEND
 8
0
  0
POLYLINE
  8
0
 62
     250
 66
     1
 10
0
 20
0
 30
0.0
 70
     1
 40
0
 41
0
  0
VERTEX
  8
0
 10
0.335992
 20
1.0312
 30
0.0
 40
0
 41
0
  0
VERTEX
  8
0
 10
0.468425
 20
1.0312
 30
0.0
 40
0
 41
0
  0
VERTEX
  8
0
 10
0.468425
 20
1.08681
 30
0.0
 40
0
 41
0
  0
VERTEX
  8
0
 10
0.311199
 20
1.08681
 30
0.0
 40
0
 41
0
  0
VERTEX
  8
0
 10
0.311199
 20
1.0312
 30
0.0
 40
0
 41
0
  0
VERTEX
  8
0
 10
0.335992
 20
1.0312
 30
0.0
 40
0
 41
0
  0
SEQEND
 8
0
  0
POLYLINE
  8
0
 62
     250
 66
     1
 10
0
 20
0
 30
0.0
 70
     1
 40
0
 41
0
  0
VERTEX
  8
0
 10
0.440158
 20
1.08681
 30
0.0
 40
0
 41
0
  0
VERTEX
  8
0
 10
0.462836
 20
1.08681
 30
0.0
 40
0
 41
0
  0
VERTEX
  8
0
 10
0.462836
 20
1.0312
 30
0.0
 40
0
 41
0
  0
VERTEX
  8
0
 10
0.440158
 20
1.0312
 30
0.0
 40
0
 41
0
  0
VERTEX
  8
0
 10
0.440158
 20
1.08681
 30
0.0
 40
0
 41
0
  0
SEQEND
 8
0
  0
POLYLINE
  8
0
 62
     250
 66
     1
 10
0
 20
0
 30
0.0
 70
     1
 40
0
 41
0
  0
VERTEX
  8
0
 10
0.316407
 20
1.08681
 30
0.0
 40
0
 41
0
  0
VERTEX
  8
0
 10
0.343425
 20
1.08681
 30
0.0
 40
0
 41
0
  0
VERTEX
  8
0
 10
0.343425
 20
1.0312
 30
0.0
 40
0
 41
0
  0
VERTEX
  8
0
 10
0.316407
 20
1.0312
 30
0.0
 40
0
 41
0
  0
VERTEX
  8
0
 10
0.316407
 20
1.08681
 30
0.0
 40
0
 41
0
  0
SEQEND
 8
0
  0
POLYLINE
  8
0
 62
     250
 66
     1
 10
0
 20
0
 30
0.0
 70
     1
 40
0
 41
0
  0
VERTEX
  8
0
 10
0.3616
 20
1.08653
 30
0.0
 40
0
 41
0
  0
VERTEX
  8
0
 10
0.403375
 20
1.08653
 30
0.0
 40
0
 41
0
  0
VERTEX
  8
0
 10
0.403375
 20
1.0312
 30
0.0
 40
0
 41
0
  0
VERTEX
  8
0
 10
0.3616
 20
1.0312
 30
0.0
 40
0
 41
0
  0
VERTEX
  8
0
 10
0.3616
 20
1.08653
 30
0.0
 40
0
 41
0
  0
SEQEND
 8
0
  0
POLYLINE
  8
0
 62
     250
 66
     1
 10
0
 20
0
 30
0.0
 70
     1
 40
0
 41
0
  0
VERTEX
  8
0
 10
0.373589
 20
1.08653
 30
0.0
 40
0
 41
0
  0
VERTEX
  8
0
 10
0.396539
 20
1.08653
 30
0.0
 40
0
 41
0
  0
VERTEX
  8
0
 10
0.396539
 20
1.0312
 30
0.0
 40
0
 41
0
  0
VERTEX
  8
0
 10
0.373589
 20
1.0312
 30
0.0
 40
0
 41
0
  0
VERTEX
  8
0
 10
0.373589
 20
1.08653
 30
0.0
 40
0
 41
0
  0
SEQEND
 8
0
  0
POLYLINE
  8
0
 62
     250
 66
     1
 10
0
 20
0
 30
0.0
 70
     1
 40
0
 41
0
  0
VERTEX
  8
0
 10
0.462782
 20
1.08681
 30
0.0
 40
0
 41
0
  0
VERTEX
  8
0
 10
0.468479
 20
1.08681
 30
0.0
 40
0
 41
0
  0
VERTEX
  8
0
 10
0.468479
 20
1.0312
 30
0.0
 40
0
 41
0
  0
VERTEX
  8
0
 10
0.462782
 20
1.0312
 30
0.0
 40
0
 41
0
  0
VERTEX
  8
0
 10
0.462782
 20
1.08681
 30
0.0
 40
0
 41
0
  0
SEQEND
 8
0
  0
POLYLINE
  8
0
 62
     250
 66
     1
 10
0
 20
0
 30
0.0
 70
     1
 40
0
 41
0
  0
VERTEX
  8
0
 10
0.311253
 20
1.08681
 30
0.0
 40
0
 41
0
  0
VERTEX
  8
0
 10
0.316407
 20
1.08681
 30
0.0
 40
0
 41
0
  0
VERTEX
  8
0
 10
0.316407
 20
1.0312
 30
0.0
 40
0
 41
0
  0
VERTEX
  8
0
 10
0.311253
 20
1.0312
 30
0.0
 40
0
 41
0
  0
VERTEX
  8
0
 10
0.311253
 20
1.08681
 30
0.0
 40
0
 41
0
  0
SEQEND
 8
0
  0
POLYLINE
  8
0
 62
     33
 66
     1
 10
0
 20
0
 30
0.0
 70
     1
 40
0
 41
0
  0
VERTEX
  8
0
 10
0.311253
 20
1.11111
 30
0.0
 40
0
 41
0
  0
VERTEX
  8
0
 10
0.468425
 20
1.11111
 30
0.0
 40
0
 41
0
  0
VERTEX
  8
0
 10
0.468425
 20
1.08659
 30
0.0
 40
0
 41
0
  0
VERTEX
  8
0
 10
0.311253
 20
1.08659
 30
0.0
 40
0
 41
0
  0
VERTEX
  8
0
 10
0.311253
 20
1.11111
 30
0.0
 40
0
 41
0
  0
SEQEND
 8
0
  0
POLYLINE
  8
0
 62
     254
 66
     1
 10
0
 20
0
 30
0.0
 70
     1
 40
0
 41
0
  0
VERTEX
  8
0
 10
0.343425
 20
1.11111
 30
0.0
 40
0
 41
0
  0
VERTEX
  8
0
 10
0.440158
 20
1.11111
 30
0.0
 40
0
 41
0
  0
VERTEX
  8
0
 10
0.440158
 20
1.08659
 30
0.0
 40
0
 41
0
  0
VERTEX
  8
0
 10
0.343425
 20
1.08659
 30
0.0
 40
0
 41
0
  0
VERTEX
  8
0
 10
0.343425
 20
1.11111
 30
0.0
 40
0
 41
0
  0
SEQEND
 8
0
  0
POLYLINE
  8
0
 62
     254
 66
     1
 10
0
 20
0
 30
0.0
 70
     1
 40
0
 41
0
  0
VERTEX
  8
0
 10
0.3616
 20
1.11111
 30
0.0
 40
0
 41
0
  0
VERTEX
  8
0
 10
0.403375
 20
1.11111
 30
0.0
 40
0
 41
0
  0
VERTEX
  8
0
 10
0.403375
 20
1.08659
 30
0.0
 40
0
 41
0
  0
VERTEX
  8
0
 10
0.3616
 20
1.08659
 30
0.0
 40
0
 41
0
  0
VERTEX
  8
0
 10
0.3616
 20
1.11111
 30
0.0
 40
0
 41
0
  0
SEQEND
 8
0
  0
POLYLINE
  8
0
 62
     7
 66
     1
 10
0
 20
0
 30
0.0
 70
     1
 40
0
 41
0
  0
VERTEX
  8
0
 10
0.373589
 20
1.11111
 30
0.0
 40
0
 41
0
  0
VERTEX
  8
0
 10
0.396539
 20
1.11111
 30
0.0
 40
0
 41
0
  0
VERTEX
  8
0
 10
0.396539
 20
1.08659
 30
0.0
 40
0
 41
0
  0
VERTEX
  8
0
 10
0.373589
 20
1.08659
 30
0.0
 40
0
 41
0
  0
VERTEX
  8
0
 10
0.373589
 20
1.11111
 30
0.0
 40
0
 41
0
  0
SEQEND
 8
0
  0
POLYLINE
  8
0
 62
     252
 66
     1
 10
0
 20
0
 30
0.0
 70
     1
 40
0
 41
0
  0
VERTEX
  8
0
 10
0.311253
 20
1.11111
 30
0.0
 40
0
 41
0
  0
VERTEX
  8
0
 10
0.316407
 20
1.11111
 30
0.0
 40
0
 41
0
  0
VERTEX
  8
0
 10
0.316407
 20
1.08659
 30
0.0
 40
0
 41
0
  0
VERTEX
  8
0
 10
0.311253
 20
1.08659
 30
0.0
 40
0
 41
0
  0
VERTEX
  8
0
 10
0.311253
 20
1.11111
 30
0.0
 40
0
 41
0
  0
SEQEND
 8
0
  0
POLYLINE
  8
0
 62
     252
 66
     1
 10
0
 20
0
 30
0.0
 70
     1
 40
0
 41
0
  0
VERTEX
  8
0
 10
0.463053
 20
1.11111
 30
0.0
 40
0
 41
0
  0
VERTEX
  8
0
 10
0.468207
 20
1.11111
 30
0.0
 40
0
 41
0
  0
VERTEX
  8
0
 10
0.468207
 20
1.08659
 30
0.0
 40
0
 41
0
  0
VERTEX
  8
0
 10
0.463053
 20
1.08659
 30
0.0
 40
0
 41
0
  0
VERTEX
  8
0
 10
0.463053
 20
1.11111
 30
0.0
 40
0
 41
0
  0
SEQEND
 8
0
  0
POLYLINE
  8
0
 62
     250
 66
     1
 10
0
 20
0
 30
0.0
 70
     1
 40
0
 41
0
  0
VERTEX
  8
0
 10
0.265571
 20
1.0364
 30
0.0
 40
0
 41
0
  0
VERTEX
  8
0
 10
0.513997
 20
1.0364
 30
0.0
 40
0
 41
0
  0
VERTEX
  8
0
 10
0.513997
 20
0.511447
 30
0.0
 40
0
 41
0
  0
VERTEX
  8
0
 10
0.265571
 20
0.511447
 30
0.0
 40
0
 41
0
  0
VERTEX
  8
0
 10
0.265571
 20
1.0364
 30
0.0
 40
0
 41
0
  0
SEQEND
 8
0
  0
POLYLINE
  8
0
 62
     0
 66
     1
 10
0
 20
0
 30
0.0
 70
     1
 40
0
 41
0
  0
VERTEX
  8
0
 10
0.265679
 20
0.962349
 30
0.0
 40
0
 41
0
  0
VERTEX
  8
0
 10
0.298611
 20
0.962349
 30
0.0
 40
0
 41
0
  0
VERTEX
  8
0
 10
0.298611
 20
0.894749
 30
0.0
 40
0
 41
0
  0
VERTEX
  8
0
 10
0.265679
 20
0.894749
 30
0.0
 40
0
 41
0
  0
VERTEX
  8
0
 10
0.265679
 20
0.962349
 30
0.0
 40
0
 41
0
  0
SEQEND
 8
0
  0
POLYLINE
  8
0
 62
     0
 66
     1
 10
0
 20
0
 30
0.0
 70
     1
 40
0
 41
0
  0
VERTEX
  8
0
 10
0.481065
 20
0.894749
 30
0.0
 40
0
 41
0
  0
VERTEX
  8
0
 10
0.513997
 20
0.894749
 30
0.0
 40
0
 41
0
  0
VERTEX
  8
0
 10
0.513997
 20
0.827149
 30
0.0
 40
0
 41
0
  0
VERTEX
  8
0
 10
0.481065
 20
0.827149
 30
0.0
 40
0
 41
0
  0
VERTEX
  8
0
 10
0.481065
 20
0.894749
 30
0.0
 40
0
 41
0
  0
SEQEND
 8
0
  0
POLYLINE
  8
0
 62
     254
 66
     1
 10
0
 20
0
 30
0.0
 70
     1
 40
0
 41
0
  0
VERTEX
  8
0
 10
0.265679
 20
0.962349
 30
0.0
 40
0
 41
0
  0
VERTEX
  8
0
 10
0.276585
 20
0.962349
 30
0.0
 40
0
 41
0
  0
VERTEX
  8
0
 10
0.276585
 20
0.894749
 30
0.0
 40
0
 41
0
  0
VERTEX
  8
0
 10
0.265679
 20
0.894749
 30
0.0
 40
0
 41
0
  0
VERTEX
  8
0
 10
0.265679
 20
0.962349
 30
0.0
 40
0
 41
0
  0
SEQEND
 8
0
  0
POLYLINE
  8
0
 62
     254
 66
     1
 10
0
 20
0
 30
0.0
 70
     1
 40
0
 41
0
  0
VERTEX
  8
0
 10
0.503147
 20
0.894749
 30
0.0
 40
0
 41
0
  0
VERTEX
  8
0
 10
0.513997
 20
0.894749
 30
0.0
 40
0
 41
0
  0
VERTEX
  8
0
 10
0.513997
 20
0.827149
 30
0.0
 40
0
 41
0
  0
VERTEX
  8
0
 10
0.503147
 20
0.827149
 30
0.0
 40
0
 41
0
  0
VERTEX
  8
0
 10
0.503147
 20
0.894749
 30
0.0
 40
0
 41
0
  0
SEQEND
 8
0
  0
POLYLINE
  8
0
 62
     0
 66
     1
 10
0
 20
0
 30
0.0
 70
     1
 40
0
 41
0
  0
VERTEX
  8
0
 10
0.817979
 20
0.684787
 30
0.0
 40
0
 41
0
  0
VERTEX
  8
0
 10
0.98074
 20
0.684787
 30
0.0
 40
0
 41
0
  0
VERTEX
  8
0
 10
0.98074
 20
0.522026
 30
0.0
 40
0
 41
0
  0
VERTEX
  8
0
 10
0.817979
 20
0.522026
 30
0.0
 40
0
 41
0
  0
VERTEX
  8
0
 10
0.817979
 20
0.684787
 30
0.0
 40
0
 41
0
  0
SEQEND
 8
0
  0
POLYLINE
  8
0
 62
     253
 66
     1
 10
0
 20
0
 30
0.0
 70
     1
 40
1.1475
 41
1.1475
  0
VERTEX
  8
0
 10
0.917643
 20
0.0546875
 30
0.0
 40
0.0159375
 41
0.0159375
  0
VERTEX
  8
0
 10
0.917643
 20
0.0499675
 30
0.0
 40
0.0159375
 41
0.0159375
  0
VERTEX
  8
0
 10
0.909831
 20
0.0358074
 30
0.0
 40
0.0159375
 41
0.0159375
  0
VERTEX
  8
0
 10
0.895671
 20
0.0279406
 30
0.0
 40
0.0159375
 41
0.0159375
  0
VERTEX
  8
0
 10
0.89095
 20
0.0279406
 30
0.0
 40
0.0159375
 41
0.0159375
  0
VERTEX
  8
0
 10
0.886176
 20
0.0279406
 30
0.0
 40
0.0159375
 41
0.0159375
  0
VERTEX
  8
0
 10
0.872017
 20
0.0358074
 30
0.0
 40
0.0159375
 41
0.0159375
  0
VERTEX
  8
0
 10
0.864204
 20
0.0499675
 30
0.0
 40
0.0159375
 41
0.0159375
  0
VERTEX
  8
0
 10
0.864204
 20
0.0546875
 30
0.0
 40
0.0159375
 41
0.0159375
  0
VERTEX
  8
0
 10
0.864204
 20
0.0594075
 30
0.0
 40
0.0159375
 41
0.0159375
  0
VERTEX
  8
0
 10
0.872017
 20
0.0735678
 30
0.0
 40
0.0159375
 41
0.0159375
  0
VERTEX
  8
0
 10
0.886176
 20
0.0813803
 30
0.0
 40
0.0159375
 41
0.0159375
  0
VERTEX
  8
0
 10
0.89095
 20
0.0813803
 30
0.0
 40
0.0159375
 41
0.0159375
  0
VERTEX
  8
0
 10
0.895671
 20
0.0813803
 30
0.0
 40
0.0159375
 41
0.0159375
  0
VERTEX
  8
0
 10
0.909831
 20
0.0735678
 30
0.0
 40
0.0159375
 41
0.0159375
  0
VERTEX
  8
0
 10
0.917643
 20
0.0594075
 30
0.0
 40
0.0159375
 41
0.0159375
  0
VERTEX
  8
0
 10
0.917643
 20
0.0546875
 30
0.0
 40
0.0159375
 41
0.0159375
  0
SEQEND
 8
0
  0
POLYLINE
  8
0
 62
     253
 66
     1
 10
0
 20
0
 30
0.0
 70
     1
 40
1.1475
 41
1.1475
  0
VERTEX
  8
0
 10
0.823893
 20
0.0546875
 30
0.0
 40
0.0159375
 41
0.0159375
  0
VERTEX
  8
0
 10
0.823893
 20
0.0499675
 30
0.0
 40
0.0159375
 41
0.0159375
  0
VERTEX
  8
0
 10
0.816081
 20
0.0358074
 30
0.0
 40
0.0159375
 41
0.0159375
  0
VERTEX
  8
0
 10
0.801921
 20
0.0279406
 30
0.0
 40
0.0159375
 41
0.0159375
  0
VERTEX
  8
0
 10
0.7972
 20
0.0279406
 30
0.0
 40
0.0159375
 41
0.0159375
  0
VERTEX
  8
0
 10
0.792426
 20
0.0279406
 30
0.0
 40
0.0159375
 41
0.0159375
  0
VERTEX
  8
0
 10
0.778267
 20
0.0358074
 30
0.0
 40
0.0159375
 41
0.0159375
  0
VERTEX
  8
0
 10
0.770454
 20
0.0499675
 30
0.0
 40
0.0159375
 41
0.0159375
  0
VERTEX
  8
0
 10
0.770454
 20
0.0546875
 30
0.0
 40
0.0159375
 41
0.0159375
  0
VERTEX
  8
0
 10
0.770454
 20
0.0594075
 30
0.0
 40
0.0159375
 41
0.0159375
  0
VERTEX
  8
0
 10
0.778267
 20
0.0735678
 30
0.0
 40
0.0159375
 41
0.0159375
  0
VERTEX
  8
0
 10
0.792426
 20
0.0813803
 30
0.0
 40
0.0159375
 41
0.0159375
  0
VERTEX
  8
0
 10
0.7972
 20
0.0813803
 30
0.0
 40
0.0159375
 41
0.0159375
  0
VERTEX
  8
0
 10
0.801921
 20
0.0813803
 30
0.0
 40
0.0159375
 41
0.0159375
  0
VERTEX
  8
0
 10
0.816081
 20
0.0735678
 30
0.0
 40
0.0159375
 41
0.0159375
  0
VERTEX
  8
0
 10
0.823893
 20
0.0594075
 30
0.0
 40
0.0159375
 41
0.0159375
  0
VERTEX
  8
0
 10
0.823893
 20
0.0546875
 30
0.0
 40
0.0159375
 41
0.0159375
  0
SEQEND
 8
0
  0
POLYLINE
  8
0
 62
     253
 66
     1
 10
0
 20
0
 30
0.0
 70
     1
 40
1.1475
 41
1.1475
  0
VERTEX
  8
0
 10
0.730143
 20
0.0546875
 30
0.0
 40
0.0159375
 41
0.0159375
  0
VERTEX
  8
0
 10
0.730143
 20
0.0499675
 30
0.0
 40
0.0159375
 41
0.0159375
  0
VERTEX
  8
0
 10
0.722331
 20
0.0358074
 30
0.0
 40
0.0159375
 41
0.0159375
  0
VERTEX
  8
0
 10
0.708171
 20
0.0279406
 30
0.0
 40
0.0159375
 41
0.0159375
  0
VERTEX
  8
0
 10
0.70345
 20
0.0279406
 30
0.0
 40
0.0159375
 41
0.0159375
  0
VERTEX
  8
0
 10
0.698676
 20
0.0279406
 30
0.0
 40
0.0159375
 41
0.0159375
  0
VERTEX
  8
0
 10
0.684517
 20
0.0358074
 30
0.0
 40
0.0159375
 41
0.0159375
  0
VERTEX
  8
0
 10
0.676704
 20
0.0499675
 30
0.0
 40
0.0159375
 41
0.0159375
  0
VERTEX
  8
0
 10
0.676704
 20
0.0546875
 30
0.0
 40
0.0159375
 41
0.0159375
  0
VERTEX
  8
0
 10
0.676704
 20
0.0594075
 30
0.0
 40
0.0159375
 41
0.0159375
  0
VERTEX
  8
0
 10
0.684517
 20
0.0735678
 30
0.0
 40
0.0159375
 41
0.0159375
  0
VERTEX
  8
0
 10
0.698676
 20
0.0813803
 30
0.0
 40
0.0159375
 41
0.0159375
  0
VERTEX
  8
0
 10
0.70345
 20
0.0813803
 30
0.0
 40
0.0159375
 41
0.0159375
  0
VERTEX
  8
0
 10
0.708171
 20
0.0813803
 30
0.0
 40
0.0159375
 41
0.0159375
  0
VERTEX
  8
0
 10
0.722331
 20
0.0735678
 30
0.0
 40
0.0159375
 41
0.0159375
  0
VERTEX
  8
0
 10
0.730143
 20
0.0594075
 30
0.0
 40
0.0159375
 41
0.0159375
  0
VERTEX
  8
0
 10
0.730143
 20
0.0546875
 30
0.0
 40
0.0159375
 41
0.0159375
  0
SEQEND
 8
0
  0
POLYLINE
  8
0
 62
     253
 66
     1
 10
0
 20
0
 30
0.0
 70
     1
 40
1.1475
 41
1.1475
  0
VERTEX
  8
0
 10
0.636393
 20
0.0546875
 30
0.0
 40
0.0159375
 41
0.0159375
  0
VERTEX
  8
0
 10
0.636393
 20
0.0499675
 30
0.0
 40
0.0159375
 41
0.0159375
  0
VERTEX
  8
0
 10
0.628581
 20
0.0358074
 30
0.0
 40
0.0159375
 41
0.0159375
  0
VERTEX
  8
0
 10
0.614421
 20
0.0279406
 30
0.0
 40
0.0159375
 41
0.0159375
  0
VERTEX
  8
0
 10
0.6097
 20
0.0279406
 30
0.0
 40
0.0159375
 41
0.0159375
  0
VERTEX
  8
0
 10
0.604926
 20
0.0279406
 30
0.0
 40
0.0159375
 41
0.0159375
  0
VERTEX
  8
0
 10
0.590767
 20
0.0358074
 30
0.0
 40
0.0159375
 41
0.0159375
  0
VERTEX
  8
0
 10
0.582954
 20
0.0499675
 30
0.0
 40
0.0159375
 41
0.0159375
  0
VERTEX
  8
0
 10
0.582954
 20
0.0546875
 30
0.0
 40
0.0159375
 41
0.0159375
  0
VERTEX
  8
0
 10
0.582954
 20
0.0594075
 30
0.0
 40
0.0159375
 41
0.0159375
  0
VERTEX
  8
0
 10
0.590767
 20
0.0735678
 30
0.0
 40
0.0159375
 41
0.0159375
  0
VERTEX
  8
0
 10
0.604926
 20
0.0813803
 30
0.0
 40
0.0159375
 41
0.0159375
  0
VERTEX
  8
0
 10
0.6097
 20
0.0813803
 30
0.0
 40
0.0159375
 41
0.0159375
  0
VERTEX
  8
0
 10
0.614421
 20
0.0813803
 30
0.0
 40
0.0159375
 41
0.0159375
  0
VERTEX
  8
0
 10
0.628581
 20
0.0735678
 30
0.0
 40
0.0159375
 41
0.0159375
  0
VERTEX
  8
0
 10
0.636393
 20
0.0594075
 30
0.0
 40
0.0159375
 41
0.0159375
  0
VERTEX
  8
0
 10
0.636393
 20
0.0546875
 30
0.0
 40
0.0159375
 41
0.0159375
  0
SEQEND
 8
0
  0
POLYLINE
  8
0
 62
     253
 66
     1
 10
0
 20
0
 30
0.0
 70
     1
 40
1.1475
 41
1.1475
  0
VERTEX
  8
0
 10
0.542643
 20
0.0546875
 30
0.0
 40
0.0159375
 41
0.0159375
  0
VERTEX
  8
0
 10
0.542643
 20
0.0499675
 30
0.0
 40
0.0159375
 41
0.0159375
  0
VERTEX
  8
0
 10
0.534831
 20
0.0358074
 30
0.0
 40
0.0159375
 41
0.0159375
  0
VERTEX
  8
0
 10
0.520671
 20
0.0279406
 30
0.0
 40
0.0159375
 41
0.0159375
  0
VERTEX
  8
0
 10
0.51595
 20
0.0279406
 30
0.0
 40
0.0159375
 41
0.0159375
  0
VERTEX
  8
0
 10
0.511176
 20
0.0279406
 30
0.0
 40
0.0159375
 41
0.0159375
  0
VERTEX
  8
0
 10
0.497017
 20
0.0358074
 30
0.0
 40
0.0159375
 41
0.0159375
  0
VERTEX
  8
0
 10
0.489204
 20
0.0499675
 30
0.0
 40
0.0159375
 41
0.0159375
  0
VERTEX
  8
0
 10
0.489204
 20
0.0546875
 30
0.0
 40
0.0159375
 41
0.0159375
  0
VERTEX
  8
0
 10
0.489204
 20
0.0594075
 30
0.0
 40
0.0159375
 41
0.0159375
  0
VERTEX
  8
0
 10
0.497017
 20
0.0735678
 30
0.0
 40
0.0159375
 41
0.0159375
  0
VERTEX
  8
0
 10
0.511176
 20
0.0813803
 30
0.0
 40
0.0159375
 41
0.0159375
  0
VERTEX
  8
0
 10
0.51595
 20
0.0813803
 30
0.0
 40
0.0159375
 41
0.0159375
  0
VERTEX
  8
0
 10
0.520671
 20
0.0813803
 30
0.0
 40
0.0159375
 41
0.0159375
  0
VERTEX
  8
0
 10
0.534831
 20
0.0735678
 30
0.0
 40
0.0159375
 41
0.0159375
  0
VERTEX
  8
0
 10
0.542643
 20
0.0594075
 30
0.0
 40
0.0159375
 41
0.0159375
  0
VERTEX
  8
0
 10
0.542643
 20
0.0546875
 30
0.0
 40
0.0159375
 41
0.0159375
  0
SEQEND
 8
0
  0
POLYLINE
  8
0
 62
     253
 66
     1
 10
0
 20
0
 30
0.0
 70
     1
 40
1.1475
 41
1.1475
  0
VERTEX
  8
0
 10
0.448893
 20
0.0546875
 30
0.0
 40
0.0159375
 41
0.0159375
  0
VERTEX
  8
0
 10
0.448893
 20
0.0499675
 30
0.0
 40
0.0159375
 41
0.0159375
  0
VERTEX
  8
0
 10
0.441081
 20
0.0358074
 30
0.0
 40
0.0159375
 41
0.0159375
  0
VERTEX
  8
0
 10
0.426921
 20
0.0279406
 30
0.0
 40
0.0159375
 41
0.0159375
  0
VERTEX
  8
0
 10
0.4222
 20
0.0279406
 30
0.0
 40
0.0159375
 41
0.0159375
  0
VERTEX
  8
0
 10
0.417426
 20
0.0279406
 30
0.0
 40
0.0159375
 41
0.0159375
  0
VERTEX
  8
0
 10
0.403267
 20
0.0358074
 30
0.0
 40
0.0159375
 41
0.0159375
  0
VERTEX
  8
0
 10
0.395454
 20
0.0499675
 30
0.0
 40
0.0159375
 41
0.0159375
  0
VERTEX
  8
0
 10
0.395454
 20
0.0546875
 30
0.0
 40
0.0159375
 41
0.0159375
  0
VERTEX
  8
0
 10
0.395454
 20
0.0594075
 30
0.0
 40
0.0159375
 41
0.0159375
  0
VERTEX
  8
0
 10
0.403267
 20
0.0735678
 30
0.0
 40
0.0159375
 41
0.0159375
  0
VERTEX
  8
0
 10
0.417426
 20
0.0813803
 30
0.0
 40
0.0159375
 41
0.0159375
  0
VERTEX
  8
0
 10
0.4222
 20
0.0813803
 30
0.0
 40
0.0159375
 41
0.0159375
  0
VERTEX
  8
0
 10
0.426921
 20
0.0813803
 30
0.0
 40
0.0159375
 41
0.0159375
  0
VERTEX
  8
0
 10
0.441081
 20
0.0735678
 30
0.0
 40
0.0159375
 41
0.0159375
  0
VERTEX
  8
0
 10
0.448893
 20
0.0594075
 30
0.0
 40
0.0159375
 41
0.0159375
  0
VERTEX
  8
0
 10
0.448893
 20
0.0546875
 30
0.0
 40
0.0159375
 41
0.0159375
  0
SEQEND
 8
0
  0
POLYLINE
  8
0
 62
     253
 66
     1
 10
0
 20
0
 30
0.0
 70
     1
 40
1.1475
 41
1.1475
  0
VERTEX
  8
0
 10
0.0738932
 20
0.664063
 30
0.0
 40
0.0159375
 41
0.0159375
  0
VERTEX
  8
0
 10
0.0738932
 20
0.659343
 30
0.0
 40
0.0159375
 41
0.0159375
  0
VERTEX
  8
0
 10
0.0660807
 20
0.645182
 30
0.0
 40
0.0159375
 41
0.0159375
  0
VERTEX
  8
0
 10
0.0519206
 20
0.637315
 30
0.0
 40
0.0159375
 41
0.0159375
  0
VERTEX
  8
0
 10
0.0472006
 20
0.637315
 30
0.0
 40
0.0159375
 41
0.0159375
  0
VERTEX
  8
0
 10
0.0424262
 20
0.637315
 30
0.0
 40
0.0159375
 41
0.0159375
  0
VERTEX
  8
0
 10
0.0282661
 20
0.645182
 30
0.0
 40
0.0159375
 41
0.0159375
  0
VERTEX
  8
0
 10
0.0204536
 20
0.659343
 30
0.0
 40
0.0159375
 41
0.0159375
  0
VERTEX
  8
0
 10
0.0204536
 20
0.664063
 30
0.0
 40
0.0159375
 41
0.0159375
  0
VERTEX
  8
0
 10
0.0204536
 20
0.668782
 30
0.0
 40
0.0159375
 41
0.0159375
  0
VERTEX
  8
0
 10
0.0282661
 20
0.682943
 30
0.0
 40
0.0159375
 41
0.0159375
  0
VERTEX
  8
0
 10
0.0424262
 20
0.690756
 30
0.0
 40
0.0159375
 41
0.0159375
  0
VERTEX
  8
0
 10
0.0472006
 20
0.690756
 30
0.0
 40
0.0159375
 41
0.0159375
  0
VERTEX
  8
0
 10
0.0519206
 20
0.690756
 30
0.0
 40
0.0159375
 41
0.0159375
  0
VERTEX
  8
0
 10
0.0660807
 20
0.682943
 30
0.0
 40
0.0159375
 41
0.0159375
  0
VERTEX
  8
0
 10
0.0738932
 20
0.668782
 30
0.0
 40
0.0159375
 41
0.0159375
  0
VERTEX
  8
0
 10
0.0738932
 20
0.664063
 30
0.0
 40
0.0159375
 41
0.0159375
  0
SEQEND
 8
0
  0
POLYLINE
  8
0
 62
     253
 66
     1
 10
0
 20
0
 30
0.0
 70
     1
 40
1.1475
 41
1.1475
  0
VERTEX
  8
0
 10
0.0738932
 20
0.570313
 30
0.0
 40
0.0159375
 41
0.0159375
  0
VERTEX
  8
0
 10
0.0738932
 20
0.565593
 30
0.0
 40
0.0159375
 41
0.0159375
  0
VERTEX
  8
0
 10
0.0660807
 20
0.551432
 30
0.0
 40
0.0159375
 41
0.0159375
  0
VERTEX
  8
0
 10
0.0519206
 20
0.543565
 30
0.0
 40
0.0159375
 41
0.0159375
  0
VERTEX
  8
0
 10
0.0472006
 20
0.543565
 30
0.0
 40
0.0159375
 41
0.0159375
  0
VERTEX
  8
0
 10
0.0424262
 20
0.543565
 30
0.0
 40
0.0159375
 41
0.0159375
  0
VERTEX
  8
0
 10
0.0282661
 20
0.551432
 30
0.0
 40
0.0159375
 41
0.0159375
  0
VERTEX
  8
0
 10
0.0204536
 20
0.565593
 30
0.0
 40
0.0159375
 41
0.0159375
  0
VERTEX
  8
0
 10
0.0204536
 20
0.570313
 30
0.0
 40
0.0159375
 41
0.0159375
  0
VERTEX
  8
0
 10
0.0204536
 20
0.575032
 30
0.0
 40
0.0159375
 41
0.0159375
  0
VERTEX
  8
0
 10
0.0282661
 20
0.589193
 30
0.0
 40
0.0159375
 41
0.0159375
  0
VERTEX
  8
0
 10
0.0424262
 20
0.597006
 30
0.0
 40
0.0159375
 41
0.0159375
  0
VERTEX
  8
0
 10
0.0472006
 20
0.597006
 30
0.0
 40
0.0159375
 41
0.0159375
  0
VERTEX
  8
0
 10
0.0519206
 20
0.597006
 30
0.0
 40
0.0159375
 41
0.0159375
  0
VERTEX
  8
0
 10
0.0660807
 20
0.589193
 30
0.0
 40
0.0159375
 41
0.0159375
  0
VERTEX
  8
0
 10
0.0738932
 20
0.575032
 30
0.0
 40
0.0159375
 41
0.0159375
  0
VERTEX
  8
0
 10
0.0738932
 20
0.570313
 30
0.0
 40
0.0159375
 41
0.0159375
  0
SEQEND
 8
0
  0
POLYLINE
  8
0
 62
     253
 66
     1
 10
0
 20
0
 30
0.0
 70
     1
 40
1.1475
 41
1.1475
  0
VERTEX
  8
0
 10
0.0738932
 20
0.757813
 30
0.0
 40
0.0159375
 41
0.0159375
  0
VERTEX
  8
0
 10
0.0738932
 20
0.753093
 30
0.0
 40
0.0159375
 41
0.0159375
  0
VERTEX
  8
0
 10
0.0660807
 20
0.738932
 30
0.0
 40
0.0159375
 41
0.0159375
  0
VERTEX
  8
0
 10
0.0519206
 20
0.731065
 30
0.0
 40
0.0159375
 41
0.0159375
  0
VERTEX
  8
0
 10
0.0472006
 20
0.731065
 30
0.0
 40
0.0159375
 41
0.0159375
  0
VERTEX
  8
0
 10
0.0424262
 20
0.731065
 30
0.0
 40
0.0159375
 41
0.0159375
  0
VERTEX
  8
0
 10
0.0282661
 20
0.738932
 30
0.0
 40
0.0159375
 41
0.0159375
  0
VERTEX
  8
0
 10
0.0204536
 20
0.753093
 30
0.0
 40
0.0159375
 41
0.0159375
  0
VERTEX
  8
0
 10
0.0204536
 20
0.757813
 30
0.0
 40
0.0159375
 41
0.0159375
  0
VERTEX
  8
0
 10
0.0204536
 20
0.762532
 30
0.0
 40
0.0159375
 41
0.0159375
  0
VERTEX
  8
0
 10
0.0282661
 20
0.776693
 30
0.0
 40
0.0159375
 41
0.0159375
  0
VERTEX
  8
0
 10
0.0424262
 20
0.784506
 30
0.0
 40
0.0159375
 41
0.0159375
  0
VERTEX
  8
0
 10
0.0472006
 20
0.784506
 30
0.0
 40
0.0159375
 41
0.0159375
  0
VERTEX
  8
0
 10
0.0519206
 20
0.784506
 30
0.0
 40
0.0159375
 41
0.0159375
  0
VERTEX
  8
0
 10
0.0660807
 20
0.776693
 30
0.0
 40
0.0159375
 41
0.0159375
  0
VERTEX
  8
0
 10
0.0738932
 20
0.762532
 30
0.0
 40
0.0159375
 41
0.0159375
  0
VERTEX
  8
0
 10
0.0738932
 20
0.757813
 30
0.0
 40
0.0159375
 41
0.0159375
  0
SEQEND
 8
0
  0
ENDSEC
  0
EOF
