%TF.GenerationSoftware,KiCad,Pcbnew,(5.1.8-0-10_14)*%
%TF.CreationDate,2021-04-23T14:11:37-04:00*%
%TF.ProjectId,Custom_Piezo_Sensor_PCB,43757374-6f6d-45f5-9069-657a6f5f5365,rev?*%
%TF.SameCoordinates,Original*%
%TF.FileFunction,Legend,Bot*%
%TF.FilePolarity,Positive*%
%FSLAX46Y46*%
G04 Gerber Fmt 4.6, Leading zero omitted, Abs format (unit mm)*
G04 Created by KiCad (PCBNEW (5.1.8-0-10_14)) date 2021-04-23 14:11:37*
%MOMM*%
%LPD*%
G01*
G04 APERTURE LIST*
%ADD10C,0.050000*%
%ADD11C,0.120000*%
%ADD12C,0.254000*%
%ADD13C,0.150000*%
G04 APERTURE END LIST*
D10*
%TO.C,R7*%
X152573000Y-146138000D02*
X154793000Y-146138000D01*
X154793000Y-144718000D02*
X154933000Y-144718000D01*
X154793000Y-146138000D02*
X154933000Y-146138000D01*
X152573000Y-146138000D02*
X152433000Y-146138000D01*
X152573000Y-144718000D02*
X152433000Y-144718000D01*
X152433000Y-144718000D02*
X152433000Y-146138000D01*
X154793000Y-144718000D02*
X152573000Y-144718000D01*
X154933000Y-146138000D02*
X154933000Y-144718000D01*
X154933000Y-146138000D02*
X152433000Y-146138000D01*
X152433000Y-144718000D02*
X152433000Y-146138000D01*
X154933000Y-146138000D02*
X154933000Y-144718000D01*
X152433000Y-144718000D02*
X154933000Y-144718000D01*
%TO.C,R2*%
X152814000Y-149925000D02*
X155314000Y-149925000D01*
X155314000Y-151345000D02*
X155314000Y-149925000D01*
X152814000Y-149925000D02*
X152814000Y-151345000D01*
X155314000Y-151345000D02*
X152814000Y-151345000D01*
X155314000Y-151345000D02*
X155314000Y-149925000D01*
X155174000Y-149925000D02*
X152954000Y-149925000D01*
X152814000Y-149925000D02*
X152814000Y-151345000D01*
X152954000Y-149925000D02*
X152814000Y-149925000D01*
X152954000Y-151345000D02*
X152814000Y-151345000D01*
X155174000Y-151345000D02*
X155314000Y-151345000D01*
X155174000Y-149925000D02*
X155314000Y-149925000D01*
X152954000Y-151345000D02*
X155174000Y-151345000D01*
D11*
%TO.C,U1*%
X152349200Y-152004800D02*
X147549200Y-152004800D01*
X152349200Y-148604800D02*
X147549200Y-148604800D01*
D12*
X151981200Y-151304800D02*
G75*
G03*
X151981200Y-151304800I-127000J0D01*
G01*
D11*
X147549200Y-152004800D02*
X147549200Y-148604800D01*
X152349200Y-152004800D02*
X152349200Y-148604800D01*
D10*
%TO.C,R6*%
X150814000Y-143810000D02*
X150814000Y-146030000D01*
X152234000Y-146030000D02*
X152234000Y-146170000D01*
X150814000Y-146030000D02*
X150814000Y-146170000D01*
X150814000Y-143810000D02*
X150814000Y-143670000D01*
X152234000Y-143810000D02*
X152234000Y-143670000D01*
X152234000Y-143670000D02*
X150814000Y-143670000D01*
X152234000Y-146030000D02*
X152234000Y-143810000D01*
X150814000Y-146170000D02*
X152234000Y-146170000D01*
X150814000Y-146170000D02*
X150814000Y-143670000D01*
X152234000Y-143670000D02*
X150814000Y-143670000D01*
X150814000Y-146170000D02*
X152234000Y-146170000D01*
X152234000Y-143670000D02*
X152234000Y-146170000D01*
%TO.C,R5*%
X150475000Y-143321000D02*
X148255000Y-143321000D01*
X148255000Y-144741000D02*
X148115000Y-144741000D01*
X148255000Y-143321000D02*
X148115000Y-143321000D01*
X150475000Y-143321000D02*
X150615000Y-143321000D01*
X150475000Y-144741000D02*
X150615000Y-144741000D01*
X150615000Y-144741000D02*
X150615000Y-143321000D01*
X148255000Y-144741000D02*
X150475000Y-144741000D01*
X148115000Y-143321000D02*
X148115000Y-144741000D01*
X148115000Y-143321000D02*
X150615000Y-143321000D01*
X150615000Y-144741000D02*
X150615000Y-143321000D01*
X148115000Y-143321000D02*
X148115000Y-144741000D01*
X150615000Y-144741000D02*
X148115000Y-144741000D01*
%TO.C,R4*%
X153227000Y-151811000D02*
X153227000Y-154031000D01*
X154647000Y-154031000D02*
X154647000Y-154171000D01*
X153227000Y-154031000D02*
X153227000Y-154171000D01*
X153227000Y-151811000D02*
X153227000Y-151671000D01*
X154647000Y-151811000D02*
X154647000Y-151671000D01*
X154647000Y-151671000D02*
X153227000Y-151671000D01*
X154647000Y-154031000D02*
X154647000Y-151811000D01*
X153227000Y-154171000D02*
X154647000Y-154171000D01*
X153227000Y-154171000D02*
X153227000Y-151671000D01*
X154647000Y-151671000D02*
X153227000Y-151671000D01*
X153227000Y-154171000D02*
X154647000Y-154171000D01*
X154647000Y-151671000D02*
X154647000Y-154171000D01*
%TO.C,R3*%
X151491000Y-155640000D02*
X149271000Y-155640000D01*
X149271000Y-157060000D02*
X149131000Y-157060000D01*
X149271000Y-155640000D02*
X149131000Y-155640000D01*
X151491000Y-155640000D02*
X151631000Y-155640000D01*
X151491000Y-157060000D02*
X151631000Y-157060000D01*
X151631000Y-157060000D02*
X151631000Y-155640000D01*
X149271000Y-157060000D02*
X151491000Y-157060000D01*
X149131000Y-155640000D02*
X149131000Y-157060000D01*
X149131000Y-155640000D02*
X151631000Y-155640000D01*
X151631000Y-157060000D02*
X151631000Y-155640000D01*
X149131000Y-155640000D02*
X149131000Y-157060000D01*
X151631000Y-157060000D02*
X149131000Y-157060000D01*
%TO.C,R1*%
X147344500Y-155174000D02*
X147344500Y-152954000D01*
X145924500Y-152954000D02*
X145924500Y-152814000D01*
X147344500Y-152954000D02*
X147344500Y-152814000D01*
X147344500Y-155174000D02*
X147344500Y-155314000D01*
X145924500Y-155174000D02*
X145924500Y-155314000D01*
X145924500Y-155314000D02*
X147344500Y-155314000D01*
X145924500Y-152954000D02*
X145924500Y-155174000D01*
X147344500Y-152814000D02*
X145924500Y-152814000D01*
X147344500Y-152814000D02*
X147344500Y-155314000D01*
X145924500Y-155314000D02*
X147344500Y-155314000D01*
X147344500Y-152814000D02*
X145924500Y-152814000D01*
X145924500Y-155314000D02*
X145924500Y-152814000D01*
%TO.C,C6*%
X154116000Y-147366000D02*
X154116000Y-149586000D01*
X155536000Y-149586000D02*
X155536000Y-149726000D01*
X154116000Y-149586000D02*
X154116000Y-149726000D01*
X154116000Y-147366000D02*
X154116000Y-147226000D01*
X155536000Y-147366000D02*
X155536000Y-147226000D01*
X155536000Y-147226000D02*
X154116000Y-147226000D01*
X155536000Y-149586000D02*
X155536000Y-147366000D01*
X154116000Y-149726000D02*
X155536000Y-149726000D01*
X154116000Y-149726000D02*
X154116000Y-147226000D01*
X155536000Y-147226000D02*
X154116000Y-147226000D01*
X154116000Y-149726000D02*
X155536000Y-149726000D01*
X155536000Y-147226000D02*
X155536000Y-149726000D01*
%TO.C,C5*%
X150475000Y-144908500D02*
X148255000Y-144908500D01*
X148255000Y-146328500D02*
X148115000Y-146328500D01*
X148255000Y-144908500D02*
X148115000Y-144908500D01*
X150475000Y-144908500D02*
X150615000Y-144908500D01*
X150475000Y-146328500D02*
X150615000Y-146328500D01*
X150615000Y-146328500D02*
X150615000Y-144908500D01*
X148255000Y-146328500D02*
X150475000Y-146328500D01*
X148115000Y-144908500D02*
X148115000Y-146328500D01*
X148115000Y-144908500D02*
X150615000Y-144908500D01*
X150615000Y-146328500D02*
X150615000Y-144908500D01*
X148115000Y-144908500D02*
X148115000Y-146328500D01*
X150615000Y-146328500D02*
X148115000Y-146328500D01*
%TO.C,C4*%
X147408000Y-151299000D02*
X147408000Y-149079000D01*
X145988000Y-149079000D02*
X145988000Y-148939000D01*
X147408000Y-149079000D02*
X147408000Y-148939000D01*
X147408000Y-151299000D02*
X147408000Y-151439000D01*
X145988000Y-151299000D02*
X145988000Y-151439000D01*
X145988000Y-151439000D02*
X147408000Y-151439000D01*
X145988000Y-149079000D02*
X145988000Y-151299000D01*
X147408000Y-148939000D02*
X145988000Y-148939000D01*
X147408000Y-148939000D02*
X147408000Y-151439000D01*
X145988000Y-151439000D02*
X147408000Y-151439000D01*
X147408000Y-148939000D02*
X145988000Y-148939000D01*
X145988000Y-151439000D02*
X145988000Y-148939000D01*
%TO.C,C3*%
X154012000Y-149586000D02*
X154012000Y-147366000D01*
X152592000Y-147366000D02*
X152592000Y-147226000D01*
X154012000Y-147366000D02*
X154012000Y-147226000D01*
X154012000Y-149586000D02*
X154012000Y-149726000D01*
X152592000Y-149586000D02*
X152592000Y-149726000D01*
X152592000Y-149726000D02*
X154012000Y-149726000D01*
X152592000Y-147366000D02*
X152592000Y-149586000D01*
X154012000Y-147226000D02*
X152592000Y-147226000D01*
X154012000Y-147226000D02*
X154012000Y-149726000D01*
X152592000Y-149726000D02*
X154012000Y-149726000D01*
X154012000Y-147226000D02*
X152592000Y-147226000D01*
X152592000Y-149726000D02*
X152592000Y-147226000D01*
%TO.C,C2*%
X152380000Y-154116000D02*
X150160000Y-154116000D01*
X150160000Y-155536000D02*
X150020000Y-155536000D01*
X150160000Y-154116000D02*
X150020000Y-154116000D01*
X152380000Y-154116000D02*
X152520000Y-154116000D01*
X152380000Y-155536000D02*
X152520000Y-155536000D01*
X152520000Y-155536000D02*
X152520000Y-154116000D01*
X150160000Y-155536000D02*
X152380000Y-155536000D01*
X150020000Y-154116000D02*
X150020000Y-155536000D01*
X150020000Y-154116000D02*
X152520000Y-154116000D01*
X152520000Y-155536000D02*
X152520000Y-154116000D01*
X150020000Y-154116000D02*
X150020000Y-155536000D01*
X152520000Y-155536000D02*
X150020000Y-155536000D01*
%TO.C,C1*%
X147512000Y-154224000D02*
X147512000Y-156444000D01*
X148932000Y-156444000D02*
X148932000Y-156584000D01*
X147512000Y-156444000D02*
X147512000Y-156584000D01*
X147512000Y-154224000D02*
X147512000Y-154084000D01*
X148932000Y-154224000D02*
X148932000Y-154084000D01*
X148932000Y-154084000D02*
X147512000Y-154084000D01*
X148932000Y-156444000D02*
X148932000Y-154224000D01*
X147512000Y-156584000D02*
X148932000Y-156584000D01*
X147512000Y-156584000D02*
X147512000Y-154084000D01*
X148932000Y-154084000D02*
X147512000Y-154084000D01*
X147512000Y-156584000D02*
X148932000Y-156584000D01*
X148932000Y-154084000D02*
X148932000Y-156584000D01*
%TO.C,R7*%
D13*
X153910000Y-144556428D02*
X154110000Y-144270714D01*
X154252857Y-144556428D02*
X154252857Y-143956428D01*
X154024285Y-143956428D01*
X153967142Y-143985000D01*
X153938571Y-144013571D01*
X153910000Y-144070714D01*
X153910000Y-144156428D01*
X153938571Y-144213571D01*
X153967142Y-144242142D01*
X154024285Y-144270714D01*
X154252857Y-144270714D01*
X153710000Y-143956428D02*
X153310000Y-143956428D01*
X153567142Y-144556428D01*
%TO.C,R2*%
X156069000Y-151287428D02*
X156269000Y-151001714D01*
X156411857Y-151287428D02*
X156411857Y-150687428D01*
X156183285Y-150687428D01*
X156126142Y-150716000D01*
X156097571Y-150744571D01*
X156069000Y-150801714D01*
X156069000Y-150887428D01*
X156097571Y-150944571D01*
X156126142Y-150973142D01*
X156183285Y-151001714D01*
X156411857Y-151001714D01*
X155840428Y-150744571D02*
X155811857Y-150716000D01*
X155754714Y-150687428D01*
X155611857Y-150687428D01*
X155554714Y-150716000D01*
X155526142Y-150744571D01*
X155497571Y-150801714D01*
X155497571Y-150858857D01*
X155526142Y-150944571D01*
X155869000Y-151287428D01*
X155497571Y-151287428D01*
%TO.C,U1*%
X148806142Y-150814428D02*
X148806142Y-151300142D01*
X148777571Y-151357285D01*
X148749000Y-151385857D01*
X148691857Y-151414428D01*
X148577571Y-151414428D01*
X148520428Y-151385857D01*
X148491857Y-151357285D01*
X148463285Y-151300142D01*
X148463285Y-150814428D01*
X147863285Y-151414428D02*
X148206142Y-151414428D01*
X148034714Y-151414428D02*
X148034714Y-150814428D01*
X148091857Y-150900142D01*
X148149000Y-150957285D01*
X148206142Y-150985857D01*
%TO.C,R6*%
X151624000Y-143540428D02*
X151824000Y-143254714D01*
X151966857Y-143540428D02*
X151966857Y-142940428D01*
X151738285Y-142940428D01*
X151681142Y-142969000D01*
X151652571Y-142997571D01*
X151624000Y-143054714D01*
X151624000Y-143140428D01*
X151652571Y-143197571D01*
X151681142Y-143226142D01*
X151738285Y-143254714D01*
X151966857Y-143254714D01*
X151109714Y-142940428D02*
X151224000Y-142940428D01*
X151281142Y-142969000D01*
X151309714Y-142997571D01*
X151366857Y-143083285D01*
X151395428Y-143197571D01*
X151395428Y-143426142D01*
X151366857Y-143483285D01*
X151338285Y-143511857D01*
X151281142Y-143540428D01*
X151166857Y-143540428D01*
X151109714Y-143511857D01*
X151081142Y-143483285D01*
X151052571Y-143426142D01*
X151052571Y-143283285D01*
X151081142Y-143226142D01*
X151109714Y-143197571D01*
X151166857Y-143169000D01*
X151281142Y-143169000D01*
X151338285Y-143197571D01*
X151366857Y-143226142D01*
X151395428Y-143283285D01*
%TO.C,R5*%
X147560000Y-145064428D02*
X147760000Y-144778714D01*
X147902857Y-145064428D02*
X147902857Y-144464428D01*
X147674285Y-144464428D01*
X147617142Y-144493000D01*
X147588571Y-144521571D01*
X147560000Y-144578714D01*
X147560000Y-144664428D01*
X147588571Y-144721571D01*
X147617142Y-144750142D01*
X147674285Y-144778714D01*
X147902857Y-144778714D01*
X147017142Y-144464428D02*
X147302857Y-144464428D01*
X147331428Y-144750142D01*
X147302857Y-144721571D01*
X147245714Y-144693000D01*
X147102857Y-144693000D01*
X147045714Y-144721571D01*
X147017142Y-144750142D01*
X146988571Y-144807285D01*
X146988571Y-144950142D01*
X147017142Y-145007285D01*
X147045714Y-145035857D01*
X147102857Y-145064428D01*
X147245714Y-145064428D01*
X147302857Y-145035857D01*
X147331428Y-145007285D01*
%TO.C,R4*%
X155449000Y-153738428D02*
X155649000Y-153452714D01*
X155791857Y-153738428D02*
X155791857Y-153138428D01*
X155563285Y-153138428D01*
X155506142Y-153167000D01*
X155477571Y-153195571D01*
X155449000Y-153252714D01*
X155449000Y-153338428D01*
X155477571Y-153395571D01*
X155506142Y-153424142D01*
X155563285Y-153452714D01*
X155791857Y-153452714D01*
X154934714Y-153338428D02*
X154934714Y-153738428D01*
X155077571Y-153109857D02*
X155220428Y-153538428D01*
X154849000Y-153538428D01*
%TO.C,R3*%
X152386000Y-156621428D02*
X152586000Y-156335714D01*
X152728857Y-156621428D02*
X152728857Y-156021428D01*
X152500285Y-156021428D01*
X152443142Y-156050000D01*
X152414571Y-156078571D01*
X152386000Y-156135714D01*
X152386000Y-156221428D01*
X152414571Y-156278571D01*
X152443142Y-156307142D01*
X152500285Y-156335714D01*
X152728857Y-156335714D01*
X152186000Y-156021428D02*
X151814571Y-156021428D01*
X152014571Y-156250000D01*
X151928857Y-156250000D01*
X151871714Y-156278571D01*
X151843142Y-156307142D01*
X151814571Y-156364285D01*
X151814571Y-156507142D01*
X151843142Y-156564285D01*
X151871714Y-156592857D01*
X151928857Y-156621428D01*
X152100285Y-156621428D01*
X152157428Y-156592857D01*
X152186000Y-156564285D01*
%TO.C,R1*%
X145401000Y-155097428D02*
X145601000Y-154811714D01*
X145743857Y-155097428D02*
X145743857Y-154497428D01*
X145515285Y-154497428D01*
X145458142Y-154526000D01*
X145429571Y-154554571D01*
X145401000Y-154611714D01*
X145401000Y-154697428D01*
X145429571Y-154754571D01*
X145458142Y-154783142D01*
X145515285Y-154811714D01*
X145743857Y-154811714D01*
X144829571Y-155097428D02*
X145172428Y-155097428D01*
X145001000Y-155097428D02*
X145001000Y-154497428D01*
X145058142Y-154583142D01*
X145115285Y-154640285D01*
X145172428Y-154668857D01*
%TO.C,C6*%
X154926000Y-147040285D02*
X154954571Y-147068857D01*
X155040285Y-147097428D01*
X155097428Y-147097428D01*
X155183142Y-147068857D01*
X155240285Y-147011714D01*
X155268857Y-146954571D01*
X155297428Y-146840285D01*
X155297428Y-146754571D01*
X155268857Y-146640285D01*
X155240285Y-146583142D01*
X155183142Y-146526000D01*
X155097428Y-146497428D01*
X155040285Y-146497428D01*
X154954571Y-146526000D01*
X154926000Y-146554571D01*
X154411714Y-146497428D02*
X154526000Y-146497428D01*
X154583142Y-146526000D01*
X154611714Y-146554571D01*
X154668857Y-146640285D01*
X154697428Y-146754571D01*
X154697428Y-146983142D01*
X154668857Y-147040285D01*
X154640285Y-147068857D01*
X154583142Y-147097428D01*
X154468857Y-147097428D01*
X154411714Y-147068857D01*
X154383142Y-147040285D01*
X154354571Y-146983142D01*
X154354571Y-146840285D01*
X154383142Y-146783142D01*
X154411714Y-146754571D01*
X154468857Y-146726000D01*
X154583142Y-146726000D01*
X154640285Y-146754571D01*
X154668857Y-146783142D01*
X154697428Y-146840285D01*
%TO.C,C5*%
X147560000Y-146213785D02*
X147588571Y-146242357D01*
X147674285Y-146270928D01*
X147731428Y-146270928D01*
X147817142Y-146242357D01*
X147874285Y-146185214D01*
X147902857Y-146128071D01*
X147931428Y-146013785D01*
X147931428Y-145928071D01*
X147902857Y-145813785D01*
X147874285Y-145756642D01*
X147817142Y-145699500D01*
X147731428Y-145670928D01*
X147674285Y-145670928D01*
X147588571Y-145699500D01*
X147560000Y-145728071D01*
X147017142Y-145670928D02*
X147302857Y-145670928D01*
X147331428Y-145956642D01*
X147302857Y-145928071D01*
X147245714Y-145899500D01*
X147102857Y-145899500D01*
X147045714Y-145928071D01*
X147017142Y-145956642D01*
X146988571Y-146013785D01*
X146988571Y-146156642D01*
X147017142Y-146213785D01*
X147045714Y-146242357D01*
X147102857Y-146270928D01*
X147245714Y-146270928D01*
X147302857Y-146242357D01*
X147331428Y-146213785D01*
%TO.C,C4*%
X146544000Y-148690285D02*
X146572571Y-148718857D01*
X146658285Y-148747428D01*
X146715428Y-148747428D01*
X146801142Y-148718857D01*
X146858285Y-148661714D01*
X146886857Y-148604571D01*
X146915428Y-148490285D01*
X146915428Y-148404571D01*
X146886857Y-148290285D01*
X146858285Y-148233142D01*
X146801142Y-148176000D01*
X146715428Y-148147428D01*
X146658285Y-148147428D01*
X146572571Y-148176000D01*
X146544000Y-148204571D01*
X146029714Y-148347428D02*
X146029714Y-148747428D01*
X146172571Y-148118857D02*
X146315428Y-148547428D01*
X145944000Y-148547428D01*
%TO.C,C3*%
X153402000Y-147040285D02*
X153430571Y-147068857D01*
X153516285Y-147097428D01*
X153573428Y-147097428D01*
X153659142Y-147068857D01*
X153716285Y-147011714D01*
X153744857Y-146954571D01*
X153773428Y-146840285D01*
X153773428Y-146754571D01*
X153744857Y-146640285D01*
X153716285Y-146583142D01*
X153659142Y-146526000D01*
X153573428Y-146497428D01*
X153516285Y-146497428D01*
X153430571Y-146526000D01*
X153402000Y-146554571D01*
X153202000Y-146497428D02*
X152830571Y-146497428D01*
X153030571Y-146726000D01*
X152944857Y-146726000D01*
X152887714Y-146754571D01*
X152859142Y-146783142D01*
X152830571Y-146840285D01*
X152830571Y-146983142D01*
X152859142Y-147040285D01*
X152887714Y-147068857D01*
X152944857Y-147097428D01*
X153116285Y-147097428D01*
X153173428Y-147068857D01*
X153202000Y-147040285D01*
%TO.C,C2*%
X153275000Y-155294285D02*
X153303571Y-155322857D01*
X153389285Y-155351428D01*
X153446428Y-155351428D01*
X153532142Y-155322857D01*
X153589285Y-155265714D01*
X153617857Y-155208571D01*
X153646428Y-155094285D01*
X153646428Y-155008571D01*
X153617857Y-154894285D01*
X153589285Y-154837142D01*
X153532142Y-154780000D01*
X153446428Y-154751428D01*
X153389285Y-154751428D01*
X153303571Y-154780000D01*
X153275000Y-154808571D01*
X153046428Y-154808571D02*
X153017857Y-154780000D01*
X152960714Y-154751428D01*
X152817857Y-154751428D01*
X152760714Y-154780000D01*
X152732142Y-154808571D01*
X152703571Y-154865714D01*
X152703571Y-154922857D01*
X152732142Y-155008571D01*
X153075000Y-155351428D01*
X152703571Y-155351428D01*
%TO.C,C1*%
X146988500Y-156246785D02*
X147017071Y-156275357D01*
X147102785Y-156303928D01*
X147159928Y-156303928D01*
X147245642Y-156275357D01*
X147302785Y-156218214D01*
X147331357Y-156161071D01*
X147359928Y-156046785D01*
X147359928Y-155961071D01*
X147331357Y-155846785D01*
X147302785Y-155789642D01*
X147245642Y-155732500D01*
X147159928Y-155703928D01*
X147102785Y-155703928D01*
X147017071Y-155732500D01*
X146988500Y-155761071D01*
X146417071Y-156303928D02*
X146759928Y-156303928D01*
X146588500Y-156303928D02*
X146588500Y-155703928D01*
X146645642Y-155789642D01*
X146702785Y-155846785D01*
X146759928Y-155875357D01*
%TD*%
M02*
