%TF.GenerationSoftware,KiCad,Pcbnew,(5.1.8-0-10_14)*%
%TF.CreationDate,2021-04-23T14:11:37-04:00*%
%TF.ProjectId,Custom_Piezo_Sensor_PCB,43757374-6f6d-45f5-9069-657a6f5f5365,rev?*%
%TF.SameCoordinates,Original*%
%TF.FileFunction,Legend,Top*%
%TF.FilePolarity,Positive*%
%FSLAX46Y46*%
G04 Gerber Fmt 4.6, Leading zero omitted, Abs format (unit mm)*
G04 Created by KiCad (PCBNEW (5.1.8-0-10_14)) date 2021-04-23 14:11:37*
%MOMM*%
%LPD*%
G01*
G04 APERTURE LIST*
%ADD10C,0.120000*%
%ADD11C,0.150000*%
G04 APERTURE END LIST*
D10*
%TO.C,D1*%
X149000000Y-158199000D02*
X151685000Y-158199000D01*
X151685000Y-158199000D02*
X151685000Y-156279000D01*
X151685000Y-156279000D02*
X149000000Y-156279000D01*
%TO.C,J2*%
X141730800Y-147000000D02*
X146500800Y-147000000D01*
X146500800Y-147000000D02*
X146500800Y-153000000D01*
X141730800Y-147000000D02*
X141730800Y-153000000D01*
X141730800Y-153000000D02*
X146500800Y-153000000D01*
%TO.C,J1*%
X148000000Y-143077000D02*
X148000000Y-147847000D01*
X152000000Y-143077000D02*
X148000000Y-143077000D01*
X152000000Y-147847000D02*
X148000000Y-147847000D01*
X152000000Y-143077000D02*
X152000000Y-147847000D01*
%TO.C,VR1*%
X153592000Y-152250000D02*
X158092000Y-152250000D01*
X153592000Y-152250000D02*
X153592000Y-151400000D01*
X158092000Y-147750000D02*
X153592000Y-147750000D01*
X153592000Y-147750000D02*
X153592000Y-148600000D01*
%TO.C,SW1*%
X153050800Y-155538000D02*
X153050800Y-153098000D01*
X147050800Y-155538000D02*
X153050800Y-155538000D01*
X147050800Y-153098000D02*
X153050800Y-153098000D01*
X147050800Y-153098000D02*
X147050800Y-155538000D01*
%TO.C,D1*%
D11*
X151436742Y-157916828D02*
X151436742Y-157316828D01*
X151579600Y-157316828D01*
X151665314Y-157345400D01*
X151722457Y-157402542D01*
X151751028Y-157459685D01*
X151779600Y-157573971D01*
X151779600Y-157659685D01*
X151751028Y-157773971D01*
X151722457Y-157831114D01*
X151665314Y-157888257D01*
X151579600Y-157916828D01*
X151436742Y-157916828D01*
X152351028Y-157916828D02*
X152008171Y-157916828D01*
X152179600Y-157916828D02*
X152179600Y-157316828D01*
X152122457Y-157402542D01*
X152065314Y-157459685D01*
X152008171Y-157488257D01*
%TO.C,J2*%
X143500800Y-149722228D02*
X143500800Y-150150800D01*
X143472228Y-150236514D01*
X143415085Y-150293657D01*
X143329371Y-150322228D01*
X143272228Y-150322228D01*
X143757942Y-149779371D02*
X143786514Y-149750800D01*
X143843657Y-149722228D01*
X143986514Y-149722228D01*
X144043657Y-149750800D01*
X144072228Y-149779371D01*
X144100800Y-149836514D01*
X144100800Y-149893657D01*
X144072228Y-149979371D01*
X143729371Y-150322228D01*
X144100800Y-150322228D01*
%TO.C,J1*%
X149800000Y-145435228D02*
X149800000Y-145863800D01*
X149771428Y-145949514D01*
X149714285Y-146006657D01*
X149628571Y-146035228D01*
X149571428Y-146035228D01*
X150400000Y-146035228D02*
X150057142Y-146035228D01*
X150228571Y-146035228D02*
X150228571Y-145435228D01*
X150171428Y-145520942D01*
X150114285Y-145578085D01*
X150057142Y-145606657D01*
%TO.C,VR1*%
X155208685Y-149671428D02*
X155408685Y-150271428D01*
X155608685Y-149671428D01*
X156151542Y-150271428D02*
X155951542Y-149985714D01*
X155808685Y-150271428D02*
X155808685Y-149671428D01*
X156037257Y-149671428D01*
X156094400Y-149700000D01*
X156122971Y-149728571D01*
X156151542Y-149785714D01*
X156151542Y-149871428D01*
X156122971Y-149928571D01*
X156094400Y-149957142D01*
X156037257Y-149985714D01*
X155808685Y-149985714D01*
X156722971Y-150271428D02*
X156380114Y-150271428D01*
X156551542Y-150271428D02*
X156551542Y-149671428D01*
X156494400Y-149757142D01*
X156437257Y-149814285D01*
X156380114Y-149842857D01*
%TO.C,SW1*%
X149250800Y-154662457D02*
X149336514Y-154691028D01*
X149479371Y-154691028D01*
X149536514Y-154662457D01*
X149565085Y-154633885D01*
X149593657Y-154576742D01*
X149593657Y-154519600D01*
X149565085Y-154462457D01*
X149536514Y-154433885D01*
X149479371Y-154405314D01*
X149365085Y-154376742D01*
X149307942Y-154348171D01*
X149279371Y-154319600D01*
X149250800Y-154262457D01*
X149250800Y-154205314D01*
X149279371Y-154148171D01*
X149307942Y-154119600D01*
X149365085Y-154091028D01*
X149507942Y-154091028D01*
X149593657Y-154119600D01*
X149793657Y-154091028D02*
X149936514Y-154691028D01*
X150050800Y-154262457D01*
X150165085Y-154691028D01*
X150307942Y-154091028D01*
X150850800Y-154691028D02*
X150507942Y-154691028D01*
X150679371Y-154691028D02*
X150679371Y-154091028D01*
X150622228Y-154176742D01*
X150565085Y-154233885D01*
X150507942Y-154262457D01*
%TD*%
M02*
