%TF.GenerationSoftware,KiCad,Pcbnew,(5.1.8-0-10_14)*%
%TF.CreationDate,2021-04-23T14:11:37-04:00*%
%TF.ProjectId,Custom_Piezo_Sensor_PCB,43757374-6f6d-45f5-9069-657a6f5f5365,rev?*%
%TF.SameCoordinates,Original*%
%TF.FileFunction,Copper,L4,Bot*%
%TF.FilePolarity,Positive*%
%FSLAX46Y46*%
G04 Gerber Fmt 4.6, Leading zero omitted, Abs format (unit mm)*
G04 Created by KiCad (PCBNEW (5.1.8-0-10_14)) date 2021-04-23 14:11:37*
%MOMM*%
%LPD*%
G01*
G04 APERTURE LIST*
%TA.AperFunction,SMDPad,CuDef*%
%ADD10R,0.600000X0.800000*%
%TD*%
%TA.AperFunction,SMDPad,CuDef*%
%ADD11R,0.609600X1.549400*%
%TD*%
%TA.AperFunction,SMDPad,CuDef*%
%ADD12R,0.800000X0.600000*%
%TD*%
%TA.AperFunction,ViaPad*%
%ADD13C,0.685000*%
%TD*%
%TA.AperFunction,Conductor*%
%ADD14C,0.200000*%
%TD*%
%TA.AperFunction,Conductor*%
%ADD15C,0.380000*%
%TD*%
G04 APERTURE END LIST*
D10*
%TO.P,R7,1*%
%TO.N,Net-(J2-Pad3)*%
X152983000Y-145428000D03*
%TO.P,R7,2*%
%TO.N,+10V*%
X154383000Y-145428000D03*
%TD*%
%TO.P,R2,2*%
%TO.N,+10V*%
X154764000Y-150635000D03*
%TO.P,R2,1*%
%TO.N,Net-(D1-Pad2)*%
X153364000Y-150635000D03*
%TD*%
D11*
%TO.P,U1,7*%
%TO.N,Net-(C5-Pad1)*%
X150584200Y-147599700D03*
%TO.P,U1,8*%
%TO.N,+10V*%
X151854200Y-147599700D03*
%TO.P,U1,6*%
%TO.N,Net-(C5-Pad2)*%
X149314200Y-147599700D03*
%TO.P,U1,5*%
%TO.N,+5V*%
X148044200Y-147599700D03*
%TO.P,U1,1*%
%TO.N,Net-(C2-Pad1)*%
X151854200Y-153009900D03*
%TO.P,U1,2*%
%TO.N,Net-(C1-Pad2)*%
X150584200Y-153009900D03*
%TO.P,U1,3*%
%TO.N,+5V*%
X149314200Y-153009900D03*
%TO.P,U1,4*%
%TO.N,GND*%
X148044200Y-153009900D03*
%TD*%
D12*
%TO.P,R6,1*%
%TO.N,Net-(J2-Pad3)*%
X151524000Y-144220000D03*
%TO.P,R6,2*%
%TO.N,Net-(C5-Pad1)*%
X151524000Y-145620000D03*
%TD*%
D10*
%TO.P,R5,1*%
%TO.N,Net-(J2-Pad3)*%
X150065000Y-144031000D03*
%TO.P,R5,2*%
%TO.N,Net-(R5-Pad2)*%
X148665000Y-144031000D03*
%TD*%
D12*
%TO.P,R4,1*%
%TO.N,Net-(C5-Pad2)*%
X153937000Y-152221000D03*
%TO.P,R4,2*%
%TO.N,Net-(C2-Pad1)*%
X153937000Y-153621000D03*
%TD*%
D10*
%TO.P,R3,1*%
%TO.N,Net-(C2-Pad1)*%
X151081000Y-156350000D03*
%TO.P,R3,2*%
%TO.N,Net-(C1-Pad2)*%
X149681000Y-156350000D03*
%TD*%
D12*
%TO.P,R1,1*%
%TO.N,Net-(C1-Pad2)*%
X146634500Y-154764000D03*
%TO.P,R1,2*%
%TO.N,Net-(J1-Pad1)*%
X146634500Y-153364000D03*
%TD*%
%TO.P,C6,1*%
%TO.N,+10V*%
X154826000Y-147776000D03*
%TO.P,C6,2*%
%TO.N,GND*%
X154826000Y-149176000D03*
%TD*%
D10*
%TO.P,C5,1*%
%TO.N,Net-(C5-Pad1)*%
X150065000Y-145618500D03*
%TO.P,C5,2*%
%TO.N,Net-(C5-Pad2)*%
X148665000Y-145618500D03*
%TD*%
D12*
%TO.P,C4,1*%
%TO.N,GND*%
X146698000Y-150889000D03*
%TO.P,C4,2*%
%TO.N,+5V*%
X146698000Y-149489000D03*
%TD*%
%TO.P,C3,1*%
%TO.N,GND*%
X153302000Y-149176000D03*
%TO.P,C3,2*%
%TO.N,+10V*%
X153302000Y-147776000D03*
%TD*%
D10*
%TO.P,C2,1*%
%TO.N,Net-(C2-Pad1)*%
X151970000Y-154826000D03*
%TO.P,C2,2*%
%TO.N,Net-(C1-Pad2)*%
X150570000Y-154826000D03*
%TD*%
D12*
%TO.P,C1,1*%
%TO.N,Net-(C1-Pad1)*%
X148222000Y-154634000D03*
%TO.P,C1,2*%
%TO.N,Net-(C1-Pad2)*%
X148222000Y-156034000D03*
%TD*%
D13*
%TO.N,Net-(C1-Pad1)*%
X149492000Y-154826000D03*
%TO.N,Net-(C2-Pad1)*%
X153556000Y-155969000D03*
%TO.N,GND*%
X144666000Y-151524000D03*
X151905000Y-157239000D03*
X150381000Y-150000000D03*
%TO.N,+10V*%
X144666000Y-148476000D03*
X155969000Y-148857000D03*
%TO.N,+5V*%
X144666000Y-149492000D03*
%TO.N,Net-(C5-Pad2)*%
X156096000Y-151778000D03*
%TO.N,Net-(D1-Pad2)*%
X151778000Y-150635000D03*
%TO.N,Net-(J1-Pad1)*%
X144813168Y-153145500D03*
%TO.N,Net-(J2-Pad3)*%
X144656044Y-150498044D03*
X153810000Y-144158000D03*
%TO.N,Net-(R5-Pad2)*%
X146317000Y-144412000D03*
%TD*%
D14*
%TO.N,Net-(C1-Pad1)*%
X149300000Y-154634000D02*
X149492000Y-154826000D01*
X148222000Y-154634000D02*
X149300000Y-154634000D01*
%TO.N,Net-(C1-Pad2)*%
X148222000Y-156034000D02*
X148222000Y-156159500D01*
X150584200Y-154811800D02*
X150570000Y-154826000D01*
X149681000Y-156350000D02*
X149746000Y-156350000D01*
X150570000Y-155526000D02*
X150570000Y-154826000D01*
X149746000Y-156350000D02*
X150570000Y-155526000D01*
X150570000Y-153024100D02*
X150584200Y-153009900D01*
X150570000Y-154826000D02*
X150570000Y-153024100D01*
X149681000Y-156350000D02*
X149365000Y-156350000D01*
X149049000Y-156034000D02*
X148222000Y-156034000D01*
X149365000Y-156350000D02*
X149049000Y-156034000D01*
X148222000Y-156034000D02*
X147017000Y-156034000D01*
X146634500Y-155651500D02*
X146634500Y-154764000D01*
X147017000Y-156034000D02*
X146634500Y-155651500D01*
%TO.N,Net-(C2-Pad1)*%
X151854200Y-154710200D02*
X151970000Y-154826000D01*
X151081000Y-156350000D02*
X151081000Y-156285000D01*
X151970000Y-155396000D02*
X151970000Y-154826000D01*
X151081000Y-156285000D02*
X151970000Y-155396000D01*
X151970000Y-153125700D02*
X151854200Y-153009900D01*
X151970000Y-154826000D02*
X151970000Y-153125700D01*
X153937000Y-153621000D02*
X153240000Y-153621000D01*
X152628900Y-153009900D02*
X151854200Y-153009900D01*
X153240000Y-153621000D02*
X152628900Y-153009900D01*
X153937000Y-153621000D02*
X153937000Y-155588000D01*
X153937000Y-155588000D02*
X153556000Y-155969000D01*
D15*
%TO.N,GND*%
X154826000Y-149176000D02*
X153302000Y-149176000D01*
X148044200Y-153009900D02*
X147675900Y-153009900D01*
X146698000Y-152032000D02*
X146698000Y-150889000D01*
X147675900Y-153009900D02*
X146698000Y-152032000D01*
X144666000Y-151524000D02*
X145301000Y-150889000D01*
X145301000Y-150889000D02*
X146698000Y-150889000D01*
X151205000Y-149176000D02*
X150381000Y-150000000D01*
X153302000Y-149176000D02*
X151205000Y-149176000D01*
%TO.N,+10V*%
X153125700Y-147599700D02*
X153302000Y-147776000D01*
X151854200Y-147599700D02*
X153125700Y-147599700D01*
X153302000Y-147776000D02*
X154826000Y-147776000D01*
X154383000Y-145428000D02*
X154383000Y-146509000D01*
X154826000Y-146952000D02*
X154826000Y-147776000D01*
X154383000Y-146509000D02*
X154826000Y-146952000D01*
X154826000Y-147776000D02*
X155523000Y-147776000D01*
X155523000Y-147776000D02*
X155969000Y-148222000D01*
X155969000Y-148222000D02*
X155969000Y-148857000D01*
X155715000Y-150635000D02*
X154764000Y-150635000D01*
X155969000Y-150381000D02*
X155715000Y-150635000D01*
X155969000Y-148857000D02*
X155969000Y-150381000D01*
%TO.N,+5V*%
X146695000Y-149492000D02*
X146698000Y-149489000D01*
X149314200Y-151346200D02*
X149314200Y-153009900D01*
X148044200Y-150076200D02*
X149314200Y-151346200D01*
X146698000Y-149489000D02*
X147971000Y-149489000D01*
X147971000Y-149489000D02*
X148044200Y-149415800D01*
X148044200Y-149415800D02*
X148044200Y-150076200D01*
X148044200Y-147599700D02*
X148044200Y-149415800D01*
X144669000Y-149489000D02*
X144666000Y-149492000D01*
X146698000Y-149489000D02*
X144669000Y-149489000D01*
D14*
%TO.N,Net-(C5-Pad2)*%
X148665000Y-145618500D02*
X148665000Y-145680500D01*
X153937000Y-152286000D02*
X153937000Y-152221000D01*
X149314200Y-147599700D02*
X149314200Y-147028200D01*
X148665000Y-146379000D02*
X148665000Y-145618500D01*
X149314200Y-147028200D02*
X148665000Y-146379000D01*
X153937000Y-152221000D02*
X153240000Y-151524000D01*
X153240000Y-151524000D02*
X150508000Y-151524000D01*
X149314200Y-150330200D02*
X149314200Y-147599700D01*
X150508000Y-151524000D02*
X149314200Y-150330200D01*
X155653000Y-152221000D02*
X156096000Y-151778000D01*
X153937000Y-152221000D02*
X155653000Y-152221000D01*
%TO.N,Net-(C5-Pad1)*%
X151522500Y-145618500D02*
X151524000Y-145620000D01*
X150584200Y-147599700D02*
X150584200Y-146647200D01*
X150065000Y-146128000D02*
X150065000Y-145618500D01*
X150584200Y-146647200D02*
X150065000Y-146128000D01*
X150066500Y-145620000D02*
X150065000Y-145618500D01*
X151524000Y-145620000D02*
X150066500Y-145620000D01*
%TO.N,Net-(D1-Pad2)*%
X153364000Y-150635000D02*
X151778000Y-150635000D01*
%TO.N,Net-(J1-Pad1)*%
X145031668Y-153364000D02*
X144813168Y-153145500D01*
X146634500Y-153364000D02*
X145031668Y-153364000D01*
%TO.N,Net-(J2-Pad3)*%
X150065000Y-144031000D02*
X150762000Y-144031000D01*
X150951000Y-144220000D02*
X151524000Y-144220000D01*
X150762000Y-144031000D02*
X150951000Y-144220000D01*
X152983000Y-144728000D02*
X152983000Y-145428000D01*
X153748000Y-144220000D02*
X153810000Y-144158000D01*
X152983000Y-144728000D02*
X152983000Y-144220000D01*
X152983000Y-144220000D02*
X153748000Y-144220000D01*
X151524000Y-144220000D02*
X152983000Y-144220000D01*
D15*
%TO.N,Net-(R5-Pad2)*%
X148538000Y-143904000D02*
X148665000Y-144031000D01*
D14*
X146698000Y-144031000D02*
X146317000Y-144412000D01*
X148665000Y-144031000D02*
X146698000Y-144031000D01*
%TD*%
M02*
