%TF.GenerationSoftware,KiCad,Pcbnew,(5.1.8-0-10_14)*%
%TF.CreationDate,2021-04-23T14:11:37-04:00*%
%TF.ProjectId,Custom_Piezo_Sensor_PCB,43757374-6f6d-45f5-9069-657a6f5f5365,rev?*%
%TF.SameCoordinates,Original*%
%TF.FileFunction,Copper,L3,Inr*%
%TF.FilePolarity,Positive*%
%FSLAX46Y46*%
G04 Gerber Fmt 4.6, Leading zero omitted, Abs format (unit mm)*
G04 Created by KiCad (PCBNEW (5.1.8-0-10_14)) date 2021-04-23 14:11:37*
%MOMM*%
%LPD*%
G01*
G04 APERTURE LIST*
%TA.AperFunction,ViaPad*%
%ADD10C,0.685000*%
%TD*%
%TA.AperFunction,Conductor*%
%ADD11C,0.380000*%
%TD*%
%TA.AperFunction,Conductor*%
%ADD12C,0.200000*%
%TD*%
%TA.AperFunction,Conductor*%
%ADD13C,0.254000*%
%TD*%
%TA.AperFunction,Conductor*%
%ADD14C,0.100000*%
%TD*%
G04 APERTURE END LIST*
D10*
%TO.N,Net-(C1-Pad1)*%
X149492000Y-154826000D03*
%TO.N,Net-(C2-Pad1)*%
X153556000Y-155969000D03*
%TO.N,GND*%
X144666000Y-151524000D03*
X151905000Y-157239000D03*
X150381000Y-150000000D03*
%TO.N,+10V*%
X144666000Y-148476000D03*
X155969000Y-148857000D03*
%TO.N,+5V*%
X144666000Y-149492000D03*
%TO.N,Net-(C5-Pad2)*%
X156096000Y-151778000D03*
%TO.N,Net-(D1-Pad2)*%
X151778000Y-150635000D03*
%TO.N,Net-(J1-Pad1)*%
X144813168Y-153145500D03*
%TO.N,Net-(J2-Pad3)*%
X144656044Y-150498044D03*
X153810000Y-144158000D03*
%TO.N,Net-(R5-Pad2)*%
X146317000Y-144412000D03*
%TD*%
D11*
%TO.N,+10V*%
X155588000Y-148476000D02*
X155969000Y-148857000D01*
X144666000Y-148476000D02*
X155588000Y-148476000D01*
D12*
%TO.N,Net-(J2-Pad3)*%
X152913499Y-145054501D02*
X146817499Y-145054501D01*
X153810000Y-144158000D02*
X152913499Y-145054501D01*
X146817499Y-145054501D02*
X143904000Y-147968000D01*
X143904000Y-149746000D02*
X144656044Y-150498044D01*
X143904000Y-147968000D02*
X143904000Y-149746000D01*
%TD*%
D13*
%TO.N,GND*%
X154924655Y-145158981D02*
X155571906Y-145920594D01*
X156105044Y-146771831D01*
X156431479Y-147484521D01*
X156437484Y-147504263D01*
X156498857Y-147618873D01*
X156581411Y-147719308D01*
X156681973Y-147801708D01*
X156796677Y-147862905D01*
X156921116Y-147900550D01*
X157018087Y-147910025D01*
X158969893Y-147908528D01*
X159118665Y-148579279D01*
X159225276Y-149749462D01*
X159182336Y-150923695D01*
X158989452Y-152089522D01*
X157025763Y-152087685D01*
X157035936Y-152063126D01*
X157073500Y-151874275D01*
X157073500Y-151681725D01*
X157035936Y-151492874D01*
X156962250Y-151314980D01*
X156855274Y-151154880D01*
X156719120Y-151018726D01*
X156559020Y-150911750D01*
X156381126Y-150838064D01*
X156192275Y-150800500D01*
X155999725Y-150800500D01*
X155810874Y-150838064D01*
X155632980Y-150911750D01*
X155472880Y-151018726D01*
X155336726Y-151154880D01*
X155229750Y-151314980D01*
X155156064Y-151492874D01*
X155118500Y-151681725D01*
X155118500Y-151874275D01*
X155156064Y-152063126D01*
X155229750Y-152241020D01*
X155336726Y-152401120D01*
X155472880Y-152537274D01*
X155632980Y-152644250D01*
X155810874Y-152717936D01*
X155999725Y-152755500D01*
X156192275Y-152755500D01*
X156329277Y-152728249D01*
X156004964Y-153410002D01*
X155449811Y-154241137D01*
X154780493Y-154983431D01*
X154325261Y-155360826D01*
X154315274Y-155345880D01*
X154179120Y-155209726D01*
X154019020Y-155102750D01*
X153841126Y-155029064D01*
X153652275Y-154991500D01*
X153459725Y-154991500D01*
X153270874Y-155029064D01*
X153092980Y-155102750D01*
X152932880Y-155209726D01*
X152796726Y-155345880D01*
X152689750Y-155505980D01*
X152616064Y-155683874D01*
X152578500Y-155872725D01*
X152578500Y-156065275D01*
X152616064Y-156254126D01*
X152662246Y-156365620D01*
X152517580Y-156430816D01*
X152496069Y-156437346D01*
X152381426Y-156498657D01*
X152280946Y-156581157D01*
X152198492Y-156681673D01*
X152137233Y-156796344D01*
X152099521Y-156920762D01*
X152089992Y-157017729D01*
X152090431Y-158972729D01*
X152009999Y-158990550D01*
X152009999Y-158717580D01*
X152000449Y-158620616D01*
X151962709Y-158496206D01*
X151901424Y-158381549D01*
X151818947Y-158281051D01*
X151718448Y-158198574D01*
X151603791Y-158137289D01*
X151479381Y-158099549D01*
X151349999Y-158086806D01*
X151289111Y-158092803D01*
X150167379Y-158190365D01*
X149067392Y-158139852D01*
X148798514Y-158104075D01*
X148789545Y-158101297D01*
X148660239Y-158087794D01*
X148530784Y-158099776D01*
X148406155Y-158136784D01*
X148291139Y-158197394D01*
X148190158Y-158279279D01*
X148107092Y-158379290D01*
X148045134Y-158493585D01*
X148006663Y-158617771D01*
X147996543Y-158714677D01*
X147994920Y-158990717D01*
X147910416Y-158973534D01*
X147911964Y-157009987D01*
X147902490Y-156913015D01*
X147864848Y-156788575D01*
X147803654Y-156673870D01*
X147721256Y-156573307D01*
X147671478Y-156532390D01*
X147671466Y-156532378D01*
X147671452Y-156532368D01*
X147620823Y-156490751D01*
X147506214Y-156429376D01*
X147491225Y-156424816D01*
X146591222Y-155996154D01*
X145761344Y-155441271D01*
X145020258Y-154772401D01*
X144984914Y-154729725D01*
X148514500Y-154729725D01*
X148514500Y-154922275D01*
X148552064Y-155111126D01*
X148625750Y-155289020D01*
X148732726Y-155449120D01*
X148868880Y-155585274D01*
X149028980Y-155692250D01*
X149206874Y-155765936D01*
X149395725Y-155803500D01*
X149588275Y-155803500D01*
X149777126Y-155765936D01*
X149955020Y-155692250D01*
X150115120Y-155585274D01*
X150251274Y-155449120D01*
X150358250Y-155289020D01*
X150431936Y-155111126D01*
X150469500Y-154922275D01*
X150469500Y-154729725D01*
X150431936Y-154540874D01*
X150358250Y-154362980D01*
X150251274Y-154202880D01*
X150115120Y-154066726D01*
X149955020Y-153959750D01*
X149777126Y-153886064D01*
X149588275Y-153848500D01*
X149395725Y-153848500D01*
X149206874Y-153886064D01*
X149028980Y-153959750D01*
X148868880Y-154066726D01*
X148732726Y-154202880D01*
X148625750Y-154362980D01*
X148552064Y-154540874D01*
X148514500Y-154729725D01*
X144984914Y-154729725D01*
X144411231Y-154037051D01*
X144528042Y-154085436D01*
X144716893Y-154123000D01*
X144909443Y-154123000D01*
X145098294Y-154085436D01*
X145276188Y-154011750D01*
X145436288Y-153904774D01*
X145572442Y-153768620D01*
X145679418Y-153608520D01*
X145753104Y-153430626D01*
X145790668Y-153241775D01*
X145790668Y-153049225D01*
X145753104Y-152860374D01*
X145679418Y-152682480D01*
X145572442Y-152522380D01*
X145436288Y-152386226D01*
X145276188Y-152279250D01*
X145098294Y-152205564D01*
X144909443Y-152168000D01*
X144716893Y-152168000D01*
X144528042Y-152205564D01*
X144350148Y-152279250D01*
X144190048Y-152386226D01*
X144053894Y-152522380D01*
X143946918Y-152682480D01*
X143873232Y-152860374D01*
X143835668Y-153049225D01*
X143835668Y-153112149D01*
X143767493Y-153029601D01*
X143666740Y-152947435D01*
X143551894Y-152886506D01*
X143427367Y-152849152D01*
X143330374Y-152839902D01*
X141239791Y-152846380D01*
X141025352Y-152150391D01*
X140824858Y-150992599D01*
X140773103Y-149818723D01*
X140870927Y-148647775D01*
X141118134Y-147492254D01*
X141227837Y-147159092D01*
X143326882Y-147155097D01*
X143423828Y-147145362D01*
X143548166Y-147107385D01*
X143662706Y-147045882D01*
X143763047Y-146963214D01*
X143845332Y-146862559D01*
X143865777Y-146824134D01*
X144405497Y-145951640D01*
X145048501Y-145186441D01*
X145436689Y-144841073D01*
X145450750Y-144875020D01*
X145557726Y-145035120D01*
X145677580Y-145154974D01*
X143409808Y-147422746D01*
X143381762Y-147445763D01*
X143289913Y-147557681D01*
X143221663Y-147685368D01*
X143201469Y-147751939D01*
X143179635Y-147823915D01*
X143165444Y-147968000D01*
X143169000Y-148004105D01*
X143169001Y-149709885D01*
X143165444Y-149746000D01*
X143179635Y-149890085D01*
X143212997Y-150000063D01*
X143221664Y-150028633D01*
X143289914Y-150156320D01*
X143381763Y-150268238D01*
X143409808Y-150291254D01*
X143678544Y-150559990D01*
X143678544Y-150594319D01*
X143716108Y-150783170D01*
X143789794Y-150961064D01*
X143896770Y-151121164D01*
X144032924Y-151257318D01*
X144193024Y-151364294D01*
X144370918Y-151437980D01*
X144559769Y-151475544D01*
X144752319Y-151475544D01*
X144941170Y-151437980D01*
X145119064Y-151364294D01*
X145279164Y-151257318D01*
X145415318Y-151121164D01*
X145522294Y-150961064D01*
X145595980Y-150783170D01*
X145633544Y-150594319D01*
X145633544Y-150538725D01*
X150800500Y-150538725D01*
X150800500Y-150731275D01*
X150838064Y-150920126D01*
X150911750Y-151098020D01*
X151018726Y-151258120D01*
X151154880Y-151394274D01*
X151314980Y-151501250D01*
X151492874Y-151574936D01*
X151681725Y-151612500D01*
X151874275Y-151612500D01*
X152063126Y-151574936D01*
X152241020Y-151501250D01*
X152401120Y-151394274D01*
X152537274Y-151258120D01*
X152644250Y-151098020D01*
X152717936Y-150920126D01*
X152755500Y-150731275D01*
X152755500Y-150538725D01*
X152717936Y-150349874D01*
X152644250Y-150171980D01*
X152537274Y-150011880D01*
X152401120Y-149875726D01*
X152241020Y-149768750D01*
X152063126Y-149695064D01*
X151874275Y-149657500D01*
X151681725Y-149657500D01*
X151492874Y-149695064D01*
X151314980Y-149768750D01*
X151154880Y-149875726D01*
X151018726Y-150011880D01*
X150911750Y-150171980D01*
X150838064Y-150349874D01*
X150800500Y-150538725D01*
X145633544Y-150538725D01*
X145633544Y-150401769D01*
X145595980Y-150212918D01*
X145522294Y-150035024D01*
X145500543Y-150002472D01*
X145532250Y-149955020D01*
X145605936Y-149777126D01*
X145643500Y-149588275D01*
X145643500Y-149395725D01*
X145624658Y-149301000D01*
X155094872Y-149301000D01*
X155102750Y-149320020D01*
X155209726Y-149480120D01*
X155345880Y-149616274D01*
X155505980Y-149723250D01*
X155683874Y-149796936D01*
X155872725Y-149834500D01*
X156065275Y-149834500D01*
X156254126Y-149796936D01*
X156432020Y-149723250D01*
X156592120Y-149616274D01*
X156728274Y-149480120D01*
X156835250Y-149320020D01*
X156908936Y-149142126D01*
X156946500Y-148953275D01*
X156946500Y-148760725D01*
X156908936Y-148571874D01*
X156835250Y-148393980D01*
X156728274Y-148233880D01*
X156592120Y-148097726D01*
X156432020Y-147990750D01*
X156254126Y-147917064D01*
X156185315Y-147903377D01*
X156174185Y-147889815D01*
X156048563Y-147786719D01*
X155905241Y-147710112D01*
X155749728Y-147662938D01*
X155628521Y-147651000D01*
X155628513Y-147651000D01*
X155588000Y-147647010D01*
X155547487Y-147651000D01*
X145260446Y-147651000D01*
X147121946Y-145789501D01*
X152877394Y-145789501D01*
X152913499Y-145793057D01*
X152949604Y-145789501D01*
X153057584Y-145778866D01*
X153196132Y-145736838D01*
X153323819Y-145668588D01*
X153435737Y-145576739D01*
X153458757Y-145548689D01*
X153871946Y-145135500D01*
X153906275Y-145135500D01*
X154095126Y-145097936D01*
X154273020Y-145024250D01*
X154433120Y-144917274D01*
X154534587Y-144815807D01*
X154924655Y-145158981D01*
%TA.AperFunction,Conductor*%
D14*
G36*
X154924655Y-145158981D02*
G01*
X155571906Y-145920594D01*
X156105044Y-146771831D01*
X156431479Y-147484521D01*
X156437484Y-147504263D01*
X156498857Y-147618873D01*
X156581411Y-147719308D01*
X156681973Y-147801708D01*
X156796677Y-147862905D01*
X156921116Y-147900550D01*
X157018087Y-147910025D01*
X158969893Y-147908528D01*
X159118665Y-148579279D01*
X159225276Y-149749462D01*
X159182336Y-150923695D01*
X158989452Y-152089522D01*
X157025763Y-152087685D01*
X157035936Y-152063126D01*
X157073500Y-151874275D01*
X157073500Y-151681725D01*
X157035936Y-151492874D01*
X156962250Y-151314980D01*
X156855274Y-151154880D01*
X156719120Y-151018726D01*
X156559020Y-150911750D01*
X156381126Y-150838064D01*
X156192275Y-150800500D01*
X155999725Y-150800500D01*
X155810874Y-150838064D01*
X155632980Y-150911750D01*
X155472880Y-151018726D01*
X155336726Y-151154880D01*
X155229750Y-151314980D01*
X155156064Y-151492874D01*
X155118500Y-151681725D01*
X155118500Y-151874275D01*
X155156064Y-152063126D01*
X155229750Y-152241020D01*
X155336726Y-152401120D01*
X155472880Y-152537274D01*
X155632980Y-152644250D01*
X155810874Y-152717936D01*
X155999725Y-152755500D01*
X156192275Y-152755500D01*
X156329277Y-152728249D01*
X156004964Y-153410002D01*
X155449811Y-154241137D01*
X154780493Y-154983431D01*
X154325261Y-155360826D01*
X154315274Y-155345880D01*
X154179120Y-155209726D01*
X154019020Y-155102750D01*
X153841126Y-155029064D01*
X153652275Y-154991500D01*
X153459725Y-154991500D01*
X153270874Y-155029064D01*
X153092980Y-155102750D01*
X152932880Y-155209726D01*
X152796726Y-155345880D01*
X152689750Y-155505980D01*
X152616064Y-155683874D01*
X152578500Y-155872725D01*
X152578500Y-156065275D01*
X152616064Y-156254126D01*
X152662246Y-156365620D01*
X152517580Y-156430816D01*
X152496069Y-156437346D01*
X152381426Y-156498657D01*
X152280946Y-156581157D01*
X152198492Y-156681673D01*
X152137233Y-156796344D01*
X152099521Y-156920762D01*
X152089992Y-157017729D01*
X152090431Y-158972729D01*
X152009999Y-158990550D01*
X152009999Y-158717580D01*
X152000449Y-158620616D01*
X151962709Y-158496206D01*
X151901424Y-158381549D01*
X151818947Y-158281051D01*
X151718448Y-158198574D01*
X151603791Y-158137289D01*
X151479381Y-158099549D01*
X151349999Y-158086806D01*
X151289111Y-158092803D01*
X150167379Y-158190365D01*
X149067392Y-158139852D01*
X148798514Y-158104075D01*
X148789545Y-158101297D01*
X148660239Y-158087794D01*
X148530784Y-158099776D01*
X148406155Y-158136784D01*
X148291139Y-158197394D01*
X148190158Y-158279279D01*
X148107092Y-158379290D01*
X148045134Y-158493585D01*
X148006663Y-158617771D01*
X147996543Y-158714677D01*
X147994920Y-158990717D01*
X147910416Y-158973534D01*
X147911964Y-157009987D01*
X147902490Y-156913015D01*
X147864848Y-156788575D01*
X147803654Y-156673870D01*
X147721256Y-156573307D01*
X147671478Y-156532390D01*
X147671466Y-156532378D01*
X147671452Y-156532368D01*
X147620823Y-156490751D01*
X147506214Y-156429376D01*
X147491225Y-156424816D01*
X146591222Y-155996154D01*
X145761344Y-155441271D01*
X145020258Y-154772401D01*
X144984914Y-154729725D01*
X148514500Y-154729725D01*
X148514500Y-154922275D01*
X148552064Y-155111126D01*
X148625750Y-155289020D01*
X148732726Y-155449120D01*
X148868880Y-155585274D01*
X149028980Y-155692250D01*
X149206874Y-155765936D01*
X149395725Y-155803500D01*
X149588275Y-155803500D01*
X149777126Y-155765936D01*
X149955020Y-155692250D01*
X150115120Y-155585274D01*
X150251274Y-155449120D01*
X150358250Y-155289020D01*
X150431936Y-155111126D01*
X150469500Y-154922275D01*
X150469500Y-154729725D01*
X150431936Y-154540874D01*
X150358250Y-154362980D01*
X150251274Y-154202880D01*
X150115120Y-154066726D01*
X149955020Y-153959750D01*
X149777126Y-153886064D01*
X149588275Y-153848500D01*
X149395725Y-153848500D01*
X149206874Y-153886064D01*
X149028980Y-153959750D01*
X148868880Y-154066726D01*
X148732726Y-154202880D01*
X148625750Y-154362980D01*
X148552064Y-154540874D01*
X148514500Y-154729725D01*
X144984914Y-154729725D01*
X144411231Y-154037051D01*
X144528042Y-154085436D01*
X144716893Y-154123000D01*
X144909443Y-154123000D01*
X145098294Y-154085436D01*
X145276188Y-154011750D01*
X145436288Y-153904774D01*
X145572442Y-153768620D01*
X145679418Y-153608520D01*
X145753104Y-153430626D01*
X145790668Y-153241775D01*
X145790668Y-153049225D01*
X145753104Y-152860374D01*
X145679418Y-152682480D01*
X145572442Y-152522380D01*
X145436288Y-152386226D01*
X145276188Y-152279250D01*
X145098294Y-152205564D01*
X144909443Y-152168000D01*
X144716893Y-152168000D01*
X144528042Y-152205564D01*
X144350148Y-152279250D01*
X144190048Y-152386226D01*
X144053894Y-152522380D01*
X143946918Y-152682480D01*
X143873232Y-152860374D01*
X143835668Y-153049225D01*
X143835668Y-153112149D01*
X143767493Y-153029601D01*
X143666740Y-152947435D01*
X143551894Y-152886506D01*
X143427367Y-152849152D01*
X143330374Y-152839902D01*
X141239791Y-152846380D01*
X141025352Y-152150391D01*
X140824858Y-150992599D01*
X140773103Y-149818723D01*
X140870927Y-148647775D01*
X141118134Y-147492254D01*
X141227837Y-147159092D01*
X143326882Y-147155097D01*
X143423828Y-147145362D01*
X143548166Y-147107385D01*
X143662706Y-147045882D01*
X143763047Y-146963214D01*
X143845332Y-146862559D01*
X143865777Y-146824134D01*
X144405497Y-145951640D01*
X145048501Y-145186441D01*
X145436689Y-144841073D01*
X145450750Y-144875020D01*
X145557726Y-145035120D01*
X145677580Y-145154974D01*
X143409808Y-147422746D01*
X143381762Y-147445763D01*
X143289913Y-147557681D01*
X143221663Y-147685368D01*
X143201469Y-147751939D01*
X143179635Y-147823915D01*
X143165444Y-147968000D01*
X143169000Y-148004105D01*
X143169001Y-149709885D01*
X143165444Y-149746000D01*
X143179635Y-149890085D01*
X143212997Y-150000063D01*
X143221664Y-150028633D01*
X143289914Y-150156320D01*
X143381763Y-150268238D01*
X143409808Y-150291254D01*
X143678544Y-150559990D01*
X143678544Y-150594319D01*
X143716108Y-150783170D01*
X143789794Y-150961064D01*
X143896770Y-151121164D01*
X144032924Y-151257318D01*
X144193024Y-151364294D01*
X144370918Y-151437980D01*
X144559769Y-151475544D01*
X144752319Y-151475544D01*
X144941170Y-151437980D01*
X145119064Y-151364294D01*
X145279164Y-151257318D01*
X145415318Y-151121164D01*
X145522294Y-150961064D01*
X145595980Y-150783170D01*
X145633544Y-150594319D01*
X145633544Y-150538725D01*
X150800500Y-150538725D01*
X150800500Y-150731275D01*
X150838064Y-150920126D01*
X150911750Y-151098020D01*
X151018726Y-151258120D01*
X151154880Y-151394274D01*
X151314980Y-151501250D01*
X151492874Y-151574936D01*
X151681725Y-151612500D01*
X151874275Y-151612500D01*
X152063126Y-151574936D01*
X152241020Y-151501250D01*
X152401120Y-151394274D01*
X152537274Y-151258120D01*
X152644250Y-151098020D01*
X152717936Y-150920126D01*
X152755500Y-150731275D01*
X152755500Y-150538725D01*
X152717936Y-150349874D01*
X152644250Y-150171980D01*
X152537274Y-150011880D01*
X152401120Y-149875726D01*
X152241020Y-149768750D01*
X152063126Y-149695064D01*
X151874275Y-149657500D01*
X151681725Y-149657500D01*
X151492874Y-149695064D01*
X151314980Y-149768750D01*
X151154880Y-149875726D01*
X151018726Y-150011880D01*
X150911750Y-150171980D01*
X150838064Y-150349874D01*
X150800500Y-150538725D01*
X145633544Y-150538725D01*
X145633544Y-150401769D01*
X145595980Y-150212918D01*
X145522294Y-150035024D01*
X145500543Y-150002472D01*
X145532250Y-149955020D01*
X145605936Y-149777126D01*
X145643500Y-149588275D01*
X145643500Y-149395725D01*
X145624658Y-149301000D01*
X155094872Y-149301000D01*
X155102750Y-149320020D01*
X155209726Y-149480120D01*
X155345880Y-149616274D01*
X155505980Y-149723250D01*
X155683874Y-149796936D01*
X155872725Y-149834500D01*
X156065275Y-149834500D01*
X156254126Y-149796936D01*
X156432020Y-149723250D01*
X156592120Y-149616274D01*
X156728274Y-149480120D01*
X156835250Y-149320020D01*
X156908936Y-149142126D01*
X156946500Y-148953275D01*
X156946500Y-148760725D01*
X156908936Y-148571874D01*
X156835250Y-148393980D01*
X156728274Y-148233880D01*
X156592120Y-148097726D01*
X156432020Y-147990750D01*
X156254126Y-147917064D01*
X156185315Y-147903377D01*
X156174185Y-147889815D01*
X156048563Y-147786719D01*
X155905241Y-147710112D01*
X155749728Y-147662938D01*
X155628521Y-147651000D01*
X155628513Y-147651000D01*
X155588000Y-147647010D01*
X155547487Y-147651000D01*
X145260446Y-147651000D01*
X147121946Y-145789501D01*
X152877394Y-145789501D01*
X152913499Y-145793057D01*
X152949604Y-145789501D01*
X153057584Y-145778866D01*
X153196132Y-145736838D01*
X153323819Y-145668588D01*
X153435737Y-145576739D01*
X153458757Y-145548689D01*
X153871946Y-145135500D01*
X153906275Y-145135500D01*
X154095126Y-145097936D01*
X154273020Y-145024250D01*
X154433120Y-144917274D01*
X154534587Y-144815807D01*
X154924655Y-145158981D01*
G37*
%TD.AperFunction*%
%TD*%
M02*
