%TF.GenerationSoftware,KiCad,Pcbnew,(5.1.8-0-10_14)*%
%TF.CreationDate,2021-04-23T13:19:29-04:00*%
%TF.ProjectId,Data Collection Shield for Chest Strap Assembly,44617461-2043-46f6-9c6c-656374696f6e,rev?*%
%TF.SameCoordinates,Original*%
%TF.FileFunction,Legend,Bot*%
%TF.FilePolarity,Positive*%
%FSLAX46Y46*%
G04 Gerber Fmt 4.6, Leading zero omitted, Abs format (unit mm)*
G04 Created by KiCad (PCBNEW (5.1.8-0-10_14)) date 2021-04-23 13:19:29*
%MOMM*%
%LPD*%
G01*
G04 APERTURE LIST*
%ADD10C,0.050000*%
%ADD11C,0.150000*%
G04 APERTURE END LIST*
D10*
%TO.C,C20*%
X139405000Y-75687000D02*
X141265000Y-75687000D01*
X139405000Y-71887000D02*
X141265000Y-71887000D01*
X141265000Y-75687000D02*
X141265000Y-71887000D01*
X139405000Y-75687000D02*
X139405000Y-71887000D01*
%TO.C,C21*%
X122260000Y-75560000D02*
X124120000Y-75560000D01*
X122260000Y-71760000D02*
X124120000Y-71760000D01*
X124120000Y-75560000D02*
X124120000Y-71760000D01*
X122260000Y-75560000D02*
X122260000Y-71760000D01*
%TO.C,C22*%
X155534000Y-75560000D02*
X157394000Y-75560000D01*
X155534000Y-71760000D02*
X157394000Y-71760000D01*
X157394000Y-75560000D02*
X157394000Y-71760000D01*
X155534000Y-75560000D02*
X155534000Y-71760000D01*
%TO.C,C20*%
D11*
X141054057Y-76802142D02*
X141101676Y-76849761D01*
X141244533Y-76897380D01*
X141339771Y-76897380D01*
X141482628Y-76849761D01*
X141577866Y-76754523D01*
X141625485Y-76659285D01*
X141673104Y-76468809D01*
X141673104Y-76325952D01*
X141625485Y-76135476D01*
X141577866Y-76040238D01*
X141482628Y-75945000D01*
X141339771Y-75897380D01*
X141244533Y-75897380D01*
X141101676Y-75945000D01*
X141054057Y-75992619D01*
X140673104Y-75992619D02*
X140625485Y-75945000D01*
X140530247Y-75897380D01*
X140292152Y-75897380D01*
X140196914Y-75945000D01*
X140149295Y-75992619D01*
X140101676Y-76087857D01*
X140101676Y-76183095D01*
X140149295Y-76325952D01*
X140720723Y-76897380D01*
X140101676Y-76897380D01*
X139482628Y-75897380D02*
X139387390Y-75897380D01*
X139292152Y-75945000D01*
X139244533Y-75992619D01*
X139196914Y-76087857D01*
X139149295Y-76278333D01*
X139149295Y-76516428D01*
X139196914Y-76706904D01*
X139244533Y-76802142D01*
X139292152Y-76849761D01*
X139387390Y-76897380D01*
X139482628Y-76897380D01*
X139577866Y-76849761D01*
X139625485Y-76802142D01*
X139673104Y-76706904D01*
X139720723Y-76516428D01*
X139720723Y-76278333D01*
X139673104Y-76087857D01*
X139625485Y-75992619D01*
X139577866Y-75945000D01*
X139482628Y-75897380D01*
%TO.C,C21*%
X124322057Y-71341142D02*
X124369676Y-71388761D01*
X124512533Y-71436380D01*
X124607771Y-71436380D01*
X124750628Y-71388761D01*
X124845866Y-71293523D01*
X124893485Y-71198285D01*
X124941104Y-71007809D01*
X124941104Y-70864952D01*
X124893485Y-70674476D01*
X124845866Y-70579238D01*
X124750628Y-70484000D01*
X124607771Y-70436380D01*
X124512533Y-70436380D01*
X124369676Y-70484000D01*
X124322057Y-70531619D01*
X123941104Y-70531619D02*
X123893485Y-70484000D01*
X123798247Y-70436380D01*
X123560152Y-70436380D01*
X123464914Y-70484000D01*
X123417295Y-70531619D01*
X123369676Y-70626857D01*
X123369676Y-70722095D01*
X123417295Y-70864952D01*
X123988723Y-71436380D01*
X123369676Y-71436380D01*
X122417295Y-71436380D02*
X122988723Y-71436380D01*
X122703009Y-71436380D02*
X122703009Y-70436380D01*
X122798247Y-70579238D01*
X122893485Y-70674476D01*
X122988723Y-70722095D01*
%TO.C,C22*%
X156598857Y-71341142D02*
X156646476Y-71388761D01*
X156789333Y-71436380D01*
X156884571Y-71436380D01*
X157027428Y-71388761D01*
X157122666Y-71293523D01*
X157170285Y-71198285D01*
X157217904Y-71007809D01*
X157217904Y-70864952D01*
X157170285Y-70674476D01*
X157122666Y-70579238D01*
X157027428Y-70484000D01*
X156884571Y-70436380D01*
X156789333Y-70436380D01*
X156646476Y-70484000D01*
X156598857Y-70531619D01*
X156217904Y-70531619D02*
X156170285Y-70484000D01*
X156075047Y-70436380D01*
X155836952Y-70436380D01*
X155741714Y-70484000D01*
X155694095Y-70531619D01*
X155646476Y-70626857D01*
X155646476Y-70722095D01*
X155694095Y-70864952D01*
X156265523Y-71436380D01*
X155646476Y-71436380D01*
X155265523Y-70531619D02*
X155217904Y-70484000D01*
X155122666Y-70436380D01*
X154884571Y-70436380D01*
X154789333Y-70484000D01*
X154741714Y-70531619D01*
X154694095Y-70626857D01*
X154694095Y-70722095D01*
X154741714Y-70864952D01*
X155313142Y-71436380D01*
X154694095Y-71436380D01*
%TD*%
M02*
