%TF.GenerationSoftware,KiCad,Pcbnew,(5.1.8-0-10_14)*%
%TF.CreationDate,2021-04-23T13:19:29-04:00*%
%TF.ProjectId,Data Collection Shield for Chest Strap Assembly,44617461-2043-46f6-9c6c-656374696f6e,rev?*%
%TF.SameCoordinates,Original*%
%TF.FileFunction,Soldermask,Bot*%
%TF.FilePolarity,Negative*%
%FSLAX46Y46*%
G04 Gerber Fmt 4.6, Leading zero omitted, Abs format (unit mm)*
G04 Created by KiCad (PCBNEW (5.1.8-0-10_14)) date 2021-04-23 13:19:29*
%MOMM*%
%LPD*%
G01*
G04 APERTURE LIST*
%ADD10C,1.524000*%
%ADD11O,1.700000X1.700000*%
%ADD12R,1.700000X1.700000*%
%ADD13R,1.200000X1.200000*%
G04 APERTURE END LIST*
D10*
%TO.C,J1*%
X177926000Y-49981000D03*
X177926000Y-52721000D03*
X177926000Y-55461000D03*
X177926000Y-58201000D03*
X177926000Y-60941000D03*
X177926000Y-63681000D03*
X177926000Y-66421000D03*
X175086000Y-48449000D03*
X175086000Y-51189000D03*
X175086000Y-53929000D03*
X175086000Y-56669000D03*
X175086000Y-59409000D03*
X175086000Y-62149000D03*
X175086000Y-64889000D03*
X175086000Y-67629000D03*
%TD*%
%TO.C,U3*%
X104316000Y-138684000D03*
X104316000Y-136144000D03*
X104316000Y-133604000D03*
X104316000Y-125984000D03*
X104316000Y-123444000D03*
%TD*%
D11*
%TO.C,U8*%
X111252000Y-143510000D03*
X113792000Y-143510000D03*
X116332000Y-143510000D03*
X118872000Y-143510000D03*
X121412000Y-143510000D03*
X123952000Y-143510000D03*
X126492000Y-143510000D03*
X129032000Y-143510000D03*
X131572000Y-143510000D03*
X134112000Y-143510000D03*
X136652000Y-143510000D03*
X139192000Y-143510000D03*
X141732000Y-143510000D03*
X144272000Y-143510000D03*
X146812000Y-143510000D03*
X149352000Y-143510000D03*
X151892000Y-143510000D03*
X154432000Y-143510000D03*
X156972000Y-143510000D03*
D12*
X159512000Y-143510000D03*
%TD*%
D13*
%TO.C,C20*%
X140335000Y-74837000D03*
X140335000Y-72737000D03*
%TD*%
%TO.C,C21*%
X123190000Y-74710000D03*
X123190000Y-72610000D03*
%TD*%
%TO.C,C22*%
X156464000Y-74710000D03*
X156464000Y-72610000D03*
%TD*%
D11*
%TO.C,U10*%
X111252000Y-81280000D03*
X113792000Y-81280000D03*
X116332000Y-81280000D03*
X118872000Y-81280000D03*
X121412000Y-81280000D03*
X123952000Y-81280000D03*
X126492000Y-81280000D03*
X129032000Y-81280000D03*
X131572000Y-81280000D03*
X134112000Y-81280000D03*
X136652000Y-81280000D03*
X139192000Y-81280000D03*
X141732000Y-81280000D03*
X144272000Y-81280000D03*
X146812000Y-81280000D03*
X149352000Y-81280000D03*
X151892000Y-81280000D03*
X154432000Y-81280000D03*
X156972000Y-81280000D03*
D12*
X159512000Y-81280000D03*
%TD*%
M02*
