M48
; DRILL file {KiCad (5.1.8-0-10_14)} date Friday, April 23, 2021 at 01:19:33 PM
; FORMAT={-:-/ absolute / inch / decimal}
; #@! TF.CreationDate,2021-04-23T13:19:33-04:00
; #@! TF.GenerationSoftware,Kicad,Pcbnew,(5.1.8-0-10_14)
; #@! TF.FileFunction,Plated,1,4,PTH
FMAT,2
INCH
T1C0.0150
T2C0.0157
T3C0.0300
T4C0.0394
%
G90
G05
T1
X4.095Y-3.695
X4.425Y-3.545
X4.475Y-2.37
X4.6682Y-2.4468
X4.748Y-3.0255
X5.04Y-2.355
X5.0425Y-2.8275
X5.3Y-2.365
X5.4032Y-2.4468
X5.423Y-3.0255
X5.61Y-2.125
X5.72Y-2.8275
X6.04Y-1.71
X6.0518Y-2.4468
X6.0555Y-3.0255
X6.275Y-3.38
X6.3475Y-2.8275
X6.62Y-1.71
X6.62Y-1.795
X6.7Y-2.135
X6.725Y-2.065
T2
X4.735Y-4.095
T3
X6.8931Y-1.9074
X6.8931Y-2.0153
X6.8931Y-2.1232
X6.8931Y-2.2311
X6.8931Y-2.3389
X6.8931Y-2.4468
X6.8931Y-2.5547
X6.8931Y-2.6626
X7.005Y-1.9678
X7.005Y-2.0756
X7.005Y-2.1835
X7.005Y-2.2914
X7.005Y-2.3993
X7.005Y-2.5071
X7.005Y-2.615
X4.1069Y-4.86
X4.1069Y-4.96
X4.1069Y-5.26
X4.1069Y-5.36
X4.1069Y-5.46
T4
X4.38Y-5.65
X4.48Y-5.65
X4.58Y-5.65
X4.68Y-5.65
X4.78Y-5.65
X4.88Y-5.65
X4.98Y-5.65
X5.08Y-5.65
X5.18Y-5.65
X5.28Y-5.65
X5.38Y-5.65
X5.48Y-5.65
X5.58Y-5.65
X5.68Y-5.65
X5.78Y-5.65
X5.88Y-5.65
X5.98Y-5.65
X6.08Y-5.65
X6.18Y-5.65
X6.28Y-5.65
X4.38Y-3.2
X4.48Y-3.2
X4.58Y-3.2
X4.68Y-3.2
X4.78Y-3.2
X4.88Y-3.2
X4.98Y-3.2
X5.08Y-3.2
X5.18Y-3.2
X5.28Y-3.2
X5.38Y-3.2
X5.48Y-3.2
X5.58Y-3.2
X5.68Y-3.2
X5.78Y-3.2
X5.88Y-3.2
X5.98Y-3.2
X6.08Y-3.2
X6.18Y-3.2
X6.28Y-3.2
T0
M30
